<?xml version="1.0" encoding="utf-8"?>
<!-- Generator: Adobe Illustrator 23.0.1, SVG Export Plug-In . SVG Version: 6.00 Build 0)  -->
<svg version="1.1" id="图层_1" xmlns="http://www.w3.org/2000/svg" xmlns:xlink="http://www.w3.org/1999/xlink" x="0px" y="0px"
	 viewBox="0 0 53 68" style="enable-background:new 0 0 53 68;" xml:space="preserve">
<style type="text/css">
	.st0{fill:#5B77A8;}
</style>
<g>
	<path class="st0" d="M28.5,20.73c0-0.05,0-0.09,0-0.14c-0.05-0.28-0.09-0.52-0.19-0.76c-0.09-0.24-0.24-0.43-0.38-0.66
		c-0.14-0.19-0.28-0.33-0.43-0.52c-0.19-0.19-0.43-0.43-0.76-0.62c-0.28-0.19-0.62-0.43-1.09-0.66c-0.33-0.19-0.57-0.33-0.76-0.43
		c-0.38-0.24-0.9-0.47-1.66-0.71c-0.81-0.24-1.57-0.28-2.23-0.14c-0.38,0.05-0.62,0.09-0.66,0.14c-0.19,0.05-0.28,0.09-0.52,0.19
		c-0.19,0.09-0.47,0.24-0.85,0.43c-0.33,0.19-0.71,0.43-1,0.66s-0.43,0.33-0.57,0.43c-0.05,0.05-0.14,0.09-0.24,0.19
		c-0.19,0.14-0.38,0.28-0.52,0.38c-0.28,0.19-0.62,0.47-1.09,1c-0.38,0.43-0.81,1-1.33,1.76c-0.57,0.85-0.9,1.47-1.09,1.99h0.05
		c-0.14,0.33-0.24,0.66-0.33,1.04c-0.05,0.09-0.05,0.19-0.05,0.28l-0.05,0.71c0,0.24,0.05,0.43,0.09,0.62
		c0,0.19-0.05,0.28-0.05,0.38c-0.05,0.19-0.05,0.33-0.09,0.47c-0.19,0.47-0.19,1,0.05,1.47c0.47,0.9,1.52,1.19,2.47,1.38
		c0.05,0,0.05,0,0.09,0c0.14,0.09,0.28,0.19,0.47,0.24c0.19,0.09,0.38,0.14,0.62,0.19c0.33,0.09,0.62,0.19,0.76,0.19
		c0.24,0.05,0.38,0.09,0.57,0.09h0.33c0.19,0,0.33,0,0.52,0c0.05,0,0.09,0,0.14,0c0.24,0,0.52,0,0.81-0.05c0.14,0,0.47,0,1.14,0
		c0.66,0,1.42-0.05,2.23-0.24c1-0.19,1.9-0.76,2.7-1.61c0.66-0.71,1.14-1.19,1.38-1.52c0.28-0.38,0.52-0.9,0.81-1.57
		c0.24-0.62,0.43-1.47,0.62-2.51C28.55,21.96,28.64,21.25,28.5,20.73z M12.79,26.61v0.05C12.79,26.61,12.79,26.61,12.79,26.61
		C12.79,26.57,12.79,26.57,12.79,26.61C12.79,26.57,12.79,26.61,12.79,26.61z"/>
	<path class="st0" d="M2.45,59.02c0-0.05,0-0.14,0.05-0.24c-0.05,0.43,0,1.04,0.09,1.99c0.05,0.57,0.09,1.14,0.14,1.61
		c0,0.05,0,0.09,0,0.14s0,0.09,0,0.19v0.47c0,0.05,0,0.09,0,0.19c0,0.14,0,0.28-0.05,0.43c0,0.24,0,0.57,0,1
		c0.05,0.52,0.05,0.62,0.05,0.76c0,0.09,0.05,0.14,0.05,0.24c0,0.05,0,0.09,0.05,0.19v0.05v0.09c0,0.09,0,0.14,0,0.24
		c0,0.05,0,0.05,0,0.09c0,0.19,0,0.52,0,0.9c0,0.24,0.05,0.47,0.09,0.66h20.12c0.09-0.28,0.09-0.66,0-0.95c0-0.14,0-0.33,0-0.66
		c0-0.62,0-0.85,0-0.9c0.05-0.33-0.05-0.66-0.24-0.9c0-0.09,0-0.19,0-0.24c0-0.19-0.05-0.43-0.05-0.66c0-0.33,0-0.66,0-1.04
		c0-0.52,0-1.47-0.09-2.89c-0.05-1.38-0.19-3.04-0.33-4.93c-0.14-1.9-0.28-3.65-0.43-5.27s-0.33-3.04-0.52-4.27
		c-0.19-1.19-0.38-2.51-0.57-3.94c-0.19-1.42-0.33-2.28-0.38-2.61c-0.05-0.43-0.19-0.85-0.38-1.33c-0.24-0.57-0.62-1.14-1.33-1.8
		c-0.57-0.57-1.23-1.09-1.85-1.52c-0.76-0.47-1.04-0.66-1.28-0.71c-0.19-0.09-0.43-0.14-0.66-0.24c-0.33-0.09-0.71-0.09-1.14-0.09
		c-0.38,0-0.81,0.05-1.28,0.14c-0.62,0.09-1.38,0.38-2.33,0.9c-0.24,0.14-0.43,0.24-0.62,0.33c-0.28,0.09-0.62,0.28-1.23,0.66
		c-0.57,0.38-0.95,0.66-1.23,0.9c-0.19,0.19-0.43,0.38-0.62,0.62L6.2,37.01c-0.05,0.05-0.14,0.14-0.24,0.28l-0.05,0.05
		c-0.38,0.28-0.62,0.76-1.28,2.42c-0.52,1.28-0.9,2.18-1.04,2.85c-0.14,0.62-0.28,1.23-0.43,1.9c-0.19,0.66-0.28,1.33-0.33,1.99
		c-0.05,0.66-0.09,1.33-0.05,2.04c0,0.62,0,1.19-0.05,1.61c-0.05,0.43-0.05,0.9-0.09,1.33c-0.05,0.47-0.09,0.9-0.09,1.28
		c0,0.38-0.05,0.66-0.05,0.81c0,0.14,0,1.04,0,2.75v2.33L2.45,59.02z"/>
</g>
</svg>
