<?xml version="1.0" encoding="utf-8"?>
<!-- Generator: Adobe Illustrator 23.0.1, SVG Export Plug-In . SVG Version: 6.00 Build 0)  -->
<svg version="1.1" id="图层_1" xmlns="http://www.w3.org/2000/svg" xmlns:xlink="http://www.w3.org/1999/xlink" x="0px" y="0px"
	 viewBox="0 0 53 68" style="enable-background:new 0 0 53 68;" xml:space="preserve">
<style type="text/css">
	.st0{fill:#5B77A8;}
</style>
<g>
	<path class="st0" d="M48,63.22c-0.25-0.99-1.24-1.61-2.23-1.49c-0.25,0-0.37,0.12-0.74,0.25c-0.25,0.12-0.74,0.37-1.11,0.87v0.25
		c-0.12,0.12-0.12,0.25-0.25,0.25c-0.12-0.25-0.37-0.37-0.62-0.62c-0.25-0.25-0.5-0.37-0.62-0.37l0,0l0,0l-0.25-0.12l-0.12-0.12
		l-0.25-0.37c-0.12-0.12-0.25-0.25-0.37-0.5c-0.25-0.25-0.5-0.62-0.87-1.11c-0.5-0.5-0.87-0.99-1.11-1.24
		c-0.12-0.12-0.37-0.37-0.5-0.5c0.12-0.5,0-0.99-0.25-1.36c-0.12-0.25-0.25-0.37-0.37-0.5c0,0-0.12-0.12-0.12-0.25l-0.37-0.62
		c-0.12-0.25-0.37-0.5-0.37-0.62c-0.12-0.12-0.25-0.25-0.37-0.5c-0.25-0.25-0.5-0.5-0.74-0.87c-0.25-0.25-0.5-0.5-0.99-0.99
		c-0.5-0.5-0.74-0.87-0.74-0.99c-0.12-0.12-0.25-0.37-0.37-0.5l0,0l0.25-0.12c0.25,0,0.74-0.25,1.11-0.74
		c0.25-0.37,0.37-0.74,0.37-1.11s0-0.74-0.12-1.11c-0.12-0.37-0.5-0.74-0.99-1.11c-0.12-0.12-0.25-0.25-0.5-0.25l0,0
		c-0.12,0-0.12,0-0.25-0.12c-0.12,0-0.25-0.12-0.37-0.12c-0.12,0-0.25,0-0.37,0c-0.12,0-0.37,0-0.62,0s-0.5,0-0.74,0s-0.5,0-0.87,0
		c-0.25,0-0.62,0-0.87,0c-0.12,0-0.25,0-0.37,0c-0.12-0.12-0.25-0.12-0.37-0.25c-0.25-0.12-0.5-0.12-0.99-0.25
		c-0.37,0-0.87-0.12-1.36,0c-0.25,0-0.37,0-0.5,0c-0.25-0.12-0.37-0.25-0.5-0.37c-0.25-0.25-0.62-0.37-0.87-0.62l0,0
		c-2.48-2.85-3.22-3.47-3.96-3.59c-1.11-1.61-1.61-2.35-1.98-2.72v-0.12v-0.12c0-0.12,0-0.25-0.12-0.37c0-0.12-0.12-0.12-0.12-0.25
		c0-0.12-0.12-0.12-0.12-0.25c0,0,0-0.12-0.12-0.12c-0.25-0.5-0.37-0.87-0.62-1.11c-0.12-0.12-0.12-0.12-0.12-0.25
		c-0.12-0.25-0.25-0.5-0.5-0.74c-0.12-0.12-0.25-0.12-0.37-0.25c-0.12-0.25-0.37-0.5-0.5-0.74c-0.12-0.12-0.37-0.37-0.74-0.5
		c-0.12-0.12-0.25-0.12-0.37-0.12c-0.12-0.12-0.25-0.12-0.5-0.25c-0.25-0.12-0.37-0.12-0.62-0.12h-0.12c-0.12,0-0.37-0.12-0.74-0.12
		c-0.25,0-0.5,0-0.87-0.12c-0.25,0-0.5,0-0.74,0l0,0c-0.12,0-0.37,0-0.74,0c-0.25,0-0.37,0-0.62,0h-0.25c0,0,0,0-0.12,0
		c0,0-0.25,0-0.5,0s-0.5,0.12-0.87,0.12l-0.25,0.12H8.62c-0.25,0-0.37,0-0.62,0.12c-0.25,0.12-0.37,0.12-0.62,0.25
		c-0.25,0.12-0.5,0.25-0.62,0.37c-0.87,0.5-0.99,0.5-1.11,0.62L5.4,34.86c-0.25,0.12-0.37,0.37-0.5,0.5
		c-0.12,0.25-0.25,0.37-0.37,0.5l-0.12,0.12c-0.12,0.12-0.12,0.12-0.25,0.25c-0.12,0.12-0.25,0.37-0.37,0.5l-0.25,0.37
		c0,0.12-0.25,0.25-0.37,0.62c-0.12,0.25-0.25,0.37-0.25,0.5l-0.25,0.37c-0.37,0.37-0.5,0.5-0.5,0.74
		c-0.12,0.12-0.12,0.25-0.25,0.37c-0.12,0.12-0.12,0.37-0.25,0.5c-0.12,0.25-0.12,0.5-0.25,0.99c-0.12,0.37-0.12,0.74-0.25,1.11
		c-0.25,0.5-0.25,0.87-0.25,0.99c0,0.12,0,0.37,0,0.5v0.5c0,0.12,0,0.5,0,0.87c0,0.37,0,0.87,0,1.36c0,0.5,0,0.87,0,1.11l0,0v0.62
		c0,0.25,0,0.5,0.12,0.87c-0.12,0.25-0.12,0.37-0.12,0.5l0,0c0,0.12,0,0.12,0,0.25c0,0.25,0,0.37,0.12,0.62
		c0,0.25,0.12,0.5,0.12,1.11c0.12,0.62,0.25,1.11,0.37,1.73c0.12,0.37,0.12,0.62,0.25,0.99l0,0l0.12,0.37
		c0.12,0.25,0.12,0.37,0.12,0.62l0.12,0.5c0,0.12,0,0.12,0.12,0.37c0,0.25,0.12,0.5,0.12,0.74c0.12,0.37,0.25,0.74,0.37,1.11
		c0.12,0.12,0.37,0.62,0.62,1.24c0.25,0.62,0.5,1.11,0.74,1.73c0.25,0.5,0.5,0.99,0.74,1.49c0,0.12,0.12,0.25,0.12,0.37
		c0,0.12,0.12,0.12,0.12,0.25c0.12,0.25,0.25,0.62,0.37,0.87l0.12,0.12c0,0.25,0.12,0.5,0.25,0.62c0.12,0.25,0.37,0.5,0.62,0.74l0,0
		l0.25,0.25l0,0c0,0,0,0,0,0.12c0.12,0.12,0.25,0.37,0.5,0.5c0.12,0.12,0.25,0.25,0.37,0.25c0.12,0,0.25,0.12,0.25,0.12H8
		c0.12,0.12,0.25,0.12,0.37,0.25c0.12,0,0.25,0.12,0.37,0.25l0.5,0.25c0,0,0.12,0.12,0.25,0.12c0.25,0.12,0.37,0.12,0.62,0.12
		s0.62,0.12,1.11,0.12c0.37,0,0.87,0,1.36,0c0.74,0,1.24-0.12,1.73-0.37c0.25,0.12,0.62,0.12,0.87,0c0.5-0.12,1.11-0.25,1.61-0.5
		c0.5-0.25,1.11-0.5,1.61-0.74c0.37-0.25,0.74-0.5,0.99-0.74c0.62-0.12,1.11-0.62,1.49-0.99c0.37-0.37,0.74-0.62,0.99-0.87
		c0.25-0.25,0.37-0.5,0.62-0.62c0.12-0.12,0.25-0.12,0.37-0.25c0,0,0,0,0.12-0.12c0,0,0,0,0.12-0.12s0.37-0.25,0.5-0.37
		s0.12-0.12,1.24-2.11c0.12-0.12,0.12-0.37,0.25-0.5s0.12-0.37,0.12-0.62c0.12-0.25,0.25-0.5,0.25-0.74c0.25-0.25,0.5-0.5,0.62-0.74
		l0.5-0.62c0.12-0.12,0.12-0.12,0.25-0.25c0.12-0.12,0.25-0.25,0.37-0.37c0,0,0.25-0.12,1.11-0.74c0.37-0.25,0.74-0.5,0.87-0.62
		c0.25,0.12,0.5,0.12,0.74,0l0.12,0.12c0.25,0.25,0.5,0.5,0.62,0.74c0.12,0.12,0.25,0.25,0.25,0.37c0.12,0.12,0.37,0.37,0.62,0.74
		c0.25,0.25,0.62,0.62,0.99,0.99s0.99,0.99,1.86,1.86C34.5,59.75,34.75,60,34.99,60c0.12,0.12,0.37,0.12,0.5,0.12
		c0.12,0.25,0.37,0.37,0.5,0.5c0.25,0.25,0.37,0.5,0.74,0.74c0.12,0.12,0.37,0.37,0.87,0.87c0.37,0.5,0.74,0.87,0.87,1.11
		c0.25,0.25,0.37,0.5,0.5,0.62l0.37,0.37c0.12,0.12,0.25,0.25,0.37,0.37l0.25,0.12c0,0,0,0.12,0.12,0.12
		c0.12,0.25,0.37,0.37,0.62,0.5l0,0c0.25,0.25,0.5,0.37,0.62,0.5c0.12,0,0.12,0.12,0.12,0.12l0.12,0.12
		c0.12,0.12,0.25,0.25,0.37,0.25c0,0,0.12,0.12,0.25,0.25c0.12,0.12,0.12,0.12,0.25,0.25l0.12,0.12l0.12,0.12l0,0
		c0.12,0.12,0.25,0.25,0.5,0.25c0.25,0.12,0.5,0.12,0.74,0.25c0.5,0.12,1.11,0,1.49-0.37c0.12-0.12,0.25-0.25,0.37-0.37
		c0.12-0.12,0.12-0.25,0.25-0.37l0.12-0.12c0.25-0.25,0.37-0.5,0.62-0.87c0-0.12,0.12-0.12,0.12-0.25l0,0l0.12-0.12
		C47.62,65.08,48.12,64.21,48,63.22z M20.01,47.86c0.25,0.12,0.37,0.25,0.37,0.25l0,0l0.25,0.25c0.12,0.12,0.25,0.25,0.37,0.37
		c0.12,0,0.12,0.12,0.25,0.25c0.12,0.12,0.12,0.12,0.25,0.25l0.12,0.12c0,0,0,0,0,0.12c-0.12,0.12-0.12,0.25-0.25,0.37
		s-0.25,0.37-0.5,0.74c-0.12,0.12-0.25,0.37-0.37,0.5c-0.12,0-0.12,0-0.25,0.12c0,0-0.25,0.12-0.5,0.37
		c-0.37,0.25-0.74,0.62-0.99,1.11l0,0c-0.25,0.12-0.5,0.37-0.74,0.74c-0.12,0.12-0.37,0.25-0.5,0.37l0,0l-0.25-0.62
		c0-0.12,0-0.25-0.12-0.25l-0.12-0.99c0-0.12-0.12-0.25-0.12-0.37s0-0.37-0.12-0.74l-0.12-1.11c0-0.25,0-0.37,0-0.5V49.1
		c0-0.12,0-0.37,0.12-0.62c0-0.25,0.12-0.74,0.25-1.24c0.12-0.5,0.12-0.74,0.25-0.99c0-0.12,0.12-0.25,0.12-0.37
		c0.12,0.12,0.37,0.25,0.5,0.37c0.25,0.12,0.37,0.25,0.5,0.25c0,0,0.12,0,0.25,0.12l0,0c0.12,0.12,0.25,0.25,0.5,0.37
		c0,0,0.12,0.12,0.25,0.12l0.25,0.25C19.64,47.49,19.76,47.62,20.01,47.86z M30.04,46.62L30.04,46.62c-0.12,0-0.12,0-0.25,0l0,0
		C29.92,46.62,29.92,46.62,30.04,46.62z M19.27,39.32l0.12,0.12C19.39,39.32,19.39,39.32,19.27,39.32z"/>
	<path class="st0" d="M6.76,28.67c0.12,0.12,0.12,0.12,0.12,0.12l0.37,0.37c0.12,0.12,0.25,0.25,0.5,0.37l0.12,0.12
		c0.12,0.12,0.37,0.25,0.5,0.37c0,0,0.12,0,0.12,0.12c0.12,0.12,0.37,0.25,0.5,0.25c0,0,0,0,0.12,0.12s0.37,0.25,0.74,0.5
		c0.5,0.25,1.24,0.37,2.48,0.62c0.37,0,0.62,0,0.99-0.12l0,0c0.12,0,0.25,0,0.25,0c0.62,0,1.11-0.12,1.61-0.62
		c0.25-0.12,0.5-0.37,0.62-0.87c0.12-0.25,0.12-0.37,0.37-0.99c0-0.12,0-0.25,0.12-0.37c0.12-0.37,0.25-0.62,0.25-0.87
		c0-0.25,0-0.5,0.12-0.74c0-0.25,0-0.62-0.12-0.87c0-0.12-0.12-0.25-0.12-0.37l-0.12-0.25c0-0.12-0.12-0.25-0.25-0.62
		c-0.12-0.25-0.25-0.5-0.5-0.87c-0.5-0.25-0.62-0.62-0.99-0.87c-0.12-0.12-0.12-0.25-0.25-0.37c-0.37-0.5-0.74-0.87-1.24-1.24
		c-0.5-0.37-0.99-0.62-1.61-0.87c-0.12-0.12-0.12-0.12-0.12-0.12c-0.12-0.12-0.25-0.25-0.37-0.25c-0.25-0.12-0.5-0.25-0.62-0.25
		s-0.25,0-0.37-0.12c-0.12,0-0.25,0-0.37,0s-0.25,0-0.5,0s-0.5,0-0.5,0c-0.12,0-0.25,0-0.5,0.12c-0.12,0-0.37,0.12-0.62,0.12
		c-0.25,0.12-0.37,0.25-0.5,0.25s-0.25,0.12-0.37,0.25c-0.12,0-0.25,0.12-0.5,0.25c-0.12,0.12-0.25,0.25-0.37,0.5l0,0
		c-0.12,0-0.12,0.12-0.25,0.25l0,0c0,0.12-0.12,0.12-0.25,0.25l-0.12,0.12c-0.25,0.37-0.25,0.87-0.37,1.36v0.12c0,0.25,0,0.5,0,0.62
		c0,0.12,0,0.25-0.12,0.25l0,0l0,0c-0.12,0.62,0,1.11,0.12,1.49c0.12,0.5,0.25,0.87,0.5,1.24c0.25,0.25,0.5,0.5,0.62,0.62
		c0,0.12,0.12,0.25,0.25,0.37c0.12,0.12,0.25,0.25,0.37,0.25l0,0L6.76,28.67z M5.65,21.61c0,0,0-0.12,0.12-0.12
		C5.65,21.49,5.65,21.61,5.65,21.61z"/>
</g>
</svg>
