<?xml version="1.0" encoding="utf-8"?>
<!-- Generator: Adobe Illustrator 23.0.1, SVG Export Plug-In . SVG Version: 6.00 Build 0)  -->
<svg version="1.1" id="图层_1" xmlns="http://www.w3.org/2000/svg" xmlns:xlink="http://www.w3.org/1999/xlink" x="0px" y="0px"
	 viewBox="0 0 79 70" style="enable-background:new 0 0 79 70;" xml:space="preserve">
<style type="text/css">
	.st0{fill:#F6F7EF;stroke:#F6F7EF;stroke-width:0.5;stroke-linecap:round;stroke-linejoin:round;}
	.st1{fill:#85929C;stroke:#85929C;stroke-width:0.5;stroke-linecap:round;stroke-linejoin:round;}
	.st2{fill:none;stroke:#000000;stroke-width:2;stroke-linecap:round;stroke-linejoin:round;}
</style>
<g>
	<g id="New_Layer_13">
		<path id="STROKE_cf518fbd-c47b-4846-887b-0849082fa5b4" class="st0" d="M55.59,50.54c0-0.31,0-0.42,0-0.32
			c0-0.04,0.01-0.1,0.04-0.2c0.02-0.1,0.04-0.15,0.05-0.17"/>
		<g>
			<path class="st0" d="M34.13,68.66C34.12,68.66,34.13,68.65,34.13,68.66C34.13,68.65,34.13,68.65,34.13,68.66
				C34.13,68.65,34.13,68.65,34.13,68.66z"/>
			<path class="st0" d="M37.78,68.75c0,0-0.02,0-0.03,0c-0.03,0-0.05,0-0.04,0C37.72,68.74,37.74,68.75,37.78,68.75z"/>
			<path class="st0" d="M37.78,68.75C37.78,68.75,37.78,68.75,37.78,68.75C37.8,68.75,37.8,68.75,37.78,68.75z"/>
			<path class="st0" d="M21.91,68.13c0.01-0.02,0.02-0.02,0.01-0.02c0,0,0,0-0.01,0.01C21.91,68.13,21.91,68.14,21.91,68.13z"/>
			<path class="st0" d="M44.11,68.67C44.11,68.67,44.11,68.67,44.11,68.67C44.12,68.67,44.11,68.67,44.11,68.67z"/>
			<path class="st0" d="M14.4,63.96C14.4,63.97,14.4,63.97,14.4,63.96C14.4,63.96,14.4,63.95,14.4,63.96z"/>
			<path class="st0" d="M24.98,66.5C24.98,66.51,24.98,66.5,24.98,66.5C24.97,66.49,24.97,66.49,24.98,66.5
				C24.96,66.49,24.97,66.49,24.98,66.5z"/>
			<path class="st0" d="M25.32,66.74C25.31,66.73,25.31,66.74,25.32,66.74c0,0,0,0,0.01,0.01C25.34,66.76,25.33,66.75,25.32,66.74z"
				/>
			<path class="st0" d="M73.45,52.49c0.01-0.03,0-0.02-0.02,0.01C73.43,52.53,73.43,52.53,73.45,52.49z"/>
			<path class="st0" d="M61.62,62.94c0,0,0.01-0.01,0.01-0.02C61.64,62.91,61.63,62.91,61.62,62.94
				C61.62,62.93,61.61,62.93,61.62,62.94C61.62,62.93,61.62,62.93,61.62,62.94z"/>
			<path class="st0" d="M68.52,58.44C68.53,58.43,68.53,58.44,68.52,58.44C68.5,58.46,68.5,58.46,68.52,58.44z"/>
			<path class="st0" d="M75.54,48.33C75.54,48.33,75.54,48.33,75.54,48.33C75.54,48.31,75.54,48.32,75.54,48.33z"/>
			<path class="st0" d="M66.96,59.75c0,0.01,0,0,0.02-0.01C67,59.72,66.99,59.72,66.96,59.75z"/>
			<path class="st0" d="M61.62,62.94C61.62,62.93,61.62,62.94,61.62,62.94C61.61,62.94,61.61,62.95,61.62,62.94z"/>
			<path class="st0" d="M74.3,34.21C74.28,34.2,74.28,34.2,74.3,34.21C74.32,34.21,74.31,34.21,74.3,34.21z"/>
			<path class="st0" d="M69.85,34.27c0,0-0.01,0.01-0.03,0.01c0,0,0,0,0.01,0c0,0,0,0,0,0C69.84,34.27,69.85,34.27,69.85,34.27z"/>
			<path class="st0" d="M13.98,61.62C13.98,61.62,13.98,61.61,13.98,61.62c0-0.02,0-0.03,0-0.02C13.97,61.6,13.97,61.61,13.98,61.62
				z"/>
			<path class="st0" d="M69.81,34.29c0.01,0,0.01,0,0.01-0.01C69.81,34.29,69.8,34.29,69.81,34.29z"/>
			<path class="st0" d="M65.66,50.84C65.66,50.84,65.66,50.84,65.66,50.84C65.66,50.84,65.66,50.84,65.66,50.84
				C65.65,50.87,65.65,50.86,65.66,50.84z"/>
			<path class="st0" d="M76.21,41.7c-0.01-0.42-0.01-0.7-0.01-0.84c0-0.14,0-0.27,0-0.37c0-0.1,0-0.14,0-0.11c0,0.02,0,0.01,0-0.04
				c0-0.05,0-0.07,0-0.06c0,0.01,0-0.09,0-0.3c0-0.21,0-0.43,0-0.67c0-0.24,0-0.44,0-0.61c0-0.16,0-0.3,0-0.39c0-0.1,0-0.15,0-0.16
				c0-0.01,0,0,0,0.01c0,0.02,0-0.02,0-0.11c-0.01-0.09-0.01-0.14-0.01-0.16c0-0.01,0-0.05-0.02-0.12
				c-0.01-0.06-0.03-0.13-0.04-0.19c-0.01-0.06-0.02-0.1-0.02-0.13c0-0.03,0-0.02,0,0.01c0,0.03-0.01-0.05-0.06-0.24
				c-0.04-0.19-0.08-0.39-0.11-0.6c-0.03-0.21-0.05-0.33-0.05-0.34c0-0.01-0.01-0.03-0.02-0.05c-0.01-0.02,0-0.02,0.01,0.01
				c0.02,0.03,0-0.02-0.03-0.13c-0.04-0.11-0.08-0.24-0.13-0.38c-0.05-0.14-0.08-0.21-0.08-0.21c-0.01,0-0.01-0.01-0.01,0
				c0,0-0.02-0.04-0.06-0.13c-0.03-0.06-0.05-0.09-0.05-0.11c-0.06-0.09-0.08-0.13-0.08-0.12c-0.11-0.07-0.18-0.12-0.2-0.14
				c-0.02-0.02-0.03-0.03-0.03-0.03c-0.13-0.13-0.19-0.19-0.19-0.19c-0.09-0.1-0.14-0.15-0.13-0.13c-0.14-0.13-0.19-0.18-0.16-0.16
				c-0.09-0.08-0.15-0.14-0.18-0.17c0,0,0,0,0,0c0,0-0.01,0-0.01-0.01c-0.03-0.03-0.04-0.03-0.02-0.02c0,0,0,0,0.01,0.01
				c-0.03-0.02-0.07-0.05-0.15-0.08c-0.04-0.02-0.06-0.03-0.08-0.04c-0.01,0-0.06-0.02-0.16-0.06c-0.07-0.03-0.12-0.05-0.15-0.06
				c0.02,0.01,0.03,0.01,0.02,0c-0.01,0-0.01-0.01-0.01-0.01c0,0,0,0-0.01-0.01c-0.01,0-0.03-0.01-0.05-0.02s-0.07-0.02-0.13-0.05
				c-0.06-0.02-0.12-0.04-0.17-0.05c-0.05-0.01-0.09-0.02-0.15-0.02c-0.05,0-0.1,0-0.14,0c-0.04,0-0.05,0-0.03,0
				c-0.35-0.07-0.49-0.1-0.43-0.09c0.06,0.01,0.09,0.02,0.08,0.02c-0.01,0-0.02-0.01-0.04-0.01c-0.02-0.01-0.08-0.02-0.18-0.03
				c-0.04,0-0.07-0.01-0.09-0.01c-0.04,0.01-0.11,0.02-0.19,0.06c-0.07,0.02-0.09,0.04-0.09,0.04c0,0-0.01,0-0.02,0
				c-0.01,0-0.01,0-0.02,0c-0.02,0-0.04,0-0.08,0c-0.1,0-0.25,0.03-0.47,0.08c-0.22,0.05-0.39,0.09-0.52,0.12
				c-0.13,0.03-0.23,0.04-0.31,0.04c-0.07-0.01-0.11-0.01-0.12-0.01c0,0-0.03,0.01-0.06,0.01c-0.04,0.01-0.02,0,0.05-0.03
				c0.07-0.03,0-0.04-0.23-0.03c-0.22,0.01-0.42,0.04-0.58,0.1c-0.1,0.03-0.16,0.05-0.19,0.06c-0.01,0.01-0.05,0.04-0.13,0.09
				c-0.07,0.05-0.14,0.1-0.2,0.15c-0.06,0.05-0.09,0.07-0.09,0.08c0.01,0,0,0-0.01,0.01c-0.01,0-0.02,0.04-0.03,0.09
				c-0.01,0.06-0.06,0.17-0.14,0.34c-0.08,0.17-0.16,0.31-0.25,0.41c-0.09,0.11-0.13,0.16-0.13,0.16c0,0,0.01,0,0.01,0
				c-0.01,0.01-0.03,0.04-0.08,0.1c-0.07,0.09-0.14,0.23-0.21,0.44c-0.08,0.21-0.12,0.38-0.15,0.53c-0.02,0.14-0.04,0.26-0.06,0.37
				c-0.02,0.1-0.03,0.16-0.03,0.16c0,0-0.01,0.07-0.03,0.19c-0.02,0.12-0.03,0.17-0.03,0.14c0-0.03-0.01,0.06-0.02,0.27
				c-0.01,0.21-0.01,0.44-0.01,0.69c0,0.25,0,0.44,0,0.58c0,0.14,0,0.24,0,0.3c0,0.06,0,0.1,0,0.14c0,0.03,0,0.04,0,0.02
				c0-0.02,0,0.08,0,0.29c0,0.21,0,0.45,0,0.71c0,0.26,0,0.44,0,0.54c0,0.1,0,0.17,0,0.21c0,0.04,0,0.09,0,0.15s0,0.11,0,0.14
				c0,0.03,0,0.06,0,0.09c0,0.03,0,0.05,0,0.05s0,0.09,0,0.27c0,0.18,0,0.38,0,0.59c0,0.21,0,0.38,0,0.5c0,0.12,0,0.22,0,0.31
				c0,0.09,0,0.14,0,0.15c0,0.01,0,0,0-0.01c0-0.02,0,0.02,0,0.1c-0.01,0.09-0.01,0.15-0.01,0.18c0,0.04-0.01,0.08-0.02,0.13
				c-0.01,0.05-0.02,0.11-0.02,0.16c-0.01,0.06-0.02,0.1-0.02,0.13c-0.01,0.03,0,0.03,0.01,0.01c0.01-0.02,0.01,0-0.02,0.07
				c-0.02,0.07-0.05,0.18-0.07,0.33c-0.03,0.15-0.05,0.27-0.06,0.38c-0.01,0.1-0.02,0.16-0.02,0.15c0,0,0-0.01-0.01-0.01
				c0-0.01-0.01,0.05-0.02,0.17c-0.01,0.12-0.04,0.27-0.09,0.46c-0.05,0.19-0.13,0.39-0.22,0.59c-0.09,0.2-0.17,0.37-0.22,0.48
				c-0.05,0.12-0.08,0.17-0.08,0.16c0-0.01,0-0.01,0,0c0,0.01-0.02,0.03-0.04,0.07c-0.02,0.04-0.06,0.11-0.13,0.23
				c-0.07,0.12-0.1,0.17-0.09,0.16c0-0.01-0.02,0.03-0.07,0.13c-0.05,0.1-0.08,0.15-0.08,0.16c0,0.01-0.02,0.04-0.05,0.09
				c-0.03,0.05-0.05,0.12-0.05,0.2c0,0.08-0.06,0.26-0.17,0.54c-0.11,0.28-0.2,0.48-0.28,0.6c-0.08,0.12-0.12,0.2-0.13,0.23
				c-0.01,0.03-0.02,0.05-0.02,0.06c-0.01,0.01-0.01,0.01,0-0.01c0-0.01-0.02,0.06-0.06,0.23c-0.04,0.16-0.09,0.28-0.14,0.35
				c-0.05,0.07-0.12,0.18-0.2,0.31c-0.08,0.14-0.13,0.25-0.17,0.35c-0.02,0.04-0.03,0.07-0.03,0.09c0,0,0,0,0,0c0,0,0,0,0,0
				c-0.01,0.02-0.01,0.02,0,0.01c0-0.01,0-0.01,0-0.01c0-0.01,0.01-0.02,0.01-0.02c0.01,0-0.01,0.06-0.07,0.19
				c-0.06,0.13-0.17,0.25-0.34,0.37c-0.17,0.12-0.29,0.23-0.36,0.34c-0.07,0.1-0.11,0.16-0.12,0.15c-0.01,0-0.02,0.01-0.05,0.04
				c0,0,0,0,0,0c0.02-0.02-0.08,0.1-0.3,0.35c-0.23,0.26-0.44,0.48-0.63,0.65c-0.2,0.17-0.36,0.31-0.49,0.41
				c-0.13,0.1-0.25,0.2-0.36,0.28c-0.11,0.09-0.17,0.13-0.18,0.14c-0.01,0.01-0.01,0.01-0.01,0.01c0,0-0.01,0-0.02,0.02
				c-0.01,0.01-0.14,0.13-0.38,0.33c-0.24,0.21-0.44,0.37-0.6,0.48c-0.16,0.11-0.28,0.21-0.37,0.3c-0.09,0.09-0.13,0.13-0.14,0.13
				c0,0,0,0,0,0c-0.01,0.01-0.01,0.01,0,0c0.01-0.01-0.04,0.04-0.15,0.15c-0.11,0.11-0.16,0.16-0.16,0.15c0-0.01,0.01-0.01,0,0
				c0,0,0,0,0.01-0.01c0.01-0.01-0.03,0.02-0.13,0.1c-0.1,0.08-0.2,0.16-0.31,0.24c-0.11,0.08-0.2,0.15-0.28,0.21
				c-0.07,0.05-0.08,0.06-0.05,0.03c-0.04,0.04-0.16,0.16-0.37,0.38c-0.3,0.3-0.63,0.6-1.01,0.89c-0.37,0.29-0.66,0.46-0.88,0.52
				c-0.21,0.06-0.35,0.1-0.42,0.14c-0.07,0.04-0.14,0.07-0.21,0.1c-0.07,0.03-0.12,0.05-0.17,0.07C57.1,58,57.09,58.01,57.11,58
				c0.02-0.01-0.03,0.01-0.14,0.06c-0.11,0.05-0.16,0.07-0.15,0.06c0.02-0.01,0.01-0.01-0.02-0.01c0,0,0,0-0.01,0c0,0,0,0-0.01,0
				c0-0.07,0-0.16,0-0.27c-0.01-0.21-0.01-0.43-0.02-0.65c0-0.22-0.01-0.5,0-0.83c0-0.33,0.01-0.62,0.01-0.85c0-0.23,0-0.39,0-0.47
				c0-0.08,0-0.12,0-0.11c0,0.01,0,0,0-0.05c0-0.04,0-0.1,0-0.16c0-0.06-0.01-0.17-0.04-0.31c-0.03-0.14-0.07-0.36-0.12-0.64
				c-0.05-0.29-0.09-0.52-0.11-0.69c-0.02-0.17-0.04-0.27-0.05-0.28c-0.01-0.02-0.02-0.02-0.01-0.01c0,0.01-0.02-0.07-0.06-0.24
				c-0.05-0.17-0.09-0.29-0.14-0.37s-0.06-0.11-0.05-0.1c0.01,0.01,0.01,0.01-0.01-0.01c-0.01-0.02-0.05-0.11-0.1-0.27c0,0,0,0,0,0
				c0-0.01,0.01-0.02,0.01-0.03c0.03-0.18,0.05-0.33,0.04-0.44c0-0.11-0.01-0.17-0.01-0.17c0-0.01,0-0.02,0-0.03
				c0-0.01,0-0.06,0-0.14c0-0.08,0-0.13,0-0.14c0-0.01,0-0.02,0-0.03c0-0.01,0-0.05,0-0.13c0-0.08,0-0.12,0-0.13s0-0.03,0-0.06
				c0-0.02,0-0.06,0-0.12c0-0.06,0-0.14,0-0.24c-0.01-0.1-0.02-0.23-0.04-0.38c-0.02-0.15-0.04-0.26-0.04-0.33
				c-0.01-0.07-0.02-0.17-0.04-0.3c-0.01-0.13-0.03-0.2-0.03-0.22c-0.01-0.02,0-0.02,0-0.01c0.01,0.01,0-0.11-0.03-0.36
				c-0.03-0.25-0.06-0.46-0.09-0.64c-0.03-0.17-0.06-0.31-0.07-0.41c-0.02-0.1-0.03-0.19-0.05-0.28c-0.02-0.09-0.03-0.15-0.03-0.17
				c0-0.02,0-0.03,0-0.04c0-0.01-0.02-0.08-0.05-0.21c-0.03-0.13-0.06-0.23-0.08-0.27c-0.02-0.05-0.03-0.08-0.03-0.1
				c0-0.02,0-0.04-0.01-0.06c-0.01-0.02-0.01-0.03-0.02-0.04c-0.01,0-0.06-0.19-0.14-0.56c-0.08-0.37-0.18-0.79-0.3-1.26
				s-0.22-0.86-0.3-1.18c-0.08-0.31-0.13-0.5-0.15-0.57c-0.02-0.07-0.03-0.13-0.05-0.2c-0.02-0.07-0.04-0.17-0.08-0.29
				c-0.04-0.12-0.07-0.24-0.11-0.36c-0.04-0.12-0.06-0.17-0.06-0.18c0,0-0.02-0.04-0.04-0.11c-0.02-0.07-0.06-0.19-0.11-0.37
				c-0.05-0.17-0.09-0.3-0.11-0.39c-0.02-0.08-0.06-0.18-0.11-0.28c-0.05-0.11-0.1-0.22-0.16-0.35c-0.06-0.13-0.09-0.2-0.1-0.21
				c-0.01-0.02-0.01-0.02,0,0c0.01,0.02,0,0-0.02-0.03c-0.02-0.04-0.07-0.14-0.15-0.32c-0.08-0.18-0.13-0.3-0.17-0.39
				c-0.03-0.08-0.07-0.16-0.12-0.23c-0.05-0.07-0.09-0.14-0.12-0.2c-0.04-0.06-0.05-0.08-0.04-0.07c0.01,0.02,0.01,0.02,0.01,0.03
				c0,0-0.05-0.07-0.14-0.22c-0.09-0.15-0.16-0.26-0.2-0.34c-0.04-0.08-0.07-0.13-0.09-0.16c-0.02-0.02-0.02-0.04,0-0.04
				c0.02,0-0.06-0.16-0.24-0.47c-0.18-0.31-0.41-0.67-0.71-1.08c-0.3-0.41-0.51-0.73-0.63-0.95c-0.12-0.22-0.2-0.36-0.24-0.4
				c-0.04-0.05-0.06-0.07-0.06-0.08c0,0-0.01-0.01-0.04-0.04c-0.02-0.02-0.04-0.04-0.05-0.04c-0.01,0-0.1-0.12-0.25-0.35
				c-0.15-0.23-0.35-0.52-0.59-0.86c-0.24-0.34-0.44-0.61-0.59-0.79c-0.15-0.18-0.26-0.33-0.33-0.44c-0.07-0.11-0.1-0.16-0.1-0.15
				c0,0.01-0.01,0-0.02-0.02c-0.02-0.02-0.06-0.06-0.12-0.14c-0.07-0.07-0.12-0.15-0.17-0.23c-0.05-0.08-0.14-0.22-0.3-0.43
				c-0.15-0.21-0.31-0.39-0.47-0.55c-0.16-0.16-0.27-0.27-0.34-0.35c-0.07-0.08-0.1-0.12-0.1-0.12c0,0,0,0,0,0
				c0,0-0.02-0.02-0.05-0.07c-0.05-0.07-0.14-0.2-0.28-0.4c-0.14-0.2-0.23-0.34-0.29-0.42c-0.06-0.08-0.13-0.17-0.22-0.27
				c-0.09-0.11-0.15-0.17-0.16-0.2c-0.02-0.03-0.03-0.03-0.03-0.02c0,0.01-0.06-0.07-0.16-0.24c-0.1-0.18-0.24-0.37-0.41-0.59
				c-0.17-0.22-0.33-0.38-0.46-0.47c-0.13-0.09-0.2-0.13-0.19-0.13c0,0.01,0.01,0.01,0,0c0,0,0.01,0,0.03,0.03
				c0.03,0.02-0.12-0.07-0.45-0.26c-0.32-0.2-0.62-0.38-0.88-0.53c-0.26-0.16-0.46-0.27-0.58-0.33c-0.12-0.06-0.22-0.11-0.28-0.15
				c-0.07-0.04-0.12-0.07-0.14-0.08c-0.03-0.01-0.03-0.02-0.01-0.01c0.02,0.01-0.08-0.05-0.29-0.17c-0.22-0.12-0.42-0.23-0.6-0.33
				c-0.19-0.1-0.27-0.15-0.24-0.14c0.03,0.01,0-0.01-0.07-0.06c-0.07-0.05-0.19-0.11-0.36-0.18c-0.17-0.07-0.25-0.11-0.26-0.11
				c0,0-0.01,0-0.01,0c0,0-0.01-0.01-0.03-0.01c-0.02-0.01-0.03-0.01-0.02,0c0.01,0.01-0.05,0-0.16-0.03
				c-0.12-0.02-0.33-0.11-0.63-0.25c-0.3-0.14-0.62-0.27-0.96-0.37c-0.33-0.11-0.62-0.2-0.87-0.29c-0.24-0.09-0.43-0.15-0.55-0.19
				c-0.12-0.03-0.24-0.06-0.36-0.08c-0.11-0.02-0.18-0.03-0.2-0.03c-0.02,0-0.02,0-0.01,0c0.01,0,0.01,0-0.01,0
				c-0.02,0.01-0.16,0-0.41-0.03c-0.25-0.03-0.55-0.09-0.88-0.18c-0.33-0.09-0.61-0.17-0.82-0.24c-0.22-0.07-0.4-0.15-0.54-0.25
				c-0.15-0.1-0.27-0.16-0.36-0.19c-0.09-0.03-0.14-0.04-0.16-0.05c-0.01,0-0.05-0.01-0.11-0.02s-0.13-0.02-0.2-0.02
				c-0.08-0.01-0.17-0.02-0.28-0.04c-0.05-0.01-0.09-0.01-0.11-0.02c-0.03-0.01-0.1-0.03-0.21-0.06c-0.15-0.04-0.26-0.07-0.33-0.09
				c-0.07-0.02-0.1-0.03-0.09-0.02c0.01,0-0.05-0.01-0.19-0.05c-0.09-0.02-0.13-0.04-0.14-0.04c-0.04,0-0.13,0-0.27,0
				c-0.25,0-0.62,0-1.12,0c-0.5,0-0.9,0-1.2,0c-0.3,0-0.47,0-0.49,0c-0.03,0-0.06,0-0.08,0.01c-0.03,0.01-0.03,0,0.01-0.03
				c0.03-0.03-0.21-0.03-0.71,0.02c-0.51,0.05-0.87,0.09-1.09,0.12c-0.22,0.03-0.39,0.07-0.52,0.12c-0.13,0.04-0.24,0.08-0.32,0.11
				c-0.09,0.03-0.13,0.05-0.14,0.05c-0.01,0-0.05,0.01-0.14,0.03c-0.09,0.02-0.15,0.03-0.18,0.04c-0.03,0.01-0.05,0.01-0.06,0.02
				c0,0.01-0.01,0.01-0.03,0c-0.02-0.01-0.26-0.01-0.72,0.02c-0.46,0.02-0.82,0.08-1.06,0.17c-0.24,0.09-0.43,0.15-0.55,0.19
				c-0.12,0.04-0.23,0.07-0.32,0.1c-0.09,0.02-0.19,0.04-0.3,0.05c-0.1,0.01-0.21,0.03-0.31,0.05c-0.1,0.02-0.21,0.05-0.31,0.1
				c-0.1,0.04-0.17,0.08-0.21,0.1c-0.04,0.02-0.05,0.03-0.05,0.03c0,0,0.01,0,0.01,0.01c0,0.01-0.03,0.02-0.09,0.03
				c-0.06,0.01-0.25,0.12-0.57,0.33c-0.32,0.21-0.53,0.37-0.62,0.49c-0.09,0.12-0.21,0.23-0.35,0.33c-0.14,0.1-0.22,0.16-0.24,0.17
				c-0.02,0.01-0.04,0.02-0.06,0.03c-0.02,0.01-0.01,0,0.05-0.02c0.05-0.02-0.05,0.03-0.32,0.17c-0.27,0.14-0.49,0.26-0.65,0.36
				c-0.17,0.1-0.32,0.17-0.45,0.22c-0.13,0.05-0.2,0.07-0.2,0.07c0,0,0.01,0,0.02-0.01c0.01-0.01-0.03,0.01-0.13,0.05
				c-0.1,0.04-0.21,0.1-0.35,0.19c-0.13,0.08-0.19,0.12-0.18,0.11c0.01-0.01,0.01-0.01,0,0.01c-0.02,0.01-0.01,0.01,0.02-0.01
				c0.03-0.02-0.03,0.02-0.19,0.11c-0.16,0.09-0.26,0.15-0.33,0.18c-0.06,0.03-0.12,0.05-0.17,0.08c-0.06,0.03-0.13,0.06-0.22,0.1
				c-0.09,0.04-0.18,0.09-0.28,0.14c-0.1,0.05-0.14,0.08-0.13,0.08c0.01,0,0.01,0,0,0.01c-0.01,0.01-0.1,0.05-0.26,0.15
				c-0.16,0.09-0.33,0.2-0.51,0.33c-0.18,0.13-0.31,0.24-0.4,0.34c-0.08,0.1-0.11,0.11-0.08,0.05c0.03-0.07-0.08,0.13-0.33,0.57
				c-0.25,0.45-0.42,0.82-0.52,1.11c-0.1,0.29-0.22,0.7-0.36,1.24c-0.14,0.52-0.19,1.06-0.16,1.62l0.02-0.02
				c0.05-0.04,0.03,0.49-0.06,1.61c-0.09,1.12-0.16,2.05-0.22,2.8c-0.06,0.75-0.12,1.36-0.17,1.83c-0.05,0.47-0.1,0.82-0.13,1.06
				c-0.04,0.24-0.06,0.4-0.06,0.47c0,0.07-0.01,0.13-0.01,0.17c0,0.04-0.01,0.04-0.01,0.02c-0.01-0.02,0,0.03,0.01,0.17
				c0.01,0.14-0.02,0.7-0.09,1.69c-0.08,0.99-0.18,2.05-0.32,3.17c-0.14,1.12-0.21,1.99-0.21,2.61c0,0.62,0,1.07,0.01,1.37
				c0.01,0.3,0.06,0.8,0.15,1.51c0.09,0.71,0.16,1.51,0.19,2.4c0.03,0.89,0.08,1.6,0.15,2.12c0.07,0.52,0.11,0.93,0.12,1.22
				c0.01,0.29,0.03,0.56,0.05,0.81c0.02,0.25,0.04,0.44,0.05,0.56c0.01,0.13,0.02,0.25,0.03,0.36c0.01,0.11,0.02,0.27,0.04,0.47
				c0.02,0.2,0.06,0.49,0.13,0.88c0.07,0.39,0.13,0.71,0.18,0.96c0.05,0.25,0.09,0.42,0.1,0.52c0.01,0.07,0.01,0.11,0.01,0.11
				c0.01,0.04,0.03,0.15,0.07,0.36c0.05,0.26,0.09,0.51,0.13,0.75c0.04,0.24,0.06,0.39,0.07,0.44c0.01,0.06,0.02,0.12,0.03,0.19
				c0.01,0.07,0.02,0.12,0.02,0.14c0,0.02,0.03,0.11,0.06,0.28c0.03,0.15,0.05,0.21,0.04,0.2c0.01,0.02,0.03,0.08,0.07,0.18
				c0.02,0.04,0.03,0.07,0.04,0.1c0.01,0.02,0.01,0.04,0.03,0.08c0.04,0.12,0.11,0.3,0.21,0.54c0.1,0.24,0.18,0.41,0.23,0.51
				c0.05,0.1,0.09,0.2,0.13,0.28c0.04,0.08,0.06,0.12,0.05,0.12c0,0,0,0,0,0c0.01,0.01,0.02,0.03,0.03,0.06
				c0.04,0.07,0.08,0.15,0.13,0.25c0.05,0.1,0.08,0.14,0.07,0.14c0-0.01-0.01-0.01-0.02-0.02c-0.02,0,0.02,0.05,0.11,0.17
				c0.09,0.11,0.17,0.21,0.25,0.29c0.08,0.08,0.14,0.14,0.18,0.18c0.04,0.05,0.08,0.1,0.13,0.16c0.05,0.06,0.08,0.09,0.08,0.09
				c0,0,0.01,0,0.01,0.01c0.01,0.01,0.01,0.01,0,0.01c0,0,0.04,0.05,0.12,0.15c0.09,0.1,0.13,0.15,0.13,0.14
				c0-0.01-0.01-0.01-0.01-0.02c-0.01-0.01,0.02,0.03,0.1,0.09c0.07,0.07,0.14,0.13,0.2,0.19c0.06,0.06,0.09,0.09,0.1,0.09
				c0.01,0,0.02,0.02,0.05,0.04c0.03,0.02,0.07,0.06,0.12,0.1c0.05,0.04,0.21,0.11,0.47,0.19c0.26,0.09,0.44,0.15,0.54,0.19
				c0.1,0.04,0.16,0.08,0.2,0.1c0.04,0.03,0.06,0.04,0.06,0.05c0,0,0,0,0,0c0,0,0,0,0,0c0,0,0,0,0,0c0,0,0,0,0.01,0
				c0.01,0,0.07,0.03,0.18,0.08c0.12,0.05,0.24,0.11,0.34,0.16c0.1,0.05,0.16,0.08,0.17,0.09c0.01,0.01,0.02,0.01,0.02,0
				c0.27,0.05,0.37,0.07,0.28,0.05c-0.07,0.03,0.02,0.05,0.26,0.06c0.24,0.01,0.42,0.01,0.54-0.01c0.12-0.02,0.22-0.03,0.32-0.03
				c0.05,0,0.08,0,0.1,0c0,0,0,0-0.01,0c0,0,0,0-0.01,0c0,0,0,0,0,0c0,0,0,0,0,0c0,0,0,0,0,0c0,0,0.01,0,0.01,0c0,0,0.01,0,0.02,0
				c0.01,0,0.03,0,0.07-0.01c0.03,0,0.09-0.01,0.18-0.03c0.09-0.01,0.2-0.05,0.34-0.12c0.14-0.07,0.2-0.1,0.18-0.09
				c-0.02,0,0,0,0.06-0.02c0.06-0.02,0.12-0.04,0.19-0.06c0.07-0.02,0.14-0.06,0.2-0.13c0.07-0.07,0.12-0.13,0.16-0.19
				c0.04-0.06,0.05-0.09,0.06-0.09c0,0,0,0,0,0c0.01-0.02,0.05-0.08,0.12-0.18c0.1-0.15,0.18-0.26,0.26-0.35
				c0.07-0.07,0.1-0.11,0.12-0.13c0,0,0.01-0.01,0.03-0.03c0.03-0.03,0.09-0.1,0.16-0.21c0.08-0.11,0.14-0.2,0.19-0.28
				c0.05-0.08,0.06-0.11,0.05-0.08c-0.02,0.03,0.01-0.02,0.06-0.13c0.06-0.11,0.11-0.19,0.14-0.23c0.03-0.05,0.04-0.06,0.03-0.04
				c-0.01,0.02-0.01,0.02-0.01,0.01c0.01-0.01,0.02-0.02,0.03-0.04c0.01-0.01,0.03-0.04,0.05-0.07c0.02-0.03,0.05-0.06,0.07-0.1
				c0.02-0.03,0.07-0.11,0.15-0.23c0.08-0.12,0.12-0.18,0.11-0.18c0,0,0,0,0-0.01c0-0.01,0,0-0.01,0.03
				c-0.01,0.03,0.01-0.03,0.08-0.18c0.07-0.15,0.11-0.27,0.14-0.37c0.03-0.1,0.05-0.2,0.08-0.3c0.02-0.1,0.04-0.15,0.04-0.15
				c0,0,0.01-0.02,0.02-0.06c0.01-0.04,0.01-0.04,0.01-0.01c-0.01,0.03,0.03-0.07,0.11-0.32c0.08-0.25,0.16-0.49,0.22-0.73
				c0.07-0.24,0.12-0.44,0.15-0.59c0.03-0.15,0.05-0.25,0.07-0.29c0.01-0.04,0.02-0.08,0.03-0.13c0.01-0.05,0.01-0.08,0.01-0.08
				c0,0,0,0,0,0.03c0,0.02,0.01-0.04,0.03-0.17c0.02-0.14,0.04-0.27,0.06-0.4c0.02-0.12,0.03-0.24,0.05-0.34
				c0.01-0.1,0.02-0.16,0.02-0.16c0,0,0.01-0.05,0.02-0.13c0.01-0.08,0.02-0.16,0.02-0.22c0-0.07,0.08-0.56,0.23-1.47
				c0,0.17,0,0.26,0,0.3c0,0.01,0,0.02,0,0.02c0,0.2,0,0.31,0,0.34c0.01,0.27,0.02,0.37,0.01,0.3c-0.01-0.07-0.03,0.38-0.08,1.35
				c-0.05,0.97-0.08,1.72-0.09,2.23c-0.01,0.52-0.01,0.88,0,1.1c0.01,0.22,0.01,0.34,0.01,0.37c0,0.03,0,0.06,0.01,0.08
				c0.01,0.02,0.02,0.06,0.03,0.11c0.02,0.05,0.02,0.06,0.01,0.04c-0.01-0.03-0.01-0.02,0,0.01c0.01,0.03,0.05,0.12,0.13,0.26
				c0.06,0.1,0.09,0.16,0.1,0.18c0.01,0.01,0.02,0.02,0.04,0.04c0.02,0.02,0.08,0.06,0.17,0.12c0.09,0.06,0.13,0.08,0.12,0.08
				c-0.01-0.01,0,0,0.01,0.01c0,0,0,0-0.01,0c0,0,0.03,0.02,0.1,0.06c0.07,0.05,0.15,0.1,0.25,0.16c0.09,0.06,0.13,0.09,0.11,0.08
				c0.11,0.11,0.15,0.15,0.12,0.13c0.14,0.1,0.19,0.14,0.15,0.11c0.13,0.04,0.19,0.06,0.17,0.05c0.02,0.02,0.08,0.03,0.2,0.04
				c0.11,0.01,0.22,0.02,0.33,0.04c0.1,0.02,0.15,0.03,0.14,0.03c-0.01,0-0.01,0-0.01,0c0,0,0.04,0.01,0.11,0.03
				c0.08,0.02,0.18,0.06,0.3,0.11c0.12,0.05,0.21,0.08,0.27,0.1c0.05,0.02,0.08,0.03,0.07,0.02c0,0-0.01-0.01-0.03,0
				c-0.02,0,0,0.02,0.06,0.06c0.05,0.04,0.08,0.06,0.09,0.07c0.01,0,0.07,0.01,0.19,0.03c0.12,0.02,0.18,0.03,0.2,0.03
				c0.02,0,0.02,0.01,0.01,0c-0.01,0,0.06,0,0.22,0.01c0.16,0.01,0.23,0.01,0.23,0.01c0.19,0.03,0.28,0.05,0.25,0.04
				c0.21,0.02,0.31,0.03,0.29,0.03c0.01,0.01,0.05,0.02,0.11,0.01c0.06,0,0.25,0.01,0.57,0.03c0.32,0.02,0.59,0.05,0.83,0.09
				c0.24,0.04,0.43,0.08,0.57,0.13c0.14,0.05,0.26,0.08,0.36,0.09c0.1,0.01,0.15,0.01,0.16,0.01c0,0,0.01,0,0.02,0
				c0.01,0,0.06,0.01,0.15,0.03c0.09,0.02,0.13,0.03,0.14,0.03c0.01,0,0.02,0,0.04,0c0.02,0,0.01,0-0.03,0.01
				c-0.04,0.01,0.12,0.05,0.48,0.13c0.36,0.07,0.69,0.11,0.99,0.1c0.3-0.01,0.47-0.01,0.5-0.01c0.03,0,0.07,0,0.1,0
				c0.01,0,0.02,0,0.03,0c0,0,0,0,0,0c0,0,0,0,0,0c0,0,0,0,0.01,0c0.01,0,0.14-0.02,0.38-0.06s0.35-0.06,0.32-0.06
				c-0.07,0-0.04,0,0.1,0c0.13,0,0.26,0,0.38,0c0.12,0,0.25,0,0.38,0.01c0.13,0.01,0.19,0.01,0.16,0.01c-0.03,0,0.02,0.01,0.16,0.01
				c0.13,0.01,0.17,0.01,0.11,0.01c-0.06,0,0.04,0.02,0.29,0.06c0.25,0.04,0.46,0.06,0.64,0.05c0.17,0,0.27,0,0.3,0
				c0.02,0,0.06,0.01,0.12,0.02c0.05,0.01,0.13,0.02,0.22,0.03c0.03,0,0.04,0,0.05,0.01c0.07,0,0.22,0,0.47,0c0.36,0,0.69,0,0.99,0
				c0.3,0,0.51,0,0.64,0c0.13,0,0.22,0,0.26,0s0.11,0,0.19,0c0.08,0,0.16,0,0.24,0c0.08,0,0.1,0,0.08,0c-0.02,0-0.02,0,0.01,0
				c0.03,0,0.08,0,0.15,0c0.07,0,0.12,0,0.14,0c0.02,0,0.03,0,0.04,0c0.01,0,0.16-0.02,0.45-0.05c0.3-0.03,0.64-0.05,1.03-0.07
				c0.39-0.01,0.69-0.02,0.9-0.01c0.21,0,0.33,0,0.37,0.01c0.04,0,0.05,0,0.05,0c-0.01,0,0.06,0.01,0.2,0.02
				c0.09,0.01,0.15,0.02,0.16,0.02c-0.03,0,0.01,0,0.12,0c0.11,0,0.16,0,0.17,0c0,0,0,0-0.01,0c-0.01,0,0.06,0,0.2,0
				c0.08,0,0.13,0,0.15,0c0.01,0,0.01,0,0.01,0c0,0,0.01,0,0.01,0c0.02,0,0.07,0,0.14,0c0.07,0,0.11,0,0.14,0c0.01,0,0.01,0,0.01,0
				c0,0,0.01,0,0.01,0c0.02,0,0.06,0,0.12,0c0.13,0,0.24,0,0.33,0c0.1,0,0.16,0,0.2,0c0.04,0,0.05,0,0.04,0c-0.01,0,0.1,0,0.34,0
				c0.24,0,0.48-0.01,0.72-0.02c0.24-0.01,0.45-0.07,0.63-0.18c0.18-0.1,0.25-0.14,0.21-0.12c-0.02,0.01-0.02,0.01-0.03,0.01
				c0.02-0.01,0.12-0.06,0.28-0.16c0.17-0.09,0.37-0.19,0.6-0.29c0.23-0.1,0.4-0.16,0.5-0.18c0.1-0.02,0.14-0.03,0.12-0.02
				s-0.02,0.01-0.02,0.01c0.01,0,0.05-0.02,0.11-0.04c0.07-0.03,0.2-0.07,0.41-0.14c0.09-0.03,0.15-0.05,0.19-0.06
				c-0.01,0.01,0.02,0.01,0.09,0.01c0.1,0,0.3-0.05,0.62-0.14c0.31-0.09,0.54-0.16,0.7-0.21c0.15-0.05,0.27-0.07,0.34-0.07
				c0.07,0,0.16-0.02,0.27-0.06c0.11-0.04,0.16-0.06,0.14-0.06c-0.02,0,0.03-0.03,0.15-0.11c0.12-0.07,0.23-0.11,0.34-0.13
				c0.11-0.01,0.23-0.05,0.36-0.1c0.09-0.04,0.14-0.06,0.15-0.07c-0.02,0.01-0.01,0.01,0.04-0.01c0.05-0.01,0.05-0.02-0.01-0.01
				c-0.06,0.01,0.05-0.01,0.35-0.05c0.29-0.04,0.54-0.06,0.75-0.08c0.21-0.02,0.37-0.06,0.5-0.12c0.13-0.06,0.21-0.11,0.25-0.14
				c0.02-0.02,0.03-0.02,0.04-0.03c-0.01,0.01-0.02,0.02-0.03,0.03c-0.02,0.02,0,0,0.05-0.04c0.05-0.04,0.12-0.1,0.2-0.15
				c0.08-0.06,0.13-0.09,0.15-0.09c0.02,0,0.03-0.01,0.05-0.03c0.01-0.02,0.08-0.06,0.2-0.12c0.12-0.07,0.3-0.15,0.54-0.26
				c0.24-0.11,0.41-0.19,0.52-0.25c0.11-0.06,0.23-0.12,0.37-0.19c0.13-0.07,0.2-0.1,0.2-0.1c0,0,0.02,0,0.05-0.01
				c0.03-0.01,0.09-0.03,0.18-0.08c0.09-0.04,0.29-0.13,0.61-0.25c0.31-0.12,0.63-0.22,0.94-0.31c0.31-0.09,0.55-0.15,0.72-0.17
				c0.17-0.03,0.27-0.04,0.3-0.04c0.03,0,0.06-0.01,0.07-0.02c0.01-0.01,0.01,0-0.01,0.04c-0.02,0.04,0.07,0.03,0.28-0.04
				c0.2-0.06,0.38-0.16,0.53-0.27c0.15-0.12,0.22-0.17,0.2-0.17c-0.02,0-0.03,0-0.03,0.01c0,0.01,0.06-0.05,0.17-0.18
				c0.04-0.05,0.07-0.08,0.1-0.11c0,0,0,0,0,0c0.01-0.01,0.08-0.08,0.21-0.21c0.08-0.09,0.13-0.14,0.15-0.16
				c-0.01,0,0.04-0.07,0.14-0.21c0.11-0.15,0.32-0.3,0.63-0.45c0.31-0.15,0.59-0.27,0.82-0.35c0.23-0.08,0.39-0.14,0.45-0.18
				c0.07-0.04,0.1-0.06,0.11-0.05c0,0,0.02-0.01,0.04-0.02c0.03-0.02,0.03-0.02,0.01,0c-0.02,0.02,0.07-0.01,0.28-0.09
				c0.21-0.08,0.33-0.14,0.38-0.18c0.05-0.05,0.14-0.12,0.27-0.22c0.13-0.1,0.27-0.2,0.44-0.28c0.17-0.09,0.25-0.13,0.24-0.12
				c0,0.01,0,0,0.02-0.01c0.02-0.01,0.05-0.03,0.11-0.05s0.09-0.03,0.08-0.02c-0.01,0.01,0.05-0.04,0.18-0.14
				c0.12-0.1,0.25-0.2,0.37-0.31c0.12-0.11,0.18-0.15,0.18-0.14c0,0.01,0,0.01,0.02-0.01c0.02-0.02,0.06-0.04,0.14-0.07
				c0.08-0.03,0.18-0.09,0.31-0.19c0.05-0.04,0.09-0.06,0.11-0.08c0-0.01,0.02-0.02,0.05-0.06c0.06-0.06,0.12-0.13,0.19-0.2
				c0.07-0.07,0.11-0.11,0.12-0.1c0.01,0.01,0.04-0.01,0.11-0.06c0.06-0.04,0.11-0.07,0.15-0.06c0.04,0,0.15-0.09,0.33-0.26
				c0.18-0.18,0.33-0.32,0.46-0.44c0.08-0.07,0.12-0.11,0.14-0.13c0,0,0,0,0.01-0.01c0.03-0.03,0.06-0.07,0.1-0.12
				c0.04-0.05,0.06-0.07,0.04-0.06c-0.02,0.01,0.04-0.06,0.16-0.21c0.12-0.15,0.22-0.26,0.3-0.33c0.08-0.07,0.16-0.19,0.26-0.35
				c0.1-0.16,0.14-0.23,0.14-0.21c-0.01,0.02-0.01,0.02,0,0c0.01-0.02,0.01-0.02,0.01-0.02c0,0,0.05-0.03,0.14-0.11
				c0.1-0.08,0.2-0.18,0.32-0.31c0.11-0.13,0.17-0.19,0.17-0.19c0,0,0,0,0.02-0.01c0.01-0.01,0.02-0.02,0.03-0.04
				c0-0.02,0.1-0.14,0.28-0.37c0.18-0.22,0.33-0.4,0.44-0.53c0.11-0.13,0.19-0.23,0.25-0.3c0.06-0.08,0.12-0.15,0.18-0.23
				c0.06-0.08,0.08-0.11,0.07-0.09c-0.01,0.02-0.01,0,0.01-0.03c0-0.01,0.01-0.01,0.01-0.02c0.01-0.01,0.16-0.15,0.44-0.46
				c0.31-0.34,0.57-0.63,0.76-0.88c0.19-0.25,0.35-0.44,0.47-0.59c0.12-0.15,0.19-0.24,0.21-0.28c0.03-0.04,0.06-0.1,0.09-0.17
				c0.01-0.02,0.01-0.02,0.02-0.03c0,0,0,0,0,0c0-0.03,0.04-0.1,0.1-0.21c0.06-0.11,0.14-0.21,0.25-0.3
				c0.1-0.09,0.16-0.14,0.16-0.15c0.01-0.01,0.01-0.02,0.01-0.02c0,0,0.01-0.01,0.01-0.01c0.01-0.01,0.01-0.01,0.01-0.01
				c0,0,0.06-0.07,0.17-0.22c0.11-0.15,0.14-0.17,0.08-0.08c-0.05,0.1,0,0.04,0.16-0.16c0.16-0.2,0.29-0.4,0.39-0.58
				c0.1-0.18,0.16-0.3,0.18-0.37c0.02-0.05,0.03-0.07,0.03-0.08c0,0,0,0,0,0c0,0.02,0.02-0.03,0.06-0.16
				c0.04-0.13,0.08-0.28,0.13-0.45c0.03-0.1,0.04-0.16,0.05-0.19c-0.01,0.03,0,0.02,0.02-0.07c0.03-0.09,0.06-0.18,0.08-0.27
				c0.03-0.09,0.06-0.21,0.1-0.35s0.07-0.27,0.09-0.38c0.01-0.07,0.02-0.11,0.02-0.12c0,0,0-0.04,0.02-0.14
				c0.02-0.12,0.03-0.22,0.05-0.3c0.02-0.08,0.04-0.19,0.07-0.33c0.03-0.14,0.05-0.27,0.07-0.37c0.02-0.1,0.03-0.15,0.02-0.15
				c0,0,0,0.01,0,0.01c0.01,0,0.01-0.06,0.02-0.17c0.01-0.12,0.02-0.27,0.03-0.47c0.01-0.2,0.04-0.39,0.08-0.59
				c0.04-0.19,0.09-0.36,0.13-0.5c0.04-0.14,0.06-0.26,0.06-0.34c0-0.09,0-0.14,0-0.15c0-0.02,0-0.01-0.01,0.01
				c-0.01,0.02,0-0.02,0.01-0.12c0.01-0.1,0.03-0.52,0.07-1.26C76.2,42.7,76.21,42.12,76.21,41.7z"/>
			<path class="st0" d="M75.51,35.27c0,0,0,0.01,0.01,0.01c0,0,0,0,0,0.01C75.52,35.29,75.52,35.28,75.51,35.27z"/>
			<path class="st0" d="M72.66,33.82C72.63,33.82,72.64,33.82,72.66,33.82C72.66,33.82,72.66,33.82,72.66,33.82
				C72.71,33.82,72.71,33.82,72.66,33.82z"/>
			<path class="st0" d="M32.29,22.84c-0.02,0-0.02,0-0.02,0C32.31,22.84,32.32,22.84,32.29,22.84z"/>
			<path class="st0" d="M47.28,30.53c0.01,0.01,0.01,0.01,0.01,0.01c0,0,0.01,0.01,0,0C47.27,30.53,47.27,30.52,47.28,30.53z"/>
			<path class="st0" d="M14.01,32.82c0-0.02,0-0.04,0-0.06l-0.02,0.02C14,32.79,14,32.8,14.01,32.82z"/>
			<path class="st0" d="M61.24,55.02C61.24,55.02,61.24,55.02,61.24,55.02c0.01-0.01,0.01-0.01,0-0.01
				C61.24,55.01,61.24,55.02,61.24,55.02z"/>
			<path class="st0" d="M60.2,55.87C60.19,55.88,60.2,55.88,60.2,55.87C60.21,55.86,60.21,55.86,60.2,55.87z"/>
			<path class="st0" d="M64.73,51.9C64.73,51.9,64.74,51.9,64.73,51.9C64.71,51.93,64.71,51.93,64.73,51.9z"/>
		</g>
		<path id="STROKE_a1303ed5-c158-4ad2-b254-4b6cbf63d895" class="st1" d="M12.52,53.31c0.12-0.09,0.17-0.12,0.14-0.1
			c0.07-0.07,0.09-0.09,0.07-0.08c-0.02,0.02-0.02,0.02-0.01,0.01c0.02-0.01,0.02-0.01,0,0c-0.01,0.01,0,0,0.05-0.04
			c0.05-0.03,0.09-0.06,0.14-0.09c0.05-0.03,0.07-0.04,0.05-0.03c-0.01,0.01-0.02,0.01-0.02,0.01c0,0,0.02-0.01,0.06-0.02
			c0.04-0.01,0.09-0.03,0.16-0.06c0.06-0.03,0.18-0.05,0.35-0.07c0.17-0.02,0.31-0.02,0.39-0.02c0.09,0,0.16,0,0.2,0
			c0.05,0,0.07,0,0.06,0c-0.01,0,0.01,0,0.05,0c0.04,0,0.14-0.01,0.29-0.01c0.15,0,0.32,0.01,0.51,0.04
			c0.19,0.03,0.32,0.06,0.4,0.09c0.08,0.03,0.13,0.05,0.13,0.05c0.01,0,0.06,0.03,0.16,0.08c0.1,0.05,0.15,0.07,0.14,0.07
			c0.14,0.07,0.18,0.1,0.14,0.08c0.06,0.06,0.16,0.13,0.28,0.23c0.12,0.09,0.24,0.16,0.36,0.21c0.11,0.05,0.23,0.12,0.36,0.23
			c0.13,0.1,0.24,0.2,0.33,0.27c0.1,0.08,0.17,0.15,0.23,0.2c0.06,0.05,0.09,0.08,0.09,0.08c0,0,0,0,0.01,0.01
			c0,0.01,0.07,0.05,0.19,0.14c0.12,0.09,0.29,0.24,0.5,0.47c0.22,0.23,0.41,0.47,0.58,0.72c0.17,0.25,0.3,0.45,0.4,0.59
			c0.1,0.14,0.16,0.25,0.21,0.33c0.04,0.08,0.08,0.14,0.1,0.18c0.02,0.04,0.03,0.06,0.04,0.06c0,0,0,0-0.01-0.01
			c-0.01-0.01,0.01,0.02,0.06,0.09c0.05,0.07,0.1,0.14,0.15,0.22c0.05,0.07,0.09,0.13,0.11,0.17c0.03,0.04,0.04,0.06,0.04,0.05
			c0,0,0-0.01-0.01-0.02c-0.01-0.01,0.01,0.02,0.06,0.09c0.05,0.07,0.1,0.13,0.16,0.2c0.06,0.06,0.13,0.13,0.21,0.19
			c0.08,0.06,0.14,0.12,0.18,0.15c0.04,0.04,0.08,0.07,0.11,0.09c0.03,0.02,0.05,0.04,0.08,0.06c0.02,0.01,0.03,0.02,0.01,0.01
			c-0.02-0.01,0.02,0.02,0.11,0.09c0.09,0.07,0.16,0.13,0.23,0.19c0.06,0.05,0.1,0.08,0.11,0.09c0.01,0.01,0.04,0.03,0.08,0.06
			c0.04,0.03,0.07,0.06,0.1,0.07c0.02,0.02,0.03,0.02,0.03,0.02c0-0.01-0.01-0.01-0.03-0.01c-0.02,0,0.07,0.06,0.28,0.2
			c0.2,0.14,0.38,0.24,0.54,0.31c0.16,0.07,0.28,0.11,0.35,0.13c0.07,0.02,0.13,0.04,0.18,0.05c0.05,0.01,0.07,0.02,0.08,0.02
			c0.01,0,0.01,0,0.01,0.01c0,0,0,0,0.02,0.01s0.12,0.02,0.29,0.05c0.17,0.03,0.3,0.06,0.4,0.09c0.09,0.03,0.15,0.05,0.17,0.05
			c0.02,0.01,0.03,0.01,0.04,0.02c0.01,0,0.01,0.01,0.01,0.01c0,0,0.01,0.01,0.03,0.01c0.02,0.01,0.27,0.11,0.75,0.29
			c0,0,0,0.01,0,0.01c0,0,0.01,0,0.01,0c0,0,0.01,0.05,0.03,0.16c0.02,0.1,0.03,0.14,0.02,0.11c-0.01-0.03-0.01-0.03-0.01-0.02
			c0,0.02,0,0.05,0,0.11c0,0.06,0,0.08,0,0.07c0-0.01,0-0.01,0,0.01c0,0.02,0,0.04,0,0.07c0,0.03,0,0.05,0,0.05c0,0,0,0.04,0,0.11
			c0,0.07,0,0.11,0,0.12c0,0.01,0,0.01,0,0.01c0,0,0,0.03,0,0.08c0,0.06,0,0.09,0.01,0.11c0,0.02-0.01,0.06-0.02,0.13
			c-0.02,0.06-0.03,0.12-0.05,0.18c-0.02,0.05-0.03,0.1-0.04,0.15c-0.01,0.05-0.01,0.07-0.01,0.07c0,0,0,0.01-0.01,0.02
			c-0.01,0.01-0.01,0.09-0.02,0.24c0,0.14-0.01,0.27-0.01,0.37c-0.01,0.11-0.01,0.14-0.01,0.09c0-0.04-0.01,0.08-0.02,0.38
			c-0.01,0.3-0.05,0.62-0.12,0.98c-0.06,0.36-0.12,0.61-0.16,0.75c-0.04,0.14-0.07,0.26-0.09,0.34c-0.02,0.09-0.04,0.14-0.05,0.18
			c-0.01,0.03-0.02,0.06-0.03,0.1c-0.01,0.03-0.03,0.08-0.04,0.12c-0.02,0.05-0.02,0.06-0.01,0.03c0.01-0.03,0.01-0.01-0.02,0.05
			c-0.02,0.07-0.04,0.12-0.06,0.17c-0.02,0.05-0.05,0.13-0.1,0.26c-0.05,0.13-0.09,0.23-0.12,0.31c-0.03,0.08-0.05,0.15-0.08,0.21
			c-0.02,0.06-0.05,0.12-0.09,0.19c-0.04,0.07-0.05,0.1-0.04,0.09c0.01-0.01-0.01,0.01-0.04,0.06c-0.03,0.05-0.07,0.12-0.11,0.21
			c-0.04,0.09-0.08,0.17-0.11,0.24c-0.03,0.07-0.06,0.13-0.08,0.17c-0.02,0.05-0.03,0.07-0.03,0.07c0,0,0,0,0,0c0,0,0,0,0.01-0.01
			c0.01-0.01,0,0-0.01,0.02c-0.01,0.03-0.06,0.09-0.13,0.19c-0.07,0.1-0.11,0.15-0.12,0.14c-0.06,0.06-0.13,0.12-0.21,0.19
			c-0.08,0.07-0.14,0.13-0.18,0.17c-0.04,0.05-0.08,0.08-0.11,0.12c-0.03,0.03-0.05,0.05-0.05,0.06c0,0-0.02,0.02-0.05,0.05
			c-0.03,0.03-0.06,0.06-0.08,0.08c-0.03,0.02-0.04,0.03-0.03,0.03c0,0,0.01,0,0.01,0c0,0.01-0.07,0.04-0.22,0.1
			c-0.15,0.06-0.31,0.12-0.49,0.2c-0.17,0.07-0.33,0.13-0.48,0.18c-0.14,0.04-0.25,0.07-0.32,0.07c-0.07,0-0.14,0-0.2,0.01
			c-0.07,0.01-0.1,0.01-0.1,0.01c0,0-0.01,0.01-0.02,0.01c-0.01,0-0.05,0.02-0.11,0.05c-0.06,0.03-0.13,0.05-0.19,0.06
			c-0.06,0-0.12,0.01-0.16,0.01c-0.05,0-0.07,0-0.08,0c-0.01,0-0.01,0-0.01,0c0,0.01-0.06,0.02-0.18,0.05
			c-0.12,0.02-0.27,0.03-0.43,0.01c-0.17-0.02-0.3-0.04-0.39-0.08c-0.09-0.03-0.17-0.06-0.23-0.09c-0.06-0.03-0.09-0.04-0.1-0.04
			c0,0-0.01,0-0.01-0.01c0,0,0,0,0.01,0c0.01,0-0.03-0.01-0.13-0.05c-0.09-0.03-0.16-0.06-0.2-0.08c-0.05-0.02-0.11-0.05-0.2-0.1
			c-0.09-0.05-0.17-0.08-0.23-0.11c-0.07-0.03-0.11-0.04-0.14-0.05c-0.02-0.01-0.04-0.02-0.04-0.02c0,0,0,0,0,0
			c0,0-0.05-0.02-0.17-0.06c-0.11-0.05-0.21-0.08-0.29-0.11c-0.08-0.03-0.14-0.06-0.2-0.09c-0.05-0.03-0.08-0.05-0.07-0.04
			c0,0-0.04-0.02-0.12-0.08c-0.08-0.06-0.13-0.08-0.13-0.08c-0.09-0.08-0.17-0.15-0.22-0.21c-0.05-0.06-0.13-0.16-0.23-0.32
			c-0.11-0.16-0.19-0.29-0.26-0.39c-0.07-0.1-0.11-0.16-0.13-0.19c-0.02-0.02-0.04-0.05-0.06-0.08c-0.02-0.03-0.05-0.06-0.07-0.09
			c-0.02-0.03-0.03-0.04-0.03-0.03c0.01,0.01,0,0-0.01-0.01c-0.01-0.01-0.01-0.01,0.01,0.01c0.02,0.02-0.01-0.02-0.09-0.11
			c-0.07-0.09-0.12-0.15-0.13-0.16c-0.01-0.01-0.01-0.01-0.01-0.01c0.01,0.01-0.02-0.02-0.08-0.09c-0.06-0.07-0.12-0.15-0.17-0.25
			c-0.05-0.1-0.1-0.17-0.13-0.24c-0.03-0.06-0.07-0.14-0.11-0.23c-0.04-0.09-0.08-0.17-0.11-0.23c-0.03-0.06-0.06-0.11-0.08-0.14
			c-0.02-0.03-0.03-0.05-0.04-0.06c-0.01-0.01-0.01-0.01,0,0c0,0.01-0.02-0.04-0.07-0.16c-0.05-0.12-0.08-0.19-0.09-0.21
			c-0.01-0.02-0.02-0.1-0.05-0.24c-0.03-0.13-0.06-0.26-0.08-0.36c-0.03-0.11-0.04-0.17-0.05-0.19c-0.01-0.02-0.01-0.04-0.02-0.07
			c-0.01-0.03-0.03-0.08-0.05-0.15c-0.03-0.07-0.09-0.31-0.18-0.72c-0.09-0.41-0.16-0.77-0.21-1.05c-0.05-0.29-0.08-0.57-0.1-0.85
			c-0.02-0.28-0.03-0.83-0.04-1.64c-0.01-0.81-0.04-1.44-0.09-1.9c-0.05-0.46-0.09-0.72-0.12-0.79"/>
		<path id="STROKE_1014a139-1678-4e42-8cfc-6b58b66142f3" class="st1" d="M66.71,49.3C66.71,49.3,66.71,49.3,66.71,49.3
			c-0.02-0.02,0.02-0.06,0.09-0.14c0.08,0.08,0.11,0.12,0.11,0.12c0.01,0.04,0.08,0.11,0.2,0.22c0.12,0.11,0.27,0.19,0.44,0.24
			c0.17,0.05,0.28,0.11,0.35,0.17c0.06,0.07,0.12,0.12,0.16,0.18c0.04,0.05,0.08,0.09,0.1,0.12c0.02,0.03,0.03,0.03,0.02,0.02
			c-0.01-0.01,0.02,0.02,0.08,0.1c0.06,0.08,0.16,0.16,0.28,0.26c0.12,0.1,0.22,0.17,0.3,0.21c0.08,0.05,0.13,0.08,0.14,0.09
			c0.02,0.01,0.04,0.03,0.07,0.05c0.03,0.02,0.06,0.04,0.1,0.06c0.04,0.02,0.07,0.03,0.1,0.04c0.03,0.01,0.07,0.03,0.12,0.08
			c0.05,0.05,0.17,0.1,0.36,0.16c0.19,0.06,0.35,0.1,0.47,0.11c0.12,0.01,0.23,0.02,0.32,0.04c0.09,0.01,0.17,0.03,0.25,0.04
			c0.07,0.01,0.16,0.02,0.26,0.03c0.1,0.01,0.17,0.02,0.21,0.03c0.04,0.01,0.12,0.01,0.25,0.02c0.13,0,0.34-0.01,0.61-0.05
			c0.27-0.04,0.5-0.07,0.66-0.09c0.17-0.02,0.32-0.05,0.46-0.08c0.14-0.03,0.23-0.06,0.29-0.08c0.05-0.02,0.09-0.04,0.13-0.04
			c0.03-0.01,0.05-0.01,0.05-0.02c0,0,0.01-0.01,0.01-0.01c0.01,0,0.01-0.01,0.01,0c0,0,0.08-0.04,0.24-0.14s0.27-0.18,0.35-0.26
			c0.08-0.08,0.15-0.15,0.22-0.2c0.07-0.05,0.12-0.09,0.16-0.11c0.03-0.02,0.04-0.02,0.02-0.01c0.04-0.05,0.06-0.07,0.05-0.07
			c0.01-0.02,0.02-0.04,0.03-0.05c0.01-0.01,0.01-0.02,0.01-0.01c0,0,0,0.01-0.01,0.01c0,0,0.03-0.03,0.09-0.08
			c0.06-0.06,0.09-0.09,0.09-0.08c0.06-0.06,0.08-0.08,0.07-0.07c0.05-0.1,0.07-0.13,0.05-0.1c0.06-0.18,0.08-0.23,0.08-0.18
			c0,0.06,0.04-0.07,0.12-0.39c0.08-0.32,0.17-0.6,0.26-0.85c0.09-0.25,0.17-0.46,0.23-0.64c0.07-0.18,0.1-0.26,0.09-0.26
			c-0.01,0.01,0.02-0.14,0.09-0.44c0.06-0.3,0.12-0.58,0.17-0.84c0.05-0.27,0.09-0.51,0.11-0.74c0.03-0.23,0.07-0.45,0.12-0.66
			c0.05-0.21,0.11-0.47,0.19-0.78c0.07-0.31,0.11-0.56,0.12-0.76c0.01-0.2,0.04-0.4,0.11-0.59c0.06-0.19,0.11-0.49,0.14-0.88
			c0.03-0.39,0.05-0.68,0.07-0.87c0.02-0.19,0.01-0.47-0.03-0.83c-0.03-0.37-0.07-0.65-0.11-0.85c-0.04-0.2-0.06-0.36-0.07-0.46
			c-0.01-0.1-0.01-0.16-0.01-0.16c0-0.01,0-0.01,0,0c0,0.01,0-0.01-0.01-0.07c-0.01-0.05-0.02-0.19-0.05-0.42
			c-0.02-0.23-0.08-0.48-0.17-0.76c-0.09-0.28-0.16-0.48-0.2-0.6c-0.04-0.12-0.07-0.19-0.09-0.2c-0.02-0.02-0.04-0.05-0.07-0.09
			c-0.03-0.05-0.06-0.1-0.09-0.15c-0.03-0.05-0.04-0.07-0.04-0.06c0,0.01-0.01-0.02-0.03-0.09c-0.03-0.07-0.08-0.16-0.16-0.27
			c-0.08-0.11-0.15-0.21-0.21-0.29c-0.06-0.08-0.12-0.16-0.19-0.24c-0.07-0.08-0.13-0.14-0.19-0.18c-0.06-0.04-0.09-0.07-0.11-0.09
			c-0.01-0.01-0.04-0.03-0.08-0.06c-0.04-0.03-0.05-0.04-0.05-0.04c0,0,0.01,0,0.01,0c0,0-0.02-0.02-0.06-0.06
			c-0.04-0.04-0.07-0.06-0.08-0.08c-0.01-0.01-0.02-0.02-0.01-0.01c0,0-0.01,0-0.03-0.02c-0.02-0.02-0.05-0.04-0.09-0.07
			c-0.04-0.03-0.06-0.04-0.06-0.04c0,0-0.02-0.01-0.06-0.04c-0.04-0.02-0.07-0.04-0.08-0.04c-0.01,0,0,0,0.02,0.01
			c0.02,0.01-0.02-0.01-0.13-0.06c-0.11-0.05-0.21-0.09-0.29-0.12c-0.08-0.03-0.14-0.05-0.18-0.07c-0.04-0.02-0.08-0.04-0.12-0.06
			c-0.04-0.02-0.07-0.04-0.11-0.06c-0.03-0.02-0.07-0.04-0.09-0.06c-0.03-0.02-0.05-0.03-0.06-0.03c-0.01,0-0.01,0,0.01,0
			c0.02,0,0,0-0.06-0.02c-0.06-0.01-0.12-0.03-0.18-0.04c-0.06-0.01-0.12-0.04-0.16-0.07c-0.05-0.04-0.07-0.05-0.08-0.06
			c0,0,0,0,0,0.01c0.01,0.01-0.01-0.01-0.03-0.05c-0.03-0.04-0.08-0.07-0.14-0.09c-0.07-0.02-0.13-0.03-0.18-0.02
			c-0.05,0.01-0.08,0.01-0.07,0.01c0,0,0.01,0,0.01,0c0,0,0,0,0,0c0,0,0,0,0.01,0c0.01,0-0.02,0-0.08-0.01
			c-0.07-0.01-0.14-0.03-0.21-0.05c-0.08-0.02-0.12-0.03-0.14-0.04c-0.02,0-0.03,0-0.04,0c-0.01,0-0.02,0-0.01,0
			c0.01,0-0.01,0-0.04-0.01c-0.03,0-0.08,0-0.14,0.01c-0.06,0.01-0.09,0.02-0.11,0.02c-0.02,0-0.04,0-0.06,0.01
			c-0.02,0-0.07,0-0.14,0c-0.07,0-0.1-0.01-0.09,0c0.01,0,0.01,0-0.01-0.01c-0.02-0.01-0.1-0.02-0.22-0.02c-0.13,0-0.25,0-0.37,0
			c-0.12,0.01-0.17,0.01-0.15,0.01c0.02,0,0.02,0,0,0c-0.02,0-0.04,0-0.08,0c-0.04,0-0.06,0-0.07,0.01c-0.01,0-0.02,0.01-0.02,0.01
			c0,0-0.05,0-0.14,0c-0.09,0-0.2,0.02-0.31,0.07c-0.11,0.05-0.19,0.09-0.24,0.14c-0.04,0.05-0.09,0.09-0.13,0.13
			c-0.04,0.04-0.06,0.06-0.06,0.06c0,0,0,0,0,0c0,0,0,0,0.01-0.01c0.01-0.01-0.01,0.01-0.06,0.06c-0.05,0.05-0.07,0.08-0.07,0.1
			c0,0.02-0.03,0.07-0.1,0.16c-0.07,0.09-0.13,0.15-0.19,0.18c-0.05,0.04-0.1,0.08-0.15,0.12c-0.05,0.05-0.08,0.07-0.08,0.07
			c0,0,0,0,0-0.01c0-0.01,0,0-0.01,0.02c-0.01,0.02-0.06,0.09-0.16,0.2c-0.1,0.11-0.19,0.22-0.27,0.31
			c-0.08,0.09-0.14,0.17-0.17,0.24c-0.03,0.07-0.05,0.11-0.05,0.13s-0.02,0.05-0.04,0.08c-0.02,0.03-0.04,0.07-0.07,0.12
			c-0.03,0.05-0.04,0.07-0.03,0.07c0,0,0,0,0,0.01c-0.01,0.01-0.02,0.03-0.04,0.07c-0.02,0.04-0.05,0.12-0.09,0.25
			c-0.03,0.13-0.06,0.24-0.06,0.32c-0.01,0.09-0.03,0.21-0.08,0.37c-0.04,0.16-0.07,0.3-0.09,0.4c-0.01,0.11-0.02,0.19-0.01,0.24
			c0.01,0.05,0.02,0.1,0.02,0.13c0,0.03,0.01,0.06,0.01,0.09c0,0.03,0.01,0.05,0.01,0.05c0,0.01,0.01,0.09,0.04,0.24
			c0.03,0.15,0.05,0.31,0.08,0.49c0.02,0.17,0.03,0.32,0.02,0.45c-0.01,0.12-0.01,0.2-0.01,0.22c0,0.02,0,0.07,0,0.13
			c0,0.06,0,0.16,0,0.31c0,0.14-0.01,0.3-0.02,0.48s-0.02,0.34-0.02,0.48c0,0.14,0,0.31,0,0.51c0,0.2-0.01,0.37-0.03,0.51
			c-0.02,0.14-0.04,0.25-0.05,0.33c-0.01,0.08-0.02,0.14-0.02,0.18c0,0.04,0,0.06,0,0.08c0,0.01,0,0.04-0.01,0.09
			c-0.01,0.05,0,0.12,0.01,0.22c0.01,0.1,0.03,0.21,0.05,0.32c0.02,0.12,0.03,0.2,0.02,0.25c0,0.05-0.01,0.09-0.01,0.11
			c0,0.02-0.01,0.05-0.02,0.09c-0.01,0.04-0.02,0.1-0.03,0.18c-0.01,0.08-0.02,0.14-0.03,0.17c0,0.03-0.01,0.07-0.01,0.13
			c0,0.06,0,0.08-0.01,0.07c-0.01-0.01,0,0.01,0.01,0.05c0.01,0.04,0,0.21-0.03,0.52c-0.03,0.3-0.07,0.53-0.11,0.68
			c-0.04,0.15-0.08,0.31-0.13,0.47c-0.04,0.16-0.07,0.25-0.09,0.28"/>
	</g>
	<g id="New_Layer_10_Copy_1">
		<path id="STROKE_43af2972-6db4-4952-9165-078abd2ef4be" class="st2" d="M13.9,33.72l0,0.44c0,0.17,0,0.26,0,0.24
			c0-0.01,0,0.05-0.01,0.18c-0.01,0.13-0.04,0.28-0.09,0.44c-0.05,0.16-0.08,0.27-0.09,0.32c-0.01,0.05-0.05,0.25-0.12,0.6
			c-0.07,0.34-0.17,1.1-0.31,2.26c-0.14,1.16-0.25,2.14-0.33,2.93c-0.08,0.79-0.13,1.33-0.16,1.63c-0.03,0.3-0.04,0.63-0.05,0.98
			c-0.01,0.36-0.01,1.06-0.01,2.1c0,1.04-0.01,1.89-0.02,2.53c-0.01,0.65-0.02,1.1-0.02,1.37c0,0.27,0,0.47,0,0.6
			c0,0.13,0.01,0.27,0.02,0.42c0.01,0.15,0.01,0.3,0.01,0.45c0,0.14,0,0.4,0.01,0.77c0.01,0.37,0.03,0.84,0.08,1.42
			c0.05,0.58,0.08,1,0.11,1.26c0.03,0.26,0.07,0.58,0.13,0.94c0.06,0.37,0.1,0.81,0.15,1.32c0.04,0.51,0.08,0.91,0.12,1.18
			c0.04,0.27,0.09,0.58,0.14,0.92c0.05,0.34,0.09,0.61,0.1,0.84c0.02,0.22,0.03,0.38,0.04,0.47c0.01,0.1,0.02,0.21,0.04,0.33
			c0.02,0.13,0.04,0.28,0.06,0.45c0.03,0.17,0.05,0.32,0.08,0.45c0.02,0.12,0.05,0.23,0.07,0.33c0.02,0.1,0.05,0.19,0.08,0.28
			c0.03,0.09,0.05,0.18,0.08,0.27c0.03,0.09,0.05,0.18,0.08,0.28c0.02,0.09,0.05,0.18,0.07,0.28c0.02,0.1,0.04,0.17,0.06,0.23
			c0.02,0.06,0.05,0.16,0.09,0.3c0.04,0.14,0.06,0.22,0.06,0.22c0,0,0.05,0.14,0.14,0.4c0.09,0.26,0.19,0.52,0.3,0.76
			c0.11,0.24,0.19,0.41,0.24,0.52c0.05,0.1,0.08,0.18,0.1,0.22c0.02,0.04,0.06,0.13,0.14,0.27c0.07,0.14,0.11,0.21,0.11,0.22
			c0,0,0.03,0.05,0.08,0.15c0.05,0.1,0.1,0.18,0.14,0.25c0.04,0.07,0.09,0.14,0.13,0.21c0.04,0.07,0.1,0.14,0.16,0.22
			c0.06,0.08,0.1,0.13,0.11,0.15c0.01,0.02,0.11,0.12,0.29,0.31c0.18,0.19,0.37,0.34,0.57,0.47c0.2,0.13,0.32,0.21,0.38,0.24
			c0.06,0.03,0.12,0.06,0.2,0.08c0.07,0.02,0.16,0.05,0.25,0.07s0.15,0.03,0.15,0.03c0,0,0.07,0.01,0.2,0.05
			c0.13,0.03,0.27,0.07,0.43,0.13c0.16,0.05,0.25,0.08,0.25,0.08c0,0,0.03,0,0.08,0.01c0.05,0.01,0.09,0.02,0.12,0.02
			c0.03,0.01,0.2,0.04,0.51,0.1c0.31,0.06,0.54,0.08,0.71,0.08c0.16-0.01,0.3-0.03,0.41-0.06c0.11-0.03,0.17-0.05,0.17-0.05
			c0,0,0.06-0.03,0.18-0.07c0.12-0.05,0.26-0.11,0.43-0.2c0.17-0.08,0.28-0.14,0.33-0.17c0.06-0.03,0.08-0.05,0.09-0.04
			c0,0,0.07-0.03,0.2-0.1c0.13-0.07,0.24-0.14,0.34-0.22c0.1-0.08,0.18-0.15,0.24-0.21c0.06-0.06,0.11-0.11,0.14-0.14
			c0.03-0.03,0.11-0.12,0.25-0.26c0.14-0.14,0.2-0.21,0.21-0.21c0.12-0.15,0.19-0.25,0.21-0.28c0.02-0.04,0.06-0.09,0.1-0.16
			c0.04-0.07,0.11-0.2,0.22-0.41c0.1-0.21,0.18-0.4,0.23-0.57c0.05-0.17,0.09-0.3,0.11-0.37c0.02-0.07,0.05-0.16,0.08-0.25
			c0.03-0.09,0.06-0.17,0.08-0.24c0.02-0.07,0.05-0.18,0.08-0.33c0.03-0.14,0.08-0.35,0.13-0.62c0.05-0.27,0.1-0.49,0.13-0.66
			c0.03-0.16,0.05-0.27,0.06-0.31c0.01-0.05,0.02-0.13,0.03-0.25c0.01-0.12,0.04-0.48,0.09-1.08c0.05-0.6,0.09-1.08,0.13-1.46
			c0.04-0.38,0.07-0.61,0.07-0.7c0.01-0.09,0.02-0.16,0.03-0.21c0,0.35,0,0.56-0.01,0.62c-0.01,0.06-0.01,0.12-0.02,0.18
			s-0.01,0.13-0.02,0.23c-0.01,0.1-0.04,0.53-0.09,1.29c-0.05,0.76-0.08,1.47-0.1,2.12c-0.01,0.65-0.02,1.13-0.03,1.42
			c-0.01,0.29,0,0.51,0.02,0.66c0.02,0.14,0.05,0.3,0.11,0.46c0.05,0.16,0.1,0.3,0.15,0.4c0.04,0.1,0.08,0.18,0.11,0.24
			c0.03,0.06,0.07,0.13,0.13,0.22c0.06,0.09,0.1,0.15,0.14,0.2c0.03,0.04,0.06,0.08,0.09,0.11c0.03,0.03,0.07,0.08,0.13,0.14
			c0.06,0.06,0.11,0.1,0.14,0.13c0.04,0.03,0.07,0.05,0.1,0.07c0.03,0.02,0.09,0.04,0.19,0.07s0.23,0.07,0.41,0.11
			c0.17,0.04,0.26,0.06,0.26,0.06c0,0,0.07,0.02,0.21,0.05c0.14,0.04,0.24,0.06,0.3,0.08c0.06,0.02,0.14,0.05,0.24,0.08
			c0.09,0.03,0.17,0.06,0.23,0.08c0.06,0.02,0.11,0.03,0.16,0.03c0.04,0,0.11,0.01,0.19,0.03c0.08,0.01,0.13,0.02,0.13,0.02
			c0,0,0.03,0,0.09,0.01c0.06,0.01,0.14,0.03,0.25,0.05c0.11,0.02,0.16,0.03,0.17,0.04c0,0,0.04,0.01,0.1,0.02
			c0.07,0.01,0.16,0.02,0.29,0.04c0.13,0.02,0.24,0.04,0.32,0.06c0.09,0.02,0.16,0.04,0.24,0.06c0.07,0.02,0.14,0.04,0.21,0.05
			c0.07,0.01,0.14,0.02,0.22,0.03c0.08,0,0.16,0.01,0.24,0.02c0.08,0.01,0.15,0.02,0.21,0.03c0.06,0.01,0.18,0.02,0.36,0.02
			c0.18,0,0.37,0.01,0.56,0.01c0.19,0,0.32,0,0.39,0c0.07,0,0.15,0,0.23,0.01c0.08,0,0.39,0,0.95,0c0.55,0,0.95,0,1.2,0
			c0.25,0,0.41,0,0.49,0c0.08,0,0.11,0,0.12,0.01c0,0,0.29,0,0.87,0c0.58,0,0.93,0,1.04,0c0.11,0,0.28,0,0.49,0
			c0.21,0,0.41,0,0.59,0c0.18,0,0.31,0.01,0.38,0.01c0.07,0.01,0.13,0.01,0.18,0.02c0.05,0,0.09,0.01,0.14,0.01
			c0.05,0,0.08,0,0.11,0c0.02,0,0.16,0.02,0.4,0.05c0.24,0.04,0.7,0.06,1.38,0.06c0.68,0,1.19-0.01,1.52-0.05
			c0.33-0.04,0.61-0.05,0.83-0.05c0.22,0,0.44-0.01,0.66-0.02c0.22-0.02,0.42-0.04,0.59-0.06c0.17-0.02,0.29-0.03,0.37-0.04
			c0.08,0,0.14-0.01,0.18-0.01c0.04,0,0.06,0,0.07,0c0,0,0.26-0.01,0.77-0.04c0.51-0.03,0.9-0.05,1.18-0.07
			c0.28-0.02,0.49-0.04,0.63-0.06c0.15-0.02,0.29-0.03,0.42-0.05c0.13-0.01,0.25-0.03,0.36-0.04c0.11-0.01,0.22-0.03,0.32-0.05
			c0.1-0.02,0.19-0.03,0.26-0.05c0.07-0.02,0.14-0.03,0.19-0.05c0.06-0.02,0.11-0.04,0.17-0.06c0.06-0.02,0.17-0.06,0.33-0.11
			c0.16-0.05,0.26-0.08,0.31-0.08c0.04-0.01,0.13-0.03,0.25-0.05c0.12-0.03,0.21-0.05,0.28-0.07c0.06-0.02,0.09-0.03,0.1-0.03
			c0-0.01,0.12-0.04,0.36-0.11c0.24-0.06,0.49-0.12,0.76-0.17c0.27-0.05,0.45-0.08,0.54-0.11"/>
		<path id="STROKE_7ab295a6-bcfe-4f51-8625-5a7b9f59cfac" class="st2" d="M53.6,58.56l0.03-0.04c0.06-0.03,0.2-0.05,0.41-0.05
			c0.21-0.01,0.41-0.02,0.6-0.03c0.19-0.02,0.32-0.04,0.41-0.06c0.09-0.02,0.16-0.05,0.22-0.06c0.06-0.01,0.25-0.05,0.57-0.11
			c0.32-0.06,0.58-0.13,0.8-0.19c0.21-0.07,0.37-0.12,0.46-0.15c0.09-0.03,0.14-0.05,0.16-0.05c0.01,0,0.05-0.01,0.11-0.02
			c0.06-0.01,0.16-0.04,0.29-0.07c0.13-0.03,0.19-0.05,0.18-0.04c-0.01,0,0.05,0,0.17-0.01c0.12-0.01,0.28-0.09,0.48-0.24
			c0.2-0.14,0.36-0.28,0.49-0.41c0.13-0.13,0.22-0.21,0.26-0.24c0.04-0.03,0.15-0.08,0.34-0.15c0.18-0.07,0.43-0.21,0.74-0.42
			c0.31-0.21,0.61-0.42,0.9-0.62c0.29-0.2,0.46-0.32,0.52-0.36c0.06-0.04,0.21-0.16,0.46-0.36c0.25-0.2,0.44-0.36,0.59-0.48
			c0.14-0.12,0.25-0.22,0.31-0.29c0.07-0.07,0.12-0.12,0.15-0.16c0.03-0.04,0.07-0.08,0.11-0.13c0.04-0.05,0.11-0.13,0.21-0.25
			c0.1-0.12,0.23-0.27,0.38-0.44c0.15-0.17,0.23-0.27,0.25-0.28c0.01-0.01,0.16-0.19,0.43-0.52s0.51-0.64,0.71-0.94
			c0.2-0.29,0.35-0.52,0.46-0.67c0.1-0.15,0.22-0.31,0.36-0.45c0.13-0.15,0.28-0.35,0.45-0.6c0.16-0.25,0.31-0.6,0.44-1.03
			c0.13-0.43,0.22-0.76,0.26-1c0.04-0.24,0.1-0.51,0.18-0.83c0.08-0.31,0.15-0.62,0.2-0.92c0.06-0.3,0.09-0.54,0.09-0.72
			c0-0.18,0.01-0.3,0.02-0.37c0.01-0.07,0.02-0.13,0.03-0.2c0.01-0.06,0.03-0.13,0.05-0.21c0.02-0.08,0.04-0.18,0.06-0.33
			c0.02-0.14,0.04-0.26,0.05-0.36c0.01-0.09,0.02-0.19,0.03-0.27c0-0.09,0.01-0.14,0-0.14c0,0,0.01-0.11,0.03-0.32
			c0.02-0.21,0.05-0.47,0.08-0.8c0.03-0.33,0.05-0.6,0.07-0.82c0.01-0.22,0.02-0.41,0.02-0.59c0-0.17,0-0.3,0-0.39
			c0-0.08,0-0.2,0.01-0.36c0.01-0.16,0.02-0.39,0.02-0.69c0-0.3,0-0.59-0.01-0.88c-0.01-0.29,0-0.59,0.02-0.92
			c0.02-0.32,0.06-0.56,0.1-0.71c0.04-0.15,0.07-0.3,0.1-0.43c0.03-0.13,0.05-0.21,0.05-0.24c0.01-0.03,0.02-0.08,0.05-0.16
			c0.03-0.08,0.06-0.16,0.11-0.25c0.04-0.09,0.07-0.13,0.07-0.14c0,0,0.06-0.09,0.18-0.24c0.12-0.16,0.21-0.27,0.27-0.34
			c0.06-0.07,0.11-0.12,0.15-0.17c0.04-0.04,0.06-0.06,0.06-0.07c0,0,0.03-0.03,0.09-0.08c0.06-0.05,0.11-0.08,0.15-0.11
			c0.04-0.03,0.09-0.06,0.15-0.09c0.06-0.03,0.12-0.07,0.19-0.11c0.07-0.04,0.14-0.07,0.19-0.11c0.06-0.03,0.16-0.08,0.31-0.14
			c0.15-0.06,0.28-0.11,0.38-0.14c0.1-0.03,0.18-0.06,0.24-0.08c0.06-0.02,0.09-0.03,0.09-0.04c0,0,0.04-0.01,0.1-0.04
			c0.07-0.02,0.14-0.04,0.22-0.06c0.08-0.01,0.17-0.03,0.25-0.05c0.09-0.02,0.16-0.03,0.22-0.05c0.06-0.02,0.11-0.03,0.15-0.04
			c0.04-0.01,0.12-0.02,0.23-0.03c0.11-0.01,0.19-0.01,0.26,0.01c0.07,0.02,0.12,0.03,0.17,0.05c0.05,0.01,0.08,0.02,0.11,0.03
			c0.03,0.01,0.08,0.02,0.15,0.03c0.07,0.01,0.15,0.04,0.24,0.06c0.09,0.03,0.19,0.07,0.3,0.13c0.11,0.06,0.18,0.1,0.2,0.11
			c0.02,0.01,0.03,0.02,0.03,0.02c0,0,0.06,0.04,0.19,0.11c0.12,0.07,0.26,0.15,0.42,0.25c0.15,0.09,0.27,0.17,0.36,0.22
			c0.09,0.06,0.18,0.11,0.28,0.17c0.1,0.06,0.15,0.09,0.15,0.09c0.01,0,0.1,0.08,0.28,0.24c0.18,0.16,0.35,0.37,0.52,0.63
			c0.17,0.26,0.28,0.48,0.35,0.67c0.07,0.19,0.11,0.34,0.14,0.44c0.03,0.1,0.04,0.18,0.05,0.22c0.01,0.04,0.03,0.12,0.05,0.21
			c0.02,0.1,0.04,0.17,0.05,0.22c0.01,0.05,0.02,0.09,0.03,0.12c0.01,0.04,0.03,0.14,0.07,0.3c0.04,0.17,0.08,0.42,0.11,0.75
			c0.04,0.33,0.07,0.65,0.09,0.93C76.99,40,77,40.3,77,40.61c0,0.31,0,0.57,0,0.78c0,0.21,0,0.41,0,0.59c0,0.19-0.01,0.33-0.01,0.43
			c-0.01,0.1-0.01,0.18-0.02,0.24c-0.01,0.06-0.02,0.11-0.02,0.15c-0.01,0.04-0.02,0.12-0.03,0.24c-0.02,0.12-0.05,0.44-0.11,0.95
			c-0.06,0.51-0.12,1-0.2,1.47c-0.07,0.47-0.13,0.81-0.17,1.02c-0.04,0.21-0.07,0.38-0.1,0.5c-0.03,0.12-0.06,0.24-0.09,0.35
			c-0.03,0.11-0.05,0.17-0.05,0.17c0,0-0.02,0.06-0.05,0.18c-0.04,0.12-0.09,0.32-0.16,0.6c-0.07,0.28-0.18,0.57-0.34,0.89
			c-0.15,0.31-0.28,0.55-0.38,0.7c-0.1,0.15-0.19,0.28-0.27,0.4c-0.08,0.12-0.14,0.21-0.17,0.26c-0.03,0.06-0.07,0.12-0.11,0.2
			c-0.04,0.08-0.07,0.13-0.09,0.17c-0.02,0.04-0.03,0.06-0.03,0.06c0,0-0.08,0.14-0.24,0.41c-0.16,0.27-0.33,0.54-0.51,0.81
			c-0.18,0.26-0.31,0.46-0.39,0.58c-0.08,0.12-0.14,0.22-0.19,0.29c-0.05,0.08-0.07,0.12-0.08,0.13c-0.01,0.01-0.03,0.05-0.06,0.1
			c-0.03,0.06-0.08,0.13-0.14,0.23c-0.06,0.09-0.11,0.18-0.17,0.27c-0.06,0.09-0.09,0.13-0.09,0.14c0,0-0.04,0.06-0.11,0.16
			c-0.07,0.1-0.17,0.25-0.29,0.44c-0.13,0.19-0.22,0.33-0.27,0.41c-0.06,0.08-0.12,0.16-0.2,0.26c-0.08,0.1-0.16,0.2-0.24,0.29
			c-0.08,0.1-0.15,0.18-0.21,0.25c-0.06,0.07-0.12,0.14-0.18,0.22c-0.06,0.07-0.12,0.14-0.18,0.22c-0.06,0.07-0.12,0.14-0.18,0.2
			c-0.06,0.07-0.11,0.11-0.15,0.15c-0.03,0.03-0.1,0.08-0.19,0.16c-0.09,0.07-0.15,0.12-0.18,0.15c-0.03,0.03-0.11,0.08-0.23,0.17
			c-0.12,0.09-0.29,0.23-0.51,0.41c-0.22,0.19-0.41,0.34-0.56,0.47c-0.15,0.12-0.28,0.23-0.37,0.31c-0.1,0.08-0.17,0.15-0.23,0.21
			c-0.06,0.06-0.13,0.14-0.22,0.23c-0.08,0.09-0.13,0.14-0.13,0.14c0,0-0.09,0.11-0.27,0.33c-0.18,0.22-0.34,0.38-0.47,0.48
			c-0.13,0.1-0.34,0.27-0.63,0.5c-0.29,0.23-0.62,0.46-0.99,0.69c-0.37,0.23-0.62,0.38-0.76,0.43c-0.13,0.06-0.33,0.15-0.6,0.28
			c-0.26,0.13-0.45,0.23-0.56,0.29c-0.11,0.07-0.19,0.12-0.24,0.15c-0.05,0.03-0.11,0.07-0.17,0.1c-0.06,0.03-0.13,0.07-0.22,0.12
			c-0.09,0.04-0.17,0.09-0.25,0.14c-0.08,0.05-0.15,0.1-0.22,0.14c-0.07,0.04-0.15,0.1-0.24,0.15c-0.09,0.06-0.14,0.09-0.14,0.09
			c0,0-0.29,0.12-0.86,0.36c-0.57,0.24-1.04,0.44-1.4,0.6c-0.36,0.17-0.64,0.3-0.84,0.41c-0.2,0.11-0.37,0.19-0.5,0.27
			c-0.13,0.07-0.27,0.19-0.41,0.34c-0.14,0.16-0.3,0.29-0.5,0.4c-0.2,0.11-0.37,0.19-0.51,0.26c-0.14,0.06-0.26,0.12-0.34,0.17
			c-0.09,0.05-0.15,0.08-0.18,0.1c-0.03,0.02-0.14,0.07-0.32,0.14c-0.18,0.07-0.32,0.12-0.41,0.14c-0.1,0.02-0.16,0.03-0.19,0.04
			c-0.03,0.01-0.05,0.01-0.05,0.01c-0.01,0-0.08,0.02-0.21,0.06c-0.14,0.04-0.28,0.09-0.43,0.15c-0.15,0.05-0.26,0.09-0.32,0.1
			c-0.06,0.02-0.13,0.03-0.21,0.06c-0.08,0.02-0.16,0.05-0.25,0.09c-0.09,0.04-0.16,0.06-0.21,0.08c-0.05,0.02-0.08,0.03-0.08,0.03
			c0,0-0.04,0.01-0.12,0.02c-0.08,0.01-0.17,0.02-0.26,0.03c-0.1,0.01-0.15,0.01-0.16,0.01s-0.04,0.01-0.11,0.03
			c-0.06,0.02-0.12,0.04-0.18,0.06c-0.06,0.02-0.11,0.04-0.16,0.05c-0.05,0.01-0.18,0.05-0.38,0.12c-0.21,0.07-0.43,0.17-0.66,0.3
			c-0.24,0.13-0.45,0.23-0.62,0.31c-0.18,0.08-0.34,0.12-0.47,0.14c-0.14,0.01-0.25,0.03-0.35,0.04"/>
		<path id="STROKE_3ab7e772-5513-479d-9c27-646fb067ba4c" class="st2" d="M45.34,27.83l0.15,0.13c0.08,0.08,0.12,0.12,0.12,0.13
			c0.12,0.16,0.21,0.26,0.25,0.31c0.04,0.05,0.07,0.07,0.07,0.08c0.01,0.01,0.04,0.03,0.1,0.08c0.06,0.04,0.19,0.16,0.39,0.34
			c0.21,0.18,0.37,0.34,0.49,0.48c0.12,0.14,0.21,0.23,0.26,0.27c0.06,0.05,0.08,0.07,0.09,0.07c0,0,0.04,0.03,0.11,0.1
			c0.07,0.06,0.12,0.11,0.14,0.13c0.02,0.02,0.06,0.07,0.12,0.13c0.06,0.06,0.08,0.08,0.07,0.07c-0.01-0.02,0.05,0.04,0.18,0.17
			c0.13,0.13,0.25,0.25,0.34,0.38c0.1,0.12,0.17,0.22,0.22,0.29c0.05,0.07,0.08,0.12,0.11,0.15c0.02,0.03,0.05,0.07,0.09,0.12
			c0.04,0.05,0.11,0.14,0.21,0.28c0.11,0.13,0.19,0.24,0.24,0.31c0.06,0.07,0.11,0.15,0.16,0.22c0.05,0.07,0.09,0.13,0.12,0.18
			c0.03,0.05,0.09,0.14,0.19,0.29c0.09,0.14,0.16,0.26,0.21,0.34c0.05,0.08,0.09,0.15,0.13,0.21c0.04,0.06,0.1,0.17,0.2,0.33
			c0.1,0.16,0.19,0.31,0.27,0.45c0.08,0.14,0.22,0.33,0.4,0.58c0.19,0.25,0.31,0.4,0.36,0.46c0.05,0.06,0.11,0.13,0.16,0.19
			c0.06,0.07,0.1,0.12,0.13,0.16c0.03,0.04,0.06,0.09,0.11,0.15c0.04,0.06,0.06,0.09,0.07,0.1c0.01,0.01,0.02,0.03,0.05,0.08
			c0.03,0.04,0.05,0.07,0.06,0.07c0.01,0,0.15,0.23,0.42,0.68c0.27,0.45,0.45,0.77,0.55,0.96c0.09,0.19,0.17,0.37,0.24,0.56
			c0.06,0.19,0.11,0.32,0.14,0.41c0.03,0.08,0.06,0.15,0.08,0.21c0.02,0.06,0.04,0.11,0.06,0.15c0.02,0.05,0.05,0.1,0.08,0.16
			c0.03,0.06,0.1,0.23,0.21,0.52c0.1,0.28,0.2,0.55,0.29,0.81c0.09,0.26,0.16,0.45,0.2,0.57c0.04,0.13,0.08,0.24,0.11,0.33
			c0.03,0.1,0.05,0.14,0.05,0.15c0,0,0.08,0.26,0.24,0.76c0.16,0.5,0.29,0.88,0.39,1.15c0.1,0.27,0.19,0.49,0.26,0.66
			c0.07,0.18,0.12,0.3,0.14,0.37c0.02,0.07,0.04,0.12,0.05,0.16c0.01,0.03,0.03,0.08,0.06,0.15c0.03,0.07,0.04,0.12,0.05,0.13
			c0.01,0.01,0.06,0.16,0.16,0.45c0.1,0.29,0.2,0.58,0.3,0.89c0.1,0.3,0.18,0.59,0.25,0.85s0.1,0.44,0.12,0.51
			c0.02,0.08,0.03,0.11,0.03,0.12c0,0,0.02,0.07,0.04,0.19c0.02,0.12,0.05,0.27,0.07,0.43c0.02,0.16,0.04,0.28,0.06,0.36
			c0.01,0.08,0.03,0.15,0.04,0.2c0.01,0.05,0.02,0.09,0.02,0.11c0,0.02,0.01,0.02,0.01,0.01c0.01-0.01,0.04,0.21,0.1,0.66
			c0.06,0.45,0.1,0.76,0.11,0.94c0.02,0.17,0.03,0.37,0.04,0.58c0.01,0.21,0.03,0.41,0.06,0.59c0.04,0.18,0.06,0.31,0.08,0.4
			c0.01,0.09,0.03,0.16,0.03,0.24c0.01,0.07,0.01,0.11,0.01,0.11c0,0,0,0.02,0,0.05c0,0.03,0.02,0.13,0.04,0.31
			c0.03,0.18,0.04,0.31,0.05,0.39c0.01,0.08,0.01,0.2,0.02,0.36c0,0.16,0.01,0.27,0.01,0.32c0.01,0.05,0.01,0.12,0.03,0.18
			c0.01,0.07,0.02,0.19,0.03,0.35c0.01,0.17,0.01,0.25,0.01,0.25c0,0,0,0.03,0.01,0.08c0.01,0.05,0.01,0.39,0.02,1.02
			c0.01,0.63,0,1.03-0.02,1.21c-0.02,0.18-0.04,0.32-0.06,0.42c-0.02,0.1-0.04,0.19-0.05,0.25c-0.02,0.07-0.03,0.1-0.03,0.11
			c0,0-0.01,0.03-0.04,0.09c-0.02,0.06-0.04,0.09-0.04,0.11c0,0.01,0.01-0.01,0.03-0.06"/>
		<path id="STROKE_b2d0de09-e963-4cc8-8337-d8fc54617355" class="st2" d="M13.98,33.96c0-0.58,0-0.92,0-1.03
			c0-0.11,0.01-0.19,0.02-0.26c0.01-0.06,0.02-0.1,0.02-0.1c0,0,0-0.02,0.01-0.06c0-0.04,0.04-0.16,0.1-0.37
			c0.06-0.21,0.13-0.4,0.21-0.57c0.08-0.17,0.13-0.29,0.16-0.35c0.03-0.06,0.08-0.13,0.14-0.22c0.06-0.09,0.13-0.18,0.2-0.28
			c0.08-0.1,0.12-0.16,0.13-0.17c0.01-0.01,0.05-0.06,0.12-0.16c0.07-0.09,0.21-0.28,0.41-0.56c0.2-0.28,0.36-0.51,0.48-0.69
			c0.11-0.18,0.26-0.37,0.42-0.56c0.17-0.19,0.32-0.35,0.46-0.47c0.14-0.12,0.34-0.29,0.6-0.5c0.26-0.22,0.5-0.39,0.7-0.52
			c0.2-0.13,0.4-0.23,0.59-0.3c0.19-0.07,0.29-0.11,0.31-0.1c0.01,0,0.09-0.03,0.24-0.1c0.15-0.07,0.27-0.13,0.35-0.19
			c0.09-0.06,0.16-0.1,0.21-0.14c0.05-0.04,0.09-0.06,0.11-0.09c0.03-0.02,0.07-0.06,0.14-0.11c0.07-0.05,0.13-0.1,0.21-0.15
			c0.07-0.05,0.12-0.08,0.15-0.1c0.02-0.02,0.04-0.02,0.04-0.02c0,0,0.1-0.06,0.29-0.19c0.19-0.13,0.36-0.25,0.53-0.37
			c0.16-0.12,0.39-0.22,0.67-0.31c0.29-0.09,0.64-0.22,1.06-0.38c0.42-0.17,0.74-0.31,0.94-0.44c0.21-0.12,0.4-0.23,0.58-0.32
			c0.18-0.09,0.29-0.14,0.32-0.15c0.03-0.01,0.14-0.02,0.32-0.03c0.18-0.01,0.35-0.05,0.5-0.11c0.15-0.06,0.29-0.11,0.42-0.15
			c0.13-0.04,0.24-0.07,0.33-0.08c0.09-0.01,0.14-0.02,0.14-0.01c0,0,0.09,0,0.25,0c0.16,0,0.34-0.02,0.54-0.05
			c0.2-0.03,0.37-0.07,0.52-0.1c0.15-0.03,0.28-0.06,0.41-0.07c0.13-0.02,0.23-0.03,0.3-0.03c0.07,0,0.2-0.02,0.38-0.04
			c0.18-0.03,0.31-0.05,0.39-0.06c0.08-0.02,0.14-0.03,0.18-0.03c0.04-0.01,0.06-0.01,0.06-0.01c0,0,0.03,0,0.07-0.01
			c0.05,0,0.18-0.01,0.4-0.02c0.22-0.01,0.42-0.02,0.59-0.04c0.17-0.02,0.31-0.03,0.41-0.04c0.1-0.01,0.17-0.01,0.21-0.01
			c0.04,0,0.06,0,0.05,0c-0.01,0,0.13,0,0.41,0c0.28,0,0.57,0,0.88,0c0.3,0,0.51,0,0.62,0.01c0.11,0,0.2,0.01,0.27,0.01
			c0.07,0,0.11,0,0.13,0.01c0.02,0,0.05,0,0.09,0.01c0.04,0,0.07,0,0.09,0.01c0.02,0,0.03,0,0.03,0c0,0,0.08,0.02,0.26,0.07
			c0.17,0.05,0.33,0.1,0.48,0.15c0.15,0.05,0.26,0.08,0.34,0.1c0.08,0.02,0.13,0.03,0.14,0.04c0.01,0,0.04,0.02,0.09,0.04
			c0.05,0.02,0.14,0.05,0.26,0.08c0.12,0.03,0.22,0.05,0.28,0.05c0.07,0,0.1,0.01,0.1,0.01c0,0,0.04,0,0.12,0.01
			c0.08,0,0.11,0.01,0.11,0c0,0,0.07,0.01,0.22,0.05c0.15,0.04,0.37,0.1,0.65,0.19c0.29,0.09,0.49,0.16,0.61,0.21
			c0.12,0.06,0.21,0.1,0.26,0.12c0.05,0.03,0.18,0.08,0.41,0.16c0.22,0.08,0.42,0.17,0.58,0.26c0.16,0.09,0.29,0.17,0.4,0.22
			c0.11,0.05,0.19,0.09,0.26,0.13c0.06,0.04,0.1,0.06,0.1,0.06c0,0,0.05,0.03,0.15,0.08c0.1,0.05,0.14,0.08,0.13,0.07
			c-0.01,0,0,0,0.04,0.02c0.04,0.02,0.11,0.05,0.23,0.09c0.11,0.04,0.17,0.06,0.18,0.06c0,0,0.07,0.04,0.2,0.13
			c0.13,0.08,0.26,0.15,0.37,0.2c0.12,0.05,0.19,0.08,0.22,0.09c0.03,0.01,0.07,0.02,0.13,0.04c0.06,0.02,0.13,0.05,0.21,0.09
			c0.08,0.04,0.16,0.07,0.24,0.1c0.08,0.03,0.15,0.05,0.22,0.06c0.07,0.01,0.12,0.03,0.16,0.03c0.04,0.01,0.12,0.04,0.24,0.1
			c0.12,0.06,0.21,0.09,0.24,0.1c0.04,0.01,0.09,0.02,0.15,0.04c0.06,0.01,0.15,0.03,0.26,0.07c0.11,0.03,0.19,0.06,0.23,0.08
			c0.04,0.02,0.07,0.04,0.09,0.05c0.02,0.01,0.03,0.02,0.04,0.02c0.01,0,0.05,0.02,0.14,0.05c0.09,0.03,0.13,0.04,0.13,0.04
			c0,0,0.03,0,0.08,0.02c0.05,0.02,0.11,0.04,0.19,0.08s0.15,0.06,0.23,0.08c0.08,0.02,0.14,0.03,0.18,0.05
			c0.04,0.02,0.1,0.04,0.16,0.07l0.17,0.07c0.09,0.04,0.14,0.06,0.14,0.06c0,0,0.02,0.01,0.05,0.04c0.03,0.03,0.07,0.06,0.11,0.11
			c0.05,0.05,0.1,0.11,0.16,0.17c0.14,0.15,0.21,0.22,0.21,0.22c0,0,0,0.01,0,0.01c0,0,0.02,0.04,0.07,0.11
			c0.04,0.07,0.07,0.13,0.08,0.19c0.01,0.06,0.02,0.12,0.02,0.18"/>
	</g>
	<g id="New_Layer_14">
		<path id="STROKE_adcbbf51-bbfb-4ef1-8e77-1aaaa00154f6" class="st0" d="M5.48,6.05c0,0-0.01-0.02-0.01-0.06
			c0.01,0.05,0.01,0.47,0,1.24C5.46,8.02,5.46,8.62,5.46,9.05c0,0.43,0.02,0.74,0.05,0.93c0.03,0.19,0.06,0.36,0.09,0.51
			c0.03,0.15,0.05,0.24,0.06,0.28s0.01,0.04,0.01,0.01c0-0.03,0.02,0.29,0.07,0.96s0.09,1.16,0.12,1.49s0.06,0.58,0.1,0.76
			c0.04,0.18,0.06,0.29,0.07,0.32c0,0.03,0.01,0.08,0.01,0.15c0,0.07,0,0.13,0,0.2c0,0.07,0,0.1,0,0.09c0,0,0,0,0,0.01
			c0,0.01,0,0.02-0.01,0.05C6,14.82,5.94,14.88,5.84,14.98c-0.1,0.1-0.2,0.17-0.28,0.22c-0.08,0.05-0.15,0.09-0.2,0.13
			c-0.05,0.04-0.08,0.06-0.09,0.06c-0.01,0.01-0.01,0,0,0c0.01-0.01-0.02,0.02-0.07,0.09c-0.06,0.07-0.08,0.1-0.06,0.11
			c0.02,0.01-0.07,0.14-0.26,0.39C4.7,16.22,4.53,16.43,4.4,16.6c-0.13,0.17-0.25,0.34-0.34,0.54c-0.09,0.19-0.17,0.32-0.22,0.39
			c-0.05,0.07-0.11,0.13-0.16,0.19c-0.05,0.05-0.08,0.08-0.08,0.08c0,0-0.01,0.01-0.02,0.02c-0.01,0.01-0.03,0.03-0.06,0.06
			c-0.03,0.03-0.05,0.04-0.05,0.05c0,0-0.02,0.02-0.06,0.06c-0.04,0.03-0.07,0.06-0.09,0.09c-0.03,0.03-0.03,0.03-0.02,0.02
			c0.01-0.02,0,0-0.05,0.06c-0.05,0.06-0.1,0.13-0.16,0.23c-0.06,0.1-0.12,0.21-0.19,0.34c-0.06,0.13-0.12,0.23-0.16,0.29
			c-0.05,0.07-0.11,0.19-0.18,0.36c-0.08,0.17-0.14,0.35-0.18,0.54c-0.04,0.19-0.07,0.32-0.07,0.39c0,0.07-0.02,0.18-0.06,0.32
			c-0.04,0.14-0.07,0.25-0.11,0.32c-0.03,0.07-0.06,0.13-0.09,0.18c-0.02,0.05-0.05,0.09-0.07,0.13c-0.02,0.04-0.03,0.07-0.04,0.08
			c-0.01,0.01,0,0.01,0-0.01c0.01-0.02,0,0-0.02,0.06c-0.02,0.06-0.05,0.13-0.08,0.2c-0.03,0.08-0.05,0.14-0.06,0.19
			c-0.01,0.05-0.01,0.07-0.01,0.06c0-0.01,0-0.01,0-0.02c0-0.01-0.04,0.13-0.1,0.39c-0.07,0.27-0.1,0.58-0.11,0.95
			c-0.01,0.36-0.01,0.6-0.01,0.71c0,0.11,0.04,0.38,0.12,0.79c0.08,0.42,0.15,0.73,0.19,0.93c0.05,0.21,0.08,0.36,0.1,0.45
			s0.03,0.18,0.05,0.27c0.02,0.09,0.03,0.15,0.04,0.2c0.01,0.05,0.02,0.12,0.04,0.21c0.02,0.1,0.04,0.18,0.05,0.24
			c0.01,0.06,0.02,0.11,0.03,0.15c0.01,0.04,0.02,0.09,0.04,0.16c0.02,0.07,0.04,0.15,0.06,0.23c0.03,0.09,0.03,0.12,0.03,0.09
			c-0.01-0.02,0.02,0.06,0.08,0.25c0.06,0.19,0.12,0.35,0.17,0.47c0.05,0.12,0.1,0.24,0.15,0.34c0.05,0.1,0.08,0.16,0.09,0.19
			c0.01,0.02,0.02,0.03,0.02,0.03c0,0,0,0,0.01,0.02c0.01,0.02,0.05,0.1,0.13,0.26c0.08,0.15,0.17,0.3,0.27,0.44
			c0.1,0.14,0.19,0.25,0.25,0.31c0.06,0.07,0.1,0.12,0.12,0.14c0.02,0.02,0.03,0.03,0.02,0.03c0-0.01,0.03,0.03,0.09,0.11
			c0.06,0.08,0.16,0.2,0.3,0.36c0.14,0.16,0.26,0.29,0.37,0.38c0.11,0.1,0.18,0.16,0.21,0.19c0.04,0.03,0.08,0.07,0.12,0.1
			c0.04,0.04,0.11,0.1,0.19,0.18c0.09,0.08,0.12,0.12,0.11,0.11c-0.01-0.01,0.02,0.02,0.08,0.08c0.06,0.06,0.08,0.09,0.07,0.08
			c-0.01-0.01,0.01,0.02,0.08,0.08c0.06,0.06,0.12,0.11,0.19,0.16c0.06,0.05,0.09,0.08,0.09,0.08s0,0,0,0c0,0,0.01,0.01,0.03,0.03
			c0.02,0.02,0.06,0.04,0.1,0.07c0.04,0.03,0.06,0.04,0.05,0.03c-0.01-0.01,0,0,0.03,0.03c0.03,0.03,0.16,0.14,0.41,0.33
			c0.24,0.19,0.41,0.33,0.5,0.41c0.09,0.08,0.24,0.16,0.43,0.24c0.2,0.08,0.35,0.15,0.45,0.2c0.1,0.05,0.18,0.09,0.23,0.12
			c0.05,0.03,0.08,0.05,0.1,0.07c0.02,0.01,0.06,0.05,0.13,0.1C8,33.7,8.03,33.72,8.02,33.7C8.01,33.69,8,33.69,8.01,33.71
			c0.01,0.02,0.07,0.05,0.19,0.1c0.12,0.05,0.26,0.1,0.44,0.14c0.17,0.04,0.31,0.09,0.4,0.14c0.1,0.05,0.19,0.1,0.26,0.15
			c0.08,0.04,0.15,0.08,0.23,0.11c0.07,0.03,0.14,0.06,0.19,0.07c0.05,0.02,0.1,0.03,0.14,0.05c0.04,0.01,0.08,0.03,0.13,0.05
			c0.04,0.02,0.07,0.02,0.08,0.03c0.01,0,0.01,0-0.01-0.01c-0.01-0.01,0.11,0.03,0.37,0.12c0.26,0.09,0.57,0.16,0.94,0.22
			c0.37,0.06,0.64,0.11,0.81,0.14c0.17,0.03,0.29,0.06,0.37,0.08c0.08,0.02,0.13,0.04,0.17,0.04c0.03,0,0.06,0.01,0.09,0.01
			c0.03,0,0.06,0.01,0.11,0.02c0.05,0.01,0.05,0.01,0.01-0.01c-0.04-0.01-0.01-0.01,0.08,0.01c0.1,0.02,0.19,0.05,0.29,0.09
			c0.09,0.04,0.3,0.09,0.6,0.15c0.31,0.05,0.54,0.08,0.7,0.08c0.16,0,0.27,0.02,0.34,0.05c0.07,0.03,0.21,0.07,0.43,0.11
			c0.22,0.04,0.43,0.05,0.65,0.02c0.22-0.03,0.48-0.04,0.81-0.04c0.32,0.01,0.59,0.02,0.79,0.05c0.21,0.03,0.37,0.05,0.5,0.06
			c0.13,0.02,0.26,0.04,0.41,0.06c0.14,0.03,0.26,0.05,0.36,0.06c0.1,0.02,0.17,0.03,0.22,0.04c0.05,0.01,0.09,0.02,0.11,0.02
			c0.02,0,0.06,0.01,0.11,0.01c0.05,0,0.1,0.01,0.13,0.02c0.04,0.01,0.06,0.01,0.05,0.01c0,0,0.29,0,0.88,0
			c0.59,0,1.03,0.01,1.32,0.03c0.29,0.02,0.61,0.03,0.97,0.01c0.35-0.01,0.62-0.03,0.81-0.05c0.19-0.02,0.28-0.05,0.26-0.07
			c-0.01-0.03,0.23-0.05,0.74-0.06c0.51-0.01,0.94-0.01,1.29,0.02c0.35,0.02,0.6,0.05,0.74,0.07c0.14,0.02,0.25,0.03,0.33,0.03
			c0.08,0,0.14-0.01,0.19-0.02c0.05-0.01,0.11-0.02,0.17-0.04c0.06-0.02,0.12-0.03,0.17-0.04c0.05-0.01,0.11-0.01,0.16-0.01
			c0.06,0,0.12,0,0.19,0c0.07,0,0.13,0,0.17,0.01c0.05,0.01,0.15-0.01,0.3-0.07c0.15-0.06,0.29-0.1,0.4-0.14
			c0.12-0.04,0.19-0.06,0.23-0.07c0.04-0.01,0.15-0.03,0.33-0.06c0.18-0.03,0.35-0.06,0.5-0.1c0.15-0.04,0.26-0.07,0.33-0.09
			c0.06-0.02,0.12-0.04,0.16-0.06c0.04-0.01,0.08-0.03,0.12-0.04c0.04-0.01,0.05-0.02,0.04-0.02c-0.01,0-0.01,0,0,0
			c0.01,0,0.09-0.02,0.23-0.05c0.14-0.04,0.28-0.09,0.4-0.17c0.12-0.08,0.21-0.14,0.26-0.18c0.05-0.05,0.11-0.08,0.2-0.11
			c0.08-0.02,0.16-0.04,0.22-0.04s0.12-0.01,0.17-0.01c0.05,0,0.1,0,0.17-0.01c0.06-0.01,0.15-0.04,0.27-0.09
			c0.12-0.05,0.22-0.1,0.3-0.14c0.08-0.04,0.13-0.06,0.15-0.07c0.02-0.01,0.05-0.02,0.07-0.03c0.03-0.02,0.13-0.03,0.31-0.04
			c0.18-0.01,0.35-0.05,0.5-0.1c0.15-0.06,0.27-0.11,0.35-0.15c0.08-0.05,0.16-0.08,0.23-0.11c0.07-0.02,0.11-0.04,0.11-0.04
			c0,0,0,0,0,0c0,0,0,0-0.01,0c-0.01,0,0.03,0,0.1-0.01c0.07-0.01,0.2-0.08,0.38-0.23c0.18-0.14,0.35-0.24,0.5-0.3
			c0.15-0.05,0.28-0.1,0.38-0.13c0.1-0.03,0.19-0.07,0.27-0.1c0.08-0.04,0.15-0.07,0.19-0.09c0.04-0.02,0.09-0.04,0.15-0.07
			c0.06-0.03,0.07-0.04,0.05-0.03c-0.02,0.01,0.07-0.03,0.29-0.12c0.22-0.08,0.4-0.15,0.56-0.21c0.16-0.06,0.3-0.11,0.42-0.16
			c0.12-0.05,0.24-0.09,0.36-0.14c0.12-0.04,0.18-0.07,0.19-0.09c0-0.02,0.17-0.08,0.49-0.19c0.32-0.11,0.62-0.19,0.91-0.24
			c0.29-0.06,0.49-0.11,0.62-0.16c0.13-0.05,0.22-0.09,0.26-0.11c0.05-0.02,0.08-0.03,0.1-0.04c0.02,0,0.02-0.01,0.02-0.01
			c-0.01,0,0,0,0.02,0c0.02,0,0.06-0.01,0.12-0.03c0.06-0.01,0.12-0.04,0.18-0.06c0.06-0.03,0.09-0.04,0.09-0.04c0,0,0,0,0.01-0.01
			c0.01-0.01,0.02-0.01,0.01-0.01c-0.01,0,0.05-0.01,0.18-0.03c0.13-0.02,0.25-0.05,0.38-0.1c0.12-0.05,0.22-0.11,0.3-0.18
			c0.08-0.07,0.1-0.09,0.08-0.06c-0.02,0.02,0.04-0.04,0.19-0.19c0.15-0.15,0.27-0.29,0.36-0.41c0.09-0.12,0.16-0.21,0.21-0.27
			c0.05-0.06,0.08-0.1,0.11-0.12c0.03-0.02,0.06-0.04,0.1-0.07c0.04-0.03,0.06-0.04,0.07-0.05c0.01,0,0.02-0.01,0.04-0.02
			c0.02-0.01,0.05-0.03,0.1-0.06c0.05-0.03,0.1-0.05,0.14-0.08c0.04-0.02,0.08-0.04,0.1-0.06c0.02-0.01,0.04-0.03,0.06-0.04
			c0.02-0.01,0.03-0.02,0.03-0.02c0.01-0.01,0.04-0.03,0.1-0.07c0.06-0.04,0.12-0.08,0.19-0.12c0.07-0.04,0.1-0.06,0.1-0.06
			c0,0,0.01-0.01,0.03-0.02c0.02-0.01,0.05-0.03,0.1-0.06c0.05-0.03,0.09-0.06,0.12-0.08c0.03-0.02,0.04-0.03,0.04-0.03
			c0,0,0.01-0.01,0.05-0.02c0.04-0.02,0.14-0.1,0.3-0.24c0.16-0.14,0.28-0.25,0.37-0.33s0.14-0.12,0.17-0.13
			c0.02,0,0.06-0.02,0.12-0.06c0.06-0.04,0.09-0.06,0.09-0.07c0,0,0,0-0.01,0.01c-0.01,0.01,0.01-0.01,0.04-0.05
			c0.03-0.05,0.06-0.08,0.08-0.1c0.02-0.02,0.02-0.03,0.02-0.03c0,0,0,0,0.01-0.01c0.01-0.01,0.01-0.01,0-0.01
			c0,0,0.02-0.02,0.07-0.05c0.05-0.04,0.08-0.06,0.08-0.06c0,0,0,0,0,0c0,0-0.01,0-0.01,0c0,0,0,0,0,0c0,0,0,0,0,0
			c0,0,0.01,0,0.02-0.02c0.01-0.01,0.05-0.05,0.11-0.11c0.06-0.06,0.09-0.09,0.09-0.09c-0.01,0-0.01,0-0.01,0.01c0,0,0,0,0.01-0.01
			c0.01-0.01,0.01-0.01,0,0c-0.01,0.01,0.01-0.02,0.05-0.08c0.04-0.06,0.07-0.1,0.07-0.11c0.01-0.01,0.01-0.02,0.01-0.02
			c0,0,0,0,0,0c0,0,0,0,0,0c0,0,0.02-0.02,0.08-0.07c0.06-0.05,0.08-0.08,0.08-0.07c0,0-0.01,0.01-0.01,0.01
			c-0.01,0.01,0.02-0.02,0.08-0.09c0.06-0.06,0.11-0.13,0.14-0.18c0.03-0.06,0.07-0.12,0.11-0.19c0.04-0.07,0.05-0.1,0.05-0.08
			c-0.01,0.01-0.01,0-0.01-0.03c0-0.03,0.08-0.13,0.25-0.29c0.17-0.16,0.31-0.31,0.43-0.45c0.12-0.14,0.2-0.26,0.24-0.35
			c0.04-0.09,0.1-0.18,0.18-0.25c0.08-0.07,0.13-0.12,0.17-0.14c0.04-0.02,0.09-0.07,0.16-0.16c0.07-0.09,0.11-0.16,0.13-0.21
			c0.02-0.05,0.04-0.11,0.07-0.18c0.03-0.06,0.04-0.1,0.04-0.1c0,0,0.01-0.02,0.02-0.05c0.01-0.03,0.02-0.05,0.02-0.07
			c0.01-0.02,0.01-0.05,0.03-0.09c0.01-0.04,0.03-0.08,0.04-0.12c0.01-0.04,0.02-0.06,0.02-0.05c0,0,0,0,0.01-0.01
			c0-0.01,0.01-0.04,0.04-0.08c0.02-0.04,0.05-0.09,0.1-0.16c0.05-0.07,0.07-0.1,0.07-0.11c0,0,0,0,0,0.01c0,0.01,0,0,0.03-0.03
			c0.02-0.03,0.06-0.09,0.1-0.2c0.04-0.1,0.08-0.23,0.12-0.39c0.03-0.16,0.06-0.25,0.06-0.29c0.01-0.03,0.02-0.05,0.02-0.06
			c0-0.01,0.02-0.04,0.05-0.1c0.03-0.06,0.05-0.09,0.06-0.11c0.01-0.02,0.01-0.03,0.02-0.04c0-0.01,0,0-0.01,0.04
			c-0.01,0.03,0.03-0.12,0.12-0.47c0.09-0.35,0.16-0.59,0.22-0.74c0.06-0.15,0.12-0.31,0.18-0.48c0.06-0.17,0.1-0.3,0.12-0.38
			c0.02-0.08,0.04-0.16,0.05-0.23c0.02-0.07,0.02-0.09,0.01-0.05c-0.01,0.04,0.03-0.1,0.12-0.43c0.09-0.32,0.18-0.67,0.27-1.06
			c0.09-0.38,0.14-0.66,0.17-0.84c0.03-0.18,0.05-0.31,0.06-0.39c0.02-0.08,0.03-0.3,0.04-0.64c0.01-0.34,0.01-0.6,0-0.77
			c0-0.17-0.01-0.28-0.01-0.33c0-0.05-0.02-0.14-0.05-0.25c-0.03-0.11-0.06-0.2-0.07-0.27c-0.01-0.06-0.04-0.13-0.09-0.19
			c-0.04-0.06-0.09-0.12-0.13-0.19c-0.04-0.07-0.08-0.12-0.1-0.16c-0.02-0.04-0.04-0.06-0.04-0.06c0,0,0,0,0.01,0.01
			c0.01,0.01-0.01-0.03-0.06-0.11c-0.05-0.08-0.08-0.15-0.11-0.21c-0.03-0.06-0.06-0.11-0.09-0.16c-0.03-0.05-0.04-0.08-0.04-0.08
			c0,0,0,0,0.01,0.01c0.01,0.01-0.01-0.03-0.06-0.1c-0.05-0.08-0.09-0.15-0.14-0.22c-0.04-0.07-0.09-0.14-0.13-0.22
			c-0.05-0.08-0.09-0.15-0.13-0.22c-0.04-0.07-0.06-0.11-0.07-0.12c0-0.01,0,0,0,0.01c0,0.01-0.01-0.02-0.04-0.1
			c-0.03-0.08-0.05-0.14-0.07-0.18c-0.02-0.04-0.02-0.05-0.02-0.05c0,0.01,0,0-0.01-0.02c-0.01-0.02-0.02-0.05-0.03-0.07
			c-0.01-0.02-0.02-0.05-0.03-0.06c-0.01-0.02-0.02-0.05-0.05-0.1c-0.02-0.05-0.04-0.08-0.04-0.08c0-0.01-0.01-0.01-0.01-0.01
			c0,0,0,0,0.01,0.02c0.01,0.01-0.01-0.01-0.04-0.07c-0.03-0.06-0.07-0.12-0.11-0.19c-0.04-0.07-0.06-0.1-0.06-0.1
			c0,0,0,0-0.01-0.01c0-0.01-0.03-0.05-0.07-0.12c-0.04-0.07-0.1-0.17-0.17-0.3c-0.07-0.13-0.13-0.23-0.18-0.31
			c-0.05-0.08-0.07-0.11-0.06-0.1c0.01,0.01,0.01,0.01,0,0.01c-0.01-0.01-0.01-0.02-0.03-0.04c-0.01-0.02-0.02-0.04-0.03-0.05
			c-0.01-0.01-0.02-0.04-0.05-0.08c-0.02-0.04-0.05-0.08-0.07-0.13c-0.03-0.04-0.04-0.07-0.04-0.07c0,0,0,0-0.01,0
			c-0.01,0-0.02-0.03-0.03-0.1c-0.02-0.06-0.1-0.15-0.25-0.26c-0.15-0.11-0.26-0.19-0.34-0.24c-0.07-0.05-0.11-0.07-0.11-0.07
			c0,0-0.03-0.03-0.1-0.08c-0.07-0.06-0.16-0.11-0.27-0.16c-0.11-0.05-0.2-0.08-0.27-0.09c-0.06-0.01-0.13-0.03-0.2-0.06
			c-0.07-0.03-0.11-0.04-0.11-0.04c0,0-0.01,0-0.01-0.01c-0.01,0,0,0,0.01,0.01c0.02,0.01-0.03-0.02-0.13-0.09
			c-0.11-0.07-0.22-0.14-0.34-0.18c-0.12-0.05-0.21-0.08-0.27-0.09C45.12,9.84,45.06,9.82,45,9.81c-0.06-0.02-0.08-0.02-0.07-0.02
			c0.02,0,0.01,0.01-0.02,0c-0.03,0-0.1-0.03-0.23-0.08c-0.12-0.05-0.23-0.1-0.32-0.14c-0.09-0.04-0.16-0.07-0.21-0.08
			c-0.04-0.01-0.08-0.02-0.11-0.03c-0.03-0.01-0.05-0.01-0.06-0.02c-0.01,0-0.05-0.01-0.12-0.03c-0.08-0.02-0.15-0.02-0.21-0.03
			c-0.06,0-0.13-0.01-0.19-0.02c-0.06-0.01-0.09-0.02-0.09-0.02c0,0,0.01,0,0.02,0.01c0.01,0-0.02-0.01-0.1-0.03
			c-0.08-0.03-0.11-0.04-0.09-0.03c0.02,0.01,0.02,0.01-0.01,0c-0.03-0.01-0.07-0.03-0.12-0.08C43.03,9.16,43.01,9.11,43,9.06
			C43,9.02,42.99,8.96,42.98,8.9c-0.01-0.06-0.01-0.12-0.02-0.19c0-0.07-0.01-0.13-0.02-0.2c-0.01-0.07-0.02-0.14-0.03-0.21
			c-0.01-0.07-0.02-0.12-0.02-0.16c-0.01-0.04-0.01-0.08-0.01-0.12c0-0.05-0.01-0.06-0.02-0.03c-0.01,0.03-0.06-0.38-0.14-1.22
			c-0.08-0.84-0.14-1.54-0.17-2.11s-0.04-0.94-0.03-1.11c0.01-0.17,0.01-0.77,0-1.79c0,0,0,0.01,0,0.03c-0.14,0-0.19,0-0.15,0
			c-0.16,0-0.22,0-0.17,0c-0.14-0.01-0.19-0.02-0.16-0.02c0.05,0-0.01-0.01-0.17-0.03c-0.17-0.02-0.32,0-0.45,0.05
			c-0.14,0.05-0.24,0.1-0.32,0.15c-0.08,0.04-0.13,0.08-0.16,0.1c-0.03,0.02-0.07,0.06-0.13,0.1c-0.05,0.04-0.25,0.1-0.59,0.17
			c-0.34,0.07-0.65,0.15-0.93,0.23c-0.28,0.08-0.5,0.15-0.65,0.21c-0.15,0.06-0.26,0.11-0.33,0.17c-0.07,0.06-0.13,0.1-0.17,0.13
			c-0.04,0.03-0.08,0.06-0.12,0.08c-0.04,0.03-0.06,0.05-0.07,0.05c-0.01,0.01-0.01,0.01-0.01,0c0-0.01-0.15,0.06-0.45,0.2
			c-0.3,0.14-0.56,0.28-0.79,0.42c-0.22,0.14-0.47,0.28-0.74,0.44c-0.27,0.15-0.46,0.27-0.56,0.34c-0.11,0.07-0.23,0.17-0.36,0.3
			C34.91,5,34.81,5.11,34.75,5.2c-0.07,0.09-0.12,0.17-0.17,0.23c-0.05,0.07-0.11,0.16-0.19,0.28c-0.08,0.12-0.15,0.23-0.22,0.33
			c-0.07,0.1-0.13,0.19-0.19,0.26c-0.06,0.08-0.11,0.15-0.17,0.21c-0.05,0.06-0.08,0.1-0.09,0.11c-0.01,0.01-0.01,0.02-0.01,0.01
			c0,0,0,0.01,0,0.02c0,0.02-0.06,0.05-0.18,0.1c-0.12,0.05-0.17,0.06-0.15,0.05c0.02-0.01,0.02-0.02,0-0.02
			c-0.02,0-0.04-0.01-0.06-0.03c-0.02-0.02-0.03-0.02-0.04-0.02c0,0,0,0,0,0c0,0-0.01-0.01-0.04-0.03c-0.03-0.02-0.23-0.04-0.6-0.05
			c-0.37-0.01-0.66-0.02-0.86-0.04c-0.2-0.01-0.38-0.03-0.54-0.05c-0.16-0.02-0.28-0.03-0.35-0.04c-0.07,0-0.12-0.01-0.14,0
			c-0.03,0-0.05,0-0.06-0.01c-0.01-0.01-0.02,0-0.01,0.01c0,0.01-0.19,0.04-0.58,0.06c-0.39,0.03-0.71,0.04-0.96,0.04
			c-0.25,0-0.45-0.01-0.6-0.02c-0.15-0.01-0.29-0.02-0.42-0.04c-0.13-0.02-0.2-0.03-0.22-0.03c-0.02,0-0.07,0-0.17,0
			c-0.09,0-0.17,0-0.24,0c-0.06,0.01-0.11,0.01-0.14,0.02c-0.03,0-0.04,0.01-0.04,0.01c0,0-0.02,0-0.09-0.01
			c-0.06-0.01-0.2-0.01-0.43,0.01c-0.22,0.02-0.54,0.06-0.96,0.13c-0.41,0.07-0.76,0.1-1.03,0.1c-0.28,0-0.49,0.02-0.63,0.05
			c-0.15,0.04-0.26,0.06-0.33,0.08c-0.07,0.02-0.12,0.03-0.16,0.04c-0.04,0.01-0.05,0-0.03,0c0.02-0.01-0.08,0.01-0.3,0.05
			c-0.22,0.04-0.49,0.09-0.81,0.15c-0.33,0.06-0.68,0.09-1.05,0.09c-0.37-0.01-0.73,0.03-1.08,0.1c-0.35,0.07-0.61,0.13-0.78,0.18
			c-0.17,0.05-0.27,0.07-0.29,0.07c-0.02,0-0.09,0.01-0.19,0.02c-0.1,0.01-0.31,0.05-0.63,0.12c-0.32,0.07-0.6,0.14-0.83,0.21
			c-0.23,0.07-0.43,0.11-0.6,0.13c-0.17,0.02-0.29,0.06-0.36,0.12c-0.07,0.06-0.19,0.15-0.38,0.26c-0.18,0.11-0.35,0.19-0.5,0.24
			c-0.15,0.05-0.28,0.09-0.37,0.12c-0.1,0.03-0.17,0.06-0.21,0.08c-0.04,0.02-0.09,0.04-0.14,0.07C15.09,9,15.07,9.01,15.1,9
			c0.03-0.01-0.03,0.02-0.17,0.09c-0.14,0.07-0.26,0.11-0.37,0.13c-0.11,0.02-0.19,0.04-0.24,0.04c-0.05,0.01-0.1,0.02-0.15,0.02
			c-0.05,0.01-0.06,0.01-0.05,0c0.01-0.01-0.07,0.01-0.23,0.05c-0.16,0.04-0.28,0.07-0.35,0.11c-0.07,0.04-0.14,0.08-0.21,0.12
			c-0.07,0.04-0.11,0.06-0.12,0.06c-0.01,0-0.01,0-0.01,0.01c0,0-0.01,0.01-0.04,0.02c-0.03,0.01-0.08,0.03-0.15,0.06
			c-0.08,0.03-0.14,0.07-0.2,0.13c-0.06,0.06-0.12,0.1-0.18,0.12C12.57,9.99,12.55,10,12.58,10c0.03,0-0.01-0.02-0.12-0.04
			c-0.02-0.08-0.03-0.12-0.03-0.11c0.04,0.03,0-0.09-0.14-0.37c-0.14-0.28-0.23-0.47-0.28-0.58c-0.05-0.11-0.11-0.2-0.19-0.29
			c-0.08-0.08-0.16-0.16-0.25-0.23c-0.09-0.07-0.16-0.13-0.22-0.18c-0.06-0.05-0.11-0.09-0.14-0.11C11.17,8.06,11.09,8,10.95,7.9
			c-0.14-0.1-0.24-0.17-0.31-0.21c-0.06-0.04-0.13-0.08-0.19-0.12c-0.06-0.03-0.12-0.06-0.17-0.09c-0.05-0.03-0.11-0.06-0.16-0.08
			C10.08,7.37,10,7.33,9.88,7.27C9.77,7.22,9.66,7.16,9.55,7.1C9.44,7.04,9.35,7,9.28,6.97C9.21,6.93,9.17,6.91,9.16,6.91
			C9.14,6.9,9.09,6.88,8.98,6.84C8.87,6.81,8.81,6.79,8.8,6.79c-0.01,0-0.05-0.02-0.13-0.04C8.6,6.72,8.52,6.7,8.42,6.67
			C8.33,6.64,8.29,6.63,8.3,6.63c0.01,0,0.01,0,0.01,0c0,0-0.06-0.01-0.18-0.03C8.01,6.58,7.87,6.55,7.71,6.51
			C7.54,6.46,7.42,6.44,7.35,6.42C7.28,6.41,7.24,6.4,7.21,6.39c-0.03-0.01-0.02,0,0.03,0c0.05,0.01-0.02-0.01-0.2-0.06
			C6.85,6.3,6.7,6.26,6.57,6.24C6.45,6.21,6.35,6.2,6.28,6.2c-0.07,0-0.15,0.01-0.24,0.02C5.96,6.24,5.92,6.24,5.94,6.24
			c0.02,0,0,0.01-0.05,0.05c-0.05,0.03-0.08,0.07-0.11,0.1C5.76,6.42,5.74,6.45,5.73,6.46"/>
		<path id="STROKE_30f0233b-218a-4bdf-bfb3-bb31a28438f0" class="st1" d="M31.52,6.47c-0.14-0.03-0.19-0.04-0.15-0.03
			c0,0-0.01,0-0.02,0c0.01-0.03,0,0-0.04,0.1c-0.04,0.1-0.05,0.22-0.03,0.37c0.02,0.15,0.05,0.26,0.09,0.33
			c0.04,0.07,0.08,0.14,0.13,0.21c0.05,0.08,0.07,0.11,0.06,0.1c-0.01-0.01,0-0.01,0.01,0c0.01,0.01,0.01,0.01,0,0
			c-0.01-0.01,0.07,0.12,0.24,0.4c0.17,0.27,0.35,0.5,0.53,0.69c0.18,0.18,0.3,0.32,0.38,0.42c0.07,0.1,0.13,0.18,0.18,0.24
			c0.05,0.06,0.07,0.09,0.08,0.09c0,0,0,0,0-0.02c0-0.01,0,0,0,0.03c0,0.03,0.14,0.16,0.41,0.37c0.27,0.21,0.52,0.36,0.74,0.45
			c0.22,0.09,0.38,0.14,0.47,0.16c0.09,0.02,0.18,0.05,0.26,0.09c0.09,0.04,0.14,0.06,0.15,0.06c0.02,0.01,0.05,0.02,0.09,0.03
			c0.04,0.01,0.11,0.04,0.19,0.06c0.08,0.03,0.16,0.05,0.24,0.07c0.08,0.02,0.13,0.04,0.15,0.05c0.02,0.01,0.05,0.02,0.09,0.02
			c0.04,0.01,0.07,0.02,0.09,0.02c0.02,0,0.02,0.01-0.01,0.01c-0.03,0,0.19,0.04,0.66,0.11c0.46,0.07,0.85,0.12,1.16,0.16
			c0.31,0.04,0.51,0.07,0.62,0.09c0.11,0.02,0.21,0.04,0.32,0.04c0.11,0.01,0.18,0.01,0.21,0.01c0.04,0,0.12-0.01,0.26-0.03
			c0.14-0.02,0.29-0.05,0.47-0.08c0.17-0.03,0.33-0.07,0.45-0.1c0.13-0.03,0.31-0.06,0.55-0.08c0.24-0.02,0.49-0.04,0.76-0.06
			c0.27-0.02,0.46-0.04,0.57-0.07c0.11-0.03,0.2-0.05,0.25-0.06c0.05-0.02,0.07-0.02,0.06-0.03c-0.01,0,0.01,0,0.05-0.01
			c0.04,0,0.14-0.03,0.3-0.09c0.16-0.06,0.27-0.1,0.33-0.14c0.06-0.04,0.16-0.11,0.29-0.22c0.13-0.11,0.26-0.2,0.38-0.27
			c0.12-0.07,0.23-0.14,0.34-0.21c0.11-0.07,0.2-0.11,0.27-0.13c0.07-0.02,0.1-0.03,0.1-0.03c0,0,0,0-0.01,0c-0.01,0-0.01,0-0.01,0
			c0,0,0.04-0.02,0.13-0.06c0.09-0.04,0.12-0.05,0.1-0.05c-0.01-0.03,0-0.03,0.01-0.02c0.01,0.02,0.02,0.02,0.01,0.02
			c0,0-0.03-0.04-0.08-0.11c-0.05-0.07-0.09-0.14-0.11-0.21c-0.03-0.07-0.04-0.09-0.03-0.07c0.01,0.02,0,0-0.01-0.07
			c-0.05-0.04-0.12-0.11-0.22-0.21c-0.1-0.1-0.18-0.17-0.24-0.21c-0.07-0.04-0.12-0.07-0.15-0.1c-0.04-0.02-0.05-0.04-0.05-0.04
			c0,0,0,0,0.01,0c0,0,0.01,0.01,0.01,0.02c0,0.01-0.03-0.03-0.09-0.1c-0.06-0.07-0.11-0.15-0.15-0.22
			c-0.04-0.07-0.07-0.12-0.09-0.15c-0.02-0.03-0.03-0.04-0.03-0.05c0,0-0.01-0.02-0.02-0.06c-0.02-0.04-0.03-0.08-0.05-0.13
			c-0.02-0.05-0.03-0.08-0.03-0.1c0-0.02,0-0.02,0,0.01c0,0.02-0.02-0.09-0.09-0.34c-0.07-0.25-0.13-0.5-0.19-0.75
			c-0.06-0.25-0.1-0.43-0.12-0.54c-0.02-0.11-0.02-0.27,0-0.48c0.02-0.21,0.04-0.39,0.06-0.55c0.02-0.15,0.03-0.23,0.02-0.23
			c-0.01,0,0-0.13,0.01-0.38c0.01-0.25,0.03-0.45,0.06-0.61c0.03-0.16,0.05-0.31,0.07-0.44c0.02-0.14,0.03-0.23,0.04-0.28
			c0.01-0.05,0.01-0.11,0.02-0.18c0-0.07,0-0.1,0-0.1c0,0,0,0.01,0,0.02c0,0.01,0-0.02,0.01-0.09c0-0.07,0.02-0.2,0.03-0.4
			C43.01,2.37,42.99,2.35,43,2.33c0-0.01,0-0.01,0.02-0.01c0.02,0-0.03-0.01-0.14-0.04c-0.11-0.03-0.22-0.08-0.34-0.15
			c-0.01-0.03-0.05-0.06-0.12-0.11c-0.07-0.04-0.11-0.06-0.11-0.06c-0.13-0.02-0.18-0.03-0.16-0.02c-0.01,0-0.04,0-0.1,0.01
			c-0.06,0.01-0.08,0.01-0.08,0.01c0.01,0,0.01,0,0,0c-0.01,0-0.06,0-0.16,0.02c-0.1,0.02-0.21,0.04-0.33,0.08
			c-0.12,0.03-0.21,0.05-0.26,0.06c-0.05,0.01-0.09,0.02-0.11,0.02c-0.02,0.01-0.07,0.02-0.15,0.05c-0.08,0.03-0.11,0.03-0.09,0.03
			c0.02-0.01,0.02-0.01-0.01,0c-0.03,0.01-0.07,0.03-0.14,0.05c-0.07,0.03-0.19,0.04-0.36,0.03C40.2,2.3,40.07,2.29,40,2.28
			c-0.07-0.01-0.13-0.01-0.18-0.01c-0.05,0.01-0.1,0.01-0.15,0.01c-0.05,0-0.11,0-0.17,0.01c-0.07,0-0.13,0.01-0.19,0.01
			c-0.06,0-0.11,0.01-0.17,0.01c-0.05,0.01-0.1,0.01-0.14,0.02c-0.04,0-0.07,0.01-0.09,0.01c-0.02,0-0.03,0.01-0.01,0
			c0.01,0-0.02,0-0.1,0.02c-0.08,0.01-0.12,0.03-0.13,0.04c-0.01,0.01-0.08,0.04-0.22,0.09c-0.14,0.05-0.24,0.07-0.3,0.07
			c-0.06,0-0.17,0.02-0.32,0.07c-0.15,0.05-0.26,0.09-0.32,0.13c-0.06,0.04-0.12,0.07-0.15,0.1c-0.04,0.03-0.06,0.05-0.06,0.06
			c0,0-0.01,0-0.01,0c0,0-0.01,0.01-0.03,0.04c-0.02,0.03-0.1,0.12-0.23,0.28c-0.14,0.16-0.24,0.28-0.31,0.35
			c-0.07,0.07-0.13,0.13-0.17,0.16c-0.04,0.04-0.06,0.06-0.06,0.05c0,0,0.01,0,0.01-0.01c0,0,0,0,0,0c-0.01,0,0,0,0.01,0
			c0.01-0.01,0,0-0.03,0.02c-0.03,0.02-0.07,0.05-0.12,0.09c-0.05,0.04-0.08,0.06-0.07,0.06c0.01,0,0,0-0.01,0.01
			c-0.01,0.01-0.03,0.03-0.07,0.06c-0.04,0.03-0.08,0.08-0.12,0.12c-0.04,0.05-0.09,0.1-0.15,0.15c-0.06,0.05-0.09,0.07-0.09,0.07
			c0,0,0,0,0.01,0c0,0-0.01,0.01-0.04,0.04s-0.21,0.16-0.55,0.42c-0.33,0.25-0.59,0.46-0.76,0.61c-0.18,0.16-0.29,0.29-0.36,0.42
			c-0.06,0.12-0.1,0.22-0.13,0.29c-0.03,0.07-0.05,0.11-0.07,0.14c-0.02,0.03-0.03,0.05-0.04,0.06c-0.01,0.02-0.01,0.01,0.01-0.01
			c0.01-0.02,0-0.01-0.03,0.05c-0.03,0.05-0.07,0.11-0.1,0.17c-0.03,0.06-0.05,0.09-0.04,0.08c0,0,0,0-0.01,0.02
			c-0.01,0.02-0.01,0.01,0.01,0c0.01-0.02,0,0-0.03,0.06c-0.03,0.06-0.07,0.12-0.11,0.19c-0.04,0.07-0.07,0.1-0.07,0.1
			c0,0-0.01,0-0.01,0.01c-0.01,0.01-0.02,0.03-0.04,0.05c-0.02,0.03-0.03,0.04-0.04,0.03c-0.05,0.09-0.06,0.13-0.05,0.1
			c-0.07,0-0.1-0.01-0.1-0.01c-0.02,0-0.05-0.03-0.09-0.07c-0.04-0.04-0.06-0.06-0.07-0.06c-0.01,0-0.01,0,0,0.01
			c0.01,0,0-0.01-0.03-0.05c-0.03-0.04-0.15-0.09-0.38-0.13c-0.23-0.05-0.37-0.07-0.43-0.06"/>
		<g>
			<path class="st1" d="M5.39,5.92C5.38,6,5.37,6.04,5.38,6.03c0-0.02,0,0.01,0,0.11l0.15,0.05C5.51,6.05,5.46,5.96,5.39,5.92z"/>
			<path class="st1" d="M17.32,8.43c-0.06-0.08-0.08-0.11-0.06-0.07c-0.18-0.03-0.24-0.03-0.17-0.02c-0.18-0.02-0.24-0.02-0.18-0.01
				c-0.15,0-0.2,0.01-0.15,0.01c-0.12,0-0.18,0.01-0.19,0.01c-0.01,0,0,0,0.01,0c-0.1,0.02-0.18,0.04-0.24,0.05
				C16.28,8.39,16.2,8.4,16.1,8.41c-0.1,0.01-0.19,0.03-0.27,0.04c-0.07,0.01-0.14,0.02-0.18,0.03c-0.05,0-0.11,0.01-0.17,0.01
				c-0.07,0-0.1,0.01-0.1,0.01c0,0-0.03,0-0.08,0.01c-0.05,0-0.09,0.01-0.13,0.03c-0.04,0.01-0.11,0.03-0.2,0.06
				c-0.1,0.02-0.17,0.04-0.22,0.06c-0.05,0.02-0.07,0.02-0.07,0.02c0,0,0.01,0,0,0c0,0,0,0,0-0.01c0,0-0.05,0.03-0.16,0.09
				c-0.11,0.06-0.2,0.11-0.27,0.15c-0.07,0.04-0.13,0.07-0.2,0.09c-0.06,0.02-0.1,0.04-0.13,0.06c-0.03,0.01-0.03,0.02-0.02,0.01
				c0.01-0.01,0,0-0.03,0.02c-0.03,0.02-0.08,0.05-0.15,0.09c-0.07,0.04-0.11,0.07-0.13,0.09c-0.02,0.01-0.03,0.02-0.04,0.03
				c-0.01,0-0.01,0.01-0.02,0.03c-0.01,0.01-0.01,0.02-0.01,0.01c0-0.01,0-0.01,0,0c0,0-0.01,0.01-0.01,0.01c0,0,0,0,0-0.01
				c0-0.01-0.02,0.02-0.06,0.09c-0.04,0.07-0.07,0.11-0.07,0.12c-0.01,0.01-0.01,0.01,0-0.01c-0.01,0.01-0.05,0.02-0.12,0.03
				c-0.02-0.04-0.03-0.05-0.03-0.04c0-0.01-0.01-0.04-0.03-0.07c-0.03-0.07-0.05-0.14-0.07-0.21c-0.02-0.06-0.06-0.14-0.11-0.23
				c-0.05-0.09-0.09-0.15-0.11-0.19c-0.02-0.04-0.09-0.09-0.2-0.17c-0.11-0.08-0.2-0.14-0.27-0.17c-0.07-0.04-0.11-0.06-0.14-0.08
				c-0.02-0.01-0.04-0.03-0.06-0.04c0,0-0.04-0.03-0.14-0.1c-0.09-0.06-0.18-0.12-0.27-0.18c-0.09-0.06-0.16-0.1-0.21-0.13
				c-0.05-0.03-0.07-0.04-0.07-0.04c0.01,0,0,0-0.01-0.01c-0.02-0.01-0.02-0.01-0.02-0.01c0.01,0-0.01-0.01-0.06-0.05
				c-0.05-0.04-0.11-0.08-0.18-0.13c-0.07-0.05-0.15-0.1-0.22-0.14c-0.08-0.05-0.13-0.08-0.15-0.09c-0.03-0.01-0.05-0.02-0.07-0.03
				c-0.02-0.01-0.03-0.02-0.03-0.01c0,0,0,0,0,0c0,0,0,0,0.01,0c0.01,0.01-0.03-0.02-0.1-0.07c-0.07-0.05-0.11-0.08-0.11-0.08
				c0,0,0,0-0.01,0c-0.01,0-0.03-0.02-0.06-0.04c-0.03-0.02-0.07-0.06-0.13-0.09c-0.06-0.04-0.11-0.07-0.17-0.09
				C10.21,7.01,10.19,7,10.2,7.01c0.01,0,0,0-0.02-0.02c-0.03-0.02-0.13-0.05-0.3-0.11c-0.17-0.06-0.29-0.1-0.37-0.14
				C9.44,6.71,9.37,6.69,9.31,6.68C9.24,6.67,9.21,6.66,9.22,6.66c0.01,0,0.01,0-0.01,0c0,0,0,0,0,0C9.18,6.65,9.07,6.63,8.9,6.6
				C8.66,6.56,8.43,6.52,8.2,6.48c-0.01-0.04-0.02-0.07-0.03-0.1c-0.01-0.03-0.03-0.06-0.07-0.1C8.07,6.25,8.05,6.23,8.03,6.22
				C8.02,6.21,8,6.19,7.98,6.18C7.96,6.16,7.92,6.13,7.86,6.09C7.79,6.05,7.7,6,7.58,5.94c-0.12-0.06-0.22-0.09-0.28-0.1
				C7.23,5.83,7.18,5.82,7.15,5.81C7.12,5.8,7.09,5.8,7.05,5.79C7.01,5.78,6.98,5.77,6.94,5.77C6.91,5.76,6.88,5.76,6.86,5.75
				c-0.02,0-0.05-0.01-0.08-0.01c-0.03,0-0.08-0.01-0.15-0.02C6.57,5.72,6.47,5.71,6.35,5.69C6.22,5.68,6.1,5.66,5.97,5.63
				C5.84,5.6,5.77,5.58,5.77,5.58c0.01,0.01-0.01,0-0.07-0.03L5.61,6.22L5.53,6.19c0.01,0.09,0.02,0.2,0.01,0.34
				c-0.02,0.34-0.04,0.67-0.06,1C5.47,7.85,5.45,8.11,5.42,8.31C5.4,8.51,5.38,8.73,5.39,8.98c0,0.25,0.02,0.48,0.04,0.7
				c0.03,0.22,0.05,0.44,0.07,0.67c0.02,0.23,0.02,0.46,0,0.71c-0.02,0.25-0.01,0.54,0.02,0.88c0.03,0.34,0.06,0.61,0.09,0.82
				c0.03,0.21,0.05,0.36,0.06,0.46c0.01,0.1,0.02,0.25,0.04,0.45c0.02,0.2,0.04,0.34,0.05,0.43c0.01,0.08,0.03,0.17,0.04,0.26
				c0.02,0.09,0.03,0.17,0.03,0.24c0,0.07,0,0.11,0,0.11c0,0,0-0.01,0-0.02c0-0.02,0,0.02-0.02,0.11c-0.08-0.01-0.11-0.01-0.09-0.01
				c-0.09-0.01-0.14-0.02-0.16-0.02c-0.01,0-0.04,0-0.09-0.01c-0.06,0.04-0.08,0.06-0.08,0.06c-0.05,0.07-0.08,0.1-0.08,0.09
				c-0.09,0.07-0.13,0.1-0.1,0.08c-0.1,0.09-0.13,0.12-0.09,0.09c-0.04,0.06-0.06,0.08-0.06,0.08c-0.06,0.07-0.08,0.11-0.08,0.1
				c-0.06,0.07-0.1,0.1-0.09,0.1c0.01-0.02-0.07,0.07-0.25,0.27c-0.17,0.19-0.29,0.35-0.36,0.47c-0.07,0.12-0.13,0.2-0.2,0.26
				c-0.07,0.05-0.1,0.08-0.11,0.09c0,0.01,0,0.01,0,0c0-0.01-0.01,0.01-0.03,0.06c-0.02,0.05-0.08,0.13-0.16,0.25c0,0-0.01,0-0.01,0
				c0-0.06,0,0-0.01,0.17c0.11,0.08,0.16,0.11,0.12,0.09c0.12,0.09,0.17,0.12,0.14,0.1c0.03,0,0.04,0.01,0.02,0.01
				c-0.01,0,0.07,0.06,0.25,0.17c0.18,0.11,0.33,0.19,0.43,0.25c0.11,0.05,0.23,0.1,0.37,0.14c0.14,0.04,0.24,0.07,0.28,0.08
				c0.05,0.01,0.08,0.02,0.09,0.03c0.02,0.01,0.08,0.02,0.18,0.04c0.1,0.02,0.18,0.03,0.24,0.04c0.06,0.01,0.11,0.02,0.16,0.02
				c0.04,0.01,0.07,0.01,0.07,0.01c0,0,0,0,0,0.01c-0.01,0.01,0.07,0.01,0.22,0.01c0.15,0,0.26-0.01,0.34-0.03
				c0.07-0.02,0.12-0.03,0.13-0.03c0.01,0,0.03-0.01,0.06-0.01c0.03,0,0.29-0.04,0.8-0.11c0.5-0.07,0.92-0.15,1.24-0.22
				c0.32-0.08,0.58-0.16,0.77-0.26c0.19-0.1,0.32-0.17,0.41-0.21c0.09-0.05,0.16-0.08,0.23-0.11c0.07-0.03,0.11-0.05,0.15-0.06
				c0.03-0.02,0.05-0.03,0.06-0.03c0.01,0,0.08-0.04,0.23-0.11c0.15-0.07,0.43-0.18,0.85-0.34c0.42-0.16,0.74-0.29,0.96-0.39
				c0.22-0.1,0.36-0.18,0.44-0.23c0.08-0.05,0.14-0.1,0.18-0.13c0.04-0.03,0.08-0.06,0.12-0.09c0.04-0.03,0.08-0.06,0.12-0.09
				c0.04-0.03,0.08-0.06,0.12-0.1c0.04-0.03,0.06-0.06,0.08-0.07c0.02-0.02,0.04-0.04,0.07-0.06c0.03-0.02,0.05-0.04,0.06-0.05
				c0.01-0.01,0.02-0.02,0.02-0.02c0,0,0.04-0.03,0.09-0.08c0.06-0.05,0.09-0.08,0.1-0.09c0.01-0.01,0.03-0.03,0.05-0.04
				c0.02-0.02,0.04-0.04,0.08-0.07c0.03-0.03,0.14-0.13,0.33-0.3c0.19-0.17,0.35-0.32,0.48-0.43c0.13-0.12,0.3-0.32,0.51-0.6
				c0.21-0.28,0.36-0.5,0.46-0.65c0.1-0.15,0.17-0.26,0.23-0.33c0.05-0.07,0.09-0.13,0.11-0.17c0.02-0.04,0.04-0.08,0.06-0.11
				c0.01-0.03,0.03-0.06,0.04-0.09c0.01-0.03,0.03-0.08,0.06-0.15c0.03-0.07,0.12-0.32,0.26-0.73c0.15-0.41,0.26-0.77,0.35-1.08
				c0.09-0.31,0.14-0.53,0.16-0.65s0.04-0.21,0.06-0.27c0.02-0.05,0.03-0.11,0.04-0.18c0.01-0.06,0.02-0.1,0.02-0.1c0,0,0,0,0,0
				c0,0,0-0.02,0.01-0.06C17.27,8.91,17.29,8.73,17.32,8.43z"/>
			<path class="st1" d="M5.54,14.76c0,0,0.01,0,0.02,0c0,0,0,0,0,0C5.54,14.76,5.53,14.76,5.54,14.76z"/>
			<polygon class="st1" points="5.69,5.54 5.7,5.55 5.7,5.54 			"/>
		</g>
	</g>
	<g id="New_Layer_9_Copy_1">
		<path id="STROKE_438c070e-2b69-4039-8a07-dd515423afed" class="st2" d="M5.49,5.98L5.47,6L5.45,6.16c0,0,0,0.47-0.01,1.42
			c-0.01,0.95-0.01,1.79,0,2.52c0,0.73,0.01,1.22,0.02,1.46c0.01,0.24,0.03,0.52,0.05,0.84c0.02,0.32,0.05,0.6,0.07,0.82
			c0.02,0.23,0.11,0.71,0.26,1.44l-0.06,0.09l-0.1,0.12l-0.12,0.12c-0.02,0.03-0.17,0.19-0.44,0.48c-0.28,0.29-0.51,0.56-0.71,0.81
			c-0.2,0.25-0.35,0.46-0.46,0.61c-0.11,0.15-0.19,0.26-0.23,0.33c-0.04,0.07-0.07,0.1-0.07,0.1c0,0-0.04,0.07-0.13,0.22
			c-0.08,0.14-0.2,0.3-0.34,0.48c-0.14,0.18-0.25,0.32-0.32,0.42c-0.07,0.1-0.11,0.16-0.12,0.19c-0.02,0.03-0.03,0.05-0.04,0.08
			c-0.01,0.02-0.02,0.04-0.02,0.04c0,0-0.05,0.09-0.16,0.26c-0.1,0.17-0.22,0.43-0.35,0.78c-0.13,0.35-0.23,0.65-0.28,0.9
			c-0.06,0.25-0.09,0.42-0.12,0.51c-0.02,0.09-0.05,0.22-0.08,0.37c-0.03,0.15-0.04,0.23-0.04,0.23c0,0,0,0.11,0,0.32
			c0,0.21-0.02,0.53-0.05,0.96c-0.03,0.43-0.04,0.7-0.04,0.81c0.01,0.11,0,0.31-0.01,0.59c-0.01,0.28,0,0.57,0.04,0.89
			c0.04,0.32,0.08,0.57,0.12,0.75c0.04,0.18,0.07,0.28,0.07,0.3c0,0.02,0.03,0.12,0.1,0.31c0.06,0.19,0.12,0.35,0.19,0.5
			c0.06,0.14,0.13,0.3,0.21,0.46c0.07,0.16,0.15,0.32,0.23,0.47c0.08,0.15,0.12,0.23,0.13,0.23c0.01,0.01,0.01,0.01,0,0.01
			c0,0,0.12,0.19,0.38,0.59c0.26,0.39,0.49,0.73,0.7,1.01c0.21,0.28,0.37,0.5,0.5,0.66c0.12,0.16,0.23,0.29,0.31,0.4
			c0.08,0.1,0.15,0.18,0.19,0.22c0.04,0.04,0.07,0.06,0.09,0.08c0.02,0.01,0.05,0.05,0.11,0.1c0.06,0.05,0.14,0.14,0.25,0.26
			c0.11,0.12,0.16,0.18,0.16,0.18c0,0,0.03,0.04,0.09,0.12c0.06,0.08,0.13,0.15,0.21,0.21c0.08,0.07,0.14,0.11,0.18,0.14
			c0.04,0.03,0.16,0.1,0.33,0.22c0.18,0.12,0.29,0.19,0.33,0.21c0.04,0.03,0.15,0.08,0.33,0.16c0.18,0.08,0.31,0.13,0.41,0.17
			c0.09,0.03,0.16,0.06,0.2,0.07c0.04,0.01,0.09,0.03,0.16,0.06c0.07,0.03,0.27,0.13,0.61,0.31c0.33,0.18,0.59,0.32,0.77,0.41
			c0.18,0.09,0.31,0.16,0.4,0.2c0.09,0.05,0.16,0.08,0.2,0.1c0.05,0.02,0.08,0.04,0.11,0.05c0.03,0.01,0.04,0.02,0.04,0.02
			c0,0,0.08,0.05,0.23,0.15c0.15,0.1,0.29,0.18,0.43,0.26c0.14,0.07,0.25,0.12,0.34,0.14c0.09,0.02,0.17,0.04,0.24,0.05
			c0.07,0.01,0.15,0.03,0.23,0.05c0.08,0.02,0.36,0.09,0.82,0.22c0.47,0.13,0.89,0.23,1.27,0.29c0.38,0.07,0.68,0.11,0.89,0.12
			c0.21,0.02,0.35,0.03,0.41,0.04c0.07,0.01,0.13,0.02,0.2,0.02c0.07,0.01,0.11,0.01,0.11,0.01c0,0,0.15,0.02,0.45,0.04
			c0.3,0.03,0.8,0.06,1.53,0.09c0.72,0.03,1.27,0.05,1.63,0.05c0.36,0.01,0.62,0.02,0.76,0.04c0.14,0.02,0.25,0.03,0.31,0.03
			c0.06,0,0.11,0,0.13,0c0.03,0,0.07,0,0.12,0c0.05,0,0.17,0,0.34,0c0.17,0,0.33,0.01,0.49,0.02c0.15,0.01,0.29,0.03,0.4,0.04
			c0.11,0.02,0.21,0.03,0.3,0.04c0.08,0.01,0.21,0.02,0.38,0.03c0.17,0.01,0.33,0.02,0.46,0.03c0.14,0.01,0.26,0.02,0.38,0.04
			c0.12,0.01,0.21,0.03,0.29,0.04c0.07,0.01,0.13,0.02,0.17,0.02c0.04,0,0.09,0,0.16,0.01c0.07,0,0.11,0,0.11,0c0,0,0.07,0,0.2,0
			c0.13,0,0.24,0,0.32,0c0.09,0,0.15-0.01,0.19-0.01c0.04,0,0.07-0.01,0.09-0.01c0.02,0,0.08-0.01,0.18-0.01
			c0.09-0.01,0.19-0.02,0.28-0.03c0.09-0.01,0.2-0.03,0.33-0.05c0.12-0.02,0.19-0.04,0.19-0.04c0,0,0.08-0.01,0.23-0.04
			c0.15-0.02,0.48-0.05,0.98-0.09c0.5-0.04,0.89-0.08,1.17-0.12s0.47-0.07,0.59-0.08c0.12-0.01,0.23-0.03,0.31-0.05
			c0.08-0.02,0.14-0.03,0.18-0.04c0.04-0.01,0.12-0.03,0.25-0.07c0.13-0.04,0.27-0.07,0.42-0.09c0.15-0.02,0.29-0.04,0.44-0.05
			c0.14-0.01,0.33-0.04,0.55-0.08c0.23-0.04,0.38-0.07,0.47-0.09c0.09-0.02,0.12-0.02,0.12-0.01c-0.01,0.01,0.15-0.03,0.48-0.12
			c0.33-0.09,0.59-0.18,0.78-0.25c0.19-0.07,0.34-0.13,0.45-0.18c0.11-0.05,0.18-0.08,0.22-0.09c0.03-0.01,0.3-0.11,0.8-0.29
			c0.5-0.18,0.97-0.32,1.38-0.43c0.42-0.11,0.72-0.2,0.91-0.25c0.19-0.05,0.35-0.11,0.5-0.16c0.14-0.05,0.22-0.07,0.22-0.07
			c0,0,0.11-0.03,0.31-0.08c0.21-0.05,0.51-0.17,0.9-0.34c0.4-0.17,0.78-0.35,1.17-0.54c0.38-0.19,0.67-0.32,0.85-0.39
			c0.19-0.07,0.31-0.12,0.36-0.14c0.05-0.03,0.13-0.06,0.24-0.11c0.11-0.05,0.17-0.07,0.18-0.08c0.02-0.01,0.14-0.06,0.37-0.15
			c0.23-0.1,0.4-0.17,0.51-0.22c0.11-0.05,0.19-0.09,0.24-0.12c0.05-0.03,0.12-0.07,0.21-0.13c0.09-0.06,0.13-0.09,0.14-0.09
			c0,0,0.04-0.03,0.12-0.09c0.07-0.06,0.14-0.11,0.19-0.16c0.05-0.04,0.1-0.09,0.15-0.14c0.05-0.05,0.1-0.09,0.15-0.14
			c0.05-0.05,0.15-0.15,0.31-0.32c0.16-0.16,0.29-0.29,0.39-0.36c0.1-0.08,0.15-0.12,0.17-0.14c0.02-0.01,0.06-0.04,0.12-0.09
			c0.07-0.05,0.13-0.1,0.18-0.14c0.06-0.05,0.12-0.1,0.19-0.16c0.07-0.06,0.12-0.11,0.17-0.15c0.05-0.04,0.07-0.06,0.07-0.06
			c0,0,0.05-0.04,0.15-0.12c0.1-0.08,0.21-0.16,0.32-0.24c0.11-0.08,0.21-0.15,0.29-0.22c0.08-0.07,0.12-0.1,0.13-0.11
			c0.01-0.01,0.18-0.15,0.51-0.43c0.33-0.28,0.6-0.53,0.79-0.74c0.19-0.22,0.32-0.37,0.38-0.46c0.06-0.09,0.13-0.19,0.2-0.3
			c0.08-0.11,0.16-0.24,0.25-0.38c0.09-0.14,0.14-0.22,0.14-0.22c0,0,0.01-0.03,0.04-0.07c0.02-0.05,0.03-0.07,0.04-0.08
			c0,0,0.04-0.09,0.13-0.25c0.08-0.16,0.18-0.33,0.28-0.51c0.1-0.18,0.19-0.33,0.26-0.45c0.07-0.12,0.13-0.23,0.19-0.32
			c0.06-0.09,0.11-0.17,0.15-0.24c0.04-0.06,0.11-0.18,0.21-0.36c0.1-0.18,0.18-0.31,0.22-0.4c0.05-0.09,0.08-0.16,0.11-0.21
			c0.02-0.04,0.06-0.11,0.1-0.19c0.04-0.08,0.07-0.15,0.1-0.21c0.02-0.06,0.05-0.12,0.08-0.2c0.03-0.08,0.06-0.16,0.09-0.25
			c0.03-0.09,0.05-0.14,0.05-0.15c0-0.01,0.01-0.03,0.03-0.08c0.02-0.05,0.02-0.07,0.02-0.08c0,0,0.03-0.11,0.09-0.33
			c0.06-0.22,0.15-0.53,0.26-0.93c0.11-0.4,0.19-0.7,0.22-0.9c0.04-0.2,0.06-0.35,0.08-0.47c0.02-0.11,0.03-0.18,0.04-0.2
			c0-0.02,0.01-0.06,0.03-0.1c0.01-0.04,0.03-0.34,0.06-0.88c0.02-0.54,0.03-0.95,0.02-1.23c-0.01-0.28-0.03-0.48-0.05-0.59
			c-0.02-0.11-0.03-0.18-0.04-0.2c-0.01-0.02-0.02-0.08-0.04-0.18c-0.02-0.1-0.06-0.22-0.11-0.36c-0.05-0.15-0.1-0.26-0.14-0.33
			c-0.04-0.07-0.08-0.14-0.12-0.2c-0.04-0.06-0.09-0.15-0.16-0.25c-0.06-0.1-0.1-0.15-0.1-0.16c0-0.01-0.04-0.07-0.11-0.17
			c-0.07-0.11-0.17-0.26-0.31-0.46c-0.13-0.2-0.26-0.39-0.38-0.58c-0.12-0.19-0.21-0.32-0.27-0.41c-0.06-0.09-0.11-0.16-0.15-0.22
			c-0.04-0.06-0.07-0.1-0.09-0.14c-0.02-0.04-0.07-0.11-0.13-0.21c-0.06-0.1-0.12-0.19-0.17-0.28c-0.05-0.09-0.1-0.17-0.14-0.25
			c-0.05-0.08-0.07-0.13-0.08-0.15c-0.01-0.02-0.08-0.12-0.2-0.31c-0.12-0.18-0.22-0.32-0.29-0.41c-0.07-0.09-0.13-0.16-0.17-0.22
			c-0.05-0.05-0.08-0.09-0.1-0.11c-0.02-0.02-0.06-0.06-0.1-0.1c-0.05-0.05-0.12-0.11-0.22-0.19c-0.1-0.08-0.21-0.16-0.35-0.26
			c-0.14-0.1-0.29-0.18-0.45-0.26c-0.16-0.08-0.29-0.14-0.37-0.17c-0.08-0.04-0.19-0.08-0.34-0.14c-0.15-0.05-0.36-0.13-0.63-0.24
			C44.17,9.07,43.99,9,43.9,8.97c-0.09-0.03-0.13-0.05-0.13-0.05c0,0-0.04-0.01-0.11-0.03c-0.08-0.02-0.12-0.03-0.14-0.04
			c-0.01,0-0.05-0.02-0.12-0.04c-0.06-0.02-0.13-0.06-0.2-0.1c-0.03-3.47-0.04-5.22-0.04-5.26c0-0.04,0-0.19,0.01-0.47
			c0.01-0.28-0.02-0.64-0.07-1.07c-0.1-0.1-0.17-0.16-0.19-0.17c-0.02-0.01-0.04-0.02-0.05-0.02c-0.01,0-0.05,0-0.12-0.01
			c-0.07-0.01-0.11-0.01-0.11-0.01c0,0-0.03,0-0.08,0c-0.05,0-0.08,0-0.09,0c-0.01,0-0.02,0-0.02-0.01c0,0-0.09,0.01-0.28,0.03
			c-0.19,0.03-0.34,0.05-0.44,0.07c-0.11,0.02-0.23,0.04-0.36,0.07c-0.13,0.03-0.24,0.05-0.32,0.06c-0.08,0.01-0.21,0.03-0.38,0.06
			c-0.18,0.03-0.36,0.07-0.54,0.11c-0.18,0.05-0.31,0.08-0.39,0.1c-0.08,0.02-0.15,0.04-0.21,0.05c-0.06,0.01-0.11,0.02-0.16,0.03
			c-0.04,0.01-0.09,0.02-0.14,0.03c-0.05,0.01-0.08,0.02-0.08,0.02c0,0-0.04,0.01-0.11,0.04c-0.07,0.02-0.13,0.05-0.17,0.07
			c-0.05,0.02-0.1,0.04-0.15,0.07c-0.05,0.03-0.1,0.05-0.14,0.08C38.52,2.6,38.5,2.61,38.5,2.61c0,0-0.04,0.02-0.1,0.06
			c-0.06,0.04-0.13,0.09-0.21,0.15C38.11,2.89,38.03,2.95,37.96,3c-0.07,0.05-0.15,0.11-0.23,0.17c-0.08,0.06-0.14,0.11-0.18,0.13
			c-0.04,0.03-0.12,0.07-0.23,0.14c-0.12,0.07-0.18,0.1-0.18,0.1c0,0-0.06,0.03-0.18,0.1c-0.12,0.07-0.29,0.17-0.51,0.3
			c-0.22,0.14-0.37,0.22-0.45,0.27c-0.08,0.04-0.17,0.09-0.25,0.13c-0.08,0.04-0.15,0.08-0.22,0.11c-0.07,0.03-0.14,0.07-0.22,0.13
			c-0.08,0.05-0.15,0.11-0.21,0.16c-0.06,0.05-0.13,0.11-0.19,0.16c-0.06,0.06-0.1,0.09-0.1,0.09c0,0-0.05,0.04-0.13,0.12
			s-0.15,0.15-0.21,0.22c-0.05,0.06-0.09,0.11-0.11,0.14c-0.02,0.03-0.06,0.09-0.12,0.17c-0.06,0.08-0.09,0.13-0.09,0.13
			c0,0.01-0.01,0.01-0.01,0.02c-0.01,0-0.05,0.09-0.12,0.26c-0.08,0.17-0.13,0.29-0.15,0.36c-0.02,0.07-0.05,0.13-0.06,0.18
			c-0.02,0.05-0.06,0.14-0.11,0.25c-0.01,0.01-0.03-0.01-0.07-0.04c-0.04-0.03-0.08-0.08-0.12-0.15"/>
		<path id="STROKE_77ee2091-7578-439d-9519-911a166552ed" class="st2" d="M5.27,5.44c0,0.01,0,0.06,0.03,0.14
			c-0.01,0,0.18,0.04,0.56,0.12C6.24,5.78,6.6,5.83,6.93,5.86c0.34,0.03,0.61,0.06,0.82,0.09C7.96,5.98,8.11,6,8.21,6.01
			c0.1,0.01,0.22,0.03,0.37,0.07c0.15,0.04,0.25,0.07,0.31,0.09C8.94,6.2,9.03,6.24,9.15,6.31c0.13,0.07,0.23,0.12,0.31,0.17
			c0.08,0.04,0.12,0.06,0.12,0.06c0,0,0.02,0.01,0.06,0.01C9.67,6.56,9.77,6.6,9.93,6.68c0.16,0.08,0.28,0.15,0.38,0.21
			c0.1,0.07,0.22,0.13,0.36,0.2c0.14,0.07,0.25,0.12,0.31,0.14c0.06,0.03,0.1,0.04,0.1,0.05l0.13,0.06
			c0.05,0.03,0.07,0.04,0.06,0.03c0-0.01,0.11,0.06,0.35,0.22c0.23,0.16,0.45,0.32,0.65,0.49c0.2,0.17,0.34,0.29,0.43,0.37
			c0.08,0.08,0.15,0.13,0.2,0.17c0.05,0.04,0.1,0.08,0.14,0.11c0.04,0.04,0.09,0.07,0.13,0.11c0.04,0.03,0.1,0.08,0.17,0.13
			c0.07,0.05,0.14,0.11,0.2,0.17c0.06,0.06,0.14,0.12,0.22,0.18l0.01-0.05"/>
		<path id="STROKE_1b1f37fc-5706-436b-ae9c-6b8f1c60ad11" class="st2" d="M12.69,9.75c0.1-0.01,0.14-0.01,0.12,0.01
			c-0.02,0.02,0.07-0.01,0.27-0.08c0.2-0.08,0.36-0.16,0.49-0.24c0.12-0.08,0.21-0.14,0.28-0.18c0.06-0.03,0.13-0.06,0.18-0.09
			c0.06-0.03,0.11-0.05,0.15-0.08c0.04-0.03,0.14-0.08,0.31-0.16c0.17-0.08,0.3-0.13,0.4-0.14c0.09-0.02,0.16-0.03,0.2-0.03
			c0.04-0.01,0.12-0.02,0.23-0.05c0.11-0.02,0.33-0.09,0.65-0.19c0.32-0.1,0.61-0.19,0.89-0.26c0.27-0.07,0.52-0.13,0.73-0.17
			c0.21-0.04,0.4-0.08,0.56-0.12c0.16-0.04,0.23-0.06,0.22-0.05c-0.02,0,0.04-0.01,0.18-0.05c0.13-0.04,0.27-0.08,0.4-0.11
			c0.13-0.04,0.24-0.07,0.33-0.09c0.09-0.03,0.17-0.05,0.24-0.07c0.07-0.02,0.11-0.04,0.11-0.04c0,0,0.06-0.02,0.18-0.05
			c0.12-0.03,0.21-0.06,0.28-0.09c0.07-0.02,0.15-0.05,0.23-0.08c0.09-0.03,0.14-0.05,0.16-0.06c0.02-0.01,0.03-0.02,0.04-0.02
			c0-0.01,0.28-0.04,0.82-0.08s1.03-0.11,1.48-0.2c0.44-0.09,0.75-0.16,0.91-0.21c0.16-0.05,0.28-0.1,0.36-0.12
			c0.08-0.03,0.14-0.05,0.17-0.06c0.04-0.01,0.07-0.02,0.1-0.03c0.03-0.01,0.06-0.02,0.09-0.04c0.03-0.02,0.49-0.06,1.38-0.13
			c0.89-0.07,1.61-0.12,2.14-0.14c0.53-0.03,0.9-0.04,1.12-0.06c0.21-0.01,0.38-0.02,0.49-0.02c0.11,0,0.27,0,0.48,0
			c0.21,0,0.4,0,0.57,0c0.17,0,0.3,0,0.39,0c0.09,0,0.15,0.01,0.19,0.01c0.03,0,0.05,0.01,0.06,0.01c0,0,0.08,0,0.23,0.01
			c0.15,0,0.35,0.03,0.61,0.07c0.26,0.05,0.5,0.09,0.73,0.14c0.23,0.05,0.4,0.08,0.5,0.1c0.11,0.02,0.19,0.03,0.26,0.03
			c0.07,0.01,0.12,0.01,0.14,0.02c0.02,0,0.04,0,0.05,0c0.01,0,0.08,0.01,0.21,0.04c0.13,0.03,0.29,0.08,0.46,0.16
			c0.17,0.07,0.3,0.13,0.4,0.17c0.09,0.04,0.14,0.06,0.15,0.07c0.01,0,0.04,0.02,0.1,0.05c0.06,0.03,0.09,0.04,0.09,0.04
			c0,0,0.03,0.01,0.08,0.04c0.05,0.03,0.1,0.06,0.15,0.11L35.4,7.16"/>
	</g>
</g>
</svg>
