<?xml version="1.0" encoding="utf-8"?>
<!-- Generator: Adobe Illustrator 23.0.1, SVG Export Plug-In . SVG Version: 6.00 Build 0)  -->
<svg version="1.1" id="图层_1" xmlns="http://www.w3.org/2000/svg" xmlns:xlink="http://www.w3.org/1999/xlink" x="0px" y="0px"
	 viewBox="0 0 79 70" style="enable-background:new 0 0 79 70;" xml:space="preserve">
<style type="text/css">
	.st0{fill:#FF9048;stroke:#FF9048;stroke-width:0.5;stroke-linecap:round;stroke-linejoin:round;}
	.st1{fill:#FFF3E3;stroke:#FFF3E3;stroke-width:0.5;stroke-linecap:round;stroke-linejoin:round;}
	.st2{fill:none;stroke:#000000;stroke-width:2;stroke-linecap:round;stroke-linejoin:round;}
</style>
<g>
	<g id="New_Layer_12">
		<path id="STROKE_04f9adb7-423d-43dd-bfe1-60a5a3cfab80" class="st0" d="M13.19,34.46c0-0.01,0-0.03,0-0.06c0,0.16,0,0.21,0,0.16
			c0.03,0.09,0.04,0.13,0.04,0.13c0-0.12,0.01,0,0.02,0.37c0.01,0.37-0.01,0.67-0.05,0.89c-0.05,0.23-0.09,0.44-0.12,0.63
			c-0.03,0.19-0.06,0.37-0.09,0.52c-0.03,0.16-0.05,0.3-0.07,0.43c-0.02,0.13-0.04,0.23-0.04,0.31c-0.01,0.07-0.02,0.12-0.02,0.14
			c-0.01,0.02-0.05,0.2-0.11,0.55c-0.07,0.35-0.13,0.89-0.18,1.63c-0.05,0.74-0.1,1.3-0.14,1.69c-0.04,0.39-0.06,0.9-0.07,1.52
			c0,0.63-0.01,1.26-0.03,1.91c-0.01,0.65-0.02,1.23-0.03,1.75c-0.01,0.52-0.01,0.89-0.02,1.11c-0.01,0.22-0.01,0.55,0,0.98
			c0.01,0.44,0.01,0.77,0,1c0,0.23-0.02,0.52-0.06,0.85c-0.04,0.33-0.06,0.79-0.07,1.37c-0.01,0.58,0,1.07,0.02,1.48
			s0.05,0.82,0.09,1.24c0.04,0.42,0.07,0.78,0.09,1.06c0.02,0.28,0.04,0.53,0.06,0.74s0.02,0.33,0.02,0.36c0,0.03,0,0.13,0.01,0.3
			c0.01,0.17,0.03,0.39,0.08,0.65c0.04,0.26,0.08,0.49,0.12,0.67c0.04,0.18,0.07,0.35,0.09,0.49c0.02,0.14,0.04,0.28,0.05,0.42
			c0.01,0.13,0.03,0.29,0.06,0.45c0.03,0.17,0.06,0.3,0.08,0.41c0.02,0.1,0.1,0.36,0.22,0.75c0.13,0.4,0.27,0.79,0.44,1.16
			c0.17,0.38,0.3,0.64,0.39,0.79c0.09,0.15,0.16,0.26,0.19,0.33c0.04,0.07,0.07,0.14,0.11,0.2c0.03,0.06,0.07,0.13,0.1,0.2
			c0.03,0.07,0.07,0.14,0.1,0.21c0.04,0.07,0.08,0.16,0.14,0.26c0.05,0.1,0.11,0.19,0.15,0.28c0.05,0.09,0.08,0.16,0.11,0.22
			c0.03,0.06,0.05,0.12,0.08,0.18c0.03,0.06,0.05,0.1,0.06,0.13c0.01,0.03,0.03,0.06,0.03,0.08c0.01,0.02,0.02,0.05,0.03,0.08
			c0.01,0.03,0.02,0.04,0.01,0.03c0-0.01,0,0,0.01,0.03c0.01,0.02,0.01,0.02,0-0.01c-0.01-0.03,0,0,0.04,0.1
			c0.04,0.1,0.07,0.19,0.1,0.26C15.28,65.96,15.29,66,15.3,66c0.01,0,0.01,0,0,0c0,0,0.02,0.03,0.06,0.1
			c0.04,0.07,0.07,0.13,0.1,0.17c0.02,0.04,0.06,0.09,0.1,0.15c0.04,0.06,0.08,0.12,0.13,0.19c0.05,0.07,0.08,0.12,0.11,0.16
			c0.02,0.04,0.04,0.06,0.04,0.06c0.01,0.01,0,0-0.01-0.02c-0.02-0.02,0.03,0.05,0.13,0.19c0.1,0.14,0.23,0.3,0.38,0.47
			c0.15,0.17,0.25,0.28,0.32,0.34c0.06,0.06,0.13,0.12,0.21,0.18c0.08,0.06,0.12,0.1,0.13,0.1c0.01,0,0.01,0,0,0
			c0,0,0.02,0.01,0.07,0.04c0.05,0.03,0.1,0.06,0.17,0.1c0.06,0.04,0.12,0.08,0.18,0.12c0.06,0.04,0.09,0.07,0.1,0.07
			c0.01,0,0.01,0,0.01-0.01c0-0.01-0.01,0-0.02,0.01c-0.01,0.02,0.09,0.05,0.31,0.09c0.22,0.04,0.41,0.06,0.57,0.05
			c0.16-0.01,0.27-0.02,0.35-0.04c0.07-0.01,0.14-0.03,0.21-0.03s0.09-0.01,0.08-0.01c-0.01,0,0,0,0.02-0.01
			c0.02-0.01,0.1-0.02,0.23-0.04c0.13-0.01,0.24-0.02,0.34-0.02c0.1,0,0.18-0.01,0.25-0.02c0.07-0.02,0.13-0.03,0.18-0.05
			c0.05-0.02,0.07-0.03,0.08-0.03c0,0,0,0-0.01,0c-0.01,0,0.01,0,0.05-0.02c0.04-0.02,0.12-0.05,0.23-0.1
			c0.11-0.05,0.2-0.11,0.26-0.17c0.06-0.06,0.12-0.13,0.17-0.19c0.05-0.06,0.1-0.11,0.13-0.15c0.04-0.04,0.08-0.08,0.11-0.12
			c0.04-0.04,0.04-0.04,0,0c-0.04,0.04,0.08-0.07,0.37-0.34c0.29-0.27,0.52-0.5,0.71-0.69c0.19-0.19,0.31-0.37,0.38-0.51
			c0.07-0.15,0.12-0.26,0.16-0.32s0.06-0.11,0.07-0.14c0.01-0.02,0.03-0.06,0.05-0.11c0.02-0.05,0.04-0.09,0.06-0.11
			c0.01-0.03,0.03-0.05,0.04-0.08c0.01-0.02,0.03-0.05,0.04-0.08c0.01-0.03,0.02-0.04,0.02-0.04c0,0,0.02-0.03,0.05-0.1
			c0.03-0.06,0.05-0.1,0.05-0.11c0-0.01,0-0.01,0,0c0,0.01,0.01-0.02,0.04-0.09c0.03-0.07,0.09-0.28,0.18-0.65
			c0.09-0.37,0.15-0.65,0.19-0.83c0.04-0.18,0.09-0.33,0.13-0.44c0.04-0.11,0.07-0.19,0.07-0.25c0.01-0.06,0.01-0.09,0.02-0.09
			c0,0,0.01-0.03,0.02-0.07c0.01-0.05,0.02-0.11,0.03-0.18c0.01-0.08,0.02-0.17,0.04-0.28c0.02-0.11,0.03-0.16,0.02-0.16
			c0,0,0.02-0.09,0.05-0.27c0.04-0.18,0.08-0.4,0.12-0.64c0.04-0.25,0.07-0.44,0.08-0.58c0.01-0.14,0.02-0.26,0.02-0.36
			c0-0.1,0.01-0.14,0.01-0.11c0,0.03,0.01-0.04,0.02-0.21c0.04-0.03,0.08-0.07,0.11-0.11c0.03-0.04,0.04-0.05,0.03-0.05
			c0,0.01-0.02,0.02-0.03,0.03c-0.02,0.01,0.03-0.02,0.13-0.09c0.01,0.02,0.01,0.27,0.01,0.75c0,0.48-0.02,0.89-0.04,1.22
			c-0.03,0.33-0.03,0.55-0.02,0.66c0.01,0.11,0,0.37-0.03,0.78c-0.04,0.41-0.07,0.66-0.09,0.75c-0.02,0.09-0.04,0.33-0.05,0.71
			c-0.01,0.38,0,0.71,0.05,0.99c0.04,0.28,0.09,0.47,0.13,0.55c0.04,0.09,0.1,0.2,0.17,0.33c0.07,0.13,0.14,0.24,0.2,0.33
			c0.06,0.08,0.11,0.16,0.15,0.22c0.04,0.06,0.05,0.07,0.02,0.04c-0.03-0.04-0.02-0.02,0.04,0.06c0.05,0.07,0.12,0.14,0.19,0.2
			c0.07,0.06,0.13,0.1,0.18,0.14c0.05,0.04,0.07,0.05,0.07,0.05c0,0-0.01-0.01-0.01-0.01c-0.01,0,0.03,0.02,0.11,0.08
			c0.08,0.06,0.12,0.08,0.1,0.07c-0.02-0.01,0,0,0.04,0.03c0.04,0.03,0.09,0.06,0.14,0.1c0.05,0.04,0.07,0.05,0.05,0.04
			c-0.01-0.01,0-0.01,0.03,0.01c0.03,0.02,0.03,0.02-0.01,0.01c-0.04-0.01,0.09,0.02,0.38,0.08c0.29,0.06,0.54,0.12,0.74,0.17
			c0.2,0.05,0.3,0.08,0.31,0.08c0.01,0.01,0.03,0.01,0.08,0.02c0.04,0.01,0.08,0.02,0.12,0.03c0.04,0.01,0.12,0.03,0.26,0.07
			c0.13,0.03,0.21,0.05,0.24,0.06c0.02,0,0.04,0,0.06,0c0.02,0,0.02,0-0.01-0.01c-0.03,0,0.14,0.03,0.51,0.09
			c0.37,0.06,0.64,0.1,0.82,0.1c0.18,0,0.4,0.03,0.65,0.08c0.25,0.05,0.49,0.08,0.72,0.08c0.23,0,0.42,0,0.58,0
			c0.16,0,0.3,0.01,0.41,0.02c0.12,0.01,0.24,0.02,0.39,0.02c0.14,0,0.26,0,0.36,0c0.1,0,0.15,0,0.15,0c0,0,0.03,0,0.08,0
			c0.05,0,0.09,0,0.13,0c0.04,0,0.06,0,0.06,0c0,0,0.02-0.01,0.06-0.03c0.04-0.02,0.25-0.04,0.62-0.05
			c0.37-0.01,0.62-0.01,0.74-0.01c0.12,0,0.33,0,0.62-0.01c0.29-0.01,0.53,0,0.7,0.01c0.18,0.01,0.34,0.04,0.51,0.07
			c0.16,0.03,0.28,0.05,0.34,0.04c0.07,0,0.15-0.01,0.25-0.01c0.1,0,0.24,0,0.41,0c0.17,0,0.33,0.02,0.48,0.04
			c0.15,0.02,0.31,0.03,0.47,0.03c0.16,0,0.32,0,0.47,0.01c0.15,0,0.26,0.01,0.34,0.02c0.08,0.01,0.2,0.02,0.36,0.03
			c0.16,0.01,0.29,0.01,0.37,0.01c0.08,0,0.15,0,0.2,0c0.05,0,0.07,0,0.04,0c-0.03,0,0.14-0.01,0.51-0.02
			c0.37-0.01,0.74-0.02,1.13-0.02c0.39,0,0.68,0,0.88,0.01c0.2,0.01,0.48,0.01,0.85,0c0.37-0.01,0.73-0.04,1.09-0.11
			c0.35-0.07,0.62-0.1,0.8-0.11c0.18,0,0.37-0.02,0.57-0.03c0.2-0.02,0.35-0.03,0.46-0.05c0.1-0.02,0.21-0.04,0.32-0.05
			c0.11-0.01,0.19-0.03,0.26-0.04c0.07-0.01,0.13-0.02,0.2-0.03c0.07-0.01,0.12-0.02,0.17-0.03c0.05-0.01,0.07-0.01,0.07,0
			c-0.01,0.01,0.06,0.01,0.19,0c0.13-0.01,0.4-0.11,0.8-0.31c0.41-0.2,0.71-0.33,0.91-0.4c0.2-0.07,0.43-0.12,0.69-0.16
			c0.25-0.04,0.48-0.08,0.67-0.13c0.19-0.04,0.34-0.08,0.44-0.11c0.1-0.03,0.16-0.05,0.18-0.06c0.02-0.01,0.04-0.01,0.07-0.02
			c0.03-0.01,0.09-0.03,0.19-0.06c0.09-0.03,0.16-0.05,0.19-0.06s0.08-0.02,0.12-0.03c0.05-0.01,0.08-0.02,0.09-0.03
			c0.01-0.01,0.04-0.01,0.09-0.01c0.05,0,0.16-0.03,0.35-0.09c0.18-0.06,0.34-0.12,0.48-0.19c0.13-0.06,0.25-0.11,0.34-0.13
			c0.09-0.03,0.28-0.05,0.55-0.07c0.28-0.02,0.62-0.12,1.04-0.28c0.42-0.17,0.73-0.28,0.93-0.36c0.2-0.07,0.35-0.14,0.45-0.2
			c0.1-0.06,0.26-0.17,0.47-0.31c0.21-0.15,0.36-0.25,0.44-0.3c0.08-0.06,0.2-0.14,0.36-0.24c0.15-0.11,0.29-0.19,0.42-0.26
			c0.12-0.07,0.22-0.12,0.29-0.15c0.07-0.03,0.14-0.07,0.22-0.1c0.08-0.03,0.13-0.06,0.17-0.08c0.04-0.02,0.11-0.05,0.22-0.1
			c0.1-0.05,0.15-0.07,0.15-0.07c0,0-0.01,0-0.01,0c0,0,0.05-0.03,0.15-0.08c0.1-0.05,0.25-0.11,0.43-0.17
			c0.18-0.06,0.49-0.21,0.92-0.44c0.43-0.23,0.74-0.41,0.94-0.53c0.19-0.12,0.34-0.22,0.43-0.29c0.1-0.07,0.15-0.11,0.17-0.12
			c0.02-0.01,0.07-0.04,0.16-0.08c0.09-0.05,0.2-0.1,0.35-0.16c0.15-0.06,0.32-0.15,0.51-0.27c0.19-0.12,0.36-0.23,0.51-0.32
			c0.15-0.09,0.25-0.16,0.32-0.2c0.07-0.04,0.12-0.07,0.14-0.09c0.02-0.02,0.04-0.03,0.06-0.05c0.02-0.02,0.05-0.04,0.08-0.06
			s0.15-0.13,0.33-0.32c0.19-0.19,0.43-0.45,0.74-0.77c0.31-0.32,0.67-0.66,1.08-1.03c0.41-0.37,0.72-0.67,0.92-0.9
			c0.2-0.23,0.35-0.38,0.45-0.47c0.1-0.09,0.18-0.16,0.24-0.21c0.06-0.05,0.1-0.08,0.12-0.09c0.02-0.01,0.03-0.02,0.04-0.04
			c0.01-0.02,0.02-0.02,0.02,0c0,0.02,0.08-0.04,0.24-0.16c0.16-0.12,0.27-0.23,0.33-0.33c0.06-0.1,0.21-0.26,0.46-0.48
			c0.24-0.22,0.44-0.4,0.58-0.54c0.15-0.14,0.26-0.23,0.33-0.26c0.07-0.03,0.13-0.06,0.15-0.08c0.03-0.02,0.08-0.07,0.16-0.14
			c0.08-0.07,0.23-0.23,0.46-0.47c0.23-0.24,0.41-0.44,0.56-0.59c0.15-0.15,0.27-0.29,0.36-0.42c0.09-0.13,0.16-0.23,0.2-0.3
			c0.04-0.07,0.09-0.14,0.13-0.21c0.04-0.07,0.06-0.11,0.06-0.11c0,0,0.01-0.01,0.02-0.03c0.01-0.02,0.01-0.03-0.01-0.01
			c-0.02,0.02,0.03-0.1,0.15-0.35c0.12-0.25,0.23-0.45,0.31-0.58c0.09-0.14,0.15-0.24,0.19-0.32c0.04-0.08,0.07-0.13,0.07-0.16
			c0.01-0.03,0.02-0.05,0.03-0.08c0.01-0.02,0.01-0.04,0.02-0.05c0-0.01,0-0.01,0,0.01c-0.01,0.02,0-0.02,0.02-0.1
			c0.02-0.08,0.13-0.3,0.34-0.64c0.21-0.34,0.37-0.64,0.48-0.88c0.11-0.24,0.22-0.44,0.33-0.59c0.11-0.15,0.18-0.26,0.23-0.32
			s0.07-0.12,0.09-0.17c0.02-0.05,0.03-0.08,0.03-0.08c0,0,0.01-0.02,0.02-0.07c0.02-0.05,0.03-0.1,0.06-0.17
			c0.02-0.07,0.05-0.15,0.09-0.24c0.04-0.09,0.08-0.19,0.11-0.29c0.04-0.1,0.06-0.19,0.08-0.26c0.02-0.07,0.03-0.14,0.05-0.2
			c0.01-0.06,0.03-0.12,0.05-0.18c0.02-0.06,0.03-0.11,0.04-0.14c0.01-0.03,0.03-0.1,0.06-0.21c0.03-0.1,0.05-0.18,0.07-0.23
			c0.01-0.05,0.06-0.25,0.16-0.6c0.09-0.35,0.18-0.7,0.27-1.07c0.09-0.37,0.15-0.67,0.19-0.91c0.04-0.24,0.07-0.44,0.09-0.62
			c0.02-0.18,0.03-0.32,0.04-0.41c0-0.09,0-0.15,0-0.19c0-0.04,0-0.08,0-0.12c0-0.04,0-0.08,0-0.1c0-0.02,0-0.02,0.01,0.01
			c0.01,0.03,0.03-0.23,0.06-0.78c0.03-0.55,0.04-1.02,0.03-1.39c-0.01-0.38-0.03-0.65-0.05-0.82c-0.03-0.17-0.05-0.29-0.08-0.38
			c-0.03-0.09-0.04-0.16-0.05-0.22c-0.01-0.06-0.02-0.13-0.04-0.2c-0.02-0.08-0.02-0.11-0.01-0.09c0.01,0.01,0-0.01-0.03-0.06
			c-0.03-0.06-0.08-0.23-0.16-0.52c-0.08-0.29-0.15-0.56-0.21-0.79c-0.06-0.23-0.1-0.4-0.12-0.49c-0.02-0.09-0.06-0.2-0.13-0.32
			c-0.07-0.12-0.12-0.21-0.15-0.28c-0.04-0.07-0.1-0.17-0.2-0.29c-0.09-0.12-0.17-0.21-0.23-0.26c-0.06-0.05-0.11-0.09-0.15-0.1
			c-0.04-0.02-0.1-0.06-0.18-0.12c-0.08-0.06-0.15-0.12-0.21-0.18c-0.06-0.06-0.09-0.09-0.09-0.09c0,0,0,0,0.01,0.01
			c0,0.01-0.01-0.01-0.03-0.04c-0.03-0.03-0.06-0.07-0.1-0.1c-0.04-0.04-0.07-0.06-0.1-0.08c-0.03-0.02-0.07-0.04-0.12-0.07
			c-0.05-0.03-0.06-0.04-0.04-0.02c0.03,0.02,0.01,0.01-0.06-0.02c-0.06-0.03-0.13-0.08-0.19-0.13c-0.06-0.05-0.1-0.08-0.1-0.08
			c0,0,0,0-0.01,0c-0.01,0,0,0,0.04,0.01c0.03,0.01-0.01-0.03-0.12-0.11c-0.11-0.08-0.22-0.14-0.32-0.18
			c-0.1-0.04-0.21-0.07-0.32-0.1c-0.11-0.03-0.2-0.04-0.27-0.04c-0.07,0-0.1,0-0.09,0c0.01,0-0.01,0-0.05,0c-0.05,0-0.1,0-0.16,0
			c-0.06,0-0.12,0-0.17,0c-0.05,0-0.09,0-0.11,0c-0.03,0-0.04,0-0.04,0c0,0,0,0,0,0c0,0-0.03,0-0.07,0c-0.04,0-0.13,0-0.25,0
			c-0.12,0-0.2,0-0.23,0c-0.03,0-0.08,0-0.14,0.01c-0.06,0.01-0.12,0.01-0.19,0.01c-0.07,0-0.25,0.03-0.54,0.09
			c-0.29,0.06-0.51,0.12-0.66,0.18c-0.14,0.06-0.24,0.11-0.29,0.14c-0.05,0.04-0.09,0.07-0.13,0.1c-0.04,0.03-0.07,0.05-0.08,0.07
			c-0.01,0.02-0.02,0.03-0.02,0.03c0,0,0,0-0.02-0.01c-0.01-0.01-0.11,0.07-0.28,0.26c-0.18,0.19-0.31,0.35-0.38,0.5
			c-0.08,0.15-0.12,0.24-0.13,0.27c-0.01,0.03-0.02,0.06-0.03,0.09s-0.01,0.03,0,0.01c0.01-0.02-0.03,0.05-0.09,0.19
			c-0.07,0.14-0.15,0.38-0.24,0.72c-0.09,0.34-0.16,0.57-0.2,0.7c-0.04,0.13-0.09,0.27-0.14,0.42c-0.05,0.15-0.08,0.26-0.08,0.32
			c-0.01,0.06-0.01,0.12-0.02,0.17c-0.01,0.05-0.01,0.11-0.01,0.18c0,0.07,0,0.09-0.01,0.07c0-0.02-0.02,0.12-0.04,0.42
			c-0.02,0.31-0.03,0.72-0.03,1.24c0.01,0.52,0.01,0.9,0.02,1.12c0.01,0.23,0.02,0.39,0.02,0.5c0,0.1,0.01,0.19,0.01,0.25
			c0,0.06,0,0.11,0,0.13c0,0.03,0,0.07,0,0.14c0,0.07,0,0.14,0,0.2c0,0.06,0,0.09,0,0.07c0-0.02,0,0.11,0,0.39c0,0.27,0,0.49,0,0.64
			c0,0.15-0.01,0.3-0.02,0.43c-0.01,0.13-0.01,0.21-0.01,0.22c0,0.02,0,0.05-0.01,0.11c-0.01,0.06-0.01,0.07,0,0.01
			c0.01-0.05,0.01,0.04,0,0.28c0,0.24-0.02,0.45-0.06,0.63c-0.03,0.18-0.07,0.32-0.12,0.43c-0.05,0.11-0.09,0.19-0.11,0.26
			c-0.02,0.06-0.04,0.11-0.05,0.13c-0.01,0.02-0.04,0.1-0.08,0.23c-0.05,0.13-0.08,0.23-0.11,0.3c-0.03,0.07-0.05,0.11-0.06,0.12
			c-0.01,0.01-0.03,0.05-0.06,0.12c-0.03,0.06-0.06,0.12-0.08,0.16c-0.02,0.04-0.04,0.08-0.05,0.11c-0.01,0.03-0.02,0.04-0.02,0.04
			c0-0.01,0-0.01,0,0c0,0-0.04,0.12-0.11,0.34c-0.07,0.22-0.14,0.43-0.2,0.61c-0.06,0.18-0.11,0.33-0.14,0.43
			c-0.03,0.1-0.05,0.17-0.06,0.2c-0.01,0.03-0.02,0.05-0.02,0.06c0,0.01-0.01,0.02-0.02,0.04c-0.01,0.02-0.03,0.06-0.05,0.12
			c-0.02,0.06-0.04,0.09-0.04,0.09c0,0,0,0,0,0s-0.01,0.01-0.02,0.03c-0.01,0.02-0.06,0.12-0.15,0.29
			c-0.09,0.18-0.18,0.33-0.27,0.47c-0.09,0.13-0.18,0.25-0.27,0.35c-0.09,0.1-0.15,0.18-0.19,0.25c-0.04,0.07-0.07,0.13-0.1,0.19
			c-0.03,0.06-0.04,0.08-0.03,0.06c0.01-0.02-0.01,0.03-0.07,0.15c-0.05,0.12-0.12,0.25-0.2,0.38c-0.08,0.13-0.14,0.23-0.19,0.31
			c-0.05,0.08-0.08,0.13-0.1,0.17c-0.02,0.04-0.03,0.04-0.02,0.02c0-0.02-0.01,0.02-0.04,0.14c-0.03,0.12-0.19,0.34-0.49,0.66
			c-0.29,0.32-0.5,0.52-0.6,0.61c-0.11,0.08-0.33,0.24-0.67,0.47c-0.34,0.23-0.59,0.41-0.76,0.53c-0.17,0.12-0.29,0.2-0.36,0.24
			c-0.07,0.04-0.13,0.08-0.17,0.13c-0.04,0.04-0.06,0.07-0.06,0.07c0,0,0,0,0.02-0.02c0.02-0.02,0,0.01-0.06,0.08
			c-0.05,0.07-0.11,0.14-0.17,0.2s-0.09,0.1-0.11,0.12c-0.01,0.01-0.02,0.02-0.03,0.03c-0.01,0.01-0.01,0.01,0,0
			c0,0-0.02,0.02-0.08,0.08c-0.05,0.05-0.11,0.11-0.16,0.17c-0.06,0.06-0.09,0.09-0.09,0.1c0,0.01-0.01,0.02-0.03,0.03
			c-0.01,0.01-0.02,0.02-0.02,0.02c0,0.01-0.05,0.07-0.14,0.19c-0.09,0.12-0.25,0.25-0.46,0.39c-0.21,0.14-0.49,0.3-0.82,0.5
			c-0.34,0.2-0.62,0.33-0.86,0.4c-0.23,0.07-0.44,0.14-0.61,0.2c-0.18,0.06-0.3,0.12-0.36,0.16c-0.07,0.05-0.09,0.06-0.07,0.05
			c0.02-0.01,0.03-0.02,0.02-0.01c0,0,0,0,0,0c0,0,0,0-0.01,0c0,0-0.01,0-0.01,0c0,0-0.03,0.01-0.09,0.04
			c-0.06,0.02-0.11,0.05-0.16,0.06c-0.05,0.02-0.07,0.03-0.06,0.04c-0.02,0.03-0.06,0.06-0.14,0.08c-0.08,0.02-0.14,0.03-0.2,0.04
			c-0.06,0.01-0.08,0.01-0.08,0.01c0,0,0,0-0.02,0c-0.01,0-0.04,0-0.09,0c-0.05,0-0.08,0-0.11,0c-0.03,0-0.06,0-0.11,0
			c-0.05,0-0.06,0-0.05,0c0.01,0,0.01,0,0,0c-0.01,0-0.05,0-0.1,0c-0.05,0-0.08,0-0.08,0c0,0,0.01,0,0.02,0.01
			c0.01,0-0.02-0.01-0.09-0.04c-0.02-0.09-0.02-0.17-0.01-0.24c0.02-0.07,0.03-0.13,0.05-0.2c0.02-0.06,0.03-0.09,0.02-0.1
			c0,0,0,0,0,0.01c0,0.01,0.01-0.05,0.03-0.16c0.02-0.11,0.02-0.26,0.02-0.43c0-0.18,0-0.3,0-0.36c0-0.06,0-0.13,0-0.19
			c0-0.07,0-0.11,0-0.15c0-0.03,0-0.07,0-0.12c0-0.05,0-0.07,0-0.07s0,0-0.01,0.01s-0.01-0.04,0.01-0.15
			c0.01-0.1,0.05-0.35,0.1-0.74c0.06-0.39,0.09-0.66,0.1-0.82c0.01-0.16,0.01-0.31,0.01-0.47c0-0.15,0-0.26,0-0.33
			c0-0.07,0-0.13,0-0.17c0-0.05,0-0.09,0-0.13c0-0.04,0-0.08,0-0.11s0-0.06-0.01-0.07c0-0.01,0-0.01,0.01,0.01
			c0.01,0.02,0.01-0.12-0.01-0.4c-0.02-0.29-0.03-0.52-0.05-0.71c-0.02-0.19-0.05-0.32-0.1-0.39c-0.05-0.07-0.08-0.14-0.09-0.18
			c-0.02-0.05-0.03-0.08-0.03-0.1c-0.01-0.02-0.01-0.05-0.01-0.08c0-0.03-0.01-0.07-0.01-0.1c-0.01-0.03-0.01-0.05,0-0.04
			c0,0,0,0,0-0.02c0-0.02,0-0.01,0.01,0.03c0.01,0.04,0-0.01-0.01-0.14c-0.02-0.13-0.03-0.24-0.04-0.32s-0.02-0.15-0.04-0.21
			c-0.01-0.06-0.03-0.12-0.05-0.18c-0.02-0.06-0.04-0.12-0.07-0.2c-0.02-0.07-0.07-0.24-0.13-0.49c-0.06-0.25-0.12-0.55-0.18-0.89
			c-0.05-0.34-0.08-0.58-0.07-0.73c0.01-0.15-0.03-0.33-0.11-0.55c-0.08-0.22-0.15-0.39-0.21-0.52c-0.06-0.12-0.09-0.2-0.1-0.23
			c-0.01-0.03-0.02-0.06-0.04-0.1c-0.01-0.04-0.02-0.05-0.01-0.03c0.01,0.02-0.01-0.03-0.06-0.15c-0.05-0.11-0.09-0.18-0.11-0.2
			c-0.02-0.02-0.06-0.07-0.1-0.16c-0.05-0.08-0.07-0.13-0.07-0.13c0,0-0.01-0.03-0.03-0.07c-0.02-0.04-0.02-0.06-0.02-0.05
			c0,0.01,0,0.01,0.01,0.01c0,0-0.05-0.15-0.15-0.44c-0.1-0.29-0.19-0.52-0.26-0.71c-0.07-0.18-0.13-0.37-0.18-0.56
			c-0.05-0.19-0.1-0.36-0.15-0.51c-0.05-0.15-0.09-0.26-0.12-0.34c-0.03-0.08-0.04-0.11-0.03-0.1c0.01,0.02,0-0.01-0.03-0.07
			c-0.03-0.06-0.1-0.24-0.21-0.52c-0.11-0.28-0.2-0.51-0.25-0.7c-0.05-0.18-0.09-0.33-0.12-0.43c-0.02-0.1-0.05-0.18-0.07-0.24
			c-0.02-0.06-0.03-0.07-0.02-0.04c0.01,0.03,0,0-0.03-0.08c-0.03-0.08-0.07-0.2-0.13-0.33c-0.05-0.14-0.11-0.29-0.17-0.44
			c-0.06-0.16-0.1-0.27-0.11-0.35c-0.01-0.08-0.04-0.18-0.07-0.3c-0.04-0.12-0.1-0.24-0.19-0.36c-0.09-0.12-0.16-0.23-0.22-0.34
			c-0.06-0.11-0.11-0.21-0.14-0.29c-0.03-0.08-0.06-0.16-0.08-0.21c-0.02-0.06-0.04-0.1-0.06-0.13c-0.01-0.02-0.02-0.04-0.03-0.05
			c0-0.01-0.01-0.02-0.02-0.04c-0.01-0.02-0.03-0.06-0.07-0.13c-0.04-0.07-0.06-0.1-0.06-0.1c0,0,0,0,0,0c0,0,0,0,0.01,0.02
			c0.01,0.01-0.01-0.02-0.05-0.1c-0.04-0.08-0.08-0.15-0.11-0.22c-0.03-0.07-0.06-0.13-0.1-0.2c-0.03-0.07-0.05-0.1-0.05-0.1
			c0,0,0-0.01-0.01-0.02c-0.01-0.01-0.03-0.04-0.05-0.09c-0.03-0.04-0.07-0.11-0.12-0.2c-0.05-0.09-0.1-0.17-0.13-0.24
			c-0.03-0.07-0.05-0.11-0.06-0.13c-0.01-0.02-0.01-0.02-0.01-0.02c0,0.01,0,0.01,0.01,0.01c0,0,0,0,0.01,0.01
			c0,0-0.04-0.07-0.13-0.21c-0.09-0.14-0.16-0.24-0.21-0.3c-0.05-0.06-0.09-0.12-0.13-0.18c-0.04-0.06-0.06-0.09-0.07-0.1
			c-0.01-0.01-0.01-0.01-0.01,0c0,0,0,0-0.01-0.02c-0.01-0.02-0.04-0.07-0.09-0.15c-0.05-0.08-0.12-0.18-0.21-0.28
			c-0.08-0.1-0.15-0.19-0.19-0.26c-0.04-0.08-0.06-0.13-0.07-0.15c-0.01-0.02-0.02-0.05-0.03-0.09c-0.01-0.03-0.03-0.08-0.05-0.13
			c-0.02-0.05-0.02-0.07,0-0.03c0.02,0.03,0,0-0.06-0.09c-0.06-0.09-0.08-0.13-0.08-0.12s0,0-0.03-0.02
			c-0.02-0.02-0.06-0.08-0.11-0.17c-0.05-0.09-0.1-0.18-0.15-0.28c-0.04-0.1-0.1-0.21-0.18-0.34c-0.07-0.13-0.1-0.18-0.09-0.16
			c0.02,0.03,0.02,0.04,0.02,0.05c0,0-0.05-0.09-0.14-0.29c-0.09-0.2-0.18-0.38-0.26-0.54c-0.09-0.16-0.16-0.28-0.2-0.35
			c-0.05-0.07-0.09-0.14-0.13-0.21c-0.04-0.07-0.06-0.1-0.05-0.09c0,0,0,0,0,0c0,0-0.02-0.02-0.04-0.06
			c-0.02-0.04-0.1-0.12-0.21-0.24c-0.12-0.12-0.25-0.24-0.41-0.38C46.5,31.1,46.4,31,46.34,30.93c-0.06-0.07-0.09-0.1-0.09-0.09
			c0,0-0.04-0.03-0.12-0.1c-0.08-0.07-0.12-0.1-0.11-0.11c-0.09-0.05-0.17-0.11-0.24-0.2c-0.07-0.08-0.13-0.15-0.16-0.22
			c-0.03-0.06-0.07-0.13-0.12-0.21c-0.05-0.07-0.1-0.14-0.15-0.19c-0.05-0.06-0.11-0.11-0.16-0.17s-0.08-0.09-0.07-0.09c0,0,0,0,0,0
			c0,0,0,0,0.01,0.01c0.01,0.01,0.01,0.01,0,0c-0.01-0.01-0.01-0.01,0,0c0.01,0.01,0-0.01-0.04-0.05c-0.03-0.04-0.07-0.09-0.11-0.13
			c-0.04-0.04-0.06-0.06-0.06-0.06c-0.04-0.04-0.08-0.09-0.14-0.13c-0.05-0.05-0.07-0.07-0.07-0.06c0.01,0,0.01,0.01,0.02,0.02
			c0,0.01-0.05-0.06-0.17-0.23c-0.12-0.17-0.21-0.29-0.29-0.37c-0.08-0.08-0.14-0.15-0.17-0.2c-0.04-0.05-0.06-0.08-0.08-0.09
			c-0.01-0.01-0.02-0.02-0.03-0.02c-0.01,0-0.01-0.01-0.01-0.01c0,0-0.01-0.01-0.03-0.02c-0.02-0.01-0.06-0.04-0.11-0.09
			c-0.05-0.05-0.07-0.07-0.07-0.07c0,0,0.01,0,0.01,0c0-0.01,0,0,0,0.04c0,0.04-0.01,0.06-0.01,0.07"/>
		<path id="STROKE_d17a6498-d871-4868-9b53-8018b11f9585" class="st0" d="M13.6,34.88c0-0.01,0,0.04-0.01,0.15c0,0-0.02,0-0.06,0.01
			c0-0.15,0-0.2,0-0.16c0-0.19,0-0.26,0-0.2c-0.01-0.16-0.02-0.22-0.01-0.18c0-0.16,0-0.21,0-0.18c0-0.12,0-0.17,0-0.16
			c0-0.19,0-0.26,0-0.2c0-0.18,0-0.24,0-0.18c0-0.18,0-0.24,0-0.18c0-0.16,0-0.22,0-0.17c0.02-0.13,0.04-0.18,0.03-0.15
			c-0.05,0.12,0,0,0.14-0.36c0.14-0.36,0.27-0.63,0.38-0.82c0.11-0.19,0.24-0.37,0.38-0.55c0.14-0.18,0.25-0.33,0.33-0.48
			c0.08-0.14,0.15-0.25,0.22-0.33c0.07-0.08,0.12-0.15,0.17-0.2c0.05-0.05,0.07-0.08,0.07-0.08c0,0,0.02-0.02,0.06-0.05
			s0.12-0.1,0.22-0.22c0.1-0.11,0.19-0.23,0.24-0.34c0.06-0.12,0.11-0.21,0.15-0.3c0.04-0.08,0.09-0.17,0.15-0.27
			c0.06-0.1,0.1-0.17,0.12-0.21c0.02-0.04,0.06-0.1,0.11-0.17c0.05-0.07,0.1-0.14,0.16-0.2c0.06-0.06,0.1-0.1,0.11-0.12
			c0.01-0.02,0.03-0.03,0.05-0.05c0.02-0.02,0.05-0.05,0.09-0.09c0.04-0.04,0.07-0.07,0.08-0.06c0.01,0,0,0.01-0.03,0.02
			c-0.03,0.02,0.13-0.11,0.47-0.37c0.34-0.26,0.67-0.47,1-0.62c0.33-0.15,0.61-0.28,0.85-0.37c0.24-0.1,0.46-0.23,0.67-0.39
			c0.21-0.16,0.49-0.31,0.84-0.45c0.35-0.14,0.6-0.23,0.76-0.28c0.16-0.05,0.26-0.09,0.31-0.12c0.05-0.03,0.1-0.07,0.16-0.11
			c0.06-0.04,0.19-0.14,0.41-0.3c0.22-0.15,0.46-0.26,0.73-0.31c0.27-0.05,0.47-0.09,0.59-0.11c0.12-0.02,0.23-0.06,0.33-0.11
			c0.1-0.05,0.2-0.1,0.3-0.16c0.1-0.06,0.24-0.09,0.44-0.1c0.19-0.01,0.37-0.01,0.54-0.01c0.17,0.01,0.32,0,0.47-0.02
			c0.14-0.02,0.36-0.05,0.66-0.1c0.29-0.05,0.52-0.1,0.67-0.15c0.15-0.05,0.25-0.09,0.31-0.12c0.05-0.03,0.12-0.06,0.18-0.08
			c0.07-0.02,0.09-0.03,0.06-0.03c-0.03,0,0.03-0.01,0.17-0.02c0.14-0.02,0.35-0.05,0.63-0.09c0.28-0.04,0.5-0.06,0.65-0.08
			c0.16-0.01,0.26-0.02,0.32-0.01c0.06,0,0.11,0,0.18-0.01c0.06-0.01,0.09-0.02,0.07-0.02c-0.02,0,0.09-0.03,0.32-0.08
			c0.23-0.06,0.42-0.09,0.58-0.1c0.16-0.01,0.28-0.01,0.34-0.01c0.07,0,0.16,0,0.26-0.01c0.11-0.01,0.23-0.02,0.35-0.04
			c0.13-0.01,0.23-0.02,0.31-0.02c0.08,0,0.14,0,0.18,0s0.1,0,0.15,0c0.06,0,0.1,0,0.13,0c0.03,0,0.11,0,0.25,0.02
			c0.14,0.01,0.26,0.03,0.37,0.06c0.11,0.03,0.31,0.07,0.63,0.11c0.31,0.05,0.65,0.08,1.01,0.1c0.36,0.02,0.61,0.03,0.75,0.03
			c0.14,0,0.35,0.07,0.65,0.21c0.3,0.14,0.54,0.26,0.72,0.34c0.18,0.09,0.33,0.17,0.45,0.24c0.12,0.07,0.21,0.13,0.27,0.16
			c0.06,0.03,0.08,0.04,0.07,0.04c-0.01,0,0.13,0.05,0.44,0.15c0.3,0.1,0.56,0.2,0.76,0.29c0.2,0.1,0.31,0.16,0.33,0.2
			c0.02,0.03,0.09,0.08,0.23,0.13c0.14,0.05,0.26,0.09,0.35,0.11c0.1,0.03,0.17,0.06,0.23,0.1c0.06,0.04,0.09,0.06,0.11,0.07
			c0.02,0.01,0.03,0.02,0.05,0.03c0.02,0.01,0.01,0.01-0.02-0.01c-0.03-0.02,0.06,0.06,0.27,0.24c0.21,0.17,0.4,0.31,0.56,0.4
			c0.16,0.09,0.28,0.16,0.37,0.2c0.09,0.04,0.15,0.07,0.19,0.07c0.04,0,0.06,0.01,0.07,0.01c0.01,0,0.02,0,0.03,0
			c0.01,0,0.06,0,0.14,0.02c0.08,0.01,0.17,0.04,0.27,0.07c0.1,0.04,0.17,0.06,0.2,0.07c0.03,0.01,0.04,0.01,0.04,0.01
			c-0.01,0,0.05,0.02,0.17,0.08c0.12,0.06,0.2,0.1,0.26,0.14c0.05,0.03,0.07,0.04,0.05,0.03c-0.02-0.01-0.02-0.01-0.01-0.01
			c0.01,0.01,0.04,0.02,0.09,0.05c0.05,0.03,0.12,0.06,0.2,0.09c0.08,0.03,0.14,0.05,0.18,0.07c0.05,0.02,0.06,0.02,0.04,0.01
			c-0.02-0.01,0,0,0.06,0.03c0.06,0.03,0.13,0.07,0.2,0.1c0.07,0.04,0.14,0.08,0.22,0.12c0.07,0.04,0.11,0.07,0.12,0.08
			c0,0.01,0,0.01,0,0c0-0.01,0.05,0.01,0.14,0.07s0.18,0.12,0.25,0.2c0.07,0.08,0.12,0.14,0.15,0.18c0.03,0.05,0.06,0.09,0.08,0.13
			c0.02,0.04,0.03,0.05,0.02,0.04c-0.01-0.01-0.01-0.02-0.02-0.03c-0.01,0,0.01,0.02,0.03,0.06c0.03,0.05,0.07,0.11,0.13,0.18
			c0.06,0.08,0.09,0.11,0.09,0.11c0,0,0,0,0,0.01c0,0.01,0.02,0.03,0.04,0.05c0.03,0.03,0.06,0.08,0.11,0.16
			c0.04,0.08,0.09,0.15,0.13,0.22c0.04,0.07,0.06,0.1,0.06,0.1c0,0-0.01-0.01-0.01-0.01c0,0,0.01,0.02,0.04,0.06
			c0.03,0.05,0.06,0.18,0.08,0.4c-0.02-0.02-0.04-0.03-0.06-0.05"/>
		<path id="STROKE_6117abc5-0726-4286-8e49-12145d6c6858" class="st1" d="M13.03,35.01c0.02-0.05,0.03-0.09,0.03-0.11
			c0-0.03,0-0.05,0-0.08c0-0.03,0-0.05-0.01-0.08c-0.01-0.02-0.02-0.06-0.04-0.11c0.02-0.06,0.04-0.12,0.06-0.17
			c0.02-0.06,0.05-0.12,0.07-0.2c0.03-0.08,0.04-0.11,0.04-0.11c0,0,0,0,0.01-0.02c0-0.02,0-0.02,0,0
			c-0.01,0.02,0.02-0.07,0.08-0.25c0.06-0.19,0.14-0.4,0.23-0.63c0.09-0.24,0.16-0.4,0.21-0.48c0.05-0.09,0.08-0.15,0.11-0.18
			c0.02-0.03,0.05-0.08,0.08-0.13c0.03-0.05,0.05-0.09,0.06-0.1c0.01-0.02,0.01-0.02,0.01-0.01c-0.01,0.01-0.01,0.01,0,0
			c0.01-0.01,0.04-0.05,0.09-0.12c0.05-0.07,0.07-0.1,0.07-0.1c0,0.01,0,0,0,0c0.01-0.01,0-0.01-0.01,0.01c-0.01,0.01-0.01,0.01,0,0
			c0.01-0.01,0.06-0.06,0.15-0.14c0.03,0.02,0.06,0.05,0.07,0.09c0.02,0.04,0.02,0.08,0.03,0.1c0,0.02,0.32,0.29,0.95,0.82
			c0.63,0.53,0.95,0.79,0.95,0.79c0,0,0-0.01,0-0.03c-0.03,0-0.02,0.32,0.04,0.97c0.06,0.65,0.09,1.27,0.1,1.85
			c0.01,0.58,0.01,1.03,0.01,1.35c0,0.32,0,0.54,0.02,0.66c0.02,0.12,0.04,0.26,0.05,0.4c0.01,0.14,0.04,0.39,0.1,0.73
			c0.05,0.34,0.1,0.62,0.15,0.83c0.04,0.22,0.08,0.4,0.11,0.56c0.03,0.15,0.06,0.27,0.09,0.36c0.03,0.09,0.05,0.16,0.07,0.2
			c0.02,0.05,0.04,0.12,0.08,0.23c0.03,0.1,0.05,0.14,0.03,0.11c-0.01-0.03,0,0,0.04,0.1c0.04,0.1,0.06,0.17,0.09,0.22
			c0.02,0.05,0.04,0.1,0.06,0.14c0.02,0.04,0.04,0.07,0.04,0.07c0.01,0,0,0.01-0.01,0.01c-0.02,0,0.09,0.21,0.31,0.62
			c0.22,0.41,0.41,0.72,0.56,0.93c0.15,0.21,0.28,0.38,0.39,0.53c0.11,0.15,0.22,0.27,0.31,0.36c0.1,0.09,0.16,0.15,0.19,0.18
			c0.03,0.03,0.06,0.06,0.09,0.09c0.03,0.03,0.09,0.09,0.17,0.16c0.08,0.08,0.17,0.16,0.25,0.26c0.09,0.09,0.19,0.21,0.31,0.34
			c0.12,0.13,0.23,0.24,0.32,0.34c0.09,0.09,0.16,0.17,0.22,0.22c0.05,0.05,0.1,0.1,0.14,0.14c0.04,0.04,0.06,0.06,0.05,0.06
			c0,0,0.01,0.01,0.03,0.04c0.02,0.03,0.06,0.07,0.12,0.13c0.05,0.06,0.07,0.08,0.06,0.06C20.85,47,20.85,47,20.87,47.03
			c0.02,0.02,0.06,0.06,0.11,0.11c0.05,0.05,0.07,0.07,0.05,0.05c-0.01-0.01,0.01,0.01,0.06,0.06c0.05,0.05,0.12,0.12,0.19,0.2
			c0.07,0.08,0.13,0.14,0.17,0.17c0.04,0.03,0.06,0.05,0.06,0.06c0,0,0.02,0.03,0.06,0.07c0.04,0.04,0.09,0.1,0.16,0.17
			c0.07,0.07,0.13,0.13,0.18,0.18c0.05,0.05,0.09,0.1,0.14,0.14c0.05,0.05,0.07,0.07,0.06,0.07s0,0,0.02,0.02
			c0.01,0.02,0.06,0.06,0.12,0.13c0.07,0.07,0.19,0.18,0.37,0.33c0.18,0.15,0.33,0.27,0.46,0.38c0.13,0.11,0.23,0.19,0.3,0.25
			c0.07,0.06,0.13,0.1,0.18,0.14c0.04,0.03,0.07,0.05,0.07,0.05c0.07,0.06,0.13,0.1,0.17,0.14c0.04,0.04,0.05,0.05,0.05,0.05
			c0,0-0.01-0.01-0.01-0.02c-0.01-0.01,0.03,0.02,0.1,0.09c0.07,0.07,0.13,0.14,0.19,0.21c0.06,0.07,0.08,0.1,0.07,0.08
			c-0.01-0.01-0.01-0.02-0.02-0.02c0,0,0.02,0.03,0.06,0.09c0.04,0.06,0.08,0.11,0.11,0.15c0.03,0.04,0.06,0.08,0.1,0.13
			c0.04,0.05,0.06,0.07,0.05,0.06c-0.01-0.01-0.01-0.01-0.01,0c0,0,0.03,0.04,0.08,0.1c0.05,0.06,0.07,0.1,0.07,0.1
			c0,0,0.01,0.02,0.04,0.07c0.03,0.05,0.05,0.07,0.05,0.07c0.01,0,0.01,0.01,0.02,0.03c0,0.02,0.02,0.04,0.06,0.07
			c0.04,0.03,0.1,0.11,0.19,0.23c0.09,0.12,0.16,0.22,0.22,0.31c0.06,0.09,0.13,0.19,0.21,0.3c0.08,0.11,0.13,0.19,0.17,0.24
			c0.03,0.05,0.05,0.08,0.04,0.07c-0.01-0.01,0.01,0.01,0.04,0.05c0.03,0.04,0.1,0.15,0.19,0.35c0.1,0.2,0.18,0.38,0.25,0.54
			c0.07,0.16,0.14,0.33,0.21,0.49c0.07,0.16,0.12,0.29,0.14,0.38c0.03,0.09,0.05,0.17,0.06,0.22c0.02,0.06,0.02,0.09,0.02,0.09
			c0,0,0-0.01,0.01-0.02c0.01-0.02,0.05,0.12,0.12,0.42c0.07,0.29,0.15,0.62,0.23,0.99c0.08,0.37,0.15,0.63,0.2,0.8
			c0.05,0.17,0.1,0.29,0.13,0.38c0.03,0.09,0.07,0.2,0.12,0.33c0.05,0.13,0.08,0.23,0.1,0.3c0.02,0.07,0.04,0.13,0.05,0.2
			c0.02,0.06,0.02,0.09,0.02,0.09c0,0,0,0.03,0.02,0.1c0.01,0.07,0.02,0.09,0.01,0.08c0-0.02,0,0.01,0.01,0.07
			c0.01,0.06,0.04,0.18,0.09,0.34c0.05,0.16,0.09,0.29,0.12,0.38c0.03,0.09,0.05,0.17,0.07,0.23c0.02,0.06,0.03,0.12,0.05,0.18
			c0.02,0.06,0.04,0.12,0.05,0.18c0.01,0.05,0.03,0.12,0.06,0.2c0.03,0.08,0.04,0.11,0.04,0.1c0-0.01,0.02,0.06,0.07,0.22
			c0.05,0.16,0.09,0.29,0.12,0.4c0.03,0.1,0.07,0.19,0.1,0.26c0.03,0.07,0.06,0.12,0.08,0.16c0.02,0.03,0.03,0.05,0.03,0.05
			c0,0,0,0.01,0.01,0.01c0,0.01,0,0,0-0.01c-0.01-0.01,0,0,0.03,0.05c0.02,0.04,0.06,0.11,0.11,0.21c0.05,0.1,0.09,0.16,0.11,0.2
			c0.02,0.04,0.04,0.07,0.05,0.11c0.02,0.04,0.03,0.05,0.03,0.06c0,0,0,0.01,0,0c0,0,0.03,0.04,0.09,0.13
			c0.07,0.09,0.14,0.18,0.22,0.27c0.08,0.09,0.14,0.17,0.18,0.22c0.04,0.05,0.07,0.09,0.09,0.12c0.02,0.02,0.03,0.04,0.04,0.05
			c0.01,0.01,0.01,0.02,0,0.02c-0.01,0,0.15,0.16,0.49,0.47c0.34,0.31,0.6,0.56,0.79,0.74c0.19,0.18,0.34,0.32,0.44,0.42
			c0.1,0.1,0.18,0.17,0.23,0.21c0.05,0.04,0.08,0.06,0.08,0.06c0,0,0.02,0.02,0.06,0.05c0.04,0.03,0.08,0.07,0.12,0.1
			c0.04,0.03,0.04,0.04,0,0.01c-0.04-0.03,0.01,0.01,0.13,0.12c0.12,0.11,0.22,0.19,0.3,0.24c0.08,0.05,0.16,0.1,0.22,0.14
			c0.07,0.04,0.1,0.06,0.09,0.06c0,0,0,0,0.02,0c0.02,0,0,0-0.04,0c-0.04,0,0.09,0.08,0.4,0.26c0.3,0.18,0.55,0.29,0.73,0.35
			c0.18,0.05,0.34,0.11,0.47,0.18c0.13,0.07,0.25,0.11,0.34,0.14c0.09,0.03,0.17,0.05,0.22,0.07c0.05,0.02,0.1,0.04,0.16,0.07
			c0.05,0.02,0.1,0.05,0.14,0.07c0.04,0.02,0.07,0.04,0.09,0.05c0.02,0.01,0.02,0.01,0,0c-0.02-0.01,0.02,0.01,0.12,0.06
			c0.1,0.05,0.19,0.1,0.26,0.14c0.07,0.04,0.13,0.08,0.16,0.11c0.04,0.03,0.05,0.04,0.04,0.03c-0.01-0.01-0.01-0.01,0,0
			c0.01,0.01,0.01,0.01,0,0c-0.01-0.01,0.02,0.02,0.1,0.07c0.08,0.06,0.12,0.09,0.12,0.09c0,0,0.01,0.01,0.02,0.02
			c0.01,0.01,0.01,0.01,0,0c-0.01-0.01,0.01,0.01,0.06,0.04c0.05,0.04,0.12,0.1,0.2,0.18c0.09,0.08,0.16,0.15,0.21,0.21
			c0.05,0.06,0.08,0.09,0.09,0.1c0,0,0.01,0.01,0.02,0.02c0.01,0.01,0.03,0.02,0.06,0.05c0.03,0.03,0.08,0.09,0.16,0.19
			c0.07,0.1,0.13,0.17,0.19,0.23c0.05,0.06,0.08,0.08,0.08,0.08c0,0,0,0,0,0c0,0,0,0,0-0.01c0-0.01,0-0.01,0,0
			c0,0.01,0.03,0.05,0.08,0.12c0.05,0.07,0.07,0.1,0.06,0.09c-0.01-0.01-0.01,0,0.01,0.01c0.02,0.01,0.02,0.01,0,0
			c-0.02-0.02-0.02-0.02-0.01-0.01c0.01,0.01,0.05,0.05,0.12,0.12c0.07,0.07,0.1,0.1,0.1,0.1c-0.01,0-0.01,0,0,0.01
			c0,0.01,0.02,0.03,0.03,0.06c0.02,0.03,0.03,0.04,0.03,0.06c0,0.01,0,0.01-0.01-0.02c-0.01-0.02,0.01,0.03,0.06,0.16
			c0.02,0.01,0.03,0.06,0.06,0.14c0.02,0.08,0.03,0.12,0.03,0.12c0,0-0.01,0.03-0.02,0.08c-0.16,0.02-0.25,0.04-0.27,0.04
			c-0.01,0,0,0,0.04,0c-0.13,0-0.17,0-0.14,0c-0.2,0-0.26,0-0.19,0c-0.18,0-0.24,0-0.18,0c-0.2,0-0.27,0-0.2,0
			c-0.12-0.02-0.24-0.03-0.35-0.03c-0.11,0-0.23-0.01-0.35-0.01c-0.12,0-0.21,0-0.29,0c-0.07,0-0.14,0-0.2,0c-0.06,0-0.08,0-0.06,0
			c0.03,0-0.04,0-0.2,0c-0.16,0-0.37-0.01-0.63,0c-0.26,0-0.46,0.01-0.6,0.01c-0.14,0.01-0.26,0.02-0.36,0.02
			c-0.1,0.01-0.14,0.01-0.11,0.01c0.03,0-0.02,0-0.15-0.01c-0.12,0-0.25,0-0.39,0s-0.23,0.01-0.29,0.01
			c-0.06,0.01-0.12,0.02-0.18,0.03c-0.06,0.01-0.08,0.02-0.07,0.02c0.01,0,0,0-0.02,0c-0.02,0-0.02,0,0,0c0.02,0-0.03,0-0.16,0
			c-0.13,0-0.24,0.01-0.33,0.02c-0.09,0.01-0.15,0.03-0.2,0.04c-0.05,0.01-0.09,0.02-0.12,0.02c-0.03,0-0.05,0-0.05,0
			c-0.01,0-0.01,0-0.02,0.02c-0.01,0.02-0.16,0.03-0.46,0.04c-0.3,0.01-0.54,0-0.7-0.02c-0.17-0.02-0.29-0.04-0.36-0.06
			c-0.08-0.02-0.14-0.03-0.18-0.04c-0.04-0.01-0.04-0.01,0,0c0.05,0.01-0.02,0-0.2-0.04c-0.18-0.04-0.34-0.08-0.49-0.13
			c-0.15-0.04-0.26-0.08-0.33-0.12c-0.07-0.03-0.16-0.06-0.26-0.08c-0.1-0.02-0.19-0.04-0.27-0.05c-0.08-0.01-0.15-0.03-0.21-0.04
			c-0.06-0.01-0.09-0.02-0.1-0.02c-0.01,0-0.01,0,0,0c0.01,0,0,0-0.03,0c-0.03,0-0.08-0.01-0.15-0.01c-0.07,0-0.15-0.01-0.24-0.02
			c-0.1-0.01-0.14-0.01-0.14-0.01c0,0-0.01,0-0.03,0c-0.02,0-0.01,0,0.02,0c0.03,0-0.04-0.01-0.21-0.04
			c-0.17-0.03-0.29-0.04-0.37-0.05c-0.07,0-0.12-0.01-0.13-0.01c-0.01,0-0.07-0.01-0.17-0.02c-0.1-0.02-0.16-0.03-0.2-0.03
			c-0.03-0.01-0.04-0.01-0.04-0.01c0,0,0,0-0.01-0.01c-0.01,0-0.01,0,0,0.01c0.02,0.01-0.05-0.01-0.2-0.06
			c-0.15-0.05-0.26-0.09-0.34-0.12c-0.07-0.03-0.12-0.05-0.14-0.05c-0.02,0-0.03-0.01-0.04-0.02c-0.01-0.01-0.01,0,0.01,0.01
			c0.02,0.01-0.02-0.01-0.1-0.05c-0.08-0.04-0.14-0.07-0.18-0.1c-0.04-0.03-0.1-0.07-0.17-0.12c-0.07-0.05-0.11-0.08-0.11-0.08
			c0,0-0.03-0.03-0.09-0.08c-0.06-0.05-0.1-0.09-0.11-0.1c-0.01-0.01-0.02-0.02-0.02-0.03c-0.06-0.1-0.09-0.13-0.07-0.11
			c-0.04-0.1-0.06-0.12-0.04-0.06c0.01,0.06,0,0.02-0.03-0.12c-0.03-0.14-0.06-0.27-0.07-0.38c-0.02-0.11-0.03-0.18-0.03-0.2
			c0-0.03-0.01-0.05-0.01-0.05c0-0.01,0-0.04-0.01-0.09c0-0.05,0-0.07,0-0.06c0,0.01-0.01-0.1-0.05-0.33
			c-0.03-0.23-0.06-0.42-0.06-0.57c-0.01-0.15-0.01-0.24-0.02-0.27c0-0.03,0-0.06,0-0.08c0-0.02,0-0.05-0.01-0.09
			c0-0.04-0.01-0.09-0.01-0.14c-0.01-0.05-0.01-0.11-0.02-0.16c0-0.05-0.01-0.1-0.01-0.16c-0.01-0.06-0.01-0.06-0.01-0.02
			c0,0.04-0.01-0.06-0.03-0.3c-0.02-0.25-0.03-0.4-0.04-0.48c0-0.07-0.02-0.23-0.05-0.49c-0.03-0.26-0.06-0.48-0.07-0.66
			c-0.02-0.19-0.02-0.37-0.02-0.57c0-0.19,0-0.33,0-0.4c0-0.07,0-0.15,0-0.21c0-0.07,0-0.09,0-0.07c0,0.02,0-0.02,0-0.12
			c0-0.1,0-0.16,0-0.2c0-0.04,0-0.16,0-0.38c0-0.22,0-0.4,0-0.54c0-0.14,0-0.22,0-0.23c0-0.01,0-0.02,0-0.02c0,0,0-0.03,0-0.08
			c0-0.05,0-0.09,0-0.12c-0.01-0.06-0.05,0.1-0.11,0.49c-0.06,0.39-0.1,0.77-0.13,1.13c-0.03,0.36-0.04,0.61-0.04,0.75
			c0,0.14,0,0.24-0.01,0.32c-0.01,0.08-0.01,0.14-0.02,0.18c0,0.04,0,0.06,0,0.06c0,0,0,0,0-0.01c0-0.01,0,0.02-0.01,0.1
			c-0.01,0.07-0.02,0.18-0.03,0.32c-0.01,0.14-0.02,0.25-0.02,0.31c0,0.07,0,0.12,0,0.15c0,0.03,0,0.05,0,0.05c0,0,0,0,0-0.01
			c0-0.01,0,0.01,0,0.07c0,0.05-0.02,0.24-0.06,0.56c-0.03,0.32-0.06,0.58-0.08,0.77c-0.02,0.19-0.05,0.32-0.08,0.39
			c-0.03,0.07-0.05,0.12-0.05,0.15c0,0.03-0.01,0.06-0.02,0.09c-0.01,0.03-0.01,0.04-0.01,0.02c0-0.02,0,0.02-0.01,0.1
			c-0.01,0.09-0.03,0.16-0.07,0.21c-0.03,0.06-0.06,0.09-0.07,0.11C23.01,65.73,23,65.74,23,65.74c0,0.01-0.01,0.01-0.01,0.01
			c0,0-0.01,0.02-0.03,0.04c-0.02,0.03-0.06,0.07-0.1,0.13c-0.05,0.06-0.07,0.09-0.07,0.08c0,0-0.01,0.01-0.04,0.05
			c-0.02,0.04-0.03,0.05-0.03,0.04c0.01-0.01,0.01-0.02,0.01-0.02c0,0-0.01,0.01-0.03,0.04c-0.02,0.03-0.05,0.07-0.08,0.13
			c-0.03,0.06-0.05,0.08-0.05,0.08c0,0,0,0,0,0.01c0,0-0.02,0.03-0.05,0.07c-0.03,0.04-0.04,0.06-0.04,0.05c0-0.01,0-0.01,0-0.01
			c0,0-0.02,0.02-0.05,0.05c-0.03,0.03-0.07,0.06-0.1,0.09c-0.03,0.03-0.05,0.05-0.04,0.05c0,0,0.01,0,0.01-0.01
			c0,0-0.01,0.01-0.03,0.03c-0.02,0.02-0.05,0.06-0.09,0.11c-0.04,0.05-0.06,0.07-0.06,0.07c0,0,0,0,0,0.01c0,0-0.01,0.02-0.02,0.05
			c-0.01,0.03-0.04,0.09-0.09,0.17c-0.05,0.08-0.1,0.15-0.16,0.21c-0.05,0.06-0.08,0.09-0.08,0.09c0,0,0-0.01,0.01-0.01c0,0,0,0,0,0
			c0,0-0.03,0.04-0.09,0.11c-0.06,0.08-0.12,0.15-0.19,0.24c-0.07,0.08-0.11,0.12-0.12,0.11c-0.01-0.01-0.02-0.01-0.01-0.01
			c0,0-0.03,0.02-0.11,0.07c-0.08,0.04-0.1,0.06-0.07,0.04c0.03-0.01,0.02-0.01-0.02,0.01c-0.04,0.02-0.08,0.03-0.12,0.05
			c-0.04,0.02-0.07,0.03-0.09,0.03c-0.02,0.01-0.05,0.02-0.1,0.04c-0.05,0.02-0.07,0.04-0.07,0.04c0,0,0,0,0.01,0
			c0,0-0.02,0-0.06,0.01c-0.05,0.01-0.11,0.03-0.2,0.08c-0.09,0.04-0.16,0.08-0.2,0.11c-0.04,0.03-0.07,0.05-0.09,0.06
			c-0.02,0.01-0.03,0.02-0.02,0.02c0,0-0.01,0.01-0.05,0.02c-0.04,0.02-0.07,0.03-0.09,0.04c-0.02,0.01-0.03,0.01-0.03,0.01
			c-0.16,0.05-0.22,0.06-0.2,0.06c0.03-0.01,0.03-0.01,0,0c-0.02,0.01-0.05,0.01-0.07,0.02c-0.02,0.01-0.05,0.01-0.07,0.02
			c-0.02,0.01-0.02,0,0.01,0c0.03-0.01,0.02,0-0.02,0.01c-0.04,0.01-0.12,0.03-0.24,0.06c-0.13,0.03-0.18,0.04-0.16,0.03
			c0.02-0.01,0.03-0.01,0.03-0.01c0,0-0.05,0-0.13,0c-0.09,0-0.1,0-0.05,0c0.06,0-0.01,0-0.19,0.02c-0.18,0.01-0.35,0.02-0.49,0.02
			c-0.14,0-0.25,0-0.34,0c-0.08,0-0.15,0-0.21,0c-0.06,0-0.09,0-0.08,0c0.01,0-0.02,0-0.07,0c-0.06,0-0.17,0-0.34,0
			c-0.17,0-0.3,0-0.38,0c-0.09,0-0.16,0-0.21-0.01c-0.05-0.01-0.08-0.01-0.09-0.02c-0.01,0-0.04-0.01-0.09-0.03
			c-0.05-0.02-0.06-0.02-0.05-0.01c0.01,0.01-0.01-0.01-0.07-0.05c-0.06-0.04-0.1-0.08-0.14-0.11c-0.04-0.03-0.05-0.04-0.03-0.02
			c0.02,0.01,0,0-0.05-0.04c-0.06-0.04-0.1-0.07-0.12-0.08c-0.02-0.01-0.03-0.02-0.03-0.02c0,0,0,0,0,0c0,0-0.01-0.01-0.03-0.02
			c-0.02-0.01-0.05-0.04-0.1-0.09c-0.05-0.05-0.07-0.07-0.07-0.07s0,0,0-0.01c-0.01-0.01,0,0,0.01,0.01
			c0.01,0.02-0.01-0.02-0.08-0.1c-0.07-0.09-0.12-0.16-0.17-0.22c-0.05-0.06-0.08-0.11-0.11-0.15c-0.03-0.04-0.04-0.06-0.04-0.06
			c0,0,0,0,0.01,0.01c0.01,0.01-0.02-0.03-0.08-0.12c-0.06-0.09-0.11-0.17-0.17-0.24c-0.05-0.07-0.08-0.11-0.09-0.12
			c-0.01-0.01-0.01-0.01-0.01,0c0,0.01-0.03-0.04-0.1-0.14c-0.07-0.1-0.15-0.22-0.25-0.36c-0.1-0.14-0.18-0.25-0.25-0.33
			c-0.07-0.08-0.13-0.14-0.19-0.19c-0.05-0.05-0.1-0.1-0.14-0.14c-0.04-0.04-0.07-0.08-0.1-0.12c-0.02-0.04-0.07-0.13-0.13-0.27
			c-0.07-0.14-0.12-0.26-0.17-0.34c-0.04-0.08-0.09-0.15-0.12-0.23c-0.04-0.07-0.05-0.09-0.04-0.05c0.01,0.04-0.01,0-0.08-0.12
			c-0.06-0.11-0.15-0.42-0.27-0.91c-0.12-0.49-0.18-0.75-0.19-0.77c0.02-0.05,0.04-0.09,0.05-0.11c0.01-0.03,0.01-0.05,0.01-0.08
			c0-0.03,0-0.07-0.01-0.12c0,0,0-0.01,0-0.01L13.3,62.8l-0.01-0.04l0-0.01l0-0.01c0,0,0,0,0,0v0l-0.01-0.08l0-0.02l-0.01-0.05
			c0,0,0,0,0,0v0l-0.02-0.08l-0.01-0.04c0-0.01-0.01-0.02-0.02-0.05c-0.01-0.02-0.03-0.06-0.05-0.11c0,0,0,0,0,0l0,0l-0.04-0.07
			c0,0,0-0.01-0.01-0.02c-0.01-0.06-0.02-0.11-0.03-0.17v0c0,0,0,0,0,0c-0.01-0.05-0.02-0.09-0.02-0.11c0-0.02-0.01-0.05-0.02-0.07
			c-0.02-0.08-0.03-0.14-0.04-0.17c-0.01-0.03-0.01-0.06-0.02-0.09c-0.01-0.03-0.01-0.05-0.02-0.08c0-0.02-0.01-0.06-0.02-0.1
			c-0.01-0.05-0.02-0.08-0.02-0.1c0-0.02-0.01-0.04-0.01-0.06c0-0.02-0.01-0.03-0.01-0.03c-0.01-0.07-0.02-0.13-0.03-0.16
			c0-0.03-0.01-0.06-0.01-0.08c0-0.03-0.01-0.05-0.01-0.07c0-0.02-0.01-0.04-0.01-0.07c0-0.02-0.01-0.04-0.01-0.06
			c-0.01-0.05-0.01-0.08-0.02-0.1c0-0.02-0.01-0.04-0.01-0.06c0-0.02-0.01-0.04-0.01-0.07c-0.01-0.08-0.02-0.14-0.03-0.17
			c-0.01-0.03-0.01-0.06-0.02-0.09c0-0.03-0.01-0.05-0.01-0.08c0-0.02-0.01-0.05-0.01-0.07c0-0.02-0.01-0.04-0.01-0.04
			c-0.01-0.06-0.02-0.1-0.02-0.12c0-0.02-0.01-0.05-0.01-0.07c0-0.02-0.01-0.04-0.01-0.04c-0.01-0.09-0.02-0.15-0.03-0.18
			c-0.01-0.03-0.01-0.06-0.01-0.09c0-0.03-0.01-0.05-0.01-0.08c0-0.02-0.01-0.05-0.01-0.07c0-0.02-0.01-0.04-0.01-0.06
			c-0.01-0.05-0.01-0.09-0.02-0.12c0-0.02-0.01-0.05-0.01-0.07c0-0.02-0.01-0.04-0.01-0.05c-0.02-0.1-0.03-0.17-0.03-0.2
			c-0.01-0.04-0.01-0.07-0.02-0.1c0-0.03-0.01-0.06-0.01-0.08c0-0.02-0.01-0.05-0.01-0.07c0-0.02-0.01-0.04-0.01-0.07
			c0-0.02-0.01-0.04-0.01-0.05c-0.01-0.06-0.02-0.1-0.02-0.12c0-0.03-0.01-0.05-0.01-0.07c0-0.02-0.01-0.04-0.01-0.06
			c-0.02-0.1-0.03-0.16-0.03-0.2c-0.01-0.04-0.01-0.07-0.02-0.1c0-0.03-0.01-0.06-0.01-0.08c0-0.02-0.01-0.05-0.01-0.07
			c0-0.02-0.01-0.04-0.01-0.06c0-0.02-0.01-0.04-0.01-0.06c0-0.02-0.01-0.03-0.01-0.04c-0.01-0.05-0.01-0.09-0.02-0.11
			c0-0.02-0.01-0.05-0.01-0.07c0-0.02-0.01-0.04-0.01-0.05c-0.01-0.08-0.01-0.13-0.02-0.17c0-0.03-0.01-0.06-0.01-0.09
			c0-0.03-0.01-0.05-0.01-0.07c0-0.02,0-0.05-0.01-0.07c0-0.02,0-0.04-0.01-0.07c-0.01-0.06-0.01-0.1-0.01-0.13
			c0-0.03-0.01-0.05-0.01-0.08c0-0.02,0-0.04-0.01-0.04c-0.01-0.08-0.02-0.13-0.02-0.16s-0.01-0.06-0.01-0.08
			c0-0.03-0.01-0.05-0.01-0.07c0-0.02-0.01-0.04-0.01-0.07c0-0.02-0.01-0.04-0.01-0.06c-0.01-0.05-0.01-0.09-0.02-0.12
			c0-0.02-0.01-0.05-0.01-0.09c-0.01-0.07-0.01-0.12-0.02-0.15c0-0.03-0.01-0.05-0.01-0.08c0-0.02-0.01-0.05-0.01-0.07
			c0-0.02-0.01-0.04-0.01-0.06c0-0.02-0.01-0.04-0.01-0.05c0-0.05-0.01-0.08-0.01-0.1c0-0.02,0-0.05-0.01-0.08l0-0.02l0-0.01
			c0-0.02,0-0.05-0.01-0.11c0-0.01,0-0.05,0-0.11c0-0.02,0-0.05,0-0.11c0-0.02,0-0.06,0-0.12c0-0.03,0-0.07,0-0.13
			c0-0.01,0-0.05,0-0.11c0-0.03,0-0.07,0-0.12c0-0.02,0-0.06,0-0.11c0-0.02,0-0.06,0-0.12c0-0.03,0-0.08-0.01-0.14
			c0-0.01,0-0.05,0-0.11c0-0.05,0-0.1-0.01-0.16c0-0.02,0-0.06,0-0.12c0-0.03,0-0.08,0-0.13c0-0.01,0-0.04,0-0.1
			c0-0.01,0-0.04,0-0.1c0-0.01,0-0.05,0.01-0.11c0-0.02,0-0.05,0.01-0.11c0-0.03,0-0.07,0-0.14c0-0.04,0-0.08,0-0.14
			c0-0.04,0-0.09,0-0.15c0-0.03,0-0.07-0.01-0.13c0-0.03,0-0.08-0.01-0.14c0-0.03,0-0.07-0.01-0.12c0,0,0-0.02,0-0.04
			c0-0.02-0.01-0.06-0.01-0.11c0-0.04-0.01-0.08-0.01-0.13c-0.01-0.05-0.01-0.1-0.02-0.15c0-0.02,0-0.04-0.01-0.07
			c0-0.03-0.01-0.07-0.02-0.13l-0.01-0.05c0-0.03-0.01-0.08-0.02-0.13c0-0.01,0-0.04-0.01-0.09c0-0.01,0-0.04-0.01-0.08
			c0-0.02,0-0.05-0.01-0.09c0,0,0-0.03-0.01-0.08c0-0.03-0.01-0.07-0.01-0.11c0-0.03-0.01-0.06-0.01-0.1c0-0.01,0-0.03-0.01-0.07
			c0-0.02,0-0.05,0-0.07c0-0.02,0-0.05,0-0.08c0-0.06,0-0.1,0-0.13c0-0.03,0-0.05,0-0.08c0-0.02,0-0.04,0-0.05c0-0.06,0-0.1,0-0.12
			c0-0.03,0-0.05,0-0.07c0-0.02,0-0.04,0-0.04c0-0.06,0-0.1-0.01-0.12c0-0.02,0-0.05,0-0.07c0-0.02,0-0.05,0-0.09
			c0-0.06-0.01-0.11-0.01-0.14c0-0.03,0-0.06-0.01-0.1c0-0.06,0-0.1-0.01-0.12c0-0.02,0-0.05,0-0.07c0-0.02,0-0.04,0-0.05l0-0.02
			c0-0.03,0-0.07,0-0.1c0-0.02,0-0.04,0-0.07c0-0.02,0-0.06,0-0.12c0-0.04,0-0.07,0-0.09c0-0.02,0-0.07,0-0.12c0,0,0-0.01,0-0.03
			c0-0.02,0-0.05,0-0.07c0-0.02,0-0.06,0-0.11c0-0.03,0-0.05,0-0.08c0-0.02,0-0.06,0-0.12c0-0.02,0-0.05,0-0.08
			c0-0.03,0-0.07,0-0.13c0,0,0,0,0,0v0c0-0.05,0-0.09,0-0.11c0-0.03,0-0.07,0-0.13c0-0.04,0-0.07,0-0.1c0-0.02,0-0.06,0-0.12
			c0-0.02,0-0.04,0-0.07c0-0.03,0-0.07,0-0.13c0-0.04,0-0.07,0-0.09c0-0.02,0-0.06,0-0.11c0-0.03,0-0.06,0-0.08
			c0-0.02,0-0.06,0-0.11c0-0.03,0-0.06,0-0.09c0-0.03,0-0.07,0-0.12c0-0.03,0-0.07,0-0.09c0-0.03,0-0.07,0.01-0.13
			c0-0.02,0-0.04,0.01-0.07c0-0.03,0-0.07,0.01-0.12c0-0.01,0-0.03,0-0.06c0-0.03,0-0.07,0.01-0.12c0-0.03,0-0.06,0-0.08
			c0-0.03,0-0.08,0-0.14c0-0.02,0-0.04,0-0.07c0-0.03,0-0.07,0-0.14c0-0.03,0-0.06,0-0.09c0-0.03,0-0.07,0-0.12c0,0,0-0.02,0-0.05
			c0-0.03,0-0.07,0-0.13c0-0.01,0-0.02,0-0.05c0-0.03,0-0.05,0-0.08c0-0.03,0-0.08,0-0.14c0-0.02,0-0.05,0-0.1c0-0.02,0-0.05,0-0.07
			c0-0.02,0-0.06-0.01-0.11c0-0.02,0-0.04,0-0.06c0-0.03,0-0.07,0-0.12l0-0.05c0.03-0.03,0.06-0.06,0.07-0.08
			c0.01-0.02,0.03-0.04,0.04-0.07c0.01-0.02,0.02-0.04,0.02-0.06C11.99,44.93,12,44.9,12,44.88l0.01-0.06c0-0.01,0.01-0.04,0.02-0.1
			c0-0.02,0.01-0.06,0.02-0.11c0.01-0.05,0.01-0.1,0.02-0.16c0-0.01,0-0.03,0-0.06c0-0.03,0-0.08,0.01-0.14c0-0.01,0-0.03,0-0.06
			c0-0.03,0-0.07,0.01-0.14c0-0.02,0-0.04,0-0.07c0-0.03,0-0.06,0-0.09c0-0.03,0-0.09,0.01-0.16c0-0.01,0-0.05,0-0.1
			c0-0.03,0-0.06,0-0.09c0-0.03,0-0.08,0-0.14c0-0.01,0-0.04,0-0.1c0,0,0-0.02,0-0.05c0-0.03,0-0.06,0-0.08c0-0.03,0-0.06,0-0.09
			c0-0.03,0-0.09,0-0.18c0-0.01,0-0.05,0-0.11c0-0.03,0-0.06,0-0.09c0-0.03,0-0.06,0-0.09c0-0.03,0-0.06,0-0.07l0-0.04
			c0-0.06,0.01-0.11,0.01-0.14c0-0.03,0-0.05,0.01-0.08c0-0.03,0-0.05,0-0.07c0-0.06,0.01-0.11,0.01-0.14c0-0.03,0-0.06,0.01-0.08
			c0-0.03,0-0.04,0-0.05c0-0.07,0.01-0.11,0.01-0.14c0-0.03,0-0.06,0-0.08c0-0.03,0-0.06,0-0.09c0-0.09,0-0.14,0-0.18
			c0-0.03,0-0.06,0-0.09c0-0.03,0-0.05,0-0.08c0-0.02,0-0.05,0-0.07c0-0.02,0-0.04,0-0.05c0-0.05,0-0.1,0-0.13
			c0-0.06,0-0.11-0.01-0.13c0-0.03,0-0.05,0-0.08c0-0.02,0-0.05,0-0.09l0-0.01c0-0.04,0-0.07,0-0.11c0,0,0-0.01,0-0.03
			c0-0.02,0-0.05,0-0.1c0-0.01,0-0.03,0-0.05c0-0.02,0-0.05,0-0.09c0-0.04,0.01-0.09,0.01-0.13c0-0.03,0.01-0.07,0.01-0.11
			c0-0.03,0.01-0.07,0.01-0.12c0-0.04,0.01-0.09,0.01-0.14c0-0.05,0-0.1,0.01-0.15c0-0.04,0-0.09,0.01-0.15c0-0.04,0-0.09,0-0.13
			l0.01-0.04c0.01-0.05,0.02-0.08,0.02-0.1c0-0.02,0.01-0.04,0.01-0.06c0.01-0.05,0.02-0.08,0.02-0.11c0-0.02,0.01-0.04,0.01-0.05
			c0.01-0.05,0.02-0.09,0.02-0.12c0-0.02,0.01-0.05,0.01-0.07c0.01-0.05,0.02-0.09,0.02-0.12c0-0.03,0.01-0.05,0.01-0.06
			c0.01-0.06,0.02-0.1,0.02-0.12c0-0.03,0.01-0.04,0.01-0.05c0.01-0.06,0.02-0.1,0.02-0.12c0-0.03,0.01-0.04,0.01-0.05
			c0.01-0.05,0.02-0.1,0.03-0.15c0.01-0.06,0.02-0.1,0.02-0.12c0-0.03,0.01-0.04,0.01-0.05c0.01-0.06,0.01-0.1,0.02-0.12
			c0-0.03,0.01-0.05,0.01-0.06c0.01-0.05,0.01-0.09,0.01-0.12s0-0.04,0-0.06c0-0.05,0.01-0.09,0.01-0.11c0-0.02,0-0.06,0.01-0.09
			c0-0.05,0-0.08,0-0.11c0-0.02,0-0.04,0-0.06c0-0.05,0-0.08,0-0.11c0-0.02,0-0.04,0-0.04c0-0.04,0-0.09,0.01-0.13
			c0-0.02,0.01-0.05,0.01-0.1c0-0.02,0.01-0.04,0.01-0.07c0-0.02,0.01-0.06,0.01-0.11c0,0,0-0.02,0.01-0.04
			c0-0.03,0.01-0.07,0.02-0.13c0-0.01,0.01-0.03,0.01-0.07l0-0.01c0.01-0.04,0.02-0.08,0.03-0.11c0.01-0.04,0.02-0.08,0.03-0.1
			c0.01-0.02,0.01-0.03,0.01-0.03c0.02-0.05,0.03-0.1,0.04-0.13c0.02-0.05,0.03-0.1,0.05-0.15c0.02-0.06,0.03-0.1,0.04-0.13
			c0.01-0.03,0.01-0.04,0.01-0.05c0.01-0.06,0.02-0.1,0.03-0.12c0.01-0.03,0.01-0.04,0.01-0.04c0.01-0.05,0.02-0.09,0.03-0.12
			c0.01-0.02,0.01-0.04,0.01-0.04c0.01-0.05,0.03-0.1,0.04-0.14c0.02-0.05,0.03-0.09,0.04-0.12c0.02-0.05,0.03-0.08,0.03-0.09"/>
	</g>
	<g id="New_Layer_10">
		<path id="STROKE_58f7116f-67f3-42ea-826f-1d9346322d96" class="st2" d="M13.25,34.35l0,0.43c0,0.17,0,0.25,0,0.24
			c0-0.01,0,0.05-0.01,0.18c-0.01,0.13-0.04,0.28-0.09,0.44c-0.05,0.16-0.08,0.26-0.09,0.32c-0.01,0.05-0.05,0.25-0.12,0.59
			c-0.07,0.34-0.17,1.08-0.3,2.23c-0.14,1.15-0.24,2.11-0.32,2.89c-0.08,0.78-0.13,1.31-0.16,1.61c-0.03,0.29-0.04,0.62-0.05,0.97
			c-0.01,0.35-0.01,1.05-0.01,2.07c0,1.03-0.01,1.86-0.02,2.5c-0.01,0.64-0.02,1.09-0.02,1.35c0,0.26,0,0.46,0,0.59
			c0,0.13,0.01,0.27,0.02,0.42c0.01,0.15,0.01,0.3,0.01,0.44c0,0.14,0,0.4,0.01,0.76c0.01,0.36,0.03,0.83,0.08,1.4
			c0.05,0.57,0.08,0.98,0.11,1.24c0.03,0.26,0.07,0.57,0.12,0.93c0.06,0.36,0.1,0.79,0.15,1.3c0.04,0.51,0.08,0.89,0.12,1.17
			c0.04,0.27,0.08,0.57,0.14,0.9c0.05,0.33,0.09,0.61,0.1,0.82c0.02,0.22,0.03,0.37,0.04,0.47c0.01,0.09,0.02,0.2,0.04,0.33
			c0.02,0.13,0.04,0.28,0.06,0.45c0.03,0.17,0.05,0.32,0.08,0.44c0.02,0.12,0.05,0.23,0.07,0.33c0.02,0.09,0.05,0.18,0.08,0.27
			c0.03,0.09,0.05,0.18,0.08,0.27c0.03,0.09,0.05,0.18,0.07,0.27c0.02,0.09,0.05,0.18,0.07,0.28c0.02,0.09,0.04,0.17,0.06,0.23
			s0.05,0.16,0.09,0.3c0.04,0.14,0.06,0.21,0.06,0.22c0,0,0.04,0.13,0.13,0.39c0.09,0.26,0.19,0.51,0.3,0.75
			c0.11,0.24,0.19,0.41,0.24,0.51c0.05,0.1,0.08,0.17,0.1,0.21c0.02,0.04,0.06,0.13,0.13,0.27c0.07,0.14,0.11,0.21,0.11,0.21
			c0,0,0.03,0.05,0.08,0.15c0.05,0.1,0.1,0.18,0.14,0.25c0.04,0.07,0.09,0.14,0.13,0.21c0.04,0.07,0.09,0.14,0.15,0.22
			c0.06,0.08,0.1,0.13,0.11,0.15c0.01,0.02,0.11,0.12,0.28,0.3c0.18,0.18,0.37,0.34,0.56,0.47c0.19,0.13,0.32,0.21,0.38,0.24
			c0.06,0.03,0.12,0.06,0.2,0.08c0.07,0.02,0.16,0.05,0.25,0.07c0.09,0.02,0.14,0.03,0.15,0.03c0,0,0.07,0.01,0.19,0.05
			c0.12,0.03,0.27,0.07,0.43,0.12c0.16,0.05,0.24,0.08,0.25,0.08c0,0,0.03,0,0.08,0.01c0.05,0.01,0.09,0.02,0.12,0.02
			c0.03,0.01,0.2,0.04,0.5,0.1c0.3,0.06,0.54,0.08,0.7,0.08c0.16-0.01,0.3-0.02,0.4-0.06c0.11-0.03,0.16-0.05,0.17-0.05
			c0,0,0.06-0.02,0.18-0.07c0.12-0.05,0.26-0.11,0.42-0.19c0.17-0.08,0.28-0.14,0.33-0.17c0.05-0.03,0.08-0.04,0.09-0.04
			c0,0,0.07-0.03,0.2-0.1c0.13-0.07,0.24-0.14,0.34-0.22c0.1-0.08,0.17-0.15,0.24-0.21c0.06-0.06,0.1-0.11,0.13-0.14
			c0.03-0.03,0.11-0.12,0.24-0.26c0.13-0.14,0.2-0.21,0.2-0.21c0.12-0.15,0.19-0.24,0.21-0.28c0.02-0.04,0.06-0.09,0.1-0.15
			c0.04-0.07,0.11-0.2,0.21-0.4c0.1-0.21,0.18-0.39,0.23-0.56c0.05-0.17,0.09-0.29,0.11-0.37c0.02-0.07,0.05-0.15,0.08-0.24
			c0.03-0.09,0.06-0.17,0.08-0.24c0.02-0.07,0.05-0.18,0.08-0.32c0.03-0.14,0.08-0.35,0.13-0.62c0.05-0.27,0.1-0.48,0.13-0.65
			c0.03-0.16,0.05-0.27,0.06-0.31c0.01-0.04,0.02-0.13,0.03-0.25c0.01-0.12,0.04-0.47,0.09-1.06c0.05-0.59,0.09-1.07,0.13-1.44
			c0.04-0.37,0.06-0.6,0.07-0.69c0.01-0.09,0.02-0.16,0.03-0.21c0,0.34,0,0.55-0.01,0.61c-0.01,0.06-0.01,0.12-0.02,0.17
			c0,0.05-0.01,0.13-0.02,0.23c-0.01,0.1-0.03,0.52-0.09,1.27c-0.05,0.75-0.08,1.45-0.09,2.09c-0.01,0.65-0.02,1.11-0.03,1.4
			c-0.01,0.29,0,0.5,0.02,0.65c0.02,0.14,0.05,0.29,0.1,0.46c0.05,0.16,0.1,0.29,0.14,0.39c0.04,0.1,0.08,0.18,0.11,0.24
			c0.03,0.05,0.07,0.13,0.13,0.21c0.06,0.09,0.1,0.15,0.13,0.19c0.03,0.04,0.06,0.08,0.09,0.11c0.03,0.03,0.07,0.08,0.13,0.13
			c0.06,0.06,0.11,0.1,0.14,0.13c0.04,0.03,0.07,0.05,0.1,0.07c0.03,0.02,0.09,0.04,0.19,0.07c0.1,0.03,0.23,0.07,0.4,0.11
			c0.17,0.04,0.26,0.06,0.26,0.06c0,0,0.07,0.02,0.21,0.05c0.14,0.04,0.24,0.06,0.3,0.08c0.06,0.02,0.14,0.04,0.23,0.08
			c0.09,0.03,0.17,0.06,0.23,0.07c0.06,0.02,0.11,0.03,0.15,0.03c0.04,0,0.1,0.01,0.19,0.03c0.08,0.01,0.13,0.02,0.13,0.02
			c0,0,0.03,0,0.09,0.01c0.06,0.01,0.14,0.03,0.25,0.05c0.11,0.02,0.16,0.03,0.16,0.04c0,0,0.04,0.01,0.1,0.02
			c0.06,0.01,0.16,0.02,0.29,0.04c0.13,0.02,0.24,0.04,0.32,0.06c0.08,0.02,0.16,0.04,0.23,0.06c0.07,0.02,0.14,0.04,0.2,0.05
			c0.07,0.01,0.14,0.02,0.22,0.02c0.08,0,0.16,0.01,0.24,0.02c0.08,0.01,0.15,0.02,0.21,0.03c0.06,0.01,0.18,0.02,0.36,0.02
			c0.18,0,0.36,0.01,0.55,0.01c0.19,0,0.32,0,0.39,0c0.07,0,0.15,0,0.22,0.01c0.08,0,0.39,0,0.93,0c0.54,0,0.94,0,1.18,0
			c0.24,0,0.4,0,0.48,0c0.07,0,0.11,0,0.12,0.01c0,0,0.29,0,0.86,0c0.57,0,0.91,0,1.03,0c0.11,0,0.28,0,0.49,0c0.21,0,0.41,0,0.58,0
			c0.18,0,0.3,0.01,0.37,0.01c0.07,0.01,0.13,0.01,0.17,0.01c0.04,0,0.09,0.01,0.14,0.01c0.05,0,0.08,0,0.11,0
			c0.02,0,0.16,0.02,0.39,0.05C38.18,68.97,38.63,69,39.3,69c0.67,0,1.17-0.01,1.5-0.05c0.33-0.04,0.6-0.05,0.82-0.05
			c0.21,0,0.43-0.01,0.65-0.02c0.22-0.02,0.42-0.04,0.58-0.06c0.17-0.02,0.29-0.03,0.37-0.04c0.08,0,0.14-0.01,0.18-0.01
			c0.04,0,0.06,0,0.07,0c0,0,0.26-0.01,0.76-0.04c0.5-0.03,0.89-0.05,1.16-0.07c0.27-0.02,0.48-0.04,0.63-0.06
			c0.14-0.02,0.28-0.03,0.41-0.05c0.13-0.01,0.25-0.03,0.36-0.04c0.11-0.01,0.22-0.03,0.32-0.05c0.1-0.02,0.19-0.03,0.26-0.05
			c0.07-0.02,0.13-0.03,0.19-0.05c0.06-0.02,0.11-0.04,0.17-0.06c0.06-0.02,0.16-0.06,0.32-0.1c0.16-0.05,0.26-0.08,0.3-0.08
			c0.04-0.01,0.13-0.03,0.25-0.05c0.12-0.03,0.21-0.05,0.27-0.07c0.06-0.02,0.09-0.03,0.1-0.03c0-0.01,0.12-0.04,0.35-0.1
			c0.23-0.06,0.48-0.12,0.75-0.17c0.27-0.05,0.44-0.08,0.53-0.11"/>
		<path id="STROKE_9c019b73-25e8-4113-870b-a2749dc6fc50" class="st2" d="M52.42,58.86l0.03-0.04c0.06-0.03,0.19-0.04,0.4-0.05
			c0.21-0.01,0.41-0.02,0.59-0.03c0.18-0.02,0.32-0.04,0.4-0.06c0.08-0.02,0.16-0.04,0.22-0.06c0.06-0.02,0.25-0.05,0.56-0.11
			c0.31-0.06,0.58-0.12,0.79-0.19c0.21-0.07,0.36-0.11,0.45-0.14c0.09-0.03,0.14-0.05,0.16-0.05s0.05-0.01,0.11-0.02
			c0.06-0.01,0.15-0.04,0.28-0.07c0.13-0.03,0.19-0.05,0.18-0.04c-0.01,0,0.05,0,0.16-0.01c0.12-0.01,0.27-0.09,0.47-0.23
			c0.2-0.14,0.36-0.28,0.49-0.41c0.13-0.13,0.21-0.21,0.25-0.24c0.04-0.03,0.15-0.08,0.33-0.15c0.18-0.07,0.42-0.21,0.73-0.42
			c0.31-0.21,0.61-0.41,0.89-0.61c0.28-0.2,0.45-0.31,0.51-0.35c0.06-0.04,0.21-0.16,0.46-0.35c0.25-0.19,0.44-0.35,0.58-0.47
			c0.14-0.12,0.24-0.21,0.31-0.28c0.07-0.07,0.12-0.12,0.15-0.16c0.03-0.04,0.07-0.08,0.11-0.13c0.04-0.05,0.11-0.13,0.21-0.25
			c0.1-0.12,0.22-0.26,0.37-0.43c0.15-0.17,0.23-0.26,0.25-0.28c0.01-0.01,0.16-0.18,0.43-0.51c0.27-0.33,0.5-0.64,0.7-0.92
			c0.2-0.29,0.35-0.51,0.45-0.66c0.1-0.15,0.22-0.3,0.35-0.45c0.13-0.14,0.28-0.34,0.44-0.59c0.16-0.25,0.31-0.59,0.44-1.01
			c0.13-0.42,0.22-0.75,0.26-0.99c0.04-0.23,0.1-0.51,0.18-0.82c0.08-0.31,0.14-0.61,0.2-0.91c0.06-0.3,0.09-0.53,0.09-0.71
			c0-0.18,0.01-0.3,0.02-0.36c0.01-0.06,0.02-0.13,0.03-0.19c0.01-0.06,0.03-0.13,0.05-0.21c0.02-0.07,0.04-0.18,0.06-0.32
			c0.02-0.14,0.04-0.26,0.05-0.35c0.01-0.09,0.02-0.18,0.02-0.27c0-0.09,0.01-0.13,0-0.14c0,0,0.01-0.11,0.03-0.31
			c0.02-0.2,0.04-0.47,0.07-0.79c0.03-0.32,0.05-0.59,0.06-0.8c0.01-0.21,0.02-0.41,0.02-0.58c0-0.17,0-0.3,0-0.38
			c0-0.08,0.01-0.2,0.01-0.35c0.01-0.15,0.02-0.38,0.02-0.68c0.01-0.3,0-0.59-0.01-0.87c-0.01-0.29,0-0.59,0.02-0.9
			c0.02-0.32,0.05-0.55,0.09-0.7c0.04-0.15,0.07-0.29,0.1-0.42c0.03-0.13,0.04-0.21,0.05-0.23c0.01-0.03,0.02-0.08,0.05-0.16
			c0.03-0.08,0.06-0.16,0.11-0.25c0.04-0.09,0.06-0.13,0.07-0.13c0,0,0.06-0.08,0.18-0.24c0.12-0.16,0.21-0.27,0.26-0.34
			c0.06-0.07,0.11-0.12,0.14-0.16c0.04-0.04,0.06-0.06,0.06-0.07c0,0,0.03-0.03,0.09-0.07c0.06-0.05,0.11-0.08,0.15-0.11
			c0.04-0.03,0.09-0.06,0.15-0.09c0.06-0.03,0.12-0.07,0.19-0.1c0.07-0.04,0.14-0.07,0.19-0.1c0.06-0.03,0.16-0.08,0.31-0.14
			c0.15-0.06,0.27-0.1,0.37-0.13c0.1-0.03,0.18-0.06,0.24-0.08c0.06-0.02,0.09-0.03,0.09-0.04c0,0,0.04-0.01,0.1-0.04
			c0.06-0.02,0.14-0.04,0.22-0.05c0.08-0.01,0.16-0.03,0.25-0.04c0.09-0.02,0.16-0.03,0.22-0.05c0.06-0.02,0.11-0.03,0.15-0.04
			c0.04-0.01,0.12-0.02,0.22-0.03c0.11-0.01,0.19-0.01,0.26,0.01c0.06,0.02,0.12,0.03,0.16,0.05c0.05,0.01,0.08,0.02,0.11,0.03
			c0.03,0.01,0.08,0.02,0.15,0.03c0.07,0.01,0.15,0.03,0.23,0.06c0.08,0.03,0.18,0.07,0.3,0.13c0.11,0.06,0.18,0.1,0.2,0.11
			c0.02,0.01,0.03,0.02,0.03,0.02c0,0,0.06,0.04,0.19,0.11c0.12,0.07,0.26,0.15,0.41,0.24c0.15,0.09,0.27,0.17,0.36,0.22
			c0.09,0.05,0.18,0.11,0.27,0.17c0.1,0.06,0.15,0.09,0.15,0.09c0.01,0,0.1,0.08,0.28,0.24c0.18,0.16,0.35,0.36,0.51,0.62
			c0.16,0.25,0.28,0.47,0.34,0.66c0.07,0.19,0.11,0.33,0.14,0.44c0.02,0.1,0.04,0.18,0.05,0.22c0.01,0.04,0.03,0.11,0.05,0.21
			c0.02,0.09,0.04,0.17,0.05,0.21c0.01,0.05,0.02,0.09,0.03,0.12c0.01,0.03,0.03,0.13,0.07,0.3c0.04,0.17,0.08,0.41,0.11,0.74
			c0.04,0.33,0.07,0.64,0.09,0.92s0.04,0.58,0.03,0.88c0,0.3,0,0.56,0,0.76c0,0.21,0,0.4,0,0.59c0,0.18-0.01,0.33-0.01,0.42
			c-0.01,0.1-0.01,0.18-0.02,0.24c-0.01,0.06-0.02,0.11-0.02,0.15c-0.01,0.04-0.02,0.12-0.03,0.24c-0.02,0.12-0.05,0.43-0.11,0.94
			c-0.06,0.51-0.12,0.99-0.19,1.45c-0.07,0.46-0.13,0.8-0.17,1.01c-0.04,0.21-0.07,0.38-0.1,0.49c-0.03,0.12-0.06,0.23-0.09,0.34
			c-0.03,0.11-0.05,0.16-0.05,0.16c0,0-0.02,0.06-0.05,0.18c-0.04,0.12-0.09,0.32-0.16,0.59c-0.07,0.27-0.18,0.57-0.33,0.88
			c-0.15,0.31-0.27,0.54-0.37,0.69c-0.1,0.15-0.19,0.28-0.27,0.4c-0.08,0.12-0.14,0.21-0.17,0.26c-0.03,0.06-0.07,0.12-0.11,0.2
			c-0.04,0.07-0.07,0.13-0.09,0.17c-0.02,0.04-0.03,0.05-0.03,0.06c0,0-0.08,0.14-0.24,0.41c-0.16,0.27-0.33,0.54-0.5,0.8
			c-0.18,0.26-0.3,0.45-0.38,0.57c-0.08,0.12-0.14,0.22-0.19,0.29c-0.05,0.07-0.07,0.12-0.08,0.13c-0.01,0.01-0.03,0.05-0.06,0.1
			c-0.03,0.06-0.08,0.13-0.13,0.22c-0.06,0.09-0.11,0.18-0.17,0.27c-0.06,0.09-0.09,0.13-0.09,0.13c0,0-0.04,0.05-0.1,0.15
			c-0.07,0.1-0.16,0.25-0.29,0.44c-0.13,0.19-0.22,0.33-0.27,0.4c-0.05,0.08-0.12,0.16-0.2,0.26c-0.08,0.1-0.16,0.19-0.24,0.29
			c-0.08,0.1-0.15,0.18-0.2,0.25s-0.12,0.14-0.18,0.21c-0.06,0.07-0.12,0.14-0.18,0.21c-0.06,0.07-0.12,0.14-0.18,0.2
			c-0.06,0.06-0.11,0.11-0.14,0.14c-0.03,0.03-0.1,0.08-0.18,0.16c-0.09,0.07-0.15,0.12-0.18,0.15c-0.03,0.03-0.11,0.08-0.23,0.17
			c-0.12,0.09-0.28,0.22-0.5,0.41c-0.22,0.18-0.4,0.34-0.55,0.46c-0.15,0.12-0.28,0.22-0.37,0.31c-0.09,0.08-0.17,0.15-0.23,0.21
			c-0.06,0.06-0.13,0.13-0.21,0.22c-0.08,0.09-0.13,0.13-0.13,0.14c0,0-0.09,0.11-0.27,0.33c-0.18,0.22-0.33,0.37-0.46,0.48
			c-0.13,0.1-0.33,0.27-0.62,0.49c-0.28,0.23-0.61,0.46-0.97,0.68c-0.37,0.23-0.62,0.37-0.75,0.43c-0.13,0.06-0.33,0.15-0.59,0.28
			c-0.26,0.13-0.44,0.22-0.55,0.29c-0.11,0.06-0.19,0.11-0.24,0.15c-0.05,0.03-0.11,0.07-0.17,0.1c-0.06,0.03-0.13,0.07-0.22,0.12
			c-0.09,0.04-0.17,0.09-0.25,0.14c-0.08,0.05-0.15,0.1-0.22,0.14c-0.07,0.04-0.15,0.09-0.24,0.15c-0.09,0.06-0.13,0.09-0.14,0.09
			c0,0-0.28,0.12-0.85,0.35c-0.56,0.23-1.02,0.43-1.38,0.6c-0.35,0.16-0.63,0.3-0.83,0.4c-0.2,0.1-0.36,0.19-0.49,0.26
			c-0.13,0.07-0.26,0.18-0.4,0.34c-0.14,0.16-0.3,0.29-0.5,0.39c-0.2,0.11-0.36,0.19-0.5,0.25c-0.14,0.06-0.25,0.12-0.34,0.17
			c-0.09,0.05-0.15,0.08-0.18,0.1c-0.03,0.02-0.14,0.07-0.32,0.14c-0.18,0.07-0.31,0.12-0.41,0.14c-0.09,0.02-0.16,0.03-0.18,0.04
			c-0.03,0.01-0.05,0.01-0.05,0.01c-0.01,0-0.08,0.02-0.21,0.06c-0.13,0.04-0.28,0.09-0.42,0.14c-0.15,0.05-0.25,0.09-0.32,0.1
			c-0.06,0.02-0.13,0.03-0.21,0.06c-0.07,0.02-0.16,0.05-0.25,0.09c-0.09,0.04-0.16,0.06-0.21,0.08c-0.05,0.02-0.07,0.03-0.08,0.03
			c0,0-0.04,0.01-0.12,0.02c-0.08,0.01-0.16,0.02-0.26,0.03c-0.1,0.01-0.15,0.01-0.16,0.01c-0.01,0-0.04,0.01-0.1,0.03
			c-0.06,0.02-0.12,0.04-0.18,0.06c-0.06,0.02-0.11,0.04-0.16,0.04c-0.05,0.01-0.17,0.05-0.38,0.12c-0.2,0.07-0.42,0.17-0.66,0.29
			c-0.23,0.13-0.44,0.23-0.62,0.3c-0.18,0.08-0.33,0.12-0.47,0.14c-0.13,0.01-0.25,0.03-0.35,0.04"/>
		<path id="STROKE_52ab0db7-ddbb-4037-b360-3e44b2193b2e" class="st2" d="M44.27,28.54l0.14,0.12c0.08,0.08,0.12,0.12,0.12,0.13
			c0.12,0.16,0.2,0.26,0.25,0.3c0.04,0.05,0.07,0.07,0.07,0.08c0.01,0.01,0.04,0.03,0.09,0.08c0.06,0.04,0.19,0.15,0.39,0.33
			c0.2,0.18,0.36,0.34,0.48,0.47c0.12,0.13,0.2,0.22,0.26,0.27c0.06,0.05,0.08,0.07,0.08,0.07c0,0,0.04,0.03,0.11,0.1
			c0.07,0.06,0.12,0.11,0.14,0.13c0.02,0.02,0.06,0.06,0.12,0.12c0.06,0.06,0.08,0.08,0.07,0.06c-0.01-0.02,0.05,0.04,0.18,0.16
			c0.13,0.13,0.24,0.25,0.34,0.37c0.1,0.12,0.17,0.22,0.21,0.28c0.05,0.07,0.08,0.12,0.1,0.15c0.02,0.03,0.05,0.07,0.09,0.12
			c0.04,0.05,0.11,0.14,0.21,0.27c0.1,0.13,0.18,0.23,0.24,0.31c0.06,0.07,0.11,0.15,0.16,0.22c0.05,0.07,0.09,0.13,0.12,0.18
			s0.09,0.14,0.18,0.28c0.09,0.14,0.16,0.25,0.21,0.33c0.05,0.08,0.09,0.15,0.13,0.21c0.04,0.06,0.1,0.17,0.2,0.33
			c0.1,0.16,0.19,0.3,0.27,0.44c0.08,0.14,0.21,0.33,0.4,0.57c0.18,0.24,0.3,0.39,0.36,0.46c0.05,0.06,0.11,0.12,0.16,0.19
			c0.05,0.07,0.1,0.12,0.13,0.16c0.03,0.04,0.06,0.09,0.1,0.14c0.04,0.06,0.06,0.09,0.07,0.1c0.01,0.01,0.02,0.03,0.05,0.08
			c0.03,0.04,0.05,0.07,0.06,0.07c0.01,0,0.15,0.23,0.41,0.67c0.27,0.45,0.45,0.76,0.54,0.95c0.09,0.19,0.17,0.37,0.23,0.55
			c0.06,0.18,0.11,0.32,0.14,0.4c0.03,0.08,0.05,0.15,0.07,0.21c0.02,0.06,0.04,0.11,0.06,0.15c0.02,0.05,0.05,0.1,0.08,0.16
			c0.03,0.06,0.1,0.23,0.2,0.51c0.1,0.28,0.2,0.54,0.29,0.8c0.09,0.25,0.16,0.44,0.2,0.57c0.04,0.12,0.08,0.23,0.11,0.33
			c0.03,0.09,0.04,0.14,0.05,0.15c0,0,0.08,0.25,0.23,0.75c0.15,0.49,0.28,0.87,0.38,1.14c0.1,0.26,0.18,0.48,0.25,0.65
			c0.07,0.17,0.12,0.3,0.14,0.37c0.02,0.07,0.04,0.12,0.05,0.15c0.01,0.03,0.03,0.08,0.06,0.15c0.03,0.07,0.04,0.11,0.05,0.13
			c0.01,0.01,0.06,0.16,0.16,0.44s0.2,0.57,0.3,0.87s0.18,0.58,0.24,0.84c0.06,0.26,0.1,0.43,0.12,0.5
			c0.02,0.07,0.03,0.11,0.03,0.12c0,0,0.01,0.07,0.04,0.19c0.02,0.12,0.05,0.26,0.07,0.42c0.02,0.16,0.04,0.27,0.05,0.35
			c0.01,0.08,0.03,0.15,0.04,0.2c0.01,0.05,0.02,0.09,0.02,0.11c0,0.02,0.01,0.02,0.01,0.01c0.01-0.01,0.04,0.21,0.09,0.65
			c0.06,0.45,0.1,0.75,0.11,0.92c0.02,0.17,0.03,0.36,0.04,0.57c0.01,0.21,0.03,0.4,0.06,0.58s0.06,0.31,0.08,0.39
			c0.01,0.09,0.03,0.16,0.03,0.23c0.01,0.07,0.01,0.11,0.01,0.11c0,0,0,0.02,0,0.05c0,0.03,0.02,0.13,0.04,0.3
			c0.03,0.17,0.04,0.3,0.05,0.38s0.01,0.2,0.02,0.36c0,0.16,0.01,0.26,0.01,0.32c0.01,0.05,0.01,0.11,0.02,0.18
			c0.01,0.07,0.02,0.18,0.03,0.35c0.01,0.16,0.01,0.25,0.01,0.25c0,0,0,0.03,0.01,0.08c0.01,0.05,0.01,0.39,0.02,1.01
			c0.01,0.62,0,1.01-0.02,1.19c-0.02,0.17-0.04,0.31-0.06,0.41c-0.02,0.1-0.04,0.18-0.05,0.25c-0.02,0.07-0.03,0.1-0.03,0.1
			c0,0-0.01,0.03-0.04,0.09c-0.02,0.06-0.04,0.09-0.04,0.1c0,0.01,0.01-0.01,0.03-0.06"/>
		<path id="STROKE_effa7714-3057-46da-83ec-200974a4526b" class="st2" d="M13.33,34.6c0-0.57,0-0.91,0-1.02
			c0-0.11,0.01-0.19,0.02-0.25c0.01-0.06,0.02-0.09,0.02-0.1c0,0,0.01-0.02,0.01-0.06c0-0.04,0.04-0.16,0.1-0.37
			c0.06-0.21,0.13-0.39,0.2-0.56c0.07-0.17,0.13-0.28,0.16-0.34c0.03-0.06,0.08-0.13,0.13-0.22c0.06-0.08,0.12-0.18,0.2-0.28
			c0.08-0.1,0.12-0.15,0.12-0.16c0.01-0.01,0.05-0.06,0.12-0.15c0.07-0.09,0.21-0.28,0.41-0.56c0.2-0.28,0.36-0.5,0.47-0.68
			c0.11-0.18,0.25-0.36,0.42-0.55c0.17-0.19,0.32-0.35,0.45-0.46c0.13-0.12,0.33-0.28,0.59-0.5c0.26-0.22,0.49-0.39,0.69-0.51
			c0.2-0.13,0.4-0.22,0.59-0.29c0.19-0.07,0.29-0.1,0.3-0.1c0.01,0,0.09-0.03,0.23-0.1c0.15-0.07,0.26-0.13,0.35-0.18
			c0.09-0.06,0.15-0.1,0.2-0.14c0.05-0.04,0.09-0.06,0.11-0.08c0.02-0.02,0.07-0.05,0.13-0.1c0.06-0.05,0.13-0.1,0.2-0.14
			c0.07-0.05,0.12-0.08,0.14-0.09c0.02-0.02,0.04-0.02,0.04-0.02c0,0,0.1-0.06,0.28-0.18c0.18-0.12,0.36-0.24,0.52-0.36
			c0.16-0.12,0.38-0.22,0.66-0.31c0.28-0.09,0.63-0.22,1.05-0.38c0.42-0.16,0.73-0.31,0.93-0.43c0.2-0.12,0.39-0.23,0.57-0.32
			c0.18-0.09,0.28-0.14,0.31-0.14c0.03-0.01,0.13-0.02,0.32-0.03c0.18-0.01,0.35-0.05,0.49-0.1c0.15-0.06,0.28-0.11,0.41-0.15
			c0.13-0.04,0.24-0.07,0.33-0.08c0.09-0.01,0.14-0.01,0.14-0.01c0,0,0.09,0,0.25,0c0.16,0,0.34-0.02,0.54-0.05
			c0.2-0.03,0.37-0.07,0.51-0.1c0.14-0.03,0.28-0.06,0.4-0.07c0.13-0.02,0.22-0.03,0.3-0.03c0.07,0,0.2-0.02,0.37-0.04
			c0.18-0.02,0.3-0.05,0.39-0.06c0.08-0.02,0.14-0.03,0.18-0.03c0.04-0.01,0.06-0.01,0.06-0.01c0,0,0.03,0,0.07-0.01
			c0.05,0,0.18-0.01,0.39-0.02c0.22-0.01,0.41-0.02,0.58-0.04c0.17-0.02,0.31-0.03,0.4-0.04s0.16-0.01,0.2-0.01
			c0.04,0,0.06,0,0.05,0c-0.01,0,0.13,0,0.4,0c0.28,0,0.57,0,0.87,0c0.3,0,0.5,0,0.61,0.01c0.11,0,0.2,0.01,0.27,0.01
			c0.07,0,0.11,0,0.13,0c0.02,0,0.04,0,0.09,0.01c0.04,0,0.07,0,0.09,0.01c0.02,0,0.03,0,0.03,0c0,0,0.08,0.02,0.25,0.07
			c0.17,0.05,0.33,0.1,0.48,0.15c0.15,0.05,0.26,0.08,0.34,0.1c0.08,0.02,0.12,0.03,0.13,0.04c0.01,0,0.04,0.02,0.09,0.04
			c0.05,0.02,0.13,0.05,0.26,0.08c0.12,0.03,0.22,0.05,0.28,0.05c0.07,0,0.1,0.01,0.1,0.01c0,0,0.04,0,0.12,0.01
			c0.07,0,0.11,0.01,0.11,0c0,0,0.07,0.01,0.22,0.05c0.15,0.03,0.36,0.1,0.64,0.18c0.28,0.09,0.48,0.16,0.6,0.21
			c0.12,0.05,0.21,0.09,0.25,0.12c0.05,0.03,0.18,0.08,0.4,0.16c0.22,0.08,0.41,0.17,0.57,0.26c0.16,0.09,0.29,0.16,0.4,0.21
			c0.11,0.05,0.19,0.09,0.25,0.13c0.06,0.04,0.1,0.05,0.1,0.06c0,0,0.05,0.03,0.15,0.08c0.1,0.05,0.14,0.07,0.13,0.07s0,0,0.04,0.02
			c0.04,0.02,0.11,0.05,0.22,0.09c0.11,0.04,0.17,0.06,0.18,0.06c0,0,0.07,0.04,0.2,0.13c0.13,0.08,0.25,0.15,0.37,0.2
			c0.12,0.05,0.19,0.08,0.22,0.09c0.03,0.01,0.07,0.02,0.13,0.04c0.06,0.02,0.13,0.05,0.21,0.09c0.08,0.04,0.16,0.07,0.24,0.1
			c0.08,0.03,0.15,0.05,0.22,0.06c0.07,0.01,0.12,0.02,0.16,0.03c0.04,0.01,0.12,0.04,0.24,0.1c0.12,0.06,0.2,0.09,0.24,0.1
			c0.04,0.01,0.09,0.02,0.15,0.03c0.06,0.01,0.15,0.03,0.26,0.07c0.11,0.03,0.19,0.06,0.23,0.08c0.04,0.02,0.07,0.04,0.09,0.05
			c0.02,0.01,0.03,0.02,0.04,0.02c0.01,0,0.05,0.02,0.14,0.05c0.08,0.03,0.13,0.04,0.13,0.04c0,0,0.03,0,0.08,0.02
			c0.05,0.02,0.11,0.04,0.18,0.08c0.07,0.04,0.15,0.06,0.23,0.08c0.08,0.02,0.14,0.03,0.18,0.05c0.04,0.02,0.1,0.04,0.16,0.07
			l0.16,0.06c0.09,0.04,0.14,0.06,0.14,0.06c0,0,0.02,0.01,0.04,0.04c0.03,0.03,0.07,0.06,0.11,0.11c0.05,0.05,0.1,0.1,0.16,0.17
			c0.14,0.14,0.21,0.22,0.21,0.22c0,0,0,0.01,0,0.01c0,0,0.02,0.04,0.07,0.11c0.04,0.07,0.07,0.13,0.08,0.19
			c0.01,0.06,0.02,0.12,0.02,0.17"/>
	</g>
	<g id="New_Layer_11">
		<path id="STROKE_dcfc67e3-085b-40cc-8d81-d02202183e13" class="st1" d="M5.69,5.04C5.68,5.04,5.68,5.1,5.7,5.24
			C5.71,5.37,5.73,5.5,5.75,5.62C5.78,5.74,5.8,5.83,5.81,5.9C5.82,5.97,5.83,6,5.83,5.99c0-0.01,0.01,0.08,0.03,0.25
			C5.88,6.41,5.92,6.7,5.98,7.1c0.05,0.4,0.1,0.69,0.13,0.87c0.03,0.17,0.03,0.4,0.01,0.67c-0.02,0.28,0.01,0.74,0.1,1.39
			c0.09,0.65,0.18,1.13,0.25,1.45c0.07,0.32,0.12,0.55,0.14,0.7c0.02,0.15,0.03,0.26,0.03,0.32c0,0.07,0.01,0.12,0.01,0.17
			c0.01,0.05,0,0.05-0.01,0c-0.01-0.05,0-0.01,0.02,0.13c0.03,0.14,0.05,0.24,0.07,0.31c0.02,0.07,0.04,0.14,0.05,0.22
			c0.01,0.07,0.02,0.1,0.01,0.1c0-0.01,0-0.01,0,0c0,0.01,0,0.05,0,0.1c0,0.05,0,0.07,0,0.06c0-0.01,0-0.02,0-0.01
			c0,0.01,0,0.02,0,0.02c0,0,0-0.01,0.01-0.04c0.01-0.03-0.04,0.18-0.15,0.63c-0.08,0-0.11,0-0.1,0c-0.11,0-0.17,0.01-0.17,0.01
			c0.03-0.02-0.01,0-0.11,0.05c-0.1,0.05-0.23,0.13-0.39,0.25c-0.16,0.12-0.29,0.21-0.38,0.28c-0.09,0.07-0.17,0.15-0.24,0.24
			c-0.07,0.09-0.12,0.17-0.16,0.23c-0.04,0.06-0.06,0.1-0.07,0.11C5.01,15.39,5,15.43,4.97,15.49c-0.03,0.06-0.04,0.08-0.04,0.08
			c0,0-0.04,0.06-0.11,0.21s-0.14,0.25-0.19,0.33c-0.05,0.08-0.09,0.14-0.11,0.19c-0.02,0.05-0.03,0.07-0.03,0.05
			c0.01-0.01,0.01-0.02,0-0.01c-0.01,0.01-0.01,0.03-0.01,0.06c0,0.03-0.07,0.25-0.21,0.66c-0.14,0.41-0.25,0.73-0.32,0.98
			c-0.07,0.24-0.14,0.39-0.18,0.46c-0.05,0.06-0.09,0.13-0.14,0.19c-0.05,0.06-0.09,0.12-0.14,0.18c-0.05,0.06-0.07,0.09-0.07,0.09
			c0,0,0,0,0,0.01c0,0-0.01,0.02-0.03,0.04c-0.01,0.02-0.04,0.06-0.08,0.13c-0.04,0.07-0.05,0.09-0.04,0.07
			c0.01-0.03,0.01-0.02-0.02,0.03c-0.02,0.04-0.04,0.07-0.05,0.09c-0.01,0.01-0.02,0.03-0.03,0.06c-0.02,0.03-0.04,0.07-0.06,0.12
			c-0.03,0.05-0.05,0.1-0.08,0.14c-0.02,0.05-0.03,0.07-0.03,0.08c0.01,0.01,0,0.01-0.01,0c-0.01-0.01-0.09,0.12-0.23,0.38
			c-0.14,0.26-0.22,0.6-0.23,1.03c-0.01,0.42-0.02,0.77-0.03,1.03c-0.01,0.26-0.02,0.52-0.04,0.78c-0.02,0.26-0.02,0.47-0.02,0.61
			c0.01,0.15,0.01,0.25,0.01,0.31c0,0.06,0,0.11,0,0.15c0,0.04,0,0.07,0,0.1c0,0.02,0,0.04-0.01,0.05s0.01,0.09,0.04,0.23
			c0.04,0.15,0.07,0.28,0.1,0.41c0.03,0.13,0.05,0.23,0.06,0.29c0.01,0.07,0.02,0.13,0.03,0.18c0.01,0.05,0.03,0.13,0.05,0.23
			c0.03,0.1,0.05,0.18,0.06,0.24c0.02,0.06,0.04,0.14,0.08,0.24c0.04,0.1,0.07,0.19,0.1,0.27c0.03,0.08,0.05,0.16,0.07,0.24
			c0.02,0.08,0.04,0.14,0.05,0.2c0.02,0.06,0.03,0.11,0.05,0.17c0.02,0.05,0.03,0.08,0.03,0.09c0,0.01,0,0-0.01-0.01
			c-0.01-0.01,0,0.01,0.04,0.07c0.04,0.06,0.08,0.12,0.14,0.19c0.06,0.07,0.08,0.1,0.08,0.1c0,0,0.01,0.02,0.03,0.05
			c0.03,0.04,0.06,0.09,0.1,0.15c0.04,0.06,0.06,0.11,0.07,0.13c0.01,0.02,0.03,0.05,0.05,0.09c0.02,0.04,0.04,0.07,0.05,0.09
			c0.01,0.02,0.03,0.04,0.03,0.05c0.01,0.01,0.01,0.01,0-0.01c-0.01-0.02,0.02,0.03,0.1,0.15c0.08,0.12,0.16,0.25,0.26,0.39
			c0.1,0.14,0.18,0.24,0.23,0.31c0.06,0.07,0.1,0.13,0.13,0.17c0.03,0.04,0.05,0.06,0.05,0.07c0,0,0,0-0.01-0.01
			c-0.01-0.01,0.02,0.02,0.06,0.08c0.05,0.06,0.08,0.1,0.1,0.12c0.02,0.02,0.03,0.03,0.03,0.03c0,0-0.01-0.01-0.01-0.02
			c-0.01-0.01,0.01,0.01,0.05,0.06c0.04,0.05,0.08,0.11,0.14,0.18c0.06,0.07,0.1,0.12,0.12,0.15c0.03,0.03,0.03,0.03,0,0.01
			c-0.02-0.02,0.02,0.03,0.14,0.15c0.12,0.12,0.22,0.22,0.31,0.29c0.09,0.08,0.17,0.14,0.24,0.19c0.07,0.05,0.13,0.09,0.18,0.13
			C5.93,30.37,5.97,30.4,6,30.42c0.03,0.02,0.04,0.03,0.05,0.04c0.01,0.01,0.01,0.01,0,0c-0.01-0.01,0.01,0.01,0.07,0.05
			c0.05,0.04,0.12,0.1,0.22,0.17c0.09,0.07,0.15,0.12,0.18,0.15c0.03,0.03,0.04,0.04,0.02,0.02c-0.01-0.02,0.01,0,0.07,0.05
			c0.06,0.05,0.1,0.08,0.11,0.09c0.01,0.01,0.01,0.01,0,0C6.71,31,6.72,31.02,6.77,31.06c0.05,0.04,0.09,0.08,0.13,0.12
			c0.04,0.04,0.06,0.06,0.05,0.05c-0.01-0.01-0.01-0.01-0.01-0.01c0,0,0.01,0.01,0.02,0.02c0.01,0.01,0.04,0.04,0.09,0.09
			c0.05,0.05,0.08,0.07,0.08,0.07c0.01,0,0,0-0.01-0.01c-0.01-0.01,0.01,0.01,0.06,0.05c0.05,0.04,0.08,0.07,0.1,0.08
			c0.01,0.01,0.02,0.01,0.01,0c-0.01-0.01,0,0,0.02,0.03c0.02,0.03,0.13,0.11,0.3,0.26c0.18,0.15,0.32,0.27,0.42,0.37
			c0.1,0.1,0.2,0.17,0.27,0.22c0.08,0.05,0.12,0.07,0.11,0.06c-0.01-0.01,0-0.01,0.01,0c0.02,0,0.08,0.03,0.2,0.08
			c0.12,0.04,0.22,0.08,0.3,0.12c0.08,0.03,0.13,0.06,0.16,0.07c0.02,0.01,0.03,0.01,0.01,0c-0.02-0.01,0.02,0.01,0.12,0.05
			c0.09,0.04,0.31,0.12,0.65,0.23c0.34,0.11,0.57,0.19,0.68,0.22s0.23,0.07,0.32,0.09c0.1,0.02,0.17,0.04,0.22,0.06
			c0.05,0.01,0.1,0.03,0.16,0.05c0.06,0.02,0.14,0.05,0.22,0.09c0.08,0.04,0.12,0.06,0.11,0.06c-0.01,0,0-0.01,0.01,0
			c0.01,0,0.01,0-0.01,0c-0.02,0,0.03,0.02,0.13,0.07s0.23,0.09,0.36,0.11c0.13,0.02,0.23,0.02,0.29,0.01
			c0.06-0.01,0.1-0.02,0.1-0.01c0,0.01,0,0.01-0.01,0c-0.01-0.01,0.02,0.01,0.09,0.04c0.07,0.03,0.15,0.07,0.23,0.11
			c0.08,0.04,0.11,0.06,0.11,0.05c0.15,0.03,0.2,0.04,0.17,0.03c0.1,0.01,0.16,0.03,0.19,0.04c0.03,0.01,0.09,0.03,0.18,0.06
			c0.09,0.03,0.14,0.04,0.15,0.05c0.01,0,0.02,0,0.04,0c0.01,0,0.01,0-0.01,0.01c-0.02,0.01,0.06,0.03,0.25,0.06
			c0.19,0.03,0.43,0.05,0.71,0.05c0.28,0,0.51,0,0.68-0.01c0.17-0.01,0.3-0.02,0.37-0.03c0.07-0.01,0.12-0.02,0.14-0.01
			c0.02,0,0.04,0,0.07,0c0.03,0,0.03,0,0-0.01c-0.02,0,0.05-0.01,0.21-0.01c0.17,0,0.32,0,0.46,0.01c0.14,0.01,0.25,0.02,0.31,0.03
			c0.07,0.01,0.13,0.02,0.2,0.04c0.07,0.01,0.13,0.03,0.19,0.05c0.06,0.02,0.14,0.05,0.24,0.08c0.1,0.03,0.27,0.06,0.51,0.09
			c0.25,0.03,0.46,0.05,0.65,0.06c0.19,0.01,0.33,0.02,0.43,0.03c0.1,0.01,0.17,0.01,0.23,0.02c0.05,0.01,0.07,0,0.05,0
			c-0.02-0.01,0.05-0.01,0.2,0c0.15,0.01,0.43,0.06,0.83,0.13c0.4,0.08,0.74,0.13,1.04,0.15c0.29,0.02,0.49,0.03,0.59,0.05
			c0.1,0.01,0.36,0.03,0.79,0.05c0.43,0.02,0.75,0.04,0.95,0.04c0.21,0.01,0.44,0.01,0.69,0.02c0.25,0,0.58-0.02,0.98-0.08
			c0.4-0.06,0.68-0.1,0.84-0.13c0.16-0.03,0.36-0.04,0.6-0.05c0.24-0.01,0.44-0.03,0.59-0.06c0.15-0.03,0.25-0.05,0.31-0.04
			c0.06,0,0.13,0.01,0.2,0c0.08,0,0.15,0,0.22,0c0.07,0,0.1,0,0.1,0c-0.01,0,0.01,0,0.04,0.01c0.03,0.01,0.12,0.01,0.27-0.01
			c0.15-0.01,0.36-0.04,0.63-0.09c0.27-0.05,0.49-0.08,0.66-0.09c0.17-0.01,0.29-0.02,0.34-0.04c0.05-0.01,0.13-0.02,0.24-0.04
			c0.11-0.01,0.25-0.03,0.43-0.06c0.18-0.03,0.3-0.05,0.35-0.06c0.05-0.01,0.12-0.03,0.19-0.05c0.08-0.02,0.18-0.07,0.31-0.13
			c0.13-0.06,0.26-0.13,0.4-0.2c0.14-0.07,0.23-0.12,0.27-0.13c0.04-0.02,0.08-0.03,0.11-0.04c0.03-0.01,0.13-0.04,0.29-0.1
			c0.16-0.06,0.28-0.1,0.36-0.14c0.08-0.03,0.16-0.07,0.25-0.1c0.09-0.04,0.17-0.06,0.23-0.08c0.07-0.02,0.1-0.03,0.11-0.03
			c0.01,0,0.03-0.01,0.07-0.02c0.04-0.01,0.15-0.04,0.34-0.1c0.19-0.06,0.35-0.12,0.5-0.18c0.15-0.06,0.26-0.1,0.32-0.12
			c0.07-0.02,0.13-0.05,0.18-0.06c0.05-0.02,0.11-0.04,0.18-0.08c0.07-0.03,0.13-0.06,0.18-0.09c0.06-0.03,0.13-0.06,0.21-0.1
			c0.08-0.04,0.13-0.06,0.13-0.06c0,0,0.01,0,0.01,0c0,0,0,0-0.02,0.01c-0.02,0.01,0.06-0.03,0.24-0.09
			c0.17-0.07,0.45-0.16,0.81-0.27c0.37-0.11,0.64-0.21,0.83-0.29c0.19-0.08,0.3-0.12,0.34-0.13c0.04-0.01,0.11-0.03,0.2-0.06
			c0.09-0.03,0.17-0.05,0.24-0.07c0.07-0.02,0.11-0.03,0.12-0.04s0.01-0.01,0,0c-0.01,0.01,0.21-0.09,0.67-0.3
			c0.46-0.21,0.83-0.38,1.1-0.5c0.28-0.13,0.49-0.23,0.65-0.3c0.15-0.07,0.26-0.12,0.32-0.14c0.06-0.02,0.1-0.04,0.13-0.06
			c0.03-0.02,0.03-0.02,0.02-0.01c-0.01,0.01,0.02-0.01,0.09-0.06c0.07-0.05,0.15-0.11,0.25-0.17c0.1-0.06,0.2-0.12,0.3-0.17
			c0.1-0.06,0.18-0.09,0.22-0.11c0.04-0.01,0.11-0.04,0.19-0.09c0.08-0.04,0.14-0.08,0.17-0.1c0.03-0.02,0.05-0.03,0.05-0.04
			c0,0,0.04-0.03,0.1-0.08c0.06-0.05,0.1-0.08,0.11-0.09c0.01-0.01,0.03-0.03,0.06-0.04c0.03-0.02,0.07-0.05,0.12-0.08
			c0.05-0.03,0.08-0.05,0.08-0.06c0-0.01,0,0-0.01,0.02c-0.01,0.02,0.07-0.06,0.24-0.23c0.17-0.17,0.35-0.35,0.53-0.54
			c0.18-0.19,0.32-0.33,0.41-0.43c0.09-0.1,0.15-0.17,0.18-0.23c0.03-0.06,0.05-0.09,0.05-0.09c0,0,0.01-0.02,0.03-0.05
			c0.02-0.03,0.03-0.06,0.04-0.08c0.01-0.02,0.02-0.03,0.01-0.02c-0.01,0.01,0.01-0.02,0.06-0.1c0.05-0.08,0.08-0.11,0.08-0.11
			c0,0,0,0.01-0.01,0.01c0,0,0,0,0.02-0.02c0.01-0.02,0.05-0.05,0.1-0.12c0.05-0.06,0.1-0.12,0.14-0.18c0.04-0.06,0.07-0.1,0.1-0.12
			c0.02-0.03,0.02-0.03,0,0c-0.02,0.02-0.01,0.01,0.05-0.04c0.06-0.05,0.18-0.17,0.36-0.35c0.18-0.18,0.33-0.33,0.45-0.46
			c0.12-0.13,0.21-0.23,0.26-0.31c0.05-0.08,0.1-0.15,0.13-0.2c0.03-0.05,0.05-0.08,0.06-0.08c0,0,0,0,0,0c0,0-0.01,0-0.02,0.01
			c-0.01,0.01,0.01-0.01,0.06-0.07c0.05-0.06,0.12-0.13,0.21-0.21c0.09-0.08,0.15-0.16,0.19-0.22c0.04-0.06,0.08-0.12,0.12-0.17
			c0.04-0.06,0.06-0.08,0.06-0.09c0,0,0,0-0.01,0.01c-0.01,0.01,0.02-0.03,0.07-0.11c0.05-0.08,0.08-0.13,0.08-0.13
			c0,0,0.01-0.03,0.04-0.07c0.03-0.04,0.05-0.08,0.07-0.12c0.02-0.03,0.07-0.14,0.14-0.32c0.07-0.18,0.14-0.33,0.21-0.46
			c0.06-0.13,0.12-0.25,0.16-0.35c0.04-0.1,0.07-0.17,0.09-0.22c0.02-0.04,0.04-0.1,0.07-0.17c0.03-0.07,0.06-0.14,0.08-0.21
			c0.02-0.07,0.04-0.1,0.04-0.1c0,0,0,0,0,0c0,0,0,0,0,0c0,0,0-0.02,0.02-0.04c0.02-0.03,0.06-0.12,0.13-0.27
			c0.07-0.16,0.13-0.33,0.18-0.51c0.05-0.18,0.09-0.31,0.11-0.37c0.02-0.06,0.04-0.13,0.06-0.19c0.02-0.06,0.03-0.1,0.04-0.12
			c0.01-0.02,0-0.02,0,0c-0.01,0.02,0.02-0.05,0.07-0.2c0.06-0.15,0.1-0.27,0.13-0.34c0.03-0.08,0.05-0.12,0.05-0.13
			c0-0.01,0.01-0.01,0.01-0.01c0,0,0-0.02,0.01-0.06c0.01-0.04,0.05-0.16,0.14-0.35c0.08-0.19,0.15-0.35,0.21-0.47
			c0.06-0.12,0.09-0.21,0.11-0.25c0.02-0.05,0.03-0.09,0.04-0.13c0.01-0.04,0.02-0.07,0.03-0.09c0.01-0.02,0.01-0.03,0-0.02
			c-0.01,0.01,0.01-0.06,0.06-0.21c0.05-0.14,0.13-0.31,0.23-0.49c0.1-0.18,0.17-0.35,0.22-0.5c0.05-0.15,0.08-0.26,0.09-0.34
			c0.01-0.07,0.02-0.14,0.04-0.2c0.01-0.06,0.02-0.1,0.02-0.12c0-0.02,0-0.02,0-0.02c0,0,0.01-0.05,0.03-0.17
			c0.02-0.12,0.03-0.22,0.03-0.29c0-0.07,0-0.13,0-0.16c0-0.03,0-0.08,0-0.15c0-0.07,0-0.11-0.01-0.12c0-0.01,0-0.02,0.01-0.02
			c0.01,0,0.01-0.06,0.01-0.2c0-0.14-0.03-0.29-0.09-0.45c-0.06-0.17-0.09-0.28-0.11-0.35c-0.02-0.07-0.04-0.14-0.06-0.22
			c-0.02-0.08-0.04-0.14-0.05-0.17s-0.01-0.05-0.01-0.04c0,0.01,0-0.02-0.02-0.1c-0.02-0.08-0.02-0.11-0.02-0.1
			c0,0.01-0.02-0.07-0.08-0.25c-0.06-0.17-0.09-0.28-0.1-0.32c-0.01-0.04-0.07-0.16-0.18-0.35c-0.11-0.19-0.2-0.35-0.28-0.46
			c-0.07-0.11-0.15-0.23-0.22-0.35c-0.08-0.12-0.1-0.17-0.08-0.13c0.02,0.03,0.01,0.03-0.03-0.02c-0.05-0.05-0.1-0.11-0.17-0.2
			c-0.07-0.08-0.11-0.15-0.15-0.22s-0.07-0.13-0.12-0.21c-0.05-0.07-0.08-0.12-0.08-0.12c0-0.01-0.01-0.01,0,0
			c0,0-0.04-0.04-0.14-0.14c-0.1-0.1-0.19-0.22-0.26-0.34c-0.08-0.13-0.15-0.24-0.23-0.34c-0.08-0.1-0.16-0.18-0.24-0.26
			c-0.08-0.07-0.14-0.13-0.18-0.15c-0.04-0.03-0.09-0.07-0.16-0.13c-0.07-0.06-0.14-0.12-0.21-0.17c-0.07-0.06-0.11-0.09-0.12-0.09
			c-0.01-0.01-0.05-0.04-0.13-0.09c-0.08-0.06-0.1-0.07-0.04-0.03c0.05,0.04-0.06-0.03-0.35-0.18c-0.29-0.16-0.56-0.33-0.83-0.52
			c-0.26-0.19-0.45-0.32-0.55-0.4c-0.1-0.08-0.18-0.13-0.24-0.16s-0.11-0.06-0.15-0.09c-0.04-0.03-0.07-0.04-0.08-0.04
			c-0.01,0-0.02-0.01-0.03-0.01c-0.01,0-0.04-0.02-0.08-0.05c-0.05-0.03-0.09-0.06-0.14-0.08c-0.05-0.02-0.24-0.08-0.56-0.16V8.42
			c0,0-0.01,0-0.01,0c0,0-0.02-0.06-0.08-0.18c-0.05-0.12-0.11-0.33-0.17-0.64c-0.06-0.31-0.09-0.56-0.12-0.74
			c-0.02-0.18-0.04-0.32-0.05-0.41c-0.01-0.09-0.01-0.13-0.01-0.11c0,0.02-0.04-0.26-0.14-0.84c-0.09-0.58-0.16-1.07-0.2-1.46
			c-0.04-0.4-0.06-0.7-0.05-0.92c0-0.21,0.02-0.45,0.05-0.72c0.03-0.26,0.05-0.47,0.04-0.63c0-0.15-0.02-0.27-0.06-0.35
			c-0.04-0.08-0.05-0.11-0.05-0.11c0,0.01,0.01,0.01,0.01,0.01c0,0-0.01-0.01-0.02-0.04c-0.02-0.03-0.06-0.06-0.12-0.11
			c-0.06-0.05-0.09-0.06-0.08-0.05c0.01,0.01,0.02,0.01,0.02,0.01c0,0-0.02-0.01-0.05-0.03c-0.03-0.02-0.07-0.04-0.11-0.06
			c-0.04-0.02-0.06-0.03-0.06-0.02c0,0,0,0,0,0c0,0-0.03,0-0.09-0.01c-0.06-0.01-0.12,0.01-0.18,0.06
			c-0.06,0.05-0.11,0.08-0.15,0.09c-0.04,0.02-0.08,0.03-0.13,0.04c-0.05,0.01-0.12,0.02-0.22,0.03c-0.1,0-0.18,0-0.24,0
			c-0.06-0.01-0.15,0.01-0.26,0.04c-0.11,0.03-0.25,0.06-0.43,0.09c-0.18,0.02-0.29,0.03-0.36,0.02c-0.06-0.01-0.16,0.01-0.29,0.07
			c-0.13,0.05-0.24,0.1-0.32,0.14c-0.08,0.04-0.15,0.08-0.21,0.11c-0.06,0.03-0.09,0.04-0.07,0.03c0.01-0.01-0.01,0.01-0.07,0.05
			c-0.06,0.05-0.23,0.12-0.51,0.21c-0.28,0.09-0.55,0.2-0.79,0.31c-0.25,0.11-0.45,0.19-0.61,0.24c-0.16,0.05-0.27,0.08-0.34,0.11
			c-0.06,0.03-0.13,0.06-0.21,0.1c-0.08,0.04-0.14,0.07-0.18,0.08c-0.04,0.02-0.08,0.04-0.1,0.05c-0.02,0.02-0.03,0.02-0.02,0.01
			c0.01-0.01-0.05,0.03-0.17,0.12c-0.12,0.09-0.31,0.25-0.56,0.49c-0.25,0.24-0.5,0.5-0.75,0.76C35,4.52,34.81,4.72,34.67,4.85
			c-0.13,0.13-0.23,0.24-0.29,0.32c-0.06,0.08-0.12,0.16-0.19,0.23c-0.07,0.07-0.12,0.12-0.17,0.15c-0.04,0.03-0.06,0.05-0.06,0.05
			c0,0,0.01,0,0.01-0.01c0-0.01-0.03,0.02-0.09,0.09c-0.06,0.06-0.11,0.13-0.15,0.2C33.71,5.95,33.69,5.99,33.68,6
			c-0.01,0.01-0.01,0.02-0.01,0.01c0-0.01,0.01-0.01,0.01-0.01c0,0,0,0,0,0c0,0,0,0,0,0c0,0-0.01,0.03-0.04,0.08
			c-0.02,0.06-0.05,0.11-0.07,0.15c-0.02,0.04-0.03,0.06-0.03,0.05c-0.1,0.01-0.14,0.02-0.11,0.01c-0.2,0-0.26,0-0.19,0
			c-0.12-0.01-0.18-0.02-0.17-0.03c-0.1-0.04-0.17-0.07-0.21-0.08c-0.05-0.01-0.14-0.05-0.29-0.11c-0.15-0.06-0.26-0.11-0.34-0.14
			c-0.08-0.03-0.15-0.06-0.2-0.08c-0.06-0.02-0.1-0.03-0.11-0.04c-0.01,0-0.01-0.01,0,0c0.01,0-0.03,0-0.14-0.02
			c-0.11-0.01-0.2-0.03-0.28-0.05c-0.08-0.02-0.16-0.04-0.24-0.07c-0.08-0.02-0.11-0.03-0.09-0.03c0.02,0-0.03,0-0.15-0.01
			c-0.11-0.01-0.26-0.01-0.45-0.01c-0.18,0-0.32-0.01-0.41-0.04c-0.09-0.02-0.13-0.03-0.13-0.03c0,0,0.01,0,0.01,0
			c0,0-0.13-0.01-0.39-0.02c-0.26-0.01-0.52-0.01-0.76-0.02c-0.24,0-0.44,0.01-0.61,0.04c-0.16,0.03-0.28,0.05-0.34,0.06
			c-0.06,0.01-0.12,0.02-0.16,0.02c-0.05,0-0.09,0.01-0.13,0.02c-0.04,0.01-0.08,0.01-0.12,0.02c-0.04,0-0.06,0.01-0.06,0.01
			c0,0,0,0,0,0c0,0-0.02,0-0.07,0.02c-0.05,0.01-0.16,0.03-0.32,0.04c-0.16,0.02-0.3,0.03-0.4,0.04c-0.11,0.01-0.17,0.02-0.18,0.02
			c-0.01,0.01-0.06,0.02-0.15,0.04c-0.09,0.02-0.15,0.03-0.2,0.04c-0.05,0.01-0.09,0.01-0.12,0.02c-0.03,0-0.05,0.01-0.05,0.01
			c0,0,0,0,0.01-0.02c0.01-0.01-0.12,0-0.38,0.04C25.35,6,25.14,6.04,24.97,6.08c-0.16,0.04-0.28,0.05-0.36,0.05
			c-0.08-0.01-0.14-0.01-0.19-0.01c-0.05,0-0.08,0-0.1,0c-0.01,0-0.01,0,0.02,0c0.03,0-0.09,0.01-0.36,0.05
			c-0.27,0.04-0.57,0.09-0.91,0.15c-0.34,0.07-0.63,0.11-0.87,0.12c-0.24,0.02-0.38,0.04-0.44,0.07s-0.11,0.05-0.14,0.06
			c-0.04,0.01-0.08,0.03-0.14,0.05c-0.06,0.02-0.13,0.04-0.21,0.06c-0.08,0.02-0.1,0.02-0.06,0.01c0.04-0.01-0.03-0.01-0.2,0
			c-0.17,0.01-0.34,0.04-0.5,0.09c-0.16,0.05-0.29,0.08-0.4,0.09c-0.11,0.01-0.17,0.02-0.2,0.02c-0.02,0-0.03,0.01-0.02,0
			c0.01,0-0.01,0-0.07,0.01c-0.05,0.01-0.15,0.05-0.29,0.12c-0.14,0.08-0.31,0.13-0.51,0.15s-0.35,0.04-0.46,0.03
			c-0.11,0-0.2-0.01-0.26-0.01c-0.07,0-0.13,0-0.18,0.01C18.06,7.22,18,7.24,17.94,7.25c-0.06,0.02-0.06,0.02,0,0.01
			c0.06-0.01-0.01,0.02-0.21,0.08s-0.36,0.12-0.48,0.16S17,7.58,16.87,7.58c-0.13,0-0.23,0.01-0.3,0.03
			c-0.07,0.02-0.12,0.04-0.14,0.05c-0.02,0.01-0.07,0.04-0.13,0.1c-0.07,0.05-0.1,0.08-0.1,0.07c0-0.01-0.01-0.01-0.03,0
			c-0.02,0.01-0.02,0.02,0,0.03c0.02,0.01-0.05,0.01-0.21,0.01c-0.15,0-0.31,0.02-0.48,0.07c-0.16,0.05-0.28,0.1-0.34,0.16
			c-0.07,0.06-0.12,0.1-0.15,0.13c-0.04,0.02-0.05,0.03-0.05,0.03c0,0,0,0,0.01,0c0.01,0-0.03,0.01-0.11,0.04
			c-0.08,0.03-0.16,0.04-0.25,0.05c-0.09,0.01-0.16,0.02-0.23,0.04c-0.07,0.02-0.12,0.03-0.16,0.05c-0.03,0.01-0.05,0.01-0.04,0.01
			c0.01-0.01-0.02,0-0.08,0.03c-0.06,0.03-0.12,0.06-0.19,0.1s-0.12,0.06-0.18,0.07c-0.06,0.01-0.12-0.01-0.18-0.04
			c-0.06-0.03-0.12-0.07-0.18-0.12c-0.06-0.05-0.09-0.08-0.1-0.09c-0.01-0.01,0-0.01,0.02,0.02c0.02,0.02-0.02-0.02-0.12-0.15
			C13.04,8.12,12.94,8,12.86,7.9c-0.09-0.11-0.17-0.21-0.25-0.31c-0.08-0.1-0.15-0.18-0.21-0.24c-0.06-0.06-0.09-0.09-0.08-0.08
			c0,0.01,0.01,0.01,0.02,0.01c0.01,0,0,0-0.03-0.02c-0.03-0.02-0.09-0.04-0.16-0.08c-0.08-0.04-0.1-0.05-0.07-0.03
			c0.03,0.02-0.01-0.01-0.11-0.07c-0.1-0.06-0.23-0.15-0.38-0.28c-0.15-0.12-0.28-0.23-0.38-0.32c-0.1-0.09-0.16-0.13-0.16-0.14
			c0,0,0,0,0,0c0,0,0,0,0,0c0,0,0,0,0,0c0,0,0,0,0.01,0.01c0.01,0.01,0,0.01-0.01,0c-0.01-0.01-0.04-0.02-0.09-0.04
			c-0.05-0.02-0.13-0.04-0.24-0.08c-0.11-0.04-0.15-0.05-0.14-0.04c0.01,0.01,0,0.01-0.05,0c-0.04-0.01-0.09-0.02-0.15-0.03
			c-0.06-0.01-0.18-0.05-0.36-0.1C9.84,6,9.71,5.98,9.62,5.99C9.54,6,9.48,5.99,9.44,5.98C9.4,5.97,9.38,5.97,9.39,5.97
			c0.01,0-0.03-0.01-0.13-0.04C9.17,5.91,9.08,5.87,9,5.84C8.92,5.8,8.75,5.76,8.49,5.72C8.24,5.68,8.06,5.66,7.97,5.66
			c-0.09,0-0.16,0-0.2,0c-0.04,0-0.11,0-0.2,0c-0.09,0-0.13,0-0.11-0.01c0.01,0,0.01,0,0,0c-0.01,0-0.01,0,0.02,0
			c0.02,0-0.03-0.04-0.16-0.11C7.17,5.46,7.07,5.42,7,5.41C6.92,5.4,6.86,5.38,6.8,5.35C6.73,5.33,6.7,5.31,6.7,5.31c0,0,0,0,0,0
			c0,0.01-0.01,0-0.04-0.02c-0.03-0.02-0.13-0.12-0.32-0.3c-0.18-0.18-0.28-0.28-0.29-0.3"/>
		<path id="STROKE_067cb214-3ef8-4f12-867d-0b4f6bc7ad23" class="st0" d="M19.85,7.21C19.84,7.24,19.84,7.24,19.85,7.21
			c0.02-0.01,0.01,0-0.02,0.04c-0.03,0.04-0.05,0.13-0.07,0.27c-0.01,0.14-0.02,0.24-0.02,0.3c0,0.06,0,0.11,0.01,0.15
			c0,0.04,0.01,0.08,0.02,0.12c0.01,0.04,0.05,0.17,0.14,0.39c0.08,0.22,0.15,0.42,0.21,0.58c0.06,0.17,0.12,0.29,0.18,0.37
			c0.06,0.08,0.15,0.22,0.25,0.43c0.1,0.2,0.22,0.45,0.37,0.74c0.14,0.29,0.25,0.5,0.33,0.62c0.08,0.12,0.14,0.21,0.19,0.27
			c0.05,0.06,0.1,0.11,0.14,0.16c0.05,0.05,0.07,0.07,0.06,0.06c0,0-0.01-0.01-0.01-0.02c0-0.01,0.04,0.05,0.13,0.19
			c0.09,0.13,0.19,0.28,0.31,0.44c0.12,0.16,0.34,0.4,0.67,0.73c0.33,0.33,0.59,0.59,0.78,0.77c0.19,0.18,0.4,0.41,0.63,0.68
			c0.22,0.27,0.4,0.51,0.52,0.71c0.13,0.2,0.24,0.35,0.33,0.45c0.1,0.1,0.16,0.17,0.19,0.21c0.03,0.04,0.13,0.12,0.28,0.25
			c0.15,0.13,0.34,0.29,0.58,0.48c0.23,0.2,0.4,0.36,0.52,0.49c0.11,0.13,0.22,0.23,0.33,0.3c0.11,0.07,0.19,0.12,0.25,0.15
			c0.06,0.03,0.11,0.06,0.15,0.08c0.05,0.03,0.1,0.06,0.17,0.11c0.06,0.05,0.19,0.16,0.39,0.33c0.2,0.17,0.46,0.36,0.78,0.56
			c0.33,0.2,0.59,0.4,0.8,0.59c0.21,0.19,0.39,0.34,0.54,0.45c0.15,0.11,0.3,0.25,0.45,0.42c0.15,0.17,0.39,0.34,0.73,0.51
			c0.33,0.17,0.59,0.29,0.77,0.36c0.18,0.07,0.39,0.18,0.65,0.34c0.25,0.16,0.44,0.28,0.55,0.36c0.11,0.08,0.27,0.19,0.46,0.34
			c0.19,0.15,0.39,0.26,0.59,0.34c0.2,0.08,0.37,0.15,0.5,0.18c0.13,0.04,0.43,0.15,0.9,0.34c0.47,0.19,0.86,0.34,1.17,0.46
			c0.31,0.12,0.52,0.19,0.64,0.21c0.12,0.02,0.24,0.04,0.35,0.06c0.11,0.01,0.22,0.03,0.34,0.05c0.11,0.02,0.2,0.04,0.26,0.06
			c0.06,0.02,0.11,0.03,0.13,0.04c0.02,0.01,0.11,0.04,0.26,0.09c0.15,0.05,0.27,0.09,0.38,0.13c0.1,0.04,0.19,0.06,0.25,0.08
			c0.06,0.01,0.12,0.03,0.16,0.04c0.04,0.01,0.3,0.06,0.77,0.14c0.47,0.08,0.83,0.14,1.08,0.17c0.25,0.03,0.44,0.04,0.59,0.04
			c0.15,0,0.26,0,0.35,0.01c0.08,0.01,0.29,0.01,0.61,0.02c0.32,0.01,0.6,0.01,0.85,0.01c0.24,0,0.42,0,0.52,0c0.1,0,0.19,0,0.27,0
			c0.08,0,0.13,0,0.16,0.01c0.03,0,0.06,0,0.07,0c0.01,0,0.04,0,0.07,0c0.04,0,0.05,0,0.05,0c0,0,0,0-0.01,0c-0.01,0,0.03,0,0.12,0
			c0.09,0,0.18-0.01,0.29-0.03c0.11-0.02,0.19-0.03,0.25-0.04c0.06-0.01,0.09-0.01,0.1-0.02c0.01,0,0.04-0.01,0.1-0.01
			c0.06-0.01,0.25-0.04,0.58-0.11c0.33-0.07,0.62-0.14,0.88-0.23c0.26-0.08,0.45-0.15,0.57-0.19c0.12-0.05,0.18-0.08,0.2-0.09
			c0.02-0.01,0.03-0.02,0.03-0.02c0,0,0.01,0,0.03-0.01c0.02-0.01,0.05-0.03,0.1-0.06c0.05-0.03,0.07-0.04,0.06-0.04
			c-0.01,0.01-0.01,0.01-0.01,0.01c0.01,0,0.03-0.02,0.08-0.06c0.05-0.04,0.1-0.07,0.15-0.11c0.06-0.04,0.1-0.08,0.12-0.11
			c0.03-0.03,0.04-0.04,0.04-0.04c0,0-0.01,0.01-0.01,0.02c0,0.01,0.01-0.02,0.04-0.08c0.01,0.01,0.03-0.03,0.07-0.11
			c0.04-0.08,0.07-0.15,0.08-0.2c0.02-0.05,0.04-0.1,0.05-0.13c0.02-0.03,0.02-0.05,0.02-0.06c0,0,0-0.01,0.01-0.02
			c0.01-0.01,0.03-0.07,0.08-0.18c0.05-0.11,0.11-0.28,0.17-0.51c0.06-0.22,0.12-0.39,0.17-0.51c0.05-0.12,0.09-0.2,0.13-0.26
			c0.03-0.06,0.06-0.1,0.07-0.12c0.01-0.03,0.03-0.06,0.04-0.09c0.01-0.04,0.02-0.04,0.01-0.01c-0.01,0.03,0.02-0.03,0.1-0.17
			c0.08-0.14,0.13-0.27,0.17-0.38c0.03-0.11,0.06-0.19,0.08-0.25c0.02-0.06,0.04-0.11,0.05-0.15c0.01-0.04,0.02-0.04,0.01-0.02
			c-0.01,0.03,0.01-0.02,0.05-0.13c0.04-0.12,0.06-0.2,0.07-0.25c0.01-0.05,0.01-0.09,0.01-0.11c0-0.02,0-0.03,0.01-0.04
			c0-0.01,0-0.04,0.01-0.11c0.01-0.06,0.01-0.11,0.02-0.16c0-0.04,0.01-0.11,0.02-0.19c0.01-0.09,0.03-0.18,0.05-0.26
			c0.02-0.09,0.04-0.16,0.05-0.22c0.01-0.06,0.02-0.1,0.03-0.13c0.01-0.03,0.02-0.08,0.03-0.15c0.01-0.07,0.03-0.12,0.04-0.17
			c0.01-0.05,0.02-0.08,0.02-0.11c0.01-0.03,0-0.02,0,0.01c-0.01,0.03,0-0.01,0.01-0.13c0.02-0.12,0.04-0.25,0.07-0.37
			c0.03-0.12,0.05-0.24,0.06-0.34c0.01-0.1,0.02-0.18,0.02-0.23c0-0.05,0-0.1,0-0.15c0-0.05,0-0.07,0-0.07c0,0,0-0.03,0-0.08
			c0-0.05,0-0.12,0-0.19c0-0.07,0-0.18,0-0.32c0-0.14,0-0.23,0-0.28c0-0.05-0.01-0.08-0.02-0.12c-0.01-0.03-0.01-0.06-0.01-0.06
			c0-0.01-0.01-0.04-0.02-0.1c-0.01-0.06-0.02-0.11-0.04-0.16c-0.01-0.04-0.04-0.12-0.07-0.23c-0.04-0.11-0.06-0.2-0.08-0.25
			c-0.02-0.06-0.03-0.1-0.04-0.11c-0.01-0.02-0.01-0.04-0.02-0.06c-0.01-0.02-0.02-0.04-0.03-0.07c-0.01-0.03-0.02-0.07-0.04-0.12
			c-0.02-0.05-0.02-0.07-0.01-0.05c0.01,0.02,0-0.02-0.04-0.11c-0.04-0.09-0.09-0.18-0.15-0.28c-0.06-0.09-0.1-0.17-0.13-0.22
			c-0.03-0.05-0.05-0.1-0.07-0.14c-0.02-0.04-0.03-0.07-0.03-0.07c0,0,0,0,0,0c0,0.01,0,0,0-0.02c0-0.02-0.04-0.08-0.1-0.19
			c-0.06-0.11-0.1-0.2-0.12-0.26s-0.04-0.11-0.06-0.15c-0.02-0.04-0.03-0.07-0.03-0.08c0-0.01,0,0,0.01,0.02
			c0.01,0.02-0.02-0.02-0.07-0.11c-0.06-0.09-0.1-0.16-0.12-0.21c-0.02-0.04-0.05-0.09-0.09-0.15c-0.04-0.05-0.07-0.09-0.09-0.12
			c-0.02-0.03-0.04-0.04-0.04-0.05c-0.01-0.01-0.01-0.01-0.01-0.02c0,0-0.02-0.03-0.05-0.08c-0.03-0.05-0.04-0.07-0.05-0.08
			c0-0.01-0.01-0.01-0.02-0.02c-0.01-0.01-0.01-0.01,0,0.01c0.01,0.01-0.01-0.02-0.05-0.11c-0.04-0.08-0.09-0.16-0.14-0.23
			c-0.05-0.07-0.09-0.13-0.13-0.17c-0.04-0.04-0.06-0.06-0.06-0.07s0-0.01-0.01-0.01c-0.01-0.01-0.02-0.02-0.03-0.05
			c-0.02-0.02-0.03-0.04-0.03-0.04c0,0,0,0,0.01,0.01c0,0.01-0.01-0.01-0.05-0.07c-0.04-0.06-0.07-0.12-0.11-0.18
			c-0.04-0.06-0.06-0.1-0.08-0.13c-0.02-0.02-0.03-0.04-0.02-0.03c0,0,0,0,0,0c0-0.01-0.02-0.03-0.05-0.06
			c-0.03-0.03-0.04-0.06-0.05-0.07c-0.01-0.01-0.01-0.02-0.01-0.02c0,0,0,0.01,0.01,0.01c0,0.01,0,0-0.01-0.01
			c-0.01-0.01,0-0.01,0.01,0.01c0.01,0.02,0,0-0.02-0.04c-0.02-0.04-0.06-0.1-0.11-0.18c-0.05-0.08-0.07-0.11-0.06-0.1
			c0.01,0.02,0.01,0.02,0.01,0.02c0,0-0.03-0.04-0.08-0.1c-0.06-0.06-0.07-0.07-0.03-0.03c0.03,0.04-0.01,0-0.13-0.14
			c-0.12-0.13-0.22-0.24-0.29-0.32c-0.08-0.08-0.17-0.15-0.29-0.21c-0.12-0.06-0.2-0.1-0.23-0.12c-0.03-0.02-0.07-0.05-0.12-0.08
			c-0.05-0.03-0.08-0.06-0.11-0.07c-0.03-0.02-0.03-0.02-0.02-0.02c0.01,0.01-0.01-0.02-0.07-0.07c-0.06-0.05-0.13-0.09-0.22-0.11
			c-0.09-0.02-0.19-0.08-0.32-0.18c-0.13-0.1-0.21-0.17-0.25-0.22c-0.04-0.05-0.08-0.09-0.13-0.12c-0.04-0.03-0.06-0.05-0.06-0.04
			c0,0,0.01,0,0.01,0c0,0,0,0-0.01,0c-0.01,0-0.03-0.01-0.06-0.03c-0.04-0.02-0.05-0.02-0.05-0.02c0,0,0,0,0,0
			c0,0-0.01-0.01-0.05-0.02c-0.03-0.02-0.07-0.03-0.09-0.05c-0.03-0.02-0.04-0.03-0.04-0.03c0,0,0,0,0,0c0,0-0.02-0.01-0.05-0.04
			s-0.04-0.03-0.05-0.03c0,0-0.02,0-0.04,0c-0.02-0.01-0.02-0.01,0-0.02c0.02-0.01-0.1-0.03-0.36-0.09
			c-0.26-0.05-0.45-0.08-0.58-0.09c-0.12-0.01-0.24-0.01-0.34-0.02c-0.11-0.01-0.19-0.02-0.24-0.05c-0.05-0.03-0.1-0.04-0.15-0.05
			c-0.04-0.01-0.06-0.01-0.06-0.01c0,0,0.01,0,0.01,0c0.01,0-0.03-0.02-0.12-0.05c-0.09-0.03-0.12-0.05-0.1-0.04
			c0.02,0.01,0.04,0.01,0.07,0.02c0-0.13,0-0.17,0-0.15c0-0.13,0-0.18,0-0.16c0-0.04,0-0.39,0-1.07c-0.01-0.68-0.01-1.19-0.03-1.53
			c-0.01-0.34-0.02-0.68-0.03-1.02c-0.01-0.34-0.01-0.59-0.01-0.75c0-0.17,0-0.3,0-0.41c0-0.11,0-0.19,0-0.24c0-0.05,0-0.09,0-0.12
			c0-0.03,0-0.05,0-0.07c0-0.02,0-0.03,0-0.04c0-0.01,0-0.02,0-0.02c0,0,0-0.02,0.02-0.05c0.01-0.03,0.02-0.14,0.02-0.31
			c0-0.17,0-0.32-0.02-0.45c-0.02-0.13-0.02-0.22-0.02-0.27c0-0.05,0-0.07,0-0.07c0,0,0,0.01,0.01,0.02
			c0.01,0.01-0.01-0.08-0.07-0.28c-0.1-0.02-0.15-0.03-0.14-0.03c0,0,0.01,0,0.01,0c-0.05-0.06-0.08-0.08-0.06-0.07
			c-0.05-0.05-0.07-0.07-0.05-0.06c0,0,0,0-0.02,0c-0.01,0-0.02,0-0.01,0c0,0,0,0-0.02,0c-0.02,0-0.03-0.01-0.05-0.01
			c-0.02,0-0.02-0.01-0.02-0.01c0,0-0.01,0-0.02-0.01c-0.02,0-0.02,0,0,0c0.01,0-0.01-0.01-0.08-0.02c-0.07-0.01-0.1-0.02-0.09-0.02
			c0.01,0-0.02,0-0.08-0.01c-0.06-0.01-0.09-0.01-0.07-0.01c0.01,0,0.02,0,0.02,0c0,0-0.01,0-0.02,0c-0.01,0-0.01,0,0,0
			c0.01,0-0.08-0.01-0.28-0.04C41.93,1.01,41.77,1,41.64,1c-0.12,0-0.21,0.01-0.25,0.03c-0.05,0.02-0.09,0.03-0.12,0.04
			c-0.04,0.01-0.05,0.02-0.04,0.02c0.01,0-0.04,0.01-0.15,0.03c-0.11,0.03-0.22,0.06-0.32,0.09c-0.1,0.04-0.18,0.07-0.23,0.1
			c-0.05,0.03-0.1,0.05-0.14,0.07c-0.04,0.02-0.09,0.05-0.16,0.08c-0.07,0.03-0.15,0.06-0.24,0.1c-0.09,0.04-0.16,0.07-0.22,0.11
			c-0.06,0.03-0.09,0.06-0.1,0.07c-0.01,0.01-0.05,0.04-0.11,0.08c-0.06,0.04-0.12,0.07-0.16,0.09C39.34,1.92,39.26,1.95,39.15,2
			c-0.11,0.05-0.2,0.08-0.26,0.11c-0.06,0.03-0.11,0.05-0.13,0.06c-0.03,0.01-0.07,0.03-0.11,0.05c-0.05,0.02-0.07,0.03-0.08,0.03
			c0,0-0.01,0-0.03,0.01c-0.01,0-0.03,0.01-0.06,0.02c-0.03,0.01-0.04,0.01-0.04,0.01c0.01,0-0.01,0-0.06,0.01
			c-0.04,0.01-0.12,0.03-0.22,0.05c-0.1,0.02-0.23,0.07-0.39,0.15c-0.16,0.08-0.27,0.13-0.34,0.17c-0.07,0.04-0.13,0.07-0.18,0.1
			c-0.05,0.03-0.08,0.04-0.11,0.05c-0.02,0.01-0.05,0.02-0.08,0.04c-0.03,0.02-0.14,0.1-0.33,0.25c-0.19,0.15-0.34,0.25-0.46,0.31
			c-0.11,0.06-0.19,0.1-0.23,0.13c-0.04,0.03-0.08,0.05-0.11,0.07c-0.03,0.02-0.04,0.03-0.04,0.03c0,0-0.01,0.01-0.05,0.03
			c-0.03,0.02-0.06,0.05-0.09,0.06c-0.03,0.02-0.04,0.03-0.04,0.02c0,0-0.02,0.01-0.06,0.04c-0.04,0.03-0.08,0.05-0.12,0.06
			c-0.04,0.01-0.12,0.08-0.27,0.21c-0.14,0.13-0.25,0.24-0.32,0.31c-0.07,0.08-0.12,0.12-0.16,0.13c-0.03,0.01-0.09,0.05-0.16,0.12
			c-0.07,0.07-0.12,0.13-0.14,0.16c-0.02,0.03-0.04,0.07-0.05,0.1C34.44,4.94,34.4,5,34.34,5.09c-0.06,0.09-0.11,0.15-0.15,0.18
			c-0.04,0.03-0.08,0.08-0.12,0.15C34.03,5.49,34,5.55,33.98,5.61c-0.02,0.06-0.03,0.09-0.03,0.08c0,0,0,0,0,0c0,0,0,0,0,0.01
			c0,0.01-0.01,0.04-0.03,0.08c-0.02,0.05-0.04,0.1-0.07,0.15c-0.02,0.05-0.03,0.07-0.03,0.06c0.01-0.02,0,0-0.03,0.05h0
			c0,0,0,0.01,0,0.01c-0.13,0-0.18,0-0.13,0c-0.14,0-0.19,0-0.14,0c-0.12,0-0.16,0-0.12,0c-0.09,0-0.13,0-0.14,0c0,0-0.01,0,0,0
			c0.07,0.01-0.06-0.02-0.39-0.08c-0.33-0.06-0.64-0.1-0.92-0.12c-0.29-0.02-0.51-0.03-0.68-0.04c-0.16-0.01-0.27-0.03-0.33-0.05
			c-0.06-0.02-0.09-0.04-0.11-0.04c-0.02,0-0.04-0.01-0.06-0.02c-0.02-0.01-0.05-0.01-0.08-0.02c-0.03-0.01-0.05-0.01-0.05-0.01
			c0,0,0,0-0.01,0c-0.01,0-0.01,0,0.01,0.01c0.02,0.01-0.05,0-0.21-0.03c-0.16-0.03-0.3-0.05-0.41-0.06
			c-0.11-0.01-0.19-0.02-0.25-0.02c-0.06,0-0.1,0-0.15,0c-0.04,0-0.07,0-0.08,0c-0.01,0-0.03,0-0.05,0c-0.02,0-0.06,0-0.13,0
			c-0.06,0-0.19,0-0.38,0.01C28.8,5.6,28.61,5.6,28.42,5.6c-0.19,0-0.35,0.01-0.46,0.02c-0.11,0.01-0.2,0.02-0.25,0.02
			c-0.05,0-0.1,0-0.14,0c-0.04,0-0.06,0-0.07,0c-0.01,0-0.02,0-0.02,0c0,0-0.02,0-0.06,0c-0.04,0-0.1,0-0.18,0
			c-0.08,0-0.26,0.02-0.55,0.04c-0.28,0.03-0.48,0.06-0.59,0.08c-0.11,0.02-0.24,0.05-0.39,0.07c-0.16,0.02-0.28,0.05-0.38,0.08
			c-0.1,0.03-0.19,0.06-0.28,0.09c-0.09,0.03-0.16,0.05-0.22,0.05c-0.06,0.01-0.11,0.02-0.15,0.02c-0.04,0.01-0.05,0.01-0.05,0.01
			c0,0-0.01,0-0.03,0.01c-0.03,0.01-0.09,0.02-0.2,0.05c-0.1,0.03-0.27,0.06-0.49,0.09c-0.22,0.03-0.41,0.06-0.57,0.07
			C23.19,6.32,23.07,6.32,23,6.32c-0.07,0-0.16,0-0.28-0.01c-0.12-0.01-0.24,0-0.38,0.01c-0.14,0.01-0.23,0.03-0.28,0.04
			c-0.05,0.02-0.09,0.03-0.13,0.02c-0.03,0-0.05,0-0.05,0c0,0,0,0,0,0c0,0-0.03,0-0.06,0c-0.04,0-0.06,0-0.06,0c0,0,0,0-0.01,0
			c-0.01,0,0,0,0.01-0.01c0.02,0-0.06,0.02-0.23,0.08c-0.17,0.06-0.3,0.1-0.39,0.12c-0.09,0.02-0.16,0.04-0.22,0.05
			c-0.06,0.01-0.09,0.02-0.1,0.02c0,0-0.02,0.01-0.05,0.02c-0.03,0.01-0.06,0.02-0.08,0.03c-0.02,0.01-0.03,0.01-0.02,0.01
			c0.01,0,0.01,0,0.01,0c0,0-0.02,0-0.04,0c-0.02,0-0.24,0.08-0.65,0.24c0.02,0.08,0.06,0.13,0.12,0.16
			c0.05,0.03,0.1,0.05,0.15,0.08"/>
	</g>
	<g id="New_Layer_9">
		<path id="STROKE_a63c2fc4-0bc6-4e77-8d7e-1eed7d4358d2" class="st2" d="M6.2,5.32L6.18,5.35L6.16,5.5c0,0,0,0.47-0.01,1.4
			c-0.01,0.94-0.01,1.77,0,2.49c0,0.72,0.01,1.2,0.02,1.44c0.01,0.24,0.03,0.52,0.05,0.83c0.02,0.32,0.05,0.59,0.07,0.81
			c0.02,0.23,0.11,0.7,0.26,1.42L6.5,13.98L6.4,14.1l-0.11,0.12c-0.02,0.03-0.16,0.19-0.44,0.47c-0.27,0.28-0.51,0.55-0.7,0.8
			c-0.2,0.25-0.35,0.45-0.46,0.6c-0.11,0.15-0.18,0.26-0.23,0.32c-0.04,0.07-0.06,0.1-0.07,0.1c0,0-0.04,0.07-0.13,0.21
			c-0.08,0.14-0.2,0.3-0.34,0.48c-0.14,0.18-0.25,0.32-0.31,0.41c-0.06,0.1-0.1,0.16-0.12,0.19c-0.02,0.03-0.03,0.05-0.04,0.08
			c-0.01,0.02-0.02,0.04-0.02,0.04c0,0-0.05,0.09-0.15,0.25c-0.1,0.16-0.22,0.42-0.35,0.77c-0.13,0.35-0.22,0.64-0.28,0.89
			c-0.05,0.25-0.09,0.41-0.12,0.51c-0.02,0.09-0.05,0.21-0.08,0.37c-0.03,0.15-0.04,0.23-0.04,0.23c0,0,0,0.11,0,0.32
			c0,0.21-0.02,0.53-0.05,0.95c-0.03,0.42-0.04,0.69-0.04,0.8c0.01,0.11,0,0.31-0.01,0.58c-0.01,0.27,0,0.57,0.04,0.88
			c0.04,0.32,0.08,0.56,0.12,0.74c0.04,0.18,0.07,0.28,0.07,0.29c0,0.02,0.03,0.12,0.09,0.3c0.06,0.19,0.12,0.35,0.19,0.49
			c0.06,0.14,0.13,0.3,0.2,0.46c0.07,0.16,0.15,0.32,0.23,0.46c0.08,0.15,0.12,0.22,0.13,0.23c0.01,0.01,0.01,0.01,0,0.01
			c0,0,0.12,0.19,0.37,0.58c0.26,0.39,0.49,0.72,0.69,1c0.2,0.28,0.37,0.5,0.49,0.65c0.12,0.16,0.22,0.29,0.31,0.39
			c0.08,0.1,0.15,0.17,0.19,0.21c0.04,0.04,0.07,0.06,0.09,0.08c0.02,0.01,0.05,0.04,0.11,0.1c0.06,0.05,0.14,0.14,0.24,0.25
			c0.11,0.12,0.16,0.18,0.16,0.18c0,0,0.03,0.04,0.09,0.11c0.06,0.07,0.13,0.14,0.21,0.21c0.08,0.06,0.14,0.11,0.18,0.14
			c0.04,0.03,0.15,0.1,0.33,0.21c0.18,0.11,0.29,0.18,0.33,0.21c0.04,0.03,0.15,0.08,0.33,0.16c0.18,0.08,0.31,0.13,0.4,0.16
			c0.09,0.03,0.16,0.06,0.2,0.07c0.04,0.01,0.09,0.03,0.16,0.06c0.07,0.03,0.27,0.13,0.6,0.31c0.33,0.18,0.58,0.31,0.76,0.4
			c0.17,0.09,0.31,0.16,0.39,0.2c0.09,0.04,0.15,0.08,0.2,0.1c0.04,0.02,0.08,0.04,0.1,0.05c0.03,0.01,0.04,0.02,0.04,0.02
			c0,0,0.08,0.05,0.23,0.14c0.15,0.1,0.29,0.18,0.42,0.25c0.14,0.07,0.25,0.12,0.34,0.14c0.09,0.02,0.17,0.04,0.24,0.05
			c0.07,0.01,0.15,0.03,0.23,0.05c0.08,0.02,0.35,0.09,0.81,0.22c0.46,0.13,0.88,0.23,1.26,0.29c0.38,0.07,0.67,0.11,0.88,0.12
			c0.21,0.02,0.34,0.03,0.41,0.03c0.06,0.01,0.13,0.02,0.2,0.02c0.07,0.01,0.11,0.01,0.11,0.01c0,0,0.15,0.01,0.44,0.04
			c0.29,0.03,0.79,0.06,1.51,0.08c0.71,0.03,1.25,0.05,1.61,0.05c0.36,0.01,0.61,0.02,0.75,0.04c0.14,0.02,0.24,0.03,0.31,0.03
			c0.06,0,0.11,0,0.13,0c0.03,0,0.07,0,0.12,0c0.05,0,0.16,0,0.33,0c0.17,0,0.33,0.01,0.48,0.02c0.15,0.01,0.28,0.03,0.4,0.04
			c0.11,0.02,0.21,0.03,0.29,0.04c0.08,0.01,0.21,0.02,0.38,0.03c0.17,0.01,0.32,0.02,0.46,0.03c0.13,0.01,0.26,0.02,0.37,0.03
			c0.12,0.01,0.21,0.03,0.28,0.04c0.07,0.01,0.13,0.02,0.17,0.02c0.04,0,0.09,0,0.16,0.01c0.07,0,0.1,0,0.11,0c0,0,0.07,0,0.2,0
			c0.13,0,0.23,0,0.32,0c0.08,0,0.15-0.01,0.18-0.01c0.04,0,0.07-0.01,0.09-0.01c0.02,0,0.08-0.01,0.18-0.01
			c0.09-0.01,0.19-0.02,0.28-0.03c0.09-0.01,0.2-0.03,0.32-0.05c0.12-0.02,0.18-0.04,0.19-0.04c0,0,0.08-0.01,0.23-0.04
			c0.15-0.02,0.47-0.05,0.97-0.09c0.5-0.04,0.88-0.08,1.15-0.12c0.27-0.04,0.47-0.07,0.59-0.08c0.12-0.01,0.22-0.03,0.3-0.05
			c0.08-0.02,0.14-0.03,0.18-0.04c0.04-0.01,0.12-0.03,0.25-0.07c0.13-0.04,0.27-0.06,0.41-0.08c0.15-0.02,0.29-0.04,0.43-0.05
			c0.14-0.01,0.32-0.04,0.55-0.08c0.22-0.04,0.38-0.07,0.46-0.09c0.08-0.02,0.12-0.02,0.11-0.01c-0.01,0.01,0.15-0.03,0.48-0.12
			c0.33-0.09,0.58-0.17,0.77-0.24c0.18-0.07,0.33-0.13,0.44-0.18c0.11-0.05,0.18-0.08,0.21-0.09c0.03-0.01,0.29-0.11,0.79-0.28
			c0.5-0.18,0.95-0.32,1.37-0.43c0.41-0.11,0.71-0.19,0.9-0.25c0.18-0.05,0.35-0.11,0.49-0.15c0.14-0.05,0.22-0.07,0.22-0.07
			c0,0,0.11-0.03,0.31-0.08c0.2-0.05,0.5-0.16,0.89-0.33c0.39-0.17,0.77-0.35,1.15-0.53c0.38-0.18,0.66-0.31,0.84-0.38
			c0.18-0.07,0.3-0.12,0.36-0.14c0.05-0.03,0.13-0.06,0.24-0.11c0.11-0.05,0.17-0.07,0.18-0.08c0.02-0.01,0.14-0.06,0.37-0.15
			c0.23-0.09,0.4-0.17,0.51-0.22c0.11-0.05,0.18-0.09,0.23-0.12c0.05-0.03,0.12-0.07,0.2-0.13c0.09-0.06,0.13-0.09,0.13-0.09
			c0,0,0.04-0.03,0.11-0.09c0.07-0.06,0.14-0.11,0.19-0.15c0.05-0.04,0.1-0.09,0.15-0.13c0.05-0.04,0.1-0.09,0.15-0.14
			c0.05-0.05,0.15-0.15,0.31-0.31c0.16-0.16,0.29-0.28,0.38-0.36c0.09-0.08,0.15-0.12,0.17-0.14c0.02-0.01,0.06-0.04,0.12-0.09
			c0.06-0.05,0.12-0.1,0.18-0.14c0.06-0.05,0.12-0.1,0.18-0.15s0.12-0.11,0.17-0.15c0.05-0.04,0.07-0.06,0.07-0.06
			c0,0,0.05-0.04,0.15-0.12c0.1-0.08,0.21-0.16,0.32-0.24c0.11-0.08,0.2-0.15,0.28-0.22c0.08-0.06,0.12-0.1,0.13-0.11
			c0.01-0.01,0.18-0.15,0.51-0.42c0.33-0.28,0.59-0.52,0.78-0.73c0.19-0.21,0.32-0.36,0.38-0.45c0.06-0.09,0.13-0.19,0.2-0.3
			c0.07-0.11,0.16-0.24,0.24-0.38c0.09-0.14,0.13-0.21,0.14-0.21c0,0,0.01-0.03,0.04-0.07c0.02-0.05,0.03-0.07,0.04-0.08
			c0,0,0.04-0.09,0.13-0.25c0.08-0.16,0.18-0.33,0.28-0.5c0.1-0.18,0.19-0.32,0.25-0.44c0.07-0.12,0.13-0.22,0.19-0.32
			c0.06-0.09,0.1-0.17,0.14-0.24c0.04-0.06,0.11-0.18,0.21-0.36c0.1-0.17,0.17-0.31,0.22-0.4c0.05-0.09,0.08-0.16,0.11-0.2
			c0.02-0.04,0.06-0.11,0.1-0.19c0.04-0.08,0.07-0.15,0.1-0.21c0.02-0.06,0.05-0.12,0.08-0.2c0.03-0.08,0.06-0.16,0.09-0.25
			c0.03-0.09,0.05-0.14,0.05-0.14c0-0.01,0.01-0.03,0.03-0.08c0.02-0.05,0.02-0.07,0.02-0.07c0,0,0.03-0.11,0.09-0.33
			c0.06-0.21,0.14-0.52,0.25-0.92c0.11-0.4,0.18-0.69,0.22-0.89c0.04-0.19,0.06-0.35,0.08-0.46c0.02-0.11,0.03-0.18,0.03-0.2
			c0-0.02,0.01-0.06,0.03-0.1c0.01-0.04,0.03-0.33,0.05-0.86c0.02-0.53,0.03-0.94,0.02-1.22c-0.01-0.28-0.03-0.47-0.05-0.58
			c-0.02-0.11-0.03-0.17-0.04-0.2c-0.01-0.02-0.02-0.08-0.04-0.18c-0.02-0.09-0.06-0.21-0.11-0.36c-0.05-0.15-0.1-0.25-0.14-0.32
			c-0.04-0.07-0.08-0.14-0.12-0.2c-0.04-0.06-0.09-0.14-0.15-0.24c-0.06-0.1-0.1-0.15-0.1-0.16c0-0.01-0.04-0.06-0.11-0.17
			c-0.07-0.11-0.17-0.26-0.3-0.46c-0.13-0.19-0.26-0.38-0.37-0.57c-0.12-0.18-0.21-0.32-0.27-0.41c-0.06-0.09-0.11-0.16-0.15-0.21
			c-0.04-0.06-0.07-0.1-0.09-0.14c-0.02-0.04-0.07-0.11-0.13-0.21c-0.06-0.1-0.12-0.19-0.17-0.28c-0.05-0.09-0.09-0.17-0.14-0.24
			c-0.04-0.08-0.07-0.12-0.08-0.14c-0.01-0.02-0.07-0.12-0.19-0.3c-0.12-0.18-0.21-0.32-0.28-0.41c-0.07-0.09-0.13-0.16-0.17-0.21
			c-0.04-0.05-0.08-0.09-0.1-0.11c-0.02-0.02-0.05-0.05-0.1-0.1c-0.05-0.05-0.12-0.11-0.21-0.18c-0.1-0.08-0.21-0.16-0.35-0.26
			c-0.14-0.1-0.29-0.18-0.45-0.26c-0.16-0.08-0.28-0.14-0.36-0.17c-0.08-0.04-0.19-0.08-0.33-0.13c-0.14-0.05-0.35-0.13-0.63-0.24
			c-0.27-0.11-0.45-0.17-0.54-0.21c-0.09-0.03-0.13-0.05-0.13-0.05c0,0-0.04-0.01-0.11-0.03c-0.07-0.02-0.12-0.03-0.13-0.04
			c-0.01,0-0.05-0.02-0.12-0.04c-0.06-0.02-0.13-0.05-0.2-0.1c-0.02-3.42-0.04-5.15-0.04-5.19c0-0.04,0-0.19,0.01-0.47
			c0.01-0.27-0.02-0.63-0.07-1.06c-0.1-0.1-0.16-0.16-0.19-0.17s-0.04-0.02-0.05-0.02c-0.01,0-0.05,0-0.12-0.01
			c-0.07-0.01-0.11-0.01-0.11-0.01c0,0-0.03,0-0.07,0c-0.05,0-0.08,0-0.09,0c-0.01,0-0.02,0-0.02,0c0,0-0.09,0.01-0.28,0.03
			c-0.18,0.03-0.33,0.05-0.44,0.07c-0.11,0.02-0.23,0.04-0.36,0.07c-0.13,0.03-0.24,0.05-0.31,0.06c-0.08,0.01-0.2,0.03-0.38,0.06
			c-0.17,0.03-0.35,0.07-0.53,0.11c-0.18,0.05-0.31,0.08-0.38,0.1c-0.08,0.02-0.14,0.04-0.21,0.05c-0.06,0.01-0.11,0.02-0.15,0.03
			c-0.04,0.01-0.09,0.02-0.14,0.03c-0.05,0.01-0.08,0.02-0.08,0.02c0,0-0.04,0.01-0.11,0.04c-0.07,0.02-0.13,0.05-0.17,0.07
			c-0.05,0.02-0.09,0.04-0.14,0.07c-0.05,0.03-0.1,0.05-0.14,0.08C38.79,1.99,38.77,2,38.77,2c0,0-0.04,0.02-0.1,0.06
			c-0.06,0.04-0.13,0.09-0.21,0.15c-0.08,0.06-0.15,0.11-0.22,0.17c-0.07,0.05-0.15,0.11-0.23,0.17c-0.08,0.06-0.14,0.1-0.18,0.13
			c-0.04,0.03-0.11,0.07-0.23,0.14c-0.11,0.07-0.17,0.1-0.17,0.1c0,0-0.06,0.03-0.18,0.1c-0.12,0.07-0.29,0.17-0.5,0.3
			c-0.22,0.13-0.37,0.22-0.45,0.27c-0.08,0.04-0.16,0.08-0.24,0.12c-0.08,0.04-0.15,0.08-0.22,0.11c-0.07,0.03-0.14,0.07-0.22,0.13
			C35.53,4,35.46,4.05,35.4,4.1c-0.06,0.05-0.12,0.1-0.19,0.16c-0.06,0.06-0.1,0.09-0.1,0.09c0,0-0.05,0.04-0.13,0.12
			c-0.08,0.08-0.15,0.15-0.2,0.21c-0.05,0.06-0.09,0.11-0.11,0.14c-0.02,0.03-0.06,0.09-0.11,0.17c-0.06,0.08-0.08,0.12-0.09,0.13
			c0,0.01-0.01,0.01-0.01,0.02c-0.01,0-0.05,0.09-0.12,0.26c-0.08,0.17-0.13,0.29-0.15,0.35c-0.02,0.07-0.05,0.12-0.06,0.18
			C34.1,5.98,34.06,6.06,34,6.17c-0.01,0.01-0.03-0.01-0.07-0.04c-0.04-0.03-0.08-0.08-0.12-0.15"/>
		<path id="STROKE_165ea50f-1d6b-4281-bbe6-2cad14612131" class="st2" d="M5.99,4.79c-0.01,0.01,0,0.06,0.03,0.14
			c-0.01,0,0.18,0.04,0.55,0.11C6.94,5.12,7.29,5.18,7.62,5.2c0.33,0.03,0.6,0.06,0.8,0.09c0.2,0.03,0.35,0.05,0.45,0.06
			c0.1,0.01,0.22,0.03,0.37,0.07C9.4,5.46,9.5,5.49,9.55,5.52C9.6,5.54,9.69,5.58,9.81,5.65c0.12,0.07,0.22,0.12,0.3,0.16
			c0.08,0.04,0.12,0.06,0.12,0.06c0,0,0.02,0.01,0.06,0.01c0.04,0.01,0.13,0.05,0.29,0.12c0.16,0.08,0.28,0.15,0.38,0.21
			c0.09,0.06,0.21,0.13,0.35,0.2c0.14,0.07,0.24,0.12,0.3,0.14c0.06,0.03,0.1,0.04,0.1,0.05l0.13,0.06
			c0.04,0.03,0.07,0.04,0.06,0.03c0-0.01,0.11,0.06,0.34,0.22c0.23,0.15,0.45,0.32,0.64,0.48c0.2,0.17,0.34,0.29,0.42,0.36
			c0.08,0.08,0.15,0.13,0.2,0.17c0.05,0.04,0.1,0.07,0.14,0.11c0.04,0.04,0.09,0.07,0.13,0.1c0.04,0.03,0.1,0.08,0.17,0.13
			c0.07,0.05,0.13,0.11,0.2,0.17c0.06,0.06,0.14,0.12,0.22,0.18l0.01-0.04"/>
		<path id="STROKE_46024ce5-2c30-4eb7-93a2-1ff0496ba42d" class="st2" d="M13.3,9.04c0.1-0.01,0.14-0.01,0.12,0.01
			c-0.02,0.02,0.07-0.01,0.27-0.08c0.2-0.08,0.36-0.16,0.48-0.24c0.12-0.08,0.21-0.14,0.27-0.17c0.06-0.03,0.12-0.06,0.18-0.09
			c0.06-0.03,0.11-0.05,0.14-0.08c0.04-0.03,0.14-0.08,0.31-0.16c0.17-0.08,0.3-0.13,0.39-0.14c0.09-0.02,0.16-0.03,0.2-0.03
			C15.7,8.04,15.78,8.03,15.89,8c0.11-0.02,0.33-0.09,0.64-0.19c0.31-0.1,0.61-0.19,0.88-0.26c0.27-0.07,0.51-0.12,0.72-0.16
			c0.21-0.04,0.4-0.08,0.56-0.12c0.16-0.04,0.23-0.06,0.21-0.05c-0.02,0,0.04-0.01,0.17-0.05c0.13-0.04,0.26-0.07,0.39-0.11
			c0.13-0.03,0.24-0.07,0.33-0.09c0.09-0.03,0.17-0.05,0.24-0.07c0.07-0.02,0.11-0.03,0.11-0.03c0,0,0.06-0.02,0.18-0.05
			c0.12-0.03,0.21-0.06,0.28-0.09c0.07-0.02,0.15-0.05,0.23-0.08c0.08-0.03,0.14-0.05,0.16-0.05c0.02-0.01,0.03-0.02,0.04-0.02
			c0-0.01,0.27-0.04,0.81-0.08c0.53-0.05,1.02-0.11,1.46-0.2c0.44-0.09,0.74-0.15,0.9-0.21c0.16-0.05,0.28-0.09,0.36-0.12
			c0.08-0.03,0.14-0.05,0.17-0.06c0.04-0.01,0.07-0.02,0.1-0.03c0.03-0.01,0.06-0.02,0.09-0.04c0.03-0.02,0.48-0.06,1.37-0.13
			c0.88-0.07,1.59-0.11,2.11-0.14c0.52-0.03,0.89-0.04,1.1-0.05c0.21-0.01,0.37-0.02,0.48-0.01c0.11,0,0.26,0,0.47,0
			c0.21,0,0.39,0,0.56,0c0.17,0,0.29,0,0.38,0c0.09,0,0.15,0.01,0.18,0.01c0.03,0,0.05,0.01,0.06,0.01c0,0,0.08,0,0.23,0.01
			c0.15,0,0.35,0.03,0.6,0.07c0.26,0.05,0.5,0.09,0.72,0.14c0.23,0.05,0.39,0.08,0.5,0.1c0.1,0.02,0.19,0.03,0.26,0.03
			c0.07,0.01,0.11,0.01,0.14,0.02c0.02,0,0.04,0,0.05,0c0.01,0,0.08,0.01,0.21,0.04c0.13,0.03,0.28,0.08,0.45,0.15
			c0.17,0.07,0.3,0.13,0.39,0.17c0.09,0.04,0.14,0.06,0.15,0.07c0.01,0,0.04,0.02,0.1,0.04c0.06,0.03,0.09,0.04,0.09,0.04
			c0,0,0.03,0.01,0.08,0.04c0.05,0.03,0.1,0.06,0.15,0.11l-0.02-0.04"/>
	</g>
</g>
</svg>
