<?xml version="1.0" encoding="utf-8"?>
<!-- Generator: Adobe Illustrator 23.0.1, SVG Export Plug-In . SVG Version: 6.00 Build 0)  -->
<svg version="1.1" id="图层_1" xmlns="http://www.w3.org/2000/svg" xmlns:xlink="http://www.w3.org/1999/xlink" x="0px" y="0px"
	 viewBox="0 0 53 68" style="enable-background:new 0 0 53 68;" xml:space="preserve">
<style type="text/css">
	.st0{fill:#B3544E;}
</style>
<g>
	<path class="st0" d="M36.99,45.16c0-0.4,0-0.67,0-0.87s-0.04-0.4-0.04-0.59c0-0.16-0.04-0.4-0.08-0.67
		c-0.04-0.32-0.16-0.87-0.36-1.62c-0.2-0.71-0.4-1.35-0.6-1.9c-0.16-0.51-0.2-0.67-0.24-0.75c0-0.12-0.04-0.28-0.12-0.59
		c-0.08-0.36-0.16-0.67-0.24-0.91s-0.16-0.59-0.32-0.99s-0.28-0.79-0.4-1.23l-0.32-1.07c-0.12-0.44-0.16-0.51-0.16-0.55
		s-0.04-0.08-0.08-0.16c-0.04-0.16-0.16-0.36-0.32-0.63c-0.16-0.28-0.4-0.55-0.72-0.87c-0.4-0.44-0.56-0.59-0.64-0.67
		c-0.16-0.12-0.4-0.28-0.76-0.44c-0.32-0.16-0.64-0.24-0.96-0.32c-0.2-0.04-0.36-0.08-0.52-0.08c-0.04-0.04-0.12-0.08-0.2-0.12
		l-0.08-0.04c-0.32-0.16-0.72-0.24-1.16-0.24s-0.84,0.12-1.16,0.36c-0.16,0.12-0.28,0.2-0.36,0.28c-0.08,0.04-0.12,0.08-0.2,0.16
		c-0.04,0.04-0.2,0.12-0.72,0.44c-0.44,0.24-0.96,0.59-1.55,1.07c-0.64,0.48-1,0.75-1.12,0.99l0,0c-0.04,0.04-0.08,0.08-0.12,0.16
		c-0.12,0.12-0.2,0.24-0.24,0.32c-0.04,0.04-0.12,0.16-0.8,0.91c-0.52,0.59-0.92,1.11-1.16,1.58c-0.2,0.4-0.64,1.11-1.2,2.1
		c-0.28,0.48-0.48,0.83-0.64,1.07c-0.08,0.16-0.16,0.32-0.24,0.48c-0.04,0.04-0.08,0.16-0.16,0.24c-0.2,0.32-0.36,0.55-0.48,0.67
		c-0.08,0.12-0.28,0.4-0.52,0.79c-0.28,0.44-0.56,1.03-0.92,1.86s-0.64,1.78-0.84,2.89c-0.28,1.5-0.32,1.98-0.32,2.22
		c0,0.36,0,0.48,0,0.48l0,0c0,0.08-0.04,0.2-0.04,0.44c0,0.16-0.08,0.36-0.12,0.55c-0.08,0.28-0.2,0.75-0.32,1.5
		c-0.16,0.75-0.24,1.35-0.28,1.74c0,0.36-0.04,0.83-0.12,1.39c-0.04,0.55-0.16,1.27-0.24,2.06c-0.12,0.83-0.16,1.35-0.2,1.58
		c-0.04,0.24-0.04,0.48-0.04,0.67s-0.04,0.48-0.08,0.75c-0.04,0.32-0.08,0.83-0.16,1.54c-0.08,0.75-0.12,1.58-0.16,2.45
		c-0.04,0.75-0.04,1.19,0.04,1.46c0,0.16,0,0.36,0,0.67v0.04c-0.04,0.08,0,0.16,0,0.24v2h20.16l0.12-1.35l0,0
		c0-0.04,0.04-0.32,0.16-0.75c0-0.04,0-0.04,0-0.08s0.04-0.08,0.04-0.12c0.04-0.16,0.16-0.48,0.28-0.91
		c0.12-0.36,0.16-0.59,0.2-0.71l0,0c0-0.04,0.04-0.16,0.08-0.44c0.08-0.28,0.2-0.79,0.36-1.46c0.24-0.91,0.28-1.07,0.28-1.07
		c0-0.04,0.04-0.12,0.24-0.87c0.12-0.48,0.2-0.83,0.24-1.03c0.04-0.24,0.08-0.55,0.08-1.07c0-0.44,0-0.63,0-0.71
		c0-0.08,0.04-0.32,0.08-0.67c0.08-0.48,0.12-1.11,0.16-1.78c0.04-0.71,0.12-1.86,0.2-3.52s0.08-3.05,0.04-4.12
		C36.99,46.27,36.99,45.55,36.99,45.16z M19.77,51.73C19.77,51.73,19.81,51.73,19.77,51.73c0,0,0,0.04-0.04,0.08
		C19.77,51.77,19.77,51.73,19.77,51.73z"/>
	<path class="st0" d="M37.11,21.09c-0.04-0.32-0.04-0.55-0.08-0.71s-0.12-0.4-0.24-0.71c-0.12-0.32-0.28-0.67-0.44-1.11
		c-0.12-0.32-0.28-0.59-0.4-0.83c-0.08-0.44-0.16-0.83-0.24-1.11c-0.2-0.63-0.72-1.19-1.47-1.58c-0.32-0.16-0.6-0.28-0.96-0.4
		c-0.16-0.08-0.32-0.16-0.48-0.2c-0.08-0.04-0.12-0.04-0.2-0.04c-0.36-0.24-0.76-0.36-1.24-0.4c-0.68-0.04-1.35,0.16-2.03,0.63
		c-0.32,0.24-0.64,0.48-0.88,0.71c-0.24,0.24-0.48,0.51-0.76,0.83c-0.48,0.4-0.92,0.91-1.27,1.62c-0.6,1.11-0.88,2.1-0.8,2.97
		c0,0.16,0.04,0.28,0.04,0.44c0,0.28,0,0.51,0,0.79c0,1.35,0.72,1.9,1.31,2.14c0,0.04,0.04,0.08,0.04,0.12
		c0.12,0.32,0.28,0.59,0.56,0.83c0.16,0.24,0.32,0.48,0.56,0.71c0.4,0.4,0.52,0.51,0.64,0.55c0.04,0.04,0.12,0.04,0.2,0.12
		c0.16,0.08,0.52,0.24,1.67,0.51c0.68,0.16,1.27,0.24,1.87,0.24c0.2,0,0.44,0,0.64-0.04c0.88-0.08,1.39-0.24,1.67-0.48
		c0.24-0.16,0.44-0.36,0.6-0.51c0.16-0.16,0.28-0.28,0.44-0.4c0.2-0.2,0.4-0.55,0.68-1.15c0.24-0.51,0.36-0.99,0.44-1.35
		c0.08-0.36,0.12-0.75,0.12-1.19C37.15,21.72,37.15,21.37,37.11,21.09z"/>
</g>
</svg>
