<?xml version="1.0" encoding="utf-8"?>
<!-- Generator: Adobe Illustrator 23.0.1, SVG Export Plug-In . SVG Version: 6.00 Build 0)  -->
<svg version="1.1" id="图层_1" xmlns="http://www.w3.org/2000/svg" xmlns:xlink="http://www.w3.org/1999/xlink" x="0px" y="0px"
	 viewBox="0 0 53 68" style="enable-background:new 0 0 53 68;" xml:space="preserve">
<style type="text/css">
	.st0{fill:#B3544E;}
</style>
<g>
	<path class="st0" d="M19.21,23.82c0.04,0,0.07,0,0.11,0c0.32-0.01,0.68-0.03,1.09-0.06c1.17-0.09,1.84-0.6,2.19-1.02
		c0.4-0.47,0.65-0.99,0.74-1.55c0.06-0.35,0.07-0.72,0.02-1.08c0.05-0.37,0.06-0.76,0.03-1.17c-0.07-0.9-0.36-1.74-0.86-2.47
		c-0.56-0.82-1.36-1.4-2.3-1.69c-0.69-0.21-1.36-0.33-2-0.35c-0.28-0.01-0.58,0-0.9,0.04c-0.6,0.04-1.26,0.13-1.97,0.29
		c-0.8,0.17-1.79,0.47-2.43,1.22c-0.66,0.35-1.07,1.05-1.05,1.82c0.05,1.54,0.57,2.73,1.53,3.54c0.61,0.52,1.22,0.94,1.8,1.26
		c0.44,0.24,0.92,0.42,1.45,0.55c0.01,0.01,0.02,0.01,0.03,0.02c0.79,0.47,1.55,0.68,2.26,0.65C19.03,23.82,19.12,23.82,19.21,23.82
		z"/>
	<path class="st0" d="M19.29,25.66c-0.63-0.02-1.23-0.2-1.79-0.52c-0.42-0.15-0.8-0.35-1.15-0.6c-0.06-0.05-0.12-0.09-0.19-0.14
		c-0.3-0.19-0.6-0.41-0.92-0.66c-0.78-0.63-1.41-1.44-1.87-2.39c-0.42-0.88-0.69-1.79-0.81-2.7c-0.24-1.9,0.72-2.94,1.32-3.39
		c0.6-0.45,1.16-0.78,1.71-1c0.61-0.25,1.36-0.39,2.29-0.43c1.05-0.05,2,0.15,2.85,0.59c0.65,0.34,1.22,0.86,1.69,1.56
		c1.04,0.4,1.39,1.78,1.58,2.53c0.24,0.94,0.34,1.7,0.33,2.34c-0.01,0.68-0.12,1.27-0.32,1.8c-0.07,0.19-0.15,0.37-0.24,0.54
		c-0.25,0.71-0.65,1.27-1.2,1.67c-0.45,0.33-0.98,0.56-1.56,0.69c-0.4,0.09-0.85,0.13-1.37,0.13
		C19.54,25.67,19.42,25.67,19.29,25.66z M18.98,19.72c-0.57,0.12-0.88,0.27-1.09,0.41c-0.01,0.08-0.01,0.16-0.02,0.24
		c0.34,0.12,0.65,0.32,0.9,0.61c0.07,0.08,0.19,0.21,0.37,0.38c0.24,0.04,0.48,0.03,0.61,0.03c0.04-0.22,0.07-0.55,0.05-1.03
		c-0.01-0.27-0.05-0.53-0.11-0.79C19.51,19.61,19.28,19.66,18.98,19.72z"/>
	<path class="st0" d="M27.92,57.7c0.16-0.8,0.22-1.55,0.16-2.23c-0.04-0.45-0.06-0.96-0.07-1.54C28,53.29,28,52.4,28,51.24
		l0.01-2.16c0-0.24-0.03-0.51-0.09-0.84c0.02-1.06-0.05-2.02-0.22-2.86c-0.16-0.81-0.29-1.39-0.4-1.75
		c-0.08-0.29-0.18-0.68-0.29-1.16c-0.14-0.61-0.34-1.27-0.6-1.97c-0.25-0.67-0.58-1.43-0.98-2.27c-0.36-0.74-0.61-1.29-0.76-1.64
		c-0.19-0.46-0.45-0.97-0.8-1.57c-0.46-0.81-0.65-1.07-0.78-1.24c-0.03-0.04-0.08-0.09-0.12-0.13c-0.23-0.43-0.4-0.76-0.51-0.97
		c-0.07-0.25-0.21-0.5-0.43-0.72c-0.23-0.26-0.52-0.42-0.83-0.53c-0.24-0.19-0.53-0.37-0.91-0.53c-0.73-0.31-1.33-0.44-1.89-0.44
		c-0.31,0-0.5,0.01-0.58,0.01c-0.16,0.01-0.36,0.03-0.61,0.08c-0.2,0.04-0.41,0.1-0.64,0.17c-0.08,0.02-0.15,0.05-0.21,0.07
		c-0.84,0.16-1.39,0.97-1.67,1.37c-0.39,0.57-0.63,1.11-0.74,1.64c-0.07,0.39-0.11,0.82-0.11,1.32c0,0.51,0.03,0.93,0.09,1.29
		c0.05,0.27,0.11,0.52,0.16,0.73c0.02,0.14,0.06,0.53,0.1,1.14c0,0,0,0,0,0.01c-0.09,0.18-0.19,0.36-0.27,0.5
		c-0.21,0.38-0.38,0.67-0.5,0.89c-0.11,0.18-0.18,0.31-0.23,0.38l-0.29,0.45c-0.15,0.24-0.29,0.46-0.41,0.66
		c-0.13,0.22-0.25,0.44-0.38,0.68c-0.09,0.17-0.19,0.33-0.28,0.48c-0.05,0.08-0.09,0.14-0.13,0.2l-0.3,0.37
		c-0.34,0.41-0.53,0.69-0.61,0.8c-0.11,0.18-0.17,0.29-0.18,0.31c0.01-0.01,0.01-0.02,0.01-0.02s-0.05,0.1-0.13,0.27
		c-0.19,0.23-0.32,0.51-0.4,0.81c-0.28,1.08,0.28,2.02,0.8,2.72c0.51,0.68,0.95,1.26,1.33,1.74c0.15,0.2,0.27,0.35,0.35,0.45
		c0.16,0.31,0.49,0.67,1.13,1.33c0.18,0.52,0.58,0.95,1.1,1.17c0.39,0.43,0.86,0.95,1.41,1.58c0.19,0.25,0.39,0.54,0.63,0.88
		c0.27,0.38,0.51,0.7,0.72,1c-0.01,0.3-0.03,0.7-0.05,1.21c-0.04,0.78-0.11,1.51-0.2,2.21c-0.01,0.08-0.04,0.18-0.06,0.26
		c-0.17,0.17-0.31,0.36-0.41,0.59c-0.05,0.1-0.08,0.21-0.11,0.31c-0.05,0.17-0.2,0.63-0.46,1.38c-0.24,0.71-0.44,1.31-0.62,1.8
		c-0.06,0.07-0.11,0.15-0.16,0.23c-0.11,0.18-0.18,0.29-0.73,1.84c-0.24,0.46-0.46,0.92-0.67,1.37c-0.12,0.27-0.17,0.55-0.16,0.83
		h8.96c0.11-0.14,0.22-0.29,0.3-0.42c0.01-0.02,0.02-0.04,0.04-0.06c0.15-0.17,0.35-0.42,0.68-0.87c0.37-0.5,0.67-0.92,0.9-1.27
		c0.27-0.41,0.43-0.66,0.48-0.75c0.08-0.14,0.14-0.27,0.18-0.37l0.07-0.16c0.06-0.14,0.16-0.37,0.28-0.69
		c0.12-0.31,0.23-0.59,0.32-0.85c0.08-0.24,0.22-0.6,0.4-1.09c0.17-0.47,0.36-0.94,0.56-1.4c0.17-0.39,0.28-0.64,0.34-0.75
		C27.59,59.03,27.71,58.71,27.92,57.7z M17.2,49.13c-0.07-0.05-0.15-0.08-0.22-0.11c0,0,0,0,0,0c-0.48-0.49-0.8-0.83-0.96-1.02
		c-0.15-0.25-0.37-0.52-0.67-0.9c-0.31-0.39-0.67-0.86-1.06-1.39c0.06-0.08,0.13-0.16,0.21-0.26c0.43-0.53,0.5-0.62,0.58-0.76
		l0.12-0.19c0.14-0.22,0.28-0.46,0.42-0.72c0.5,1.54,0.91,2.85,1.21,3.89C16.98,48.19,17.1,48.67,17.2,49.13z"/>
</g>
</svg>
