<?xml version="1.0" encoding="utf-8"?>
<!-- Generator: Adobe Illustrator 23.0.1, SVG Export Plug-In . SVG Version: 6.00 Build 0)  -->
<svg version="1.1" id="图层_1" xmlns="http://www.w3.org/2000/svg" xmlns:xlink="http://www.w3.org/1999/xlink" x="0px" y="0px"
	 viewBox="0 0 53 68" style="enable-background:new 0 0 53 68;" xml:space="preserve">
<style type="text/css">
	.st0{fill:#B3544E;}
</style>
<g>
	<path class="st0" d="M21.07,24.86c0,0.07,0.07,0.15,0.07,0.22c0.07,0.66,0.07,1.1,0.37,1.39c0,0.07,0.07,0.15,0.15,0.22
		c0.15,0.22,0.15,0.44,0.22,0.51c0,0.15,0,0.15,0,0.15c0.07,0.15,0.15,0.37,0.29,0.51c0.15,0.15,0.37,0.29,0.66,0.51
		c0.29,0.15,0.74,0.22,1.25,0.22c0,0,0,0,0.07,0c0.15,0.15,0.44,0.15,0.59,0.22c0.22,0.07,0.37,0.07,0.52,0.07c0.07,0,0.07,0,0.15,0
		s0.29,0,0.59,0c0.44,0,0.81,0,1.18,0.07c0.15,0,0.29,0,0.52,0c0.15,0,0.22,0,0.37,0c0.15,0,0.29,0,0.52,0c0.52,0,0.81,0,1.1-0.07
		c0.22-0.07,0.37-0.07,0.52-0.15s0.15-0.07,1.03-0.66c0.37-0.22,0.59-0.44,0.66-0.51c0.22-0.15,0.29-0.29,0.52-0.73
		c0.15-0.22,0.22-0.51,0.44-0.88c0.15-0.37,0.29-0.8,0.44-1.32c0.15-0.58,0.15-0.8,0.15-1.02c0-0.15,0-0.22,0-0.51
		c0-0.37,0-0.8,0-1.39c0-0.66-0.15-1.32-0.37-1.9c-0.22-0.66-0.52-1.17-0.81-1.39c-0.22-0.22-0.52-0.44-0.74-0.58
		c-0.07-0.07-0.15-0.07-0.15-0.15c-0.07-0.07-0.15-0.15-0.29-0.22c-0.15-0.15-0.44-0.22-0.66-0.37s-0.59-0.15-0.88-0.22
		c-0.37-0.15-0.44-0.15-0.52-0.15h-0.15c-0.07,0-0.15-0.07-0.22-0.07c-0.15-0.15-0.44-0.29-0.81-0.44
		c-0.66-0.29-1.25-0.29-1.84-0.07c-0.15,0.07-0.22,0.15-0.29,0.15c-0.52,0.07-0.96,0.15-1.4,0.51c-0.15,0-0.22,0.07-0.37,0.15
		c-0.22-0.07-0.37,0-0.44,0.15l-0.15,0.15c-0.15,0.15-0.29,0.29-0.37,0.51c-0.22,0.15-0.52,0.37-0.66,0.66
		c-0.37,0.44-0.59,0.8-0.74,1.1c-0.15,0.37-0.22,0.73-0.29,1.17c0,0.15-0.07,0.22-0.07,0.29c-0.22,0.8-0.29,1.39-0.29,1.83
		s0,0.73,0,1.02C20.85,24.2,20.92,24.49,21.07,24.86z"/>
	<path class="st0" d="M40.79,64.2L40.79,64.2c0-0.15,0-0.37-0.07-0.51c-0.07-0.44-0.15-1.17-0.22-2.05
		c-0.07-0.66-0.15-1.24-0.22-1.83c-0.07-0.95-0.07-1.83-0.15-2.49c-0.07-0.88-0.29-1.9-0.59-3.07c-0.29-1.1-0.59-2.12-0.88-3
		s-0.59-2.05-0.96-3.58c-0.37-1.54-0.66-2.78-0.81-3.58c-0.22-0.88-0.37-1.61-0.59-2.27c-0.15-0.66-0.29-1.32-0.44-1.9
		c-0.15-0.66-0.22-1.1-0.29-1.32c-0.07-0.15-0.15-0.51-0.59-1.24c-0.29-0.58-0.59-1.02-0.81-1.39c-0.29-0.37-0.52-0.66-0.81-0.88
		s-0.59-0.44-0.96-0.58c-0.44-0.22-0.88-0.29-1.32-0.29c-0.22,0-0.44,0-0.66,0c-0.07,0-0.15,0-0.22,0c-0.15,0-0.29,0-0.44,0h-0.81
		c-0.29,0-0.74,0-1.47,0.07c-0.74,0-1.25,0.07-1.69,0.22c-0.37,0.07-0.66,0.15-0.88,0.22l-0.15,0.07c-0.15,0-0.29,0.07-0.52,0.15
		c-0.29,0.15-0.44,0.22-0.66,0.29c-0.15,0.07-0.37,0.22-0.52,0.37c-0.22,0.15-0.44,0.37-0.74,0.58c-0.22,0.22-0.52,0.44-0.81,0.8
		c-0.37,0.37-0.59,0.66-0.81,0.8c-0.22,0.22-0.52,0.66-0.81,1.24c-0.29,0.58-0.59,1.17-0.96,1.83c-0.44,1.02-0.52,1.1-0.52,1.17
		s-0.07,0.22-0.22,0.51c-0.15,0.37-0.37,0.95-0.59,1.68s-0.37,1.32-0.44,1.68c0.15,0.15,0.07,0.29,0.07,0.37l0,0
		c0,0.07-0.07,0.22-0.07,0.37l-0.15,0.73c-0.07,0.29-0.15,0.66-0.22,1.02c0,0.29-0.15,0.73-0.22,1.32
		c-0.15,0.58-0.29,1.32-0.44,2.27c-0.22,0.95-0.37,2.27-0.44,3.8c-0.15,1.54-0.22,3.14-0.22,4.83c0,1.68-0.07,3.51-0.07,5.48V68
		h25.46C40.79,68,40.94,65.59,40.79,64.2z"/>
</g>
</svg>
