<?xml version="1.0" encoding="utf-8"?>
<!-- Generator: Adobe Illustrator 23.0.1, SVG Export Plug-In . SVG Version: 6.00 Build 0)  -->
<svg version="1.1" id="图层_1" xmlns="http://www.w3.org/2000/svg" xmlns:xlink="http://www.w3.org/1999/xlink" x="0px" y="0px"
	 viewBox="0 0 53 68" style="enable-background:new 0 0 53 68;" xml:space="preserve">
<style type="text/css">
	.st0{fill:#B3544E;}
</style>
<g>
	<path class="st0" d="M3.41,23.24c0.99,0.84,1.98,1.39,2.97,1.64c0.4,0.1,0.74,0.2,1.04,0.25c0.15,0.1,0.3,0.15,0.45,0.25
		c0.25,0.15,0.5,0.2,0.79,0.2c0.3,0,0.59-0.1,0.84-0.25c0.2-0.05,0.45-0.1,0.74-0.15c0.74-0.15,1.83-0.64,2.53-2.28
		c0.25-0.5,0.4-0.99,0.5-1.54c0.15-0.35,0.3-0.79,0.4-1.29c0.15-0.79,0.2-1.29,0.2-1.68c0-0.25-0.05-0.5-0.1-0.69c0-0.1,0-0.2,0-0.3
		c-0.05-0.84-0.3-1.54-0.74-2.03c-0.3-0.4-0.59-0.64-0.84-0.84c-0.2-0.15-0.35-0.25-0.55-0.35c-0.05,0-0.05-0.05-0.1-0.05
		c-0.35-0.25-0.84-0.45-2.48-0.79c-0.84-0.2-1.59-0.3-2.28-0.3c-0.2,0-0.4-0.05-0.69-0.05c-0.99-0.1-1.78-0.05-2.38,0.05
		c-0.84,0.2-1.14,0.3-1.34,0.4c-0.25,0.1-0.5,0.3-0.84,0.55c-0.35,0.3-0.59,0.59-0.79,0.94s-0.35,0.74-0.5,1.39
		c-0.1,0.4-0.1,0.94,0.15,1.59c0,0.1,0,0.2,0,0.3c0,0.5,0,0.64,0.05,0.79c0.05,0.3,0.15,0.55,0.35,0.84c0.2,0.35,0.4,0.64,0.64,0.79
		c0.1,0.1,0.25,0.2,0.35,0.25C2.02,22.1,3.01,22.95,3.41,23.24z"/>
	<path class="st0" d="M7.17,66.21c0,0,0,0.05,0.05,0.05c0,0.1,0.05,0.25,0.1,0.35l0.05,0.1c0,0.25,0.05,0.3,0.05,0.4v0.05
		c0,0.05,0,0.1,0,0.15c0,0.1,0.05,0.2,0.05,0.25c0,0.15,0,0.25,0.05,0.4h13.33c0.1-0.2,0.15-0.45,0.15-0.74l0,0c0,0,0-0.05,0-0.1
		c0-0.1,0-0.15,0-0.25v-1.24c0-0.79,0-1.59-0.05-2.33c0-0.99-0.05-1.39-0.05-1.59c-0.05-0.45-0.15-1.19-0.25-2.28
		c-0.15-0.99-0.2-1.49-0.25-1.73c0-0.1-0.05-0.25-0.1-0.5c-0.05-0.2-0.05-0.35-0.05-0.5s0-0.45-0.05-0.84
		c0-0.45-0.05-1.04-0.15-1.83s-0.25-1.83-0.45-3.12c-0.25-1.44-0.3-1.83-0.3-1.93c0-0.15,0-0.35,0-0.59c0-0.3-0.05-0.69-0.15-1.14
		s-0.2-0.99-0.4-1.64c-0.15-0.55-0.35-1.14-0.5-1.68c-0.15-0.55-0.35-1.24-0.55-2.03c-0.25-0.84-0.55-1.78-0.99-2.78
		c-0.5-1.19-0.89-1.88-1.29-2.28l-0.15-0.15c-0.1-0.1-0.2-0.25-0.3-0.35s-0.2-0.2-0.25-0.25c0-0.05-0.05-0.05-0.05-0.1
		c-0.05-0.05-0.05-0.1-0.1-0.15c-0.1-0.25-0.3-0.45-0.64-0.84c-0.3-0.35-0.59-0.59-0.84-0.74c-0.2-0.15-0.35-0.25-0.45-0.35
		c-0.05-0.05-0.1-0.1-0.2-0.25c-0.3-0.35-0.55-0.64-0.74-0.84c-0.4-0.35-0.99-0.59-1.88-0.69c-0.05,0-0.1,0-0.15,0
		c-0.4-0.15-0.84-0.2-1.59-0.2c-0.69,0-1.29,0.1-1.73,0.3c-0.45,0.15-0.79,0.35-1.09,0.55c-0.1,0.05-0.15,0.1-0.2,0.15
		c-0.45,0.2-0.69,0.59-1.14,1.34C3.57,34.86,3.33,35.41,3.13,36c-0.25,0.69-0.25,0.89-0.3,0.99c0,0.1-0.1,0.64-0.25,1.73
		s-0.25,1.93-0.3,2.63c-0.05,0.79,0,1.44,0.15,2.08c0.1,0.5,0.25,0.89,0.3,1.19c0.05,0.15,0.1,0.3,0.1,0.35c0,0.1,0.05,0.2,0.2,0.55
		c0,0.74,0.05,1.59,0.15,2.48c0.15,1.64,0.35,2.92,0.59,3.91c0.25,0.89,0.4,1.64,0.5,2.13c0.1,0.59,0.25,1.04,0.35,1.44
		c0.1,0.4,0.25,0.79,0.4,1.09l0.15,0.35c0.2,1.09,0.3,2.08,0.4,2.92c0.1,0.94,0.35,2.13,0.69,3.72C6.93,65.61,7.08,66.01,7.17,66.21
		z"/>
</g>
</svg>
