<?xml version="1.0" encoding="utf-8"?>
<!-- Generator: Adobe Illustrator 23.0.1, SVG Export Plug-In . SVG Version: 6.00 Build 0)  -->
<svg version="1.1" id="图层_1" xmlns="http://www.w3.org/2000/svg" xmlns:xlink="http://www.w3.org/1999/xlink" x="0px" y="0px"
	 viewBox="0 0 53 68" style="enable-background:new 0 0 53 68;" xml:space="preserve">
<style type="text/css">
	.st0{fill:#B3544E;}
</style>
<g>
	<path class="st0" d="M43.57,48.14c-0.37-0.46-1.05-0.54-1.52-0.16c-0.03,0.03-0.18,0.15-0.43,0.37c-0.27,0.23-0.55,0.51-0.83,0.83
		c-0.15,0.17-0.26,0.28-0.31,0.34c-0.04,0.03-0.1,0.09-0.18,0.16c-0.07,0.07-0.13,0.12-0.18,0.16c-0.07,0.06-0.17,0.14-0.29,0.25
		c-0.15,0.13-0.32,0.31-0.5,0.52c-0.17,0.2-0.34,0.41-0.48,0.61c-0.12,0.16-0.26,0.35-0.43,0.55c-0.13,0.16-0.22,0.27-0.21,0.27
		c-0.03,0.03-0.09,0.09-0.18,0.19l-0.26,0.29c-0.12,0.13-0.29,0.33-0.51,0.6c-0.05,0.06-0.08,0.1-0.12,0.16
		c-0.29-0.04-0.63-0.1-1.05-0.19c-0.51-0.1-1.2-0.24-2.09-0.41c-0.91-0.17-1.78-0.3-2.6-0.38c-0.76-0.08-1.32-0.15-1.66-0.22
		c-0.39-0.08-0.67-0.13-0.85-0.16l-0.46-0.09c-0.07-0.02-0.19-0.05-0.36-0.1c-0.19-0.06-0.42-0.13-0.68-0.22
		c-0.3-0.1-0.71-0.21-1.27-0.35c-0.53-0.13-0.68-0.19-0.66-0.17l-0.11-0.09c-0.05-0.05-0.09-0.1-0.12-0.13
		c-0.08-0.1-0.17-0.19-0.27-0.28c-0.08-0.07-0.19-0.17-0.35-0.29c-0.05-0.04-0.12-0.08-0.18-0.12c-0.16-1.66-0.34-3.15-0.52-4.41
		c-0.19-1.28-0.39-2.67-0.61-4.19c-0.22-1.51-0.36-2.43-0.41-2.76c-0.07-0.5-0.21-1.02-0.42-1.54c-0.26-0.67-0.75-1.34-1.53-2.12
		c-0.66-0.66-1.36-1.22-2.09-1.68c-0.74-0.47-1.11-0.7-1.42-0.81c-0.23-0.1-0.5-0.19-0.83-0.27c-0.4-0.1-0.85-0.14-1.38-0.12
		c-0.41,0.01-0.88,0.06-1.44,0.14c-0.74,0.11-1.59,0.43-2.69,1.02c-1.36,0.73-1.64,0.87-1.89,1.17c-0.17,0.15-0.32,0.33-0.48,0.54
		c-0.11,0.15-0.26,0.37-0.59,1c-0.27,0.5-0.54,1.18-0.84,2.08c-0.28,0.84-0.37,1.13-0.42,1.29l0,0l-0.09,0.32
		c-0.08,0.27-0.16,0.59-0.24,0.95c-0.08,0.31-0.16,0.7-0.26,1.17c-0.11,0.51-0.21,1.13-0.31,1.87c-0.1,0.72-0.16,1.35-0.2,1.88
		c-0.03,0.47-0.11,1.24-0.23,2.31c-0.12,1.13-0.21,2.1-0.26,2.86c-0.04,0.71-0.11,1.46-0.19,2.26C5,53.94,4.94,55.24,4.92,57
		c-0.02,1.67-0.02,3.86,0.01,6.51c0.04,4.01,0.04,4.11,0.05,4.21C5,67.81,5.01,67.9,5.03,67.98h20.29c0.13-0.59,0.09-1.3,0.04-2.13
		c-0.01-0.21-0.03-0.44-0.04-0.69c0-0.35,0-0.7,0.01-1.06c0.01-0.56-0.02-1.57-0.09-3.09c-0.05-1.14-0.13-2.46-0.23-3.93
		c0.01,0,0.02,0,0.03,0c0.41-0.01,0.92-0.02,1.53-0.03c0.62,0,1.13-0.01,1.52-0.01c0.39-0.01,0.71-0.01,0.97-0.02
		c0.26-0.01,0.72-0.03,1.39-0.06c0.68-0.04,1.28-0.09,1.8-0.16c0.49-0.07,0.92-0.13,1.28-0.18c0.45-0.07,0.58-0.07,0.58-0.07
		c0.22-0.01,0.45-0.03,0.68-0.09c0,0,0.1-0.02,0.39-0.04l0.84-0.05c0.38-0.02,0.66-0.06,0.88-0.12c0.04-0.01,0.08-0.02,0.12-0.03
		c0.13,0,0.24,0,0.35-0.01c0.19,0.14,0.41,0.22,0.64,0.22c0.15,0,0.3-0.03,0.44-0.1c0.21-0.1,0.38-0.25,0.49-0.44
		c0.73-0.33,1.21-0.55,1.45-0.65c0.33-0.14,0.57-0.25,0.72-0.34c0.11-0.06,0.19-0.1,0.24-0.13l0,0c0.02-0.01,0.06-0.03,0.15-0.09
		l0.22-0.15c0.06-0.04,0.11-0.08,0.16-0.13l0.01,0.01l0.09-0.08c0.07-0.07,0.16-0.15,0.27-0.27c0.16-0.17,0.27-0.32,0.35-0.47
		c0.09-0.18,0.29-0.54,0.11-1c-0.02-0.06-0.04-0.11-0.06-0.16c-0.11-0.26-0.29-0.49-0.56-0.71l-0.14-0.11
		c-0.11-0.1-0.22-0.16-0.32-0.21c0.05-0.04,0.08-0.07,0.14-0.12l0.12-0.11l-0.01-0.01c0.18-0.14,0.35-0.33,0.53-0.53
		c0.23-0.25,0.45-0.47,0.65-0.65c0.21-0.18,0.33-0.29,0.37-0.32C43.87,49.29,43.94,48.61,43.57,48.14z"/>
	<path class="st0" d="M12.92,26.21c0.02,0.04,0.1,0.2,0.25,0.47c0.1,0.18,0.2,0.36,0.29,0.52c0.08,0.15,0.13,0.26,0.16,0.33
		c0.06,0.12,0.11,0.23,0.17,0.32c0.05,0.08,0.13,0.19,0.24,0.32c0.14,0.17,0.29,0.3,0.45,0.4c0.12,0.08,0.27,0.15,0.46,0.22
		l0.39,0.15c0.22,0.08,0.38,0.13,0.52,0.15c0.05,0.01,0.09,0.01,0.12,0.02c0.09,0.03,0.19,0.05,0.28,0.05
		c0.07,0.01,0.29,0.03,0.67,0.06c0.2,0.02,0.4,0.03,0.6,0.03c0.36,0,0.73-0.03,1.09-0.09c0.57-0.09,1.09-0.25,1.55-0.47
		c0.17-0.08,0.32-0.16,0.45-0.22c0.48-0.04,0.98-0.24,1.55-0.59c0.49-0.31,0.87-0.58,1.15-0.84c0.28-0.25,0.64-0.63,1.12-1.18
		c0.47-0.54,0.88-1.08,1.24-1.63s0.62-1,0.78-1.36c0.17-0.38,0.3-0.75,0.36-1.08c0.07-0.33,0.08-0.68,0.05-1.04
		c0.01-0.03,0.02-0.05,0.04-0.08c0.29-0.62,0.37-1.04,0.28-1.43c-0.02-0.1-0.04-0.25-0.06-0.45c-0.03-0.31-0.05-0.63-0.2-0.9
		l-0.15-0.45c-0.04-0.11-0.08-0.22-0.12-0.33l-0.08-0.2c-0.05-0.13-0.13-0.26-0.29-0.49c-0.15-0.21-0.37-0.43-0.66-0.67
		c-0.34-0.28-0.75-0.47-1.21-0.57c-0.34-0.07-0.72-0.13-1.13-0.16c-0.42-0.04-0.9-0.03-1.43,0.01c-0.58,0.05-1.1,0.16-1.55,0.35
		c-0.38,0.16-0.69,0.31-0.94,0.45c-0.26,0.14-0.59,0.36-1.01,0.66c-0.14,0.1-0.36,0.26-0.56,0.48c-0.2,0.12-0.41,0.25-0.62,0.39
		c-0.62,0.41-1.16,0.89-1.61,1.41c-0.43,0.5-0.75,0.91-0.98,1.27c-0.1,0.15-0.19,0.32-0.28,0.49c-0.05,0.06-0.1,0.11-0.13,0.16
		c-0.12,0.15-0.2,0.26-0.21,0.29l-0.11,0.19c-0.07,0.11-0.14,0.25-0.22,0.43c-0.11,0.23-0.19,0.54-0.27,1.01
		c-0.06,0.37-0.11,0.64-0.14,0.81c-0.01,0.09-0.03,0.16-0.04,0.21c-0.02,0.07-0.04,0.13-0.07,0.18L13,24.03
		c-0.09,0.21-0.15,0.46-0.19,0.79c-0.03,0.28-0.03,0.55-0.01,0.78C12.82,25.88,12.85,26.05,12.92,26.21z"/>
</g>
</svg>
