<?xml version="1.0" encoding="utf-8"?>
<!-- Generator: Adobe Illustrator 23.0.1, SVG Export Plug-In . SVG Version: 6.00 Build 0)  -->
<svg version="1.1" id="图层_1" xmlns="http://www.w3.org/2000/svg" xmlns:xlink="http://www.w3.org/1999/xlink" x="0px" y="0px"
	 viewBox="0 0 53 68" style="enable-background:new 0 0 53 68;" xml:space="preserve">
<style type="text/css">
	.st0{fill:#B3544E;}
</style>
<g>
	<path class="st0" d="M24.67,35c-1.03,0-1.96-0.36-2.69-1.04c-0.31-0.29-0.65-0.7-0.9-1.27c-1.21-0.9-1.73-1.97-1.95-2.76
		c-0.27-0.96-0.35-2.04-0.26-3.31c0.09-1.24,0.37-2.4,0.83-3.47c0.36-0.83,0.86-1.51,1.49-2.01c0.56-0.92,1.25-1.63,2.06-2.11
		c1.16-0.68,2.19-0.95,3.15-0.81c0.6,0.08,1.29,0.3,2.11,0.66c0.75,0.33,1.37,0.81,1.82,1.4c0.22,0.06,0.44,0.15,0.66,0.25
		c0.87,0.41,1.43,1.28,1.46,2.24c0.01,0.36,0.02,0.71,0.03,1.03c0.09,0.38,0.12,0.74,0.09,1.11c0,0.04-0.01,0.09-0.01,0.15
		c0.09,0.4,0.13,0.81,0.12,1.24c-0.02,0.85-0.04,1.16-0.07,1.35c0,0,0,0.01,0,0.03c-0.01,0.32-0.08,0.6-0.15,0.84
		c-0.08,1.13-0.26,1.49-0.5,1.88c-0.09,0.15-0.16,0.26-0.2,0.34c-0.21,0.53-0.63,1.04-1.28,1.5c-0.27,0.19-0.55,0.35-0.83,0.46
		c-0.57,0.56-1.34,1.19-2.29,1.35c-0.55,0.42-1.13,0.7-1.75,0.82C25.3,34.97,24.98,35,24.67,35z"/>
	<path class="st0" d="M21.79,68c0.1-0.19,0.17-0.35,0.22-0.45c0.02-0.06,0.05-0.11,0.06-0.15c0.07-0.12,0.18-0.31,0.34-0.58
		c0.28-0.48,0.56-0.95,0.85-1.41c0.33-0.52,0.57-0.92,0.72-1.18l0.34-0.59c0.06-0.11,0.12-0.23,0.17-0.36
		c-0.01,0.04-0.05,0.14-0.12,0.28c0.04-0.07,0.13-0.24,0.26-0.52c0.12-0.24,0.21-0.44,0.28-0.61l0.42-0.91
		c0.06-0.12,0.13-0.25,0.19-0.39c0.06,0.22,0.12,0.47,0.19,0.74c0.28,1.04,0.57,1.89,0.9,2.61c0.32,0.69,0.6,1.23,0.87,1.66
		c0.18,0.29,0.3,0.47,0.35,0.56c0.05,0.08,0.15,0.26,0.31,0.54c0.21,0.38,0.35,0.61,0.46,0.77h17.97c0.13-0.14,0.25-0.29,0.34-0.46
		l0,0c0.09-0.1,0.17-0.2,0.25-0.31c0.38-0.51,0.57-1.11,0.73-1.84c0.14-0.66,0.21-1.49,0.19-2.54c-0.01-0.56-0.04-1.08-0.09-1.59
		c0.11-0.08,0.22-0.16,0.32-0.26c0.62-0.62,0.88-1.52,0.69-2.37c-0.69-3.08-0.92-4.12-0.99-4.47c-0.01-0.2-0.03-0.37-0.05-0.49
		c-0.05-0.32-0.08-0.52-0.1-0.59l-0.13-0.6c-0.13-0.61-0.39-1.28-0.8-2.07l-0.76-1.43c-0.24-0.45-0.37-0.69-0.38-0.7
		c-0.01-0.01-0.01-0.02-0.02-0.03l-0.14-0.24c-0.12-0.2-0.27-0.45-0.46-0.74c-0.18-0.29-0.34-0.52-0.48-0.7
		c-0.16-0.61-0.22-0.81-0.29-0.95c-0.02-0.06-0.05-0.14-0.08-0.23c-0.15-0.42-0.41-0.95-0.8-1.67c-0.36-0.67-0.92-1.56-1.7-2.72
		l-0.55-1.38c-0.87-2.19-1.19-2.71-1.71-3.16c-0.1-0.09-0.17-0.15-0.22-0.2c-0.11-0.1-0.29-0.25-0.55-0.44
		c-0.42-0.3-0.93-0.5-1.68-0.68c-0.66-0.16-1.32-0.21-1.95-0.16c-0.56,0.04-1.05,0.12-1.5,0.25c-0.4,0.11-0.86,0.28-1.4,0.52
		c-0.47,0.21-0.86,0.39-1.15,0.54l-0.3,0.15c-0.06,0.02-0.13,0.05-0.21,0.08c-0.14,0.06-0.33,0.13-0.58,0.21
		c-0.46,0.16-0.96,0.38-1.53,0.69c-0.67,0.36-1,0.57-1.27,0.8c-0.16,0.14-0.34,0.33-0.6,0.62c-0.32,0.21-0.61,0.46-0.85,0.73
		c-0.18,0.2-0.47,0.52-0.68,0.96c-0.11,0.13-0.2,0.24-0.26,0.34c-0.11,0.15-0.2,0.33-0.28,0.52c-0.01,0.01-0.01,0.01-0.02,0.02
		c0.06-0.15,0.12-0.25,0.15-0.31c-0.04,0.06-0.1,0.17-0.19,0.32l-0.1,0.13c-0.21,0.22-0.37,0.45-0.5,0.66
		c-0.2,0.34-0.33,0.71-0.38,1.11c-0.09,0.17-0.19,0.39-0.25,0.68c-0.01,0.05-0.02,0.09-0.03,0.14c-0.02,0.08-0.05,0.23-0.07,0.39
		c-0.01,0.03-0.02,0.07-0.04,0.11c-0.03,0.09-0.06,0.16-0.06,0.18c-0.15,0.3-0.26,0.65-0.34,1.09c-0.03,0.18-0.09,0.47-0.17,0.87
		c-0.08,0.41-0.16,0.78-0.23,1.1c-0.07,0.3-0.13,0.57-0.19,0.81c-0.06,0.24-0.15,0.58-0.26,1c-0.14,0.51-0.25,1.03-0.34,1.55
		c-0.08,0.43-0.21,1.08-0.4,1.95c-0.23,1.05-0.37,1.46-0.43,1.59c-0.2,0.49-0.37,0.99-0.51,1.47c-0.11,0.37-0.22,0.74-0.33,1.08
		c-0.06,0.2-0.2,0.59-0.52,1.33l-0.68,1.57c-0.16,0.37-0.37,0.86-0.63,1.47c-0.31,0.73-0.43,0.95-0.45,0.99
		c-0.14,0.24-0.28,0.5-0.42,0.76c-0.2,0.36-0.37,0.76-0.53,1.18c0,0.01-0.08,0.22-0.42,0.76s-0.53,0.86-0.58,0.95
		c-0.04,0.07-0.07,0.13-0.11,0.2C15.18,66.97,15.01,67.49,15,68H21.79z M24.43,41.62L24.43,41.62c-0.03,0.11-0.06,0.22-0.07,0.32
		C24.37,41.83,24.4,41.72,24.43,41.62z M23.58,44.66c0.02,0.08,0.04,0.16,0.07,0.23C23.62,44.81,23.6,44.73,23.58,44.66L23.58,44.66
		z"/>
</g>
</svg>
