<?xml version="1.0" encoding="utf-8"?>
<!-- Generator: Adobe Illustrator 23.0.1, SVG Export Plug-In . SVG Version: 6.00 Build 0)  -->
<svg version="1.1" id="图层_1" xmlns="http://www.w3.org/2000/svg" xmlns:xlink="http://www.w3.org/1999/xlink" x="0px" y="0px"
	 viewBox="0 0 53 68" style="enable-background:new 0 0 53 68;" xml:space="preserve">
<style type="text/css">
	.st0{fill:#83584A;}
</style>
<path class="st0" d="M11.88,64.88c0.07,0.32,0.16,0.68,0.25,1.07c0.09,0.36,0.15,0.66,0.19,0.91l0.1,0.61
	c0.03,0.2,0.12,0.37,0.24,0.53h7.86c0.12-0.15,0.22-0.32,0.26-0.52l0.15-0.71c0-0.02,0.01-0.1,0.02-0.12
	c0.01-0.05,0.05-0.3,0.34-1.37c0.24-0.91,0.47-1.85,0.67-2.81c0.21-0.96,0.35-1.66,0.43-2.09c0.09-0.48,0.14-0.87,0.17-1.16
	c0.02-0.25,0.03-0.44,0.05-0.58l0.05-0.42c0.01-0.13,0.03-0.26,0.05-0.4c0.02-0.14,0.1-0.44,0.21-0.89
	c0.01-0.03,0.02-0.06,0.03-0.09c0.02-0.04,0.04-0.09,0.05-0.14l0.18-0.54c0.03-0.08,0.04-0.16,0.05-0.24l0.03-0.29
	c0.01-0.04,0.02-0.14,0.04-0.3c0.02-0.21,0.02-0.43-0.01-0.65c-0.05-0.39-0.31-0.72-0.65-0.91c-0.28-0.16-0.62-0.19-0.94-0.11
	l-0.56,0.01c-0.25-0.01-0.51-0.02-0.79-0.05c-0.16-0.02-0.31,0.01-0.45,0.05c-0.3-0.08-0.62-0.14-1.01-0.13
	c-0.07,0-0.15,0.01-0.24,0.01l0.26-0.4c0.1-0.14,0.19-0.26,0.27-0.36c0.03-0.03,0.07-0.07,0.12-0.1l0.31-0.19
	c0.59-0.36,0.77-1.13,0.41-1.72s-1.13-0.77-1.72-0.41L18,50.56c-0.16,0.1-0.3,0.21-0.43,0.32l0.01-0.08
	c0.01-0.09,0.02-0.17,0.02-0.22l0.02-0.12c0.02-0.08,0.05-0.26,0.09-0.53c0.03-0.17,0.05-0.32,0.09-0.46
	c0.02-0.09,0.06-0.19,0.1-0.3c0.07-0.15,0.14-0.31,0.22-0.47c0.08-0.15,0.13-0.26,0.18-0.33c0.05-0.08,0.15-0.22,0.3-0.44
	c0.19-0.27,0.32-0.47,0.41-0.59c0.05-0.08,0.1-0.14,0.19-0.26l0.14-0.14c0.48-0.5,0.46-1.28-0.04-1.76s-1.29-0.46-1.77,0.03
	l-0.08,0.08c-0.08,0.08-0.17,0.18-0.26,0.3c-0.08,0.1-0.17,0.22-0.27,0.38c-0.07,0.11-0.19,0.28-0.36,0.52
	c-0.03,0.05-0.05,0.07-0.08,0.11c0-0.02,0.01-0.04,0.01-0.04c0.01-0.06,0.03-0.24,0.08-0.57c0.04-0.27,0.08-0.52,0.13-0.75
	c0.06-0.24,0.11-0.44,0.15-0.59c0.04-0.14,0.1-0.3,0.19-0.49c0.06-0.14,0.14-0.27,0.24-0.39c0.16-0.2,0.32-0.39,0.48-0.58
	c0.14-0.16,0.25-0.28,0.32-0.35l0.16-0.16c0.49-0.48,0.5-1.27,0.02-1.77c-0.48-0.49-1.27-0.5-1.77-0.02l-0.18,0.18
	c-0.1,0.1-0.25,0.27-0.44,0.49c-0.18,0.2-0.35,0.42-0.53,0.64c-0.24,0.3-0.44,0.63-0.59,0.97c-0.13,0.3-0.22,0.55-0.29,0.76
	c-0.06,0.19-0.12,0.44-0.2,0.75c-0.07,0.31-0.13,0.64-0.18,0.99c-0.04,0.29-0.06,0.46-0.07,0.49c-0.01,0.08-0.02,0.16-0.03,0.22
	l-0.03,0.28c0,0.03,0,0.06-0.01,0.1l-0.24-0.21c-0.18-0.15-0.4-0.32-0.65-0.5c-1.02-0.72-1.63-0.37-1.97,0.04
	c-0.41,0.51-0.36,1.26,0.12,1.71c0.08,0.08,0.17,0.14,0.27,0.19c0.04,0.03,0.09,0.06,0.15,0.1c0.18,0.13,0.33,0.24,0.45,0.35
	l0.38,0.32c0.08,0.07,0.19,0.18,0.34,0.33c0.15,0.16,0.19,0.22,0.2,0.22l0,0c0.06,0.11,0.11,0.2,0.15,0.27
	c0.04,0.08,0.11,0.24,0.23,0.5c0.14,0.32,0.27,0.59,0.38,0.81c0.03,0.06,0.1,0.21,0.17,0.49c0.07,0.29,0.12,0.53,0.16,0.72
	c0.05,0.27,0.09,0.45,0.11,0.5c0.02,0.06,0.04,0.18,0.08,0.36c0.04,0.2,0.07,0.39,0.08,0.57l0.01,0.15
	c-0.69-0.01-1.1-0.01-1.23-0.01l-0.68,0.02c-0.3,0.01-0.47,0.01-0.55,0.01c-0.02,0-0.04,0-0.06,0l-0.15-0.01l0,0
	c-0.6-0.33-1.36-0.11-1.69,0.49c-0.14,0.25-0.16,0.53-0.12,0.8c-0.07,0.16-0.1,0.34-0.1,0.52l0.01,0.25c0,0.05,0.01,0.09,0.01,0.14
	c0.04,0.28,0.11,0.57,0.19,0.9c0.07,0.28,0.2,0.78,0.37,1.48c0.17,0.69,0.3,1.23,0.38,1.61c0.08,0.39,0.17,0.8,0.27,1.23
	c0.1,0.41,0.18,0.81,0.27,1.19l0.21,0.97c0.06,0.27,0.1,0.46,0.13,0.56L11.88,64.88z"/>
</svg>
