<?xml version="1.0" encoding="utf-8"?>
<!-- Generator: Adobe Illustrator 23.0.1, SVG Export Plug-In . SVG Version: 6.00 Build 0)  -->
<svg version="1.1" id="图层_1" xmlns="http://www.w3.org/2000/svg" xmlns:xlink="http://www.w3.org/1999/xlink" x="0px" y="0px"
	 viewBox="0 0 53 68" style="enable-background:new 0 0 53 68;" xml:space="preserve">
<style type="text/css">
	.st0{fill:#83584A;}
</style>
<g>
	<path class="st0" d="M30.35,24c-0.04,0-0.07,0-0.11,0c-0.32-0.01-0.68-0.03-1.09-0.06c-1.17-0.09-1.84-0.6-2.19-1.02
		c-0.4-0.47-0.65-0.99-0.74-1.55c-0.06-0.35-0.07-0.72-0.02-1.08c-0.05-0.37-0.06-0.76-0.03-1.17c0.07-0.9,0.36-1.74,0.86-2.47
		c0.56-0.82,1.36-1.4,2.3-1.69c0.69-0.21,1.36-0.33,2-0.35c0.28-0.01,0.58,0,0.9,0.04c0.6,0.04,1.26,0.13,1.97,0.29
		c0.8,0.17,1.79,0.47,2.43,1.22c0.66,0.35,1.07,1.05,1.05,1.82c-0.05,1.54-0.57,2.73-1.53,3.54c-0.61,0.52-1.22,0.94-1.8,1.26
		c-0.44,0.24-0.92,0.42-1.45,0.55c-0.01,0.01-0.02,0.01-0.03,0.02c-0.79,0.47-1.55,0.68-2.26,0.65C30.52,23.99,30.43,24,30.35,24z"
		/>
	<path class="st0" d="M29.89,25.84c-0.52,0-0.97-0.04-1.37-0.13c-0.58-0.13-1.1-0.36-1.56-0.69c-0.55-0.4-0.95-0.96-1.2-1.67
		c-0.09-0.17-0.17-0.34-0.24-0.54c-0.2-0.53-0.3-1.12-0.32-1.8c-0.01-0.63,0.09-1.4,0.33-2.34c0.19-0.75,0.53-2.14,1.58-2.53
		c0.47-0.7,1.03-1.22,1.69-1.56c0.85-0.44,1.8-0.64,2.85-0.59c0.93,0.04,1.68,0.18,2.29,0.43c0.56,0.23,1.12,0.55,1.71,1
		c0.6,0.45,1.56,1.49,1.32,3.39c-0.11,0.91-0.38,1.82-0.81,2.7c-0.46,0.95-1.08,1.75-1.87,2.39c-0.31,0.25-0.62,0.47-0.92,0.66
		c-0.06,0.05-0.12,0.1-0.19,0.14c-0.35,0.25-0.73,0.45-1.15,0.6c-0.56,0.32-1.16,0.49-1.79,0.52
		C30.13,25.84,30.01,25.84,29.89,25.84z M29.86,19.75c-0.06,0.26-0.09,0.52-0.11,0.79c-0.02,0.48,0.01,0.81,0.05,1.03
		c0.14,0,0.38,0.01,0.61-0.03c0.18-0.18,0.3-0.3,0.37-0.38c0.25-0.29,0.56-0.5,0.9-0.61c0-0.08-0.01-0.16-0.02-0.24
		c-0.21-0.14-0.52-0.29-1.09-0.41C30.28,19.83,30.04,19.79,29.86,19.75z"/>
	<path class="st0" d="M22.11,59.48c0.06,0.11,0.17,0.36,0.34,0.75c0.2,0.46,0.39,0.93,0.56,1.4c0.18,0.49,0.31,0.86,0.4,1.09
		c0.09,0.26,0.2,0.55,0.32,0.85c0.13,0.32,0.22,0.55,0.28,0.69l0.07,0.16c0.04,0.09,0.1,0.23,0.18,0.37
		c0.05,0.09,0.2,0.33,0.48,0.75c0.23,0.34,0.53,0.77,0.9,1.27c0.34,0.45,0.54,0.7,0.68,0.87c0.01,0.02,0.02,0.04,0.04,0.06
		c0.08,0.14,0.19,0.28,0.3,0.42h8.96c0-0.28-0.04-0.57-0.16-0.83c-0.21-0.45-0.43-0.91-0.67-1.37c-0.56-1.54-0.63-1.66-0.73-1.84
		c-0.05-0.08-0.1-0.16-0.16-0.23c-0.18-0.5-0.39-1.1-0.62-1.8c-0.25-0.75-0.4-1.21-0.46-1.38c-0.03-0.11-0.06-0.21-0.11-0.31
		c-0.1-0.23-0.24-0.42-0.41-0.59c-0.02-0.09-0.05-0.18-0.06-0.26c-0.09-0.7-0.15-1.43-0.2-2.21c-0.03-0.51-0.04-0.9-0.05-1.21
		c0.21-0.3,0.45-0.62,0.72-1c0.24-0.33,0.45-0.62,0.63-0.88c0.55-0.62,1.01-1.15,1.41-1.58c0.53-0.22,0.92-0.65,1.1-1.17
		c0.64-0.67,0.96-1.02,1.13-1.33c0.08-0.11,0.2-0.26,0.35-0.45c0.38-0.48,0.82-1.06,1.33-1.74c0.52-0.7,1.08-1.64,0.8-2.72
		c-0.08-0.3-0.22-0.57-0.4-0.81c-0.08-0.17-0.13-0.27-0.13-0.27s0,0.01,0.01,0.02c-0.01-0.02-0.07-0.13-0.18-0.31
		c-0.08-0.12-0.27-0.39-0.61-0.8l-0.3-0.37c-0.04-0.06-0.08-0.13-0.13-0.2c-0.09-0.15-0.19-0.31-0.28-0.48
		c-0.13-0.24-0.25-0.46-0.38-0.68c-0.12-0.21-0.26-0.42-0.41-0.66l-0.29-0.45c-0.05-0.07-0.12-0.2-0.23-0.38
		c-0.12-0.21-0.29-0.51-0.5-0.89c-0.08-0.15-0.17-0.32-0.27-0.5c0,0,0,0,0-0.01c0.04-0.61,0.08-1.01,0.1-1.14
		c0.05-0.21,0.11-0.46,0.16-0.73c0.07-0.35,0.1-0.78,0.09-1.29c0-0.51-0.04-0.94-0.11-1.32c-0.1-0.53-0.34-1.07-0.74-1.64
		c-0.28-0.4-0.83-1.21-1.67-1.37c-0.07-0.02-0.14-0.05-0.21-0.07c-0.23-0.07-0.43-0.13-0.64-0.17c-0.26-0.05-0.45-0.07-0.61-0.08
		c-0.08,0-0.27-0.01-0.58-0.01c-0.56,0-1.16,0.13-1.89,0.44c-0.37,0.16-0.67,0.34-0.91,0.53c-0.31,0.11-0.6,0.27-0.83,0.53
		c-0.23,0.23-0.36,0.48-0.43,0.72c-0.11,0.2-0.28,0.53-0.51,0.97c-0.04,0.04-0.09,0.09-0.12,0.13c-0.13,0.16-0.32,0.43-0.78,1.24
		c-0.35,0.6-0.61,1.11-0.8,1.57c-0.15,0.35-0.4,0.9-0.76,1.64c-0.4,0.83-0.73,1.59-0.98,2.27c-0.26,0.7-0.46,1.36-0.6,1.97
		c-0.11,0.48-0.21,0.87-0.29,1.16c-0.1,0.35-0.24,0.94-0.4,1.75c-0.17,0.84-0.24,1.8-0.22,2.86c-0.06,0.33-0.09,0.6-0.09,0.84
		l0.01,2.16c0,1.15,0,2.05,0,2.69c-0.01,0.58-0.03,1.1-0.07,1.54c-0.06,0.68-0.01,1.43,0.16,2.23
		C21.85,58.88,21.96,59.21,22.11,59.48z M32.73,47.85c0.3-1.05,0.71-2.35,1.21-3.89c0.14,0.25,0.28,0.49,0.42,0.72l0.12,0.19
		c0.07,0.14,0.15,0.23,0.58,0.76c0.08,0.1,0.15,0.19,0.21,0.26c-0.4,0.53-0.75,1-1.06,1.39c-0.3,0.38-0.51,0.65-0.67,0.9
		c-0.16,0.18-0.49,0.52-0.96,1.02l0,0c-0.07,0.03-0.15,0.06-0.22,0.11C32.46,48.84,32.58,48.37,32.73,47.85z"/>
</g>
</svg>
