<?xml version="1.0" encoding="utf-8"?>
<!-- Generator: Adobe Illustrator 23.0.1, SVG Export Plug-In . SVG Version: 6.00 Build 0)  -->
<svg version="1.1" id="图层_1" xmlns="http://www.w3.org/2000/svg" xmlns:xlink="http://www.w3.org/1999/xlink" x="0px" y="0px"
	 viewBox="0 0 53 68" style="enable-background:new 0 0 53 68;" xml:space="preserve">
<style type="text/css">
	.st0{fill:#83584A;}
</style>
<g>
	<path class="st0" d="M34.32,31.14c0.09,0.33,0.19,0.57,0.28,0.81c0.09,0.19,0.23,0.52,0.84,1.33c0.47,0.57,0.94,1.14,1.45,1.57
		c0.23,0.24,0.52,0.43,0.7,0.57c0.09,0.14,0.23,0.29,0.42,0.48c0.28,0.29,0.47,0.48,0.66,0.67c0.23,0.19,0.42,0.29,0.56,0.33
		l0.19,0.1c0.09,0.05,0.19,0.05,0.61,0.1c0.28,0.05,0.61,0.05,0.89,0.1h0.66c0.09,0,0.14,0,0.19,0s0.14,0,0.23,0s0.14,0,0.19,0
		s0.05,0,0.09,0h0.05c0.09,0,0.28,0,0.47-0.05c0.19-0.05,0.37-0.1,0.52-0.14c0.09-0.05,0.19-0.05,0.28-0.1
		c0.05,0,0.09-0.05,0.14-0.1c0.14,0,0.28-0.1,0.42-0.19c0.09-0.05,0.14-0.14,0.23-0.29c0.09-0.14,0.19-0.29,0.23-0.43
		c0-0.05,0-0.05,0.05-0.1c0.05-0.1,0.14-0.29,0.23-0.48c0.14-0.24,0.23-0.62,0.33-1.09l0.05-0.05c0.23-0.24,0.23-0.57,0.09-0.86
		c0.05-0.33,0.05-0.71,0.05-1.05c0-0.57-0.09-1.14-0.14-1.71c-0.09-0.81-0.19-1.05-0.28-1.24c-0.09-0.14-0.19-0.29-0.33-0.52
		c-0.14-0.14-0.19-0.24-0.23-0.29c-0.05-0.1-0.05-0.19-0.09-0.24c-0.19-0.43-0.56-0.9-1.31-1.47c0,0-0.05,0-0.05-0.05
		c-0.05-0.05-0.09-0.1-0.09-0.14c-0.33-0.38-0.61-0.71-0.89-0.9c-0.05,0-0.05-0.05-0.09-0.05c-0.14-0.14-0.33-0.29-0.56-0.48
		c-0.05-0.05-0.09-0.1-0.14-0.1c-0.05-0.05-0.09-0.1-0.19-0.14c-0.42-0.33-0.8-0.57-1.17-0.71c-0.05,0-0.14-0.05-0.19-0.05
		c-0.09,0.05-0.23,0-0.37-0.05c-0.23-0.1-0.52-0.14-0.75-0.14c-0.05,0-0.05,0-0.05,0h-0.09c-0.05,0-0.09,0-0.19,0h-0.05
		c-0.14,0-0.23,0-0.47,0.1c-0.14,0-0.28,0.05-0.47,0.14l0,0c-0.09,0.05-0.19,0.1-0.33,0.14c-0.09,0.05-0.19,0.14-0.33,0.29
		l-0.14,0.14c-0.05,0.05-0.09,0.1-0.19,0.19c-0.14,0.1-0.23,0.19-0.33,0.29c-0.14,0.14-0.28,0.33-0.42,0.57
		c0,0.05-0.05,0.05-0.05,0.1c-0.19,0.19-0.33,0.33-0.42,0.52c-0.14,0.19-0.23,0.43-0.37,0.62c-0.05,0.14-0.14,0.29-0.19,0.38l0,0
		c0,0.05-0.09,0.24-0.19,0.52c-0.19,0.48-0.23,1.05-0.19,1.71C34.13,30.33,34.22,30.8,34.32,31.14z"/>
	<path class="st0" d="M24.67,68h0.52c0.05,0,0.09,0,0.09,0s0,0,0.05,0H48.6c0-0.1,0.05-0.24,0.05-0.33
		c0.19-0.29,0.33-0.71,0.23-1.33c0.09-0.48,0.09-0.67,0.09-0.76c0-0.19,0.05-0.33,0.05-0.48c0-0.14,0.05-0.38,0.05-0.67
		c0-0.05,0-0.14,0-0.19c0.09-0.33,0.19-0.67,0.23-1c0.05-0.43,0.05-0.95,0.05-1.52c0-0.52-0.05-1.09-0.09-1.76
		c-0.05-0.9-0.05-1.09-0.05-1.14c0-0.14,0-0.43,0.05-0.95c0-0.52,0-1.14,0-1.81c0-0.57-0.05-1.19-0.23-1.62
		c0.09,0.19,0.19,0.38,0.19,0.57c0-0.05,0-0.1,0-0.24c0-0.24,0-0.52-0.05-0.9c0-0.43,0-1.05-0.05-1.86
		c-0.05-1.14-0.09-1.38-0.09-1.47c0-0.05,0-0.1,0-0.14c0-0.1,0-0.33,0-0.71c0-0.48,0-0.95,0-1.43v-1.14c0-0.43-0.05-0.9-0.19-1.43
		c-0.14-0.52-0.23-0.86-0.37-1.14s-0.37-0.62-0.7-1c-0.23-0.29-0.37-0.48-0.47-0.52c-0.09-0.1-0.28-0.33-0.56-0.67
		c-0.52-0.57-0.61-0.67-0.8-0.81c-0.09-0.05-0.14-0.1-0.61-0.29c-0.47-0.24-0.98-0.33-1.64-0.33c-0.61,0-0.98,0-1.31,0.1
		c-0.19,0.05-0.33,0.1-0.47,0.14c-0.23,0.1-0.47,0.19-0.66,0.29c-0.05,0-0.19,0.1-0.84,0.38c-0.52,0.24-0.89,0.43-1.17,0.57
		s-0.56,0.29-0.84,0.43s-0.52,0.29-0.7,0.43c-0.23,0.14-0.52,0.33-0.84,0.62c-0.23,0.19-0.33,0.29-0.42,0.33
		c-0.09,0.05-0.14,0.14-0.52,0.48c-0.23,0.24-0.7,0.71-1.36,1.38s-1.17,1.24-1.55,1.62c-0.37,0.43-0.75,0.86-1.08,1.28
		c-0.33,0.43-0.66,0.86-0.94,1.28c-0.28,0.43-0.61,0.86-0.84,1.28c-0.23,0.43-0.56,0.95-0.98,1.62c-0.37,0.67-0.75,1.28-1.17,1.9
		c-0.28,0.48-0.47,0.76-0.56,0.9c-0.05,0.05-0.09,0.14-0.28,0.48c-0.14,0.24-0.33,0.62-0.56,1.09c-0.23,0.43-0.42,0.76-0.56,1
		c-0.05,0.29-0.33,0.76-0.7,1.38c-0.42,0.71-0.8,1.57-1.12,2.52s-0.52,2-0.61,3.04C23.55,66.57,23.45,67.76,24.67,68z"/>
</g>
</svg>
