<?xml version="1.0" encoding="utf-8"?>
<!-- Generator: Adobe Illustrator 23.0.1, SVG Export Plug-In . SVG Version: 6.00 Build 0)  -->
<svg version="1.1" id="图层_1" xmlns="http://www.w3.org/2000/svg" xmlns:xlink="http://www.w3.org/1999/xlink" x="0px" y="0px"
	 viewBox="0 0 53 68" style="enable-background:new 0 0 53 68;" xml:space="preserve">
<style type="text/css">
	.st0{fill:#83584A;}
</style>
<g>
	<path class="st0" d="M31.54,22.52c0.56,0.6,1.04,1.02,1.45,1.28c0.35,0.22,0.65,0.4,0.93,0.54c0.3,0.15,0.49,0.24,0.59,0.28
		l0.34,0.13c0.13,0.05,0.24,0.09,0.34,0.13c0.03,0.01,0.07,0.03,0.12,0.05c0.31,0.13,0.7,0.19,1.95,0.2c0.05,0,0.09,0,0.14,0
		c1.05,0,1.71-0.13,2.19-0.41c0.3-0.18,0.62-0.4,0.95-0.67c0.34-0.27,0.67-0.6,0.97-0.97c0.5-0.28,0.71-0.42,0.86-0.55
		c0.2-0.17,0.41-0.4,0.64-0.69c0.15-0.2,0.24-0.31,0.28-0.35c0.15-0.19,0.21-0.32,0.59-1.26c0.31-0.77,0.43-1.71,0.37-2.88
		c-0.05-1.04-0.32-1.92-0.8-2.63c-0.02-0.42-0.06-0.73-0.12-0.98c-0.09-0.36-0.19-0.63-0.31-0.86l-0.03-0.05
		c-0.05-0.1-0.11-0.22-0.2-0.39c-0.21-0.4-0.6-0.79-1.32-1.33c-0.69-0.52-1.21-0.8-1.69-0.92c-0.36-0.09-0.68-0.15-0.96-0.17
		C38.57,10,38.42,10,38.35,10c-0.05,0-0.16,0-0.36,0c-0.3,0-0.73,0.05-1.85,0.35c-0.81,0.22-1.41,0.39-1.83,0.53
		c-0.39,0.13-0.66,0.23-0.81,0.28c-0.02,0.01-0.03,0.01-0.05,0.02c-0.33,0.07-0.59,0.27-1.1,0.65c-0.41,0.31-0.78,0.65-1.11,1.01
		c-0.36,0.39-0.6,0.71-0.77,1.02c-0.19,0.35-0.32,0.71-0.37,1.08c-0.01,0.07-0.02,0.13-0.03,0.19c-0.06,0.25-0.06,0.49-0.06,0.71
		c0,0.07,0,0.14,0,0.21c-0.05,0.12-0.12,0.27-0.21,0.48c-0.26,0.6-0.38,1.19-0.36,1.75c0.02,0.56,0.23,1.23,0.65,2.11
		C30.48,21.19,30.97,21.91,31.54,22.52z"/>
	<path class="st0" d="M48,49.66c0-0.21,0-0.48,0-0.79c-0.01-0.29-0.02-0.68-0.03-1.17c-0.01-0.46-0.02-0.92-0.01-1.39
		c0.01-0.49,0.01-1.04,0.01-1.63c0-0.66-0.07-1.51-0.23-2.58c-0.14-0.97-0.29-2.09-0.44-3.32c-0.15-1.3-0.22-1.86-0.3-2.17h0.01
		l-0.02-0.07c-0.04-0.14-0.11-0.34-0.23-0.66c-0.11-0.3-0.23-0.58-0.35-0.82c-0.12-0.24-0.28-0.53-0.5-0.88
		c-0.14-0.22-0.24-0.38-0.29-0.47c-0.06-0.1-0.1-0.15-0.28-0.37c-0.12-0.15-0.27-0.31-0.44-0.49c-0.19-0.19-0.36-0.35-0.52-0.47
		c-0.15-0.11-0.33-0.24-0.57-0.39c-0.2-0.12-0.47-0.28-0.81-0.49c-0.3-0.18-0.48-0.29-0.53-0.32c-0.19-0.13-0.42-0.22-0.89-0.37
		c-0.41-0.13-0.95-0.22-1.7-0.27c-0.72-0.05-1.52-0.02-2.47,0.1c-0.97,0.12-1.85,0.23-2.27,0.79c-0.01,0.01-0.02,0.01-0.02,0.02
		c-0.12,0.09-0.24,0.16-0.35,0.22c-0.14,0.07-0.26,0.12-0.36,0.15c-0.17,0.06-0.31,0.11-0.44,0.16c-0.13,0.05-0.32,0.14-0.57,0.27
		c-0.28,0.14-0.51,0.28-0.69,0.42c-0.13,0.1-0.25,0.19-0.36,0.31l-0.05,0.05c-0.09,0.08-0.23,0.22-0.58,0.59
		c-0.25,0.27-0.49,0.54-0.72,0.81c-0.21,0.25-0.36,0.43-0.46,0.55c-0.08,0.1-0.2,0.23-0.33,0.38l-0.59,0.67
		c-0.3,0.33-0.56,0.68-0.78,1.03c-0.23,0.37-0.46,0.83-0.69,1.41c-0.19,0.48-0.37,0.92-0.55,1.33c-0.1,0.24-0.18,0.41-0.22,0.5
		c-0.08,0.13-0.13,0.26-0.19,0.4c-0.07,0.17-0.19,0.48-0.35,0.92c-0.22,0.62-0.28,0.86-0.31,1.05c-0.01,0.1-0.03,0.18-0.03,0.26
		c0,0.04-0.01,0.09-0.02,0.17c-0.02,0.15-0.06,0.36-0.12,0.64c-0.03,0.17-0.12,0.51-0.31,1.13c-0.19,0.61-0.35,1.28-0.47,1.98
		c-0.17,1.02-0.18,1.23-0.17,1.36c0,0.02-0.01,0.17-0.09,0.8c-0.07,0.53-0.2,1.34-0.37,2.42c-0.19,1.18-0.29,2.16-0.31,3
		c-0.01,0.71-0.02,1.3,0.13,1.74c-0.08-0.17-0.12-0.35-0.13-0.52c0,0.05,0,0.15,0,0.29c-0.01,0.44-0.01,0.6,0,0.69
		c0,0.11,0,0.44,0,1l-0.02,1.88c0,0.96,0,0.99,0.01,1.07l0.02,0.2c0.01,0.1,0.03,0.29,0.06,0.55c0.03,0.33,0.1,0.66,0.18,1
		c0.06,0.25,0.14,0.57,0.22,0.97c0.09,0.45,0.19,0.89,0.31,1.31c0.12,0.43,0.27,0.9,0.46,1.45c0.12,0.32,0.17,0.61,0.16,0.84
		c0,0.09-0.01,0.21-0.01,0.36c-0.01,0.05-0.01,0.1-0.01,0.15h0.02c0.01,0.13,0.03,0.27,0.06,0.41h16.69
		c0.01-0.02,0.02-0.04,0.02-0.05c0.01,0.02,0.01,0.04,0.02,0.05h2.75c0.01-0.02,0.01-0.03,0.02-0.05c0.01-0.03,0.02-0.05,0.03-0.08
		h-0.01c0.13-0.29,0.21-0.65,0.3-1.07c0.07-0.23,0.13-0.41,0.16-0.56c0.05-0.18,0.08-0.31,0.09-0.39c0.01-0.08,0.03-0.17,0.04-0.28
		c0.09-0.43,0.15-0.73,0.17-0.93c0.02-0.12,0.03-0.2,0.03-0.24c0-0.02,0.01-0.04,0.01-0.07c0.27-1.61,0.4-2.33,0.45-2.65
		c0.03-0.08,0.05-0.17,0.07-0.25c0.01-0.05,0.04-0.28,0.1-0.67c0.05-0.32,0.14-0.76,0.28-1.31c0.17-0.67,0.33-1.76,0.49-3.33
		c0.21-2.1,0.2-2.76,0.16-3.11c-0.04-0.41-0.04-0.64-0.04-0.75c0.01-0.26,0.03-0.68,0.04-1.26L48,49.66z M41.69,34.21
		c-0.02-0.03-0.03-0.07-0.05-0.11c0.04,0.02,0.07,0.04,0.11,0.07C41.73,34.18,41.71,34.2,41.69,34.21z"/>
</g>
</svg>
