<?xml version="1.0" encoding="UTF-8"?>
<svg width="126px" height="126px" viewBox="0 0 126 126" version="1.1" xmlns="http://www.w3.org/2000/svg" xmlns:xlink="http://www.w3.org/1999/xlink">
    <!-- Generator: Sketch 63.1 (92452) - https://sketch.com -->
    <title>Artboard</title>
    <desc>Created with Sketch.</desc>
    <g id="Artboard" stroke="none" stroke-width="1" fill="none" fill-rule="evenodd">
        <path d="M63,13 C90.6142375,13 113,35.3857625 113,63 C113,90.6142375 90.6142375,113 63,113 C35.3857625,113 13,90.6142375 13,63 C13,35.3857625 35.3857625,13 63,13 Z M63,21 C39.8040405,21 21,39.8040405 21,63 C21,86.1959595 39.8040405,105 63,105 C86.1959595,105 105,86.1959595 105,63 C105,39.8040405 86.1959595,21 63,21 Z" id="Oval" fill="#4DC7A0" fill-rule="nonzero"></path>
        <path d="M51.0420304,42.3073403 C52.4795748,40.7281536 54.8915186,40.5645176 56.5263799,41.8986686 L56.6926597,42.0420304 L74.6926597,58.4275519 C76.2763399,59.8691868 76.4357394,62.2896848 75.091537,63.9238801 L74.9471147,64.0900575 L56.9471147,83.704536 C55.4534407,85.3321825 52.9231105,85.4407887 51.295464,83.9471147 C49.7220724,82.5032298 49.5681396,80.0906473 50.9088558,78.4611657 L51.0528853,78.295464 L66.337,61.639 L51.3073403,47.9579696 C49.7281536,46.5204252 49.5645176,44.1084814 50.8986686,42.4736201 L51.0420304,42.3073403 Z" id="Path-2" fill="#4DC7A0" fill-rule="nonzero"></path>
    </g>
</svg>