<?xml version="1.0" encoding="UTF-8"?>
<svg width="32px" height="32px" viewBox="0 0 32 32" version="1.1" xmlns="http://www.w3.org/2000/svg" xmlns:xlink="http://www.w3.org/1999/xlink">
    <!-- Generator: Sketch 63.1 (92452) - https://sketch.com -->
    <title>Combined Shape</title>
    <desc>Created with Sketch.</desc>
    <g id="Page-1" stroke="none" stroke-width="1" fill="none" fill-rule="evenodd">
        <path d="M16,0 C24.836556,0 32,7.163444 32,16 C32,24.836556 24.836556,32 16,32 C7.163444,32 0,24.836556 0,16 C0,7.163444 7.163444,0 16,0 Z M19.7806602,7.75229222 C19.1948737,7.16650578 18.2451263,7.16650578 17.6593398,7.75229222 L17.6593398,7.75229222 L10.1922922,15.2193398 L10.094999,15.3263439 C9.60853272,15.9156019 9.64096381,16.7893318 10.1922922,17.3406602 L10.1922922,17.3406602 L17.6593398,24.8077078 L17.7663439,24.905001 C18.3556019,25.3914673 19.2293318,25.3590362 19.7806602,24.8077078 C20.3664466,24.2219213 20.3664466,23.2721739 19.7806602,22.6863874 L19.7806602,22.6863874 L13.3742727,16.28 L19.7806602,9.87361256 L19.8779534,9.76660851 C20.3644197,9.17735051 20.3319886,8.30362063 19.7806602,7.75229222 Z" id="Combined-Shape" fill="#B9BECC"></path>
    </g>
</svg>