<?xml version="1.0" encoding="UTF-8"?>
<svg width="100px" height="100px" viewBox="0 0 100 100" version="1.1" xmlns="http://www.w3.org/2000/svg" xmlns:xlink="http://www.w3.org/1999/xlink">
    <!-- Generator: Sketch 63.1 (92452) - https://sketch.com -->
    <title>Group</title>
    <desc>Created with Sketch.</desc>
    <g id="Page-1" stroke="none" stroke-width="1" fill="none" fill-rule="evenodd">
        <g id="Artboard" transform="translate(-126.000000, -119.000000)">
            <g id="Group" transform="translate(126.000000, 119.000000)">
                <rect id="Rectangle" fill="#FFFFFF" x="0" y="0" width="100" height="100" rx="8"></rect>
                <path d="M92,0 C96.418278,-8.11624501e-16 100,3.581722 100,8 L100,92 C100,96.418278 96.418278,100 92,100 L8,100 C3.581722,100 5.41083001e-16,96.418278 0,92 L0,8 C-5.41083001e-16,3.581722 3.581722,8.11624501e-16 8,0 L92,0 Z M55.6754001,41.41 C51.4334001,41.41 48.7874001,44.623 48.7874001,49.81 C48.7874001,55.375 51.2024001,58.231 55.8644001,58.231 C60.0854001,58.231 62.3744001,55.522 62.3744001,50.818 C62.3744001,50.188 62.3534001,49.663 62.2904001,49.033 L55.5284001,49.033 L55.5284001,51.658 L58.5314001,51.658 C58.5104001,54.325 57.6914001,55.606 56.0324001,55.606 C53.8694001,55.606 52.7774001,53.632 52.7774001,49.663 C52.7774001,46.093 53.7854001,44.14 55.6124001,44.14 C57.0614001,44.14 57.8174001,45.19 58.0064001,47.479 L61.9124001,46.597 C61.3244001,43.258 59.0984001,41.41 55.6754001,41.41 Z M39.9902,41.41 C35.8952,41.41 33.0182,43.93 33.0182,49.81 C33.0182,55.69 35.8952,58.21 39.9902,58.21 C44.0852,58.21 46.9622,55.69 46.9622,49.81 C46.9622,43.93 44.0852,41.41 39.9902,41.41 Z M71.1716001,41.41 C67.0766001,41.41 64.1996001,43.93 64.1996001,49.81 C64.1996001,55.69 67.0766001,58.21 71.1716001,58.21 C75.2666001,58.21 78.1436001,55.69 78.1436001,49.81 C78.1436001,43.93 75.2666001,41.41 71.1716001,41.41 Z M25.565,41.62 L21.68,41.62 L21.68,58 L31.823,58 L31.823,55.06 L25.565,55.06 L25.565,41.62 Z M39.9902,44.14 C41.8382,44.14 42.8672,45.652 42.8672,49.81 C42.8672,53.968 41.8382,55.48 39.9902,55.48 C38.1422,55.48 37.1132,53.968 37.1132,49.81 C37.1132,45.652 38.1422,44.14 39.9902,44.14 Z M71.1716001,44.14 C73.0196001,44.14 74.0486001,45.652 74.0486001,49.81 C74.0486001,53.968 73.0196001,55.48 71.1716001,55.48 C69.3236001,55.48 68.2946001,53.968 68.2946001,49.81 C68.2946001,45.652 69.3236001,44.14 71.1716001,44.14 Z" id="Combined-Shape" fill="#E16E3D"></path>
            </g>
        </g>
    </g>
</svg>