<svg xmlns="http://www.w3.org/2000/svg" xmlns:xlink="http://www.w3.org/1999/xlink" viewBox="0 0 375 375"><defs><style>.cls-1,.cls-2{fill:none;}.cls-2{clip-rule:evenodd;}.cls-3{isolation:isolate;}.cls-4{clip-path:url(#clip-path);}.cls-5{fill:url(#linear-gradient);}.cls-6{fill:#170f42;}.cls-6,.cls-80{opacity:0.7;}.cls-7{fill:#ba4c43;}.cls-8{fill:#e6a699;}.cls-8,.cls-94{mix-blend-mode:multiply;}.cls-9{fill:#d05f4a;}.cls-10{fill:#b89273;}.cls-11{fill:#e26d5d;}.cls-12{fill:#8f2e30;}.cls-13{fill:#a97d5b;}.cls-14{fill:#b69385;}.cls-15{fill:#434a1e;}.cls-16{fill:#698237;}.cls-17{fill:#3d1910;}.cls-18{fill:#a66727;}.cls-19{fill:#b6713b;}.cls-20{fill:#ca4a3b;}.cls-21{fill:#eee2b0;}.cls-22{fill:#cca98e;}.cls-23{clip-path:url(#clip-path-2);}.cls-24{fill:#703e17;}.cls-25{fill:#7f4c21;}.cls-26{fill:#54290d;}.cls-27{fill:#97623a;}.cls-28,.cls-29{fill:#35190a;}.cls-28{opacity:0.4;}.cls-29{opacity:0.7;}.cls-30,.cls-34{fill:#f6a382;}.cls-31,.cls-69{fill:#e0856e;}.cls-32{fill:#350600;}.cls-33{clip-path:url(#clip-path-3);}.cls-34,.cls-36,.cls-37,.cls-38,.cls-39,.cls-40,.cls-42,.cls-64,.cls-65,.cls-66,.cls-67,.cls-68,.cls-69,.cls-70,.cls-71,.cls-72,.cls-73,.cls-74{fill-rule:evenodd;}.cls-35{clip-path:url(#clip-path-4);}.cls-36{fill:#005363;}.cls-37{fill:#00a893;}.cls-38{fill:#003b47;}.cls-39{fill:#f48d8c;}.cls-40,.cls-44{fill:#6dc8c0;}.cls-41{clip-path:url(#clip-path-5);}.cls-42{fill:#00a892;}.cls-43{clip-path:url(#clip-path-6);}.cls-45{fill:#b0a28c;}.cls-46{fill:#c8b89e;}.cls-47{fill:#1c1b19;opacity:0.2;}.cls-48,.cls-49{fill:#634d41;}.cls-48,.cls-98{opacity:0.6;}.cls-49{opacity:0.5;}.cls-50{fill:#7a6957;}.cls-51{fill:#d5d327;}.cls-52{fill:#3c3b3a;}.cls-53,.cls-68{fill:#fff;}.cls-54{clip-path:url(#clip-path-7);}.cls-55{fill:#80593f;}.cls-56{fill:#285566;}.cls-57{fill:#1f4e64;}.cls-58{fill:#846860;}.cls-59{fill:#2e5d79;}.cls-60{fill:#386680;}.cls-61{fill:#6f7380;}.cls-62{fill:#4b8a8a;}.cls-63{fill:#8d92a2;}.cls-64{fill:#373c5b;}.cls-65{fill:#080a10;}.cls-66{fill:#070a18;}.cls-67{fill:#ecd669;}.cls-70,.cls-75{fill:#0c1531;}.cls-71{fill:#b3c3e0;}.cls-72{fill:#e48c71;}.cls-73{fill:#9badd3;}.cls-74{fill:#dcb362;}.cls-76{fill:#071639;}.cls-77{clip-path:url(#clip-path-8);}.cls-78{fill:#080c3c;}.cls-79{clip-path:url(#clip-path-9);}.cls-80{fill:#2c2b70;}.cls-81{fill:#dfcfcf;}.cls-82{fill:#fbfbef;}.cls-83{fill:#653e28;}.cls-84{fill:#f6c5a5;}.cls-85{fill:#744b32;}.cls-86{fill:#db6e4d;}.cls-87{fill:#edb67c;}.cls-88{fill:#f6c990;}.cls-89{fill:#dcc6c0;}.cls-90{fill:#ecd5bd;}.cls-91{fill:#a55129;}.cls-92{fill:#873822;}.cls-93,.cls-94{fill:#62b9c1;}.cls-94{opacity:0.45;}.cls-95{fill:#373635;}.cls-96{fill:#ad4d39;}.cls-97{fill:#7e722c;}.cls-98{fill:#494f21;}</style><clipPath id="clip-path"><rect class="cls-1" width="375" height="375"/></clipPath><linearGradient id="linear-gradient" x1="78.91" y1="-54.33" x2="78.91" y2="488.21" gradientUnits="userSpaceOnUse"><stop offset="0" stop-color="#0c1429"/><stop offset="0.18" stop-color="#20304c"/><stop offset="0.57" stop-color="#486893"/><stop offset="0.86" stop-color="#608bbf"/><stop offset="1" stop-color="#6a99d0"/></linearGradient><clipPath id="clip-path-2"><polygon class="cls-1" points="164.87 123.69 166.08 189.36 212.38 189.36 213.59 123.69 164.87 123.69"/></clipPath><clipPath id="clip-path-3"><rect class="cls-1" x="194.7" y="137.61" width="21.05" height="27.41"/></clipPath><clipPath id="clip-path-4"><path class="cls-1" d="M189.49,178.16h0l3.35.4s-19.49,8.83-18.65,10c1.08,1.53,2.89.26,2.89.26s7.24-4.8,9-6.25c.78-.63,3.71-2.46,3.71-2.46s-1.37,6.37-.87,10.53c.54,4.58-.15,12.61,0,15.14.2,4.82,2.52,19.47,2.22,21.51,0,0-1.19,3.35-.64,3.9s3.81.77,4.24.11-.17-1.47-.39-3,1.32-28.69,2.05-33.93c0,0,4.47,29.36,4.8,32,0,0-.35,2-.53,3.2-.14,1-.14,1.9,1.64,1.81s2.93,0,2.07-3.21.71-22.94-.46-26.55-2.56-34.67-2.56-34.67,6.77-7.32,7-9.84c0,0,2.25-9.72,1.53-14.18,0,0-1.46-2.36-2,.09,0,0-3.14,10.49-4,13.53l-6.75,6a3.6,3.6,0,0,1,1.73,3c-.11,1.22,1.8,2-3,8.58C195.91,174.13,194.38,176.91,189.49,178.16Z"/></clipPath><clipPath id="clip-path-5"><path class="cls-1" d="M200.68,158.36l5.58,4.25-4,7.26,1,16.94s-1.18,2.67-7.27,3.28a35.62,35.62,0,0,1-7.56.08l-1.34-19.6Z"/></clipPath><clipPath id="clip-path-6"><path class="cls-1" d="M191.37,155h0c-.16-3.37,1.7-5.2,5-4.57,2.12.41,3.65,2.13,2.69,5l-.25.77c.24-.29.51-.54.77-.53.58.05.31,1.52,0,2-1,1.51-1.52.88-1.54.8a6.56,6.56,0,0,1-1,1.77,5,5,0,0,0,.2,2.31c.11.17.81.29,1.26,1.15a4,4,0,0,1,.47,1.86l-5.24,5.88-8.74-.44c0-3.59,1-8.28,3-8.2.81,0,3.74,0,4.2-.54a8,8,0,0,0,.55-1.85,5.84,5.84,0,0,1-1.08-2.6.72.72,0,0,1-.21,0,2.24,2.24,0,0,1-1-1.1,2.13,2.13,0,0,1-.11-.75,1.47,1.47,0,0,1,.33-1.05.42.42,0,0,1,.29-.08A.82.82,0,0,1,191.37,155Z"/></clipPath><clipPath id="clip-path-7"><polygon class="cls-2" points="242.16 123.65 243.37 189.35 289.69 189.35 290.98 123.65 242.16 123.65"/></clipPath><clipPath id="clip-path-8"><polygon class="cls-1" points="136.71 244.51 87.95 244.58 89.15 310.33 135.51 310.33 136.71 244.51"/></clipPath><clipPath id="clip-path-9"><rect class="cls-1" x="114.93" y="250.53" width="19.88" height="27.02"/></clipPath></defs><title>page1</title><g class="cls-3"><g id="图层_1" data-name="图层 1"><g class="cls-4"><rect class="cls-5" x="-402.23" y="-2.05" width="962.27" height="594.62"/><polyline class="cls-6" points="519.62 45.95 461.65 45.95 461.53 37.89 451.77 37.89 451.63 31.5 420.22 45.95 419.9 45.95 410.66 45.95 411.22 -2.33 415.9 -2.33 419.34 -10.42 366.63 -10.42 366.48 -18.94 349.75 -18.94 349.61 -10.42 333.78 -10.42 333.4 -25.71 296.56 -25.71 296.18 -10.42 273.23 -10.42 276.67 -2.33 281.35 -2.33 281.65 23.63 200.01 23.63 202.38 31.27 205.61 31.27 207.7 257.9 284.38 257.9 304.98 257.9 311.71 411.23 375.61 411.23 517.24 402.75 519.83 53.6"/><polyline class="cls-6" points="156.17 85.63 101.94 85.63 101.83 78.09 92.7 78.09 92.56 72.1 63.19 85.63 62.88 85.63 54.24 85.63 54.77 40.46 59.14 40.46 62.36 32.89 13.05 32.89 12.91 24.91 -2.74 24.91 -2.88 32.89 -17.68 32.89 -18.03 18.58 -52.5 18.58 -52.86 32.89 -74.32 32.89 -71.11 40.46 -66.73 40.46 -66.45 64.74 -142.82 64.74 -140.6 71.89 -137.58 71.89 -135.63 283.9 -63.89 283.9 -44.62 283.9 -38.33 427.35 21.45 427.35 153.95 419.41 156.37 92.78"/><rect class="cls-7" x="329.4" y="88.71" width="238.87" height="312.84"/><polygon class="cls-8" points="352.71 96.02 353.59 375.32 367.13 375.32 363.2 96.02 352.71 96.02"/><rect class="cls-9" x="340.28" y="96.02" width="18.6" height="279.29"/><polygon class="cls-8" points="329.4 92.42 329.4 104.13 568.27 112.82 568.27 92.76 329.4 92.42"/><rect class="cls-10" x="322.97" y="83.13" width="251.73" height="12.89"/><rect class="cls-11" x="341.73" y="108.41" width="15.69" height="2.29"/><rect class="cls-11" x="341.73" y="114.2" width="15.69" height="2.29"/><rect class="cls-11" x="341.73" y="119.61" width="15.69" height="2.29"/><rect class="cls-11" x="341.73" y="125.4" width="15.69" height="2.29"/><rect class="cls-11" x="341.73" y="131.2" width="15.69" height="2.29"/><rect class="cls-11" x="341.73" y="136.99" width="15.69" height="2.29"/><rect class="cls-11" x="341.73" y="142.4" width="15.69" height="2.29"/><rect class="cls-11" x="341.73" y="148.19" width="15.69" height="2.29"/><rect class="cls-11" x="341.73" y="153.99" width="15.69" height="2.29"/><rect class="cls-11" x="341.73" y="159.78" width="15.69" height="2.29"/><rect class="cls-11" x="341.73" y="165.19" width="15.69" height="2.29"/><rect class="cls-11" x="341.73" y="170.98" width="15.69" height="2.29"/><rect class="cls-11" x="341.73" y="176.77" width="15.69" height="2.29"/><rect class="cls-11" x="341.73" y="182.57" width="15.69" height="2.29"/><rect class="cls-11" x="341.73" y="187.97" width="15.69" height="2.29"/><rect class="cls-11" x="341.73" y="193.77" width="15.69" height="2.29"/><rect class="cls-11" x="341.73" y="200.18" width="15.69" height="2.29"/><rect class="cls-11" x="341.73" y="205.97" width="15.69" height="2.29"/><rect class="cls-11" x="341.73" y="211.38" width="15.69" height="2.29"/><rect class="cls-11" x="341.73" y="217.17" width="15.69" height="2.29"/><rect class="cls-11" x="341.73" y="222.96" width="15.69" height="2.29"/><rect class="cls-11" x="341.73" y="228.76" width="15.69" height="2.29"/><rect class="cls-11" x="341.73" y="234.16" width="15.69" height="2.29"/><rect class="cls-11" x="341.73" y="239.96" width="15.69" height="2.29"/><rect class="cls-11" x="341.73" y="245.75" width="15.69" height="2.29"/><rect class="cls-11" x="341.73" y="251.55" width="15.69" height="2.29"/><rect class="cls-11" x="341.73" y="256.95" width="15.69" height="2.29"/><rect class="cls-11" x="341.73" y="262.75" width="15.69" height="2.29"/><rect class="cls-11" x="341.73" y="268.54" width="15.69" height="2.29"/><rect class="cls-11" x="341.73" y="274.33" width="15.69" height="2.29"/><rect class="cls-11" x="341.73" y="279.74" width="15.69" height="2.29"/><rect class="cls-11" x="341.73" y="285.53" width="15.69" height="2.29"/><rect class="cls-11" x="341.73" y="291.34" width="15.69" height="2.29"/><rect class="cls-11" x="341.73" y="297.14" width="15.69" height="2.29"/><rect class="cls-11" x="341.73" y="302.54" width="15.69" height="2.29"/><rect class="cls-11" x="341.73" y="308.34" width="15.69" height="2.29"/><rect class="cls-11" x="341.73" y="314.13" width="15.69" height="2.29"/><rect class="cls-11" x="341.73" y="319.92" width="15.69" height="2.29"/><rect class="cls-11" x="341.73" y="325.33" width="15.69" height="2.29"/><rect class="cls-11" x="341.73" y="331.12" width="15.69" height="2.29"/><rect class="cls-11" x="341.73" y="336.92" width="15.69" height="2.29"/><rect class="cls-11" x="341.73" y="342.71" width="15.69" height="2.29"/><rect class="cls-11" x="341.73" y="348.12" width="15.69" height="2.29"/><rect class="cls-11" x="341.73" y="353.91" width="15.69" height="2.29"/><rect class="cls-11" x="341.73" y="359.71" width="15.69" height="2.29"/><rect class="cls-11" x="341.73" y="365.5" width="15.69" height="2.29"/><rect class="cls-11" x="341.73" y="370.91" width="15.69" height="2.29"/><rect class="cls-12" x="326.3" y="117.28" width="3.11" height="91.07"/><rect class="cls-12" x="326.3" y="240.47" width="3.11" height="91.07"/><rect class="cls-13" x="324.08" y="208.35" width="5.32" height="3.7"/><rect class="cls-13" x="324.08" y="331.39" width="5.32" height="3.7"/><rect class="cls-14" x="-202.25" y="143.38" width="238.87" height="312.84"/><polygon class="cls-8" points="36.62 143.38 -202.25 143.38 -202.25 162.07 6.04 164.79 12.44 376.7 20.96 376.17 20.96 164.98 36.62 165.19 36.62 143.38"/><rect class="cls-10" x="-208.69" y="137.81" width="251.73" height="12.89" transform="translate(-165.64 288.5) rotate(-180)"/><rect class="cls-12" x="36.62" y="171.95" width="3.11" height="91.07" transform="translate(76.34 434.97) rotate(-180)"/><rect class="cls-12" x="36.62" y="295.14" width="3.11" height="91.07" transform="translate(76.34 681.36) rotate(-180)"/><rect class="cls-13" x="36.62" y="263.02" width="5.32" height="3.7" transform="translate(78.55 529.74) rotate(-180)"/><rect class="cls-14" x="20.08" y="150.7" width="16.53" height="224.62"/><polygon class="cls-8" points="-5.8 348.05 -74.67 348.05 -80.8 171.38 0.32 171.38 -5.8 348.05"/><polygon class="cls-8" points="-80.8 171.38 0.32 171.38 -5.8 348.05 -16.14 348.05 -21.49 193.31 -80.04 193.31 -80.8 171.38"/><path class="cls-15" d="M153.2,307.08c-2.52-15.92-18.61-26.7-32.87-20.68,3-10.25,4.59-22,.36-31.75-3.4-7.77-12.1-13.58-20.65-12.77-4.11-23.68-22-45.81-47.9-42.61a45.07,45.07,0,0,0-32.32,21c-3.06,5.11-4.4,13.34-1.9,19-1.06-.06-2.09-.07-3.07,0C-3.21,240-18.59,252.68-22,270.46a36.86,36.86,0,0,0-6,20.45A32.57,32.57,0,0,0-8.8,319.53a.58.58,0,0,0,.18,0C1.09,330,15.46,332,29.37,330.33c-.16,17.82,23.51,32.26,39.3,24.41a.82.82,0,0,0,.39-.41,37.16,37.16,0,0,0,14.2-3.81c6.8,6.46,20.13,4.06,28.3,2.28A43,43,0,0,0,120,350a1.69,1.69,0,0,0,2.08.66C139.45,343.59,156.45,327.64,153.2,307.08Z"/><path class="cls-16" d="M-17.18,257.5c-21.31,6.6-18.25,54.5-3.75,65.62,11,8.41,27.39,7.19,32.89-5.56S15.11,285.08.13,284.75,12.3,248.36-17.18,257.5Z"/><path class="cls-17" d="M83.74,301.53S73.86,318.64,58,329.69c-1.14-9.25-2.47-18.4-4-27.35-14.48-85.77-5.46-.22-5.46-.22S74.79,452.8,37.43,526.68s13.76-2.93,13.76-2.93c13-35.9,16-115.49,7.35-189.66C65.38,328.06,78.92,314.93,83.74,301.53Z"/><path class="cls-16" d="M90.15,295.51c18.31,2.51,30.92-18.95,33.72-34.31,1.52-8.4.95-17.41-4.34-24.43-5.44-7.24-13.51-8.63-22-8.29-4.49-33.91-56.43-46.54-77.37-19.86-.06.07-.09.15-.14.22-7.88,7.92-8.78,24.42-7.82,34.19.66,6.81,2.78,13.83,7,18.72-4.42,1.58-8.38,5.62-9.32,10C8.45,278.57,13.61,284,19.19,287c9.63,5.16,21.23,7,31.13,3.8,1.73,6.78,10.3,11.21,16.58,12.69C74.91,305.33,86.12,303.48,90.15,295.51Z"/><rect class="cls-18" x="71.7" y="49.51" width="238.87" height="312.84"/><rect class="cls-18" x="95.13" y="24.59" width="68.81" height="28.86"/><polygon class="cls-8" points="95.13 21.19 95.13 29.4 163.94 36.4 163.94 20.43 95.13 21.19"/><rect class="cls-10" x="86.94" y="17.79" width="85.19" height="6.79"/><polygon class="cls-19" points="238.97 209.42 220.21 209.42 218.97 198.97 239.8 199.32 238.97 209.42"/><polygon class="cls-19" points="246.42 222.5 227.66 222.5 226.41 212.04 247.24 212.4 246.42 222.5"/><polygon class="cls-19" points="174.16 260.29 155.4 260.29 154.15 249.84 174.98 250.19 174.16 260.29"/><polygon class="cls-19" points="163 273.37 144.23 273.37 142.99 262.92 163.82 263.26 163 273.37"/><polygon class="cls-19" points="155.55 143.22 136.79 143.22 135.54 132.77 156.37 133.12 155.55 143.22"/><polygon class="cls-19" points="96.38 172.24 77.62 172.24 76.37 161.79 97.2 162.14 96.38 172.24"/><polygon class="cls-19" points="102.58 98.88 83.82 98.88 82.57 88.42 103.41 88.78 102.58 98.88"/><polygon class="cls-19" points="176.38 180.48 153.94 180.48 152.69 170.03 177.21 170.38 176.38 180.48"/><polygon class="cls-19" points="200.57 330.51 181.81 330.51 180.56 320.06 201.39 320.41 200.57 330.51"/><polygon class="cls-19" points="110.77 324.39 92.01 324.39 90.76 313.94 111.59 314.29 110.77 324.39"/><polygon class="cls-19" points="223.49 322.18 204.73 322.18 203.48 311.73 224.31 312.08 223.49 322.18"/><polygon class="cls-19" points="304.45 268.14 285.69 268.14 284.44 257.69 305.27 258.04 304.45 268.14"/><polygon class="cls-19" points="243.83 117.12 225.07 117.12 223.82 106.67 244.65 107.02 243.83 117.12"/><polygon class="cls-19" points="148.59 126.05 133.57 126.05 132.57 117.68 149.25 117.96 148.59 126.05"/><polygon class="cls-19" points="306.81 188.85 288.05 188.85 286.8 178.4 307.63 178.75 306.81 188.85"/><polygon class="cls-19" points="303.12 175.33 284.36 175.33 283.11 167.02 303.94 167.3 303.12 175.33"/><polygon class="cls-19" points="94.31 288.78 75.55 288.78 74.3 278.33 95.13 278.68 94.31 288.78"/><polygon class="cls-8" points="71.7 53.23 71.7 60.88 310.57 66.57 310.57 53.45 71.7 53.23"/><polygon class="cls-10" points="316.36 56.95 63.18 56.95 60.56 49.51 319.63 49.51 316.36 56.95"/><polygon class="cls-20" points="140.36 192.76 84.26 192.76 82.57 102.91 142.05 102.91 140.36 192.76"/><polygon class="cls-21" points="89.14 189.37 87.64 107.89 136.98 107.89 135.48 189.37 89.14 189.37"/><rect class="cls-20" x="86.79" y="118.31" width="52.49" height="5.34"/><polygon class="cls-8" points="82.57 102.91 142.05 102.91 140.36 192.76 131.88 192.76 125.39 115.66 82.79 114.5 82.57 102.91"/><path class="cls-22" d="M146,94.46c-21-8.4-43.05-7.68-66,0v8.45h66Z"/><rect class="cls-22" x="82.57" y="192.76" width="60.39" height="3.2"/><polygon class="cls-8" points="82.57 195.96 140.61 200.39 140.61 195.96 82.57 195.96"/><polygon class="cls-20" points="217.28 192.76 161.18 192.76 159.49 102.91 218.97 102.91 217.28 192.76"/><polygon class="cls-21" points="166.06 189.37 164.56 107.89 213.9 107.89 212.4 189.37 166.06 189.37"/><rect class="cls-20" x="163.71" y="118.31" width="52.49" height="5.34"/><g class="cls-23"><rect class="cls-24" x="166.5" y="145.97" width="24.47" height="44.22"/><polygon class="cls-25" points="166.5 145.97 166.5 190.19 188.25 190.19 178.74 145.97 166.5 145.97"/><rect class="cls-26" x="168.19" y="148.61" width="21.48" height="9.11"/><rect class="cls-26" x="168.19" y="158.77" width="21.48" height="9.11"/><rect class="cls-26" x="168.19" y="168.93" width="21.48" height="9.11"/><rect class="cls-27" x="166.5" y="145.97" width="24.47" height="2.64"/><rect class="cls-26" x="168.19" y="179.09" width="21.48" height="9.11"/><polygon class="cls-28" points="178.74 145.97 188.25 190.19 190.97 190.19 190.97 145.97 178.74 145.97"/><rect class="cls-29" x="168.19" y="148.61" width="0.98" height="9.11"/><rect class="cls-29" x="168.19" y="158.77" width="0.98" height="9.11"/><rect class="cls-29" x="168.19" y="168.93" width="0.98" height="9.11"/><rect class="cls-29" x="168.19" y="179.09" width="0.98" height="9.11"/><path class="cls-30" d="M193.15,159.19l-1,4.28,4.73,1a5.38,5.38,0,0,1,.24-4.38Z"/><path class="cls-30" d="M192.1,160.09a1.4,1.4,0,0,1-1.22-1.45,10.34,10.34,0,0,1,.32-4,2.85,2.85,0,0,0,.4-1.11,3.43,3.43,0,0,1,1.48-2.72c1.64-1.38,4.22-.55,4.22-.55l.2.09c3.19.92,3.23,3,3.23,3a5,5,0,0,1-.4,2.79,9.09,9.09,0,0,1-1.84,2.53,5.7,5.7,0,0,1-3.49,1.42l-.29,1.23-1.57-.37a.78.78,0,0,0-.64-.77Z"/><path class="cls-31" d="M192.5,160.18a.64.64,0,0,1,.37.18l-.53,2.26,1.23.11a4.75,4.75,0,0,1,.53-2.45c1-.55,2.26-.7,3.56-1.53-.3-.07-1.41-.32-1.71-.37-.56-.1-1.11-.28-1.68-.35s-.58.37-.76.76a2.93,2.93,0,0,1-.23.43l-.09.13h0l-.11.11a.75.75,0,0,1-.58.22,1.79,1.79,0,0,1-1.56-.62,1.32,1.32,0,0,0,1.16,1Z"/><path class="cls-32" d="M198.6,149.05s4.3,1.52,2.72,4.58a3.06,3.06,0,0,1,.26,2.37c-.54,2.05-4,4.13-4,4.13a.94.94,0,0,1-.79.43l-1.42-.34a1,1,0,0,1-.74-.61,16.47,16.47,0,0,0-1.29-2.21c-.39-.72.57-1.73.57-1.73a.86.86,0,0,0-.6-1.47c-.64.16-.72,1.32-.72,1.32a.93.93,0,0,1-.41-.4l.45-1.65c0-.46.14-.53-.17-.9-2.57-1.28-.08-3.76-.08-3.76s-.32-.49,1.66-.83l1,.35S197.11,148.71,198.6,149.05Z"/><g class="cls-33"><path class="cls-34" d="M185.57,175.91s-4.43,5.83-7.7,7.79l-.82-.81a2.79,2.79,0,0,0,.22,2.48c1,1.46,2.75.25,2.75.25s6.87-4.55,8.55-5.92a9,9,0,0,0,1.56-2.31s.66,6,1.13,10c.52,4.35-.14,12,0,14.36.19,4.58,2.39,18.49,2.11,20.42,0,0-1.14,3.18-.61,3.71s3.61.73,4,.1-.16-1.39-.37-2.88,1.26-27.23,2-32.21c0,0,4.24,27.87,4.56,30.33,0,0-.34,1.94-.51,3-.13.91-.13,1.8,1.56,1.72s2.77,0,2-3,.68-21.77-.44-25.2S203,164.79,203,164.79s6.44-7,6.66-9.34c0,0,2.14-9.23,1.45-13.46,0,0-1.39-2.25-1.9.08,0,0-3,10-3.75,12.85L200,160.09s2.82,1.06,2.67,2.83c-.1,1.16-.19,2.54-4.74,8.74C197.89,171.66,190.21,174.72,185.57,175.91Z"/></g><path class="cls-34" d="M191.41,162.72a7.85,7.85,0,0,1,6.16-.2v2.31l-5.32-.37Z"/><g class="cls-35"><path class="cls-36" d="M186.92,188.16l17.73-3.95.29,41.66-4.78.44-5.22.45-5.61.11Z"/><path class="cls-37" d="M188.65,191.72h0v.45h.07v0h-.09v-.45h0Z"/><path class="cls-38" d="M189.94,189.31v4.05l0,.45V216.4l0,.35v4.86l0,.18V222l0,.06-.06-.05v-.18l0-.17v-.17l0-.18v-.34l0-.18v-1.56l0-.17v-3.31l0-.35V193.8l0-.45v-.9l0-.31v-.62l0-.3v-2h0v0h0v0h0v0l0,0v0l0,0h.06l0,0,0,0h.1v0h0v0h0v0h0v.12h0v0h0v.1Zm0-.42Z"/><path class="cls-38" d="M196.56,194.51l0,0h0l0,0h.09v0l0,0v0l0,0,0,0,0,.06,0,.05h0v0l0,0,0,.05,0,.05,0,0,0,.05,0,0,0,0,0,0,0,.05,0,0v.05l0,.05,0,0,0,.05,0,0,0,.07,0,.07,0,.07,0,.07,0,.07,0,.08,0,.07,0,.07,0,.07,0,.07,0,.07,0,.07v.06h0l0,.07,0,.15,0,.14.05.14,0,.14,0,.15,0,.14,0,.14,0,.1v.05l0,.14,0,.11,0,.11,0,.1,0,.11,0,.11,0,.06v0l0,.11,0,.11,0,.11,0,.11,0,.1,0,.11,0,.11,0,.11,0,.11,0,.11,0,.1,0,.11,0,.11,0,.11,0,.11,0,.11,0,.11,0,.1,0,.22,0,.22,0,.22,0,.21,0,.22,0,.22,0,.22,0,.22,0,.21,0,.22.07.44.07.43,0,.27,0,.17,0,.21,0,.22,0,.22,0,.22,0,.16,0,.16,0,.16,0,.16,0,.16,0,.16,0,.33.05.32,0,.32,0,.33,0,.32.05.33.05.32,0,.32,0,.33,0,.32,0,.32,0,.33,0,.32,0,.33,0,.32,0,.33,0,.17,0,.15,0,.32,0,.33,0,.32,0,.33.08.64.09.65.16,1.3.08.65.08.65,0,.32,0,.33,0,.32.05.32,0,.33,0,.32,0,.33,0,.32,0,.32,0,.33,0,.32,0,.32,0,.33,0,.32,0,.32.05.33,0,.32.05.32,0,.33.05.32.05.32,0,.25v.07l0,.17,0,.16,0,.16,0,.16,0,.16,0,.16,0,.16V225l0,.16,0,.16,0,.16,0,.16,0,.06-.06,0,0-.16,0-.16,0-.16,0-.16,0-.12v0l0-.16,0-.16,0-.16,0-.17,0-.16,0-.16,0-.16v-.08l0-.24-.05-.32-.06-.33-.05-.32-.05-.32,0-.33,0-.32,0-.32-.05-.33,0-.32,0-.32,0-.33-.05-.32,0-.32-.05-.33,0-.32,0-.33-.05-.32,0-.32-.05-.33,0-.32,0-.33-.09-.64-.08-.65-.17-1.3-.09-.65-.08-.64,0-.33,0-.32,0-.32,0-.33,0-.15,0-.17,0-.33,0-.32,0-.32,0-.33-.05-.32,0-.32-.05-.33,0-.32-.05-.32,0-.33-.05-.32-.05-.32,0-.32-.05-.33-.06-.32,0-.32,0-.16,0-.16,0-.16,0-.17,0-.16,0-.16,0-.21,0-.22,0-.22,0-.22,0-.17,0-.26-.07-.44-.07-.43,0-.22,0-.22,0-.21,0-.22,0-.22,0-.21,0-.22,0-.22,0-.21,0-.22,0-.11,0-.11,0-.1,0-.11,0-.11,0-.11,0-.11,0-.1,0-.11,0-.11,0-.11,0-.1,0-.11,0-.11,0-.1,0-.11,0-.11,0-.11v0l0-.06,0-.11,0-.11,0-.1,0-.11,0-.11,0-.14v0l0-.1,0-.15,0-.14,0-.14,0-.15,0-.14,0-.14,0-.14,0-.07v0l0-.06,0-.07,0-.07,0-.07,0-.07,0-.07,0-.07,0-.07,0-.07,0-.07,0-.07,0-.07,0-.07v-.05l0,0,0-.05v0l0-.05,0-.05v0l0,0,0-.05,0-.05,0,0,0,0,0,0,0-.05,0,0,0,0h0v0h0v-.06l0-.06v-.18h0v0h0v0h.05Z"/><path class="cls-38" d="M199.37,193.85l-.05.05-.11,0-.11,0H199l-.11,0-.12,0h-.11l-.11,0-.11,0h0l-.11,0-.11,0-.11,0-.11,0-.11,0-.11,0-.11,0h-.11l-.11,0-.11,0-.11,0-.11,0-.11,0H197l-.06,0-.23,0-.22,0-.13,0-.09,0-.22,0-.22,0-.13,0h0l-.15,0-.28,0-.29.05-.14,0-.15,0h-.44l-.06,0H194v-.06h0l0,.05h0l0,0,0,0h0l.07,0h.14l0,0h.1l.05,0h.1l.15,0,.14,0,.28-.06.29-.06.14,0h0l.14,0,.22,0,.22,0,.09,0,.13,0,.22,0,.22,0H197l.12,0h.11l.11,0,.11,0,.11,0h.11l.11,0,.11,0H198l.11,0h.11l.11,0h.11l.11,0h.23l.11,0h.22l.12,0h.11Z"/><path class="cls-38" d="M190.4,189.91h0v0h0l0,0v0l0,.06,0,.06,0,0v0l0,0v.08l0,0v0l0,.07,0,.08,0,.07v0l0,.06,0,.07,0,.05,0,.06,0,.06,0,.06,0,0,0,.05h0l0,.06v.09l0,0v.06l0,0v0l0,0h0v0l0,0v0l0,0v0l0,0v0l0,0,0,0v0l0,0,0,0v0l0,0,0,0,0,0,0,0v0l0,0,0,0,0,0,0,0,0,0,0,0,0,0,0,0,0,0,0,0,0,0h0l0,0,0,0h1l0,0h.12l0,0h0l0,0h0l0,0,0,0h0l0,0,0,0h0l0,0,0,0,0,0,0,0,0,0,0,0,0,0,0,0,0,0,0,0,0,0,0,0,0,0,0,0,0,0,0,0,0,0,0,0,0,0v0l0,0,0,0,0,0,0,0,0,0v0h0v0l0,0,0,0,0,0v0l0,0,0,0v0l0,0,0,0v0l0,0v0l0,0v0l0,0v0l0,0v0l0,0V191l0,0v-.08l0,0v-.08l0-.05,0-.05,0,0,0,0,0-.05v0h0v-.24l0,0,0,.06v.26h0v.08l0,.05,0,0,0,.06v.08l0,0V191l0,0v.06l0,0v.06l0,0v0l0,0v0l0,0v0l0,0v0l0,0,0,0v0l0,0,0,0,0,0v0l0,0,0,0,0,0,0,0h0v0l0,0,0,0,0,0,0,0,0,0,0,0,0,0,0,0,0,0,0,0,0,0,0,0,0,0,0,0,0,0,0,0,0,0,0,0,0,0,0,0,0,0,0,0,0,0,0,0,0,0,0,0,0,0,0,0,0,0,0,0h0l0,0,0,0h0l0,0h0l0,0h-.05l0,0h-1l0,0h-.24l0,0h0l0,0,0,0,0,0,0,0,0,0,0,0,0,0,0,0,0,0,0,0,0,0,0,0,0,0,0,0,0,0,0,0,0,0,0,0,0,0,0,0,0,0v0l0,0,0,0v0l0,0,0,0v0l0,0v-.05h0v-.06l0,0v-.09l0,0v-.1l0-.06h0v-.05l0-.06,0-.06,0-.06,0-.06,0-.06,0-.07v-.08l0-.07,0-.08,0-.07v0l0,0v-.15l0,0v-.06l0-.06v0h0V190h0Zm0,0Z"/><path class="cls-38" d="M196.62,189l0,0v.16l0,.06v.71h0v1.45h0v1.86l0,.15v.17l0,.13,0,.21v.21h0v0h0v0h0v0h-.11l0,0h-.08v0h0l0,0v0h0v-.21l0-.21v-.61l0-.15v-1.55h0V190h0v-1l0,0Z"/><path class="cls-38" d="M201.64,188.44v1.91l0,0v.08l0,0,0,0v0l0,0v0l0,0,0,0,0,0,0,0,0,0,0,0,0,0,0,0,0,0,0,0,0,0,0,0,0,0,0,0,0,0,0,0,0,0,0,0,0,0,0,0h0l0,0h0l0,0h0v0h-.06v0h-1l0,0h-.08v0h0l0,0h0l0,0h0v0h0v0h0l0,0h0v0h0v0h0l0,0,0,0,0,0h0l0,0,0,0,0,0,0,0,0,0,0,0,0,0,0,0,0,0v0l0,0,0,0,0,0v0l0,0v0l0,0v0l0,0v0l0,0v-.08l0,0v0l0-.07,0-.05v0l0-.06,0-.07,0-.06v-.06l0,0v-.25h0v-.71h.1v.08l0,.07v.54h0v.28l0,.06,0,.06,0,.06,0,.07V190l0,.07v.07l0,0v.11l0,0v.07l0,0v0l0,0v0l0,0v0l0,0,0,0v0l0,0,0,0,0,0,0,0,0,0v0l0,0h0l0,0,0,0,0,0v0h0v0h0v0h0v0h0v0h0v0h.07v0h.94l0,0h0v0h0l0,0,0,0,0,0,0,0,0,0,0,0,0,0,0,0,0,0,0,0,0,0,0,0,0,0,0,0,0,0,0,0,0,0,0,0,0,0,0,0,0,0v0l0,0,0,0v0l0,0v-.08l0,0v-1.85Zm-2.83.27Z"/><path class="cls-39" d="M181.45,179.48h0Zm-.12,0h0Z"/><path class="cls-40" d="M200.68,158.36l5.58,4.25-4,7.26,1,16.94s-1.18,2.67-7.27,3.28a35.62,35.62,0,0,1-7.56.08l-1.34-19.6Z"/><g class="cls-41"><path class="cls-42" d="M197.46,161.94a50.44,50.44,0,0,1,4.61,5.81c.24.43,4.51-5.22,4.19-5.81s-4.94-5.75-5.76-5Z"/></g></g><path class="cls-30" d="M185.44,171l-.52,5.31s.81,2.16,3.44,0l2.16-6.09h-5.14Z"/><g class="cls-43"><path class="cls-40" d="M183.63,171.74l3.29,2.58,7.33-1.18,6.65-7.53-3.44-3.38s-2.31,3.17-6.35.05l-4.19-.49a12.8,12.8,0,0,0-2,4.32Z"/><path class="cls-37" d="M187.83,161.86c.07,0,.06.14.1.2a3.07,3.07,0,0,1,.39.68,9.11,9.11,0,0,1,.64,3.13c.1,1.83,0,3.7-.07,5.53a4.8,4.8,0,0,1-.59,2.64c-1,1.29-3.33.65-4.13-.53a5.6,5.6,0,0,1-.61-3.49,22.12,22.12,0,0,1,.64-3.88Z"/></g><path class="cls-44" d="M188.3,174s-1.31,2.46.11,16.13c0,0,10.46,1.56,14-3l-1.11-20.24-2.9-3.2-9.49,6.23A9.71,9.71,0,0,1,188.3,174Z"/><path class="cls-34" d="M209.14,143.55h0l0,0,0,0h-.08v0h0v-.1h0v-.13l0-.54.07-.57v-.82l0-.14v-.7l0-.07V140h0v-.11l0-.05,0,0v-.23l0,0v0l0,0v0l0,0v-.05h0v0h0v0h0l0,0h0v0h.06v0h.93l.06,0h1.24l0,0h0v0h0v0h0v0h0v0h0v.06h0v.08h0v.1h0v.06h0V140h0v.29l0,.06v.08h0v.5l0,.07,0,.07v.07l0,.07,0,.07,0,.06,0,.07,0,.07,0,.06,0,.07,0,.07,0,.06,0,.07,0,.06,0,.13,0,.13-.05.13,0,.13,0,.07,0,.07,0,.06,0,.07v.06l0,.06,0,.06,0,.06,0,.06,0,.06,0,.06,0,.06,0,.12-.05.11,0,.06,0,.06,0,.06,0,.06v0l0,.06,0,.08,0,.08,0,.09,0,0v0l0,0v0h0v0h0l0,0h0l0,0h-.16l0,0,0,0,0,0,0,0V144h0v-.12h0v-.1h0v-.4l0-.05v-.08l0-.09,0-.08,0,0v0l0-.08,0-.08,0-.08,0-.08,0-.08H211l0,0,0,0h0l0,0,0,0h0l0,0h-.17l0,0,0,0,0,0h0l0,0,0,0h-.16l0,0,0,0,0,0,0,0v0h0l0,0,0,0H210l0,0,0,0,0,0,0,0h0v0h0v-.08h-.18l0,0,0,0h0l0,0v-.05l-.09.57-.14.53v.12h0v.07h0Z"/><path class="cls-34" d="M212.91,137.17h0l0,0h0l0,0h0l0,0v.09h0v.06h0v0h0v.2h0v.37l0,.06v.06l0,.06v.06l0,.06v.06h0l0,.06v.06l0,.11,0,.1,0,.11,0,.1,0,.1-.06.2-.06.2-.06.21,0,.1,0,.1,0,.1,0,.08v0l0,.11,0,.1,0,.1,0,.1,0,.1,0,.1,0,.11,0,.1,0,.1v.3l0,0v.1l0,.05h0v.1l0,.05v.1h0v0l0,.05h0l-.05,0-.21,0,0-.06h0v-.1h0v-.27h0v-.37l0-.05v-.11l0-.1,0-.1,0-.11,0-.1,0-.11,0-.1v-.05h0l0,0v.06l0,0,0,0h-.06v0h0v0l0,0v-.14h0v0h0v-.42h0v-.06l0-.06v-.06l0-.06v-.06l0-.06v-.06l0-.06v-.06l0-.06,0-.06V139l0-.06,0-.12,0-.11,0-.12,0-.12.08-.23,0-.11,0-.12,0-.12,0,0,0-.06v-.12l0,0v-.09l0,0v0l0,0,0,0v0l0,0h0v0h0l0,0v0h0v0h.2Z"/><path class="cls-34" d="M210.74,140v-.17h0v-.43h0l0,0v-.11l0-.05,0-.11,0-.11,0-.1,0-.11.06-.2,0-.1,0-.11v-.15l0,0v-.48l0,0v-.09l0-.05,0,0v-.06l0,0,0-.06,0-.05,0-.11,0-.11,0-.12,0-.11,0-.05,0-.06,0-.06,0,0h0v-.13h0v0h0v0h0v0H212l0,0h0v0h0v0h0v0h0v0h0v0h0v0h0v0h0v0h0v.6h0v.12l0,.12v.12l0,.12,0,.11,0,.12v.06l0,.18,0,.24,0,.12,0,.11,0,.12v.12l0,.12V139l0,.11v.3l0,.06v.2l0,.05v.21l0,0,0,.07,0,.07h0v0h0v.05h0v.07l0,0,0,0,0,0h-.18l0,0,0,0v-.07h0v-.07h0l0,0H211l0,0h0l-.1.08-.09-.14Z"/><path class="cls-34" d="M210.94,135.57H211l0,0,0,0,0,0h0v.08h0v0h0v1.66l0,.27v.66l0,.13v.27h0V140h0v0l0,0h-.24l0,0h0l0,0V140h0v0h0v-.06h0v0h0l-.07,0-.26,0-.06-.05h0v-.09h0v-.44h0v-.07l0-.47,0-.2v-.4l0-.07v-.2l0-.07v-.13l0-.07v-.13h0l0-.07v-.06l0-.13,0-.14,0-.13,0-.13,0-.13v0l0-.09,0-.13v-.21l0-.05v-.34l0,0v0h0v0h0v0h.06l0,0h.09Zm-.19,4.33Zm.27-4Z"/><path class="cls-34" d="M209.69,136.46h.06l0,0h0v0h0v0h0v0h0v.06h0V137h0v.09l0,.09v.09l0,.08,0,.18,0,.09,0,.1v.09l0,.1,0,.1v.1l0,.1h0v.88h0v.9h0v.09h0v.06h0l0,0,0,0,0,0,0,0h-.19v.13l0,.07,0,.06v.07h0l-.07,0-.3,0-.06-.05v-1.85h0v-1.93h0v-.08h0v-.08h0v0l0,0,0,0,0,0,0,0h.07Zm.53,3.57h0Z"/><path class="cls-34" d="M209.73,139l.1.16v.07l0,.07v.05h0v.14h0v.4l0,.07v.25l0,.07,0,.06v.06l0,.07,0,.12,0,.13v.06l0,.06,0,.13,0,.12,0,.13v.15l0,0v.06l0,0,0,.07,0,.06v.31h0v0h0v0h0v0h0v0h0v0h0v0h0v0h0v0h0v0h0v.06h0v.08h0v.16l0,.08v.08h0v.31h0l0,.1h0l0,0h0v0h0v0h0v0h-.05l-.07-.08h0l0-.1,0-.05,0,0,0,0,0,0h0v0l0,0,0-.07,0,0v-.05l0,0,0,0v-.11h0v-.34h0v-.64l0-.07,0-.07v-.26l0-.13,0-.12,0-.13,0-.06v-.06l0-.13,0-.12,0-.06v-.06l0-.06v-.07l0-.06v-.06l0-.06,0-.06v-.06l0-.06v-.12l0-.07v0l0,0,0-.05h0l0,0,0-.06v0l0,0,0-.06,0-.06Z"/><path class="cls-34" d="M208.45,139.86h0l0,0h0l0,0,0,0h0l0,0,0,0h0l0,0,0,0,0,0,0,0,0,0,0,0,0,0,0,0,0,0v0l0,0,0,0v0l0,0,0,0v0l0,0v.05l0,0v0l0,0v.06h0V141l0,0v.36l0,.12v.28h0v.31l0,0,0,0,0,0,0,0,0,0H209l0,0,0,0,0,0,0,0,0,0h0v0h0v.38h0v0l0,0v.09h0v.07h0v0H209l0,0h0l0,0h0l0,0,0,0,0,0,0,0,0,0v0h0v0l0,0v0l0,0v-.09l0,0v-.19l0-.06,0-.12,0-.06v-.28l-.06-.17,0-.08,0-.09h0l0-.08,0-.08v0l0,0v0l0,0v0l0,0v0l0,0,0,0v-.12l0,0v0l0,0,0,0v0l0,0,0,0,0,0v-.13h0v-.1h0v-.17h0v0h0v0h0v0h0v0h0v0h.41l0,0h0l0,0,0,0,0,0,0,0h0Zm.84,2Zm-1.17-2Zm0,0Zm0,0h0Zm0,0h0Zm0,0Zm0,0Zm0,0Z"/><path class="cls-34" d="M209.53,138h0v.2h0l.09-.07.07.1v.31h0v.23h0V139h0v1h0v.08h0v0h0v.48h0v.07l0,.07,0,.13h0l0,.06,0,.06v.2h0v.27h0v0h-.19v-.1h0v-.11h0v-.06h0v-.23l0-.07v-.06h0l0-.14,0-.07v-.06h0v-.46h0v-.57h0v-.55l0-.08v-.33l0-.24V138h0Zm0,0h0Zm0,0Z"/><path class="cls-34" d="M212.86,137.34h0l0,0h-.06v0h0v0h0v0h0v0h0v0h0v0h0v.05l0,0v.12h0l0,0v0l0,.05v.08l0,.08,0,.08,0,.08,0,.09,0,.07h0l0,.08,0,.09,0,.08,0,.09,0,.08,0,.09h0l0,.07,0,.09,0,.08,0,.09,0,.09,0,.08,0,.09,0,.08,0,.06,0,.06,0,.06,0,.06h0l0,.1,0,.06h0l0,.06h0v0h-.05v0h-.16v-.09h0v0h0v0h0v-.07h0l0-.06h0l0-.06,0-.1v0l0-.05,0-.06,0-.06,0,0,0-.09,0-.08,0-.09,0-.09,0-.08,0-.09,0-.09,0-.07h0l0-.09,0-.08,0-.09,0-.08,0-.09,0-.08h0l0-.07,0-.08,0-.08,0-.08,0-.08v0l0,0,0,0,0,0,0,0h0v0l0,0,0,0,0,0,0,0h0v0h0v0h0v0h0v0h0v0h0v0h.11Zm-.05.09Z"/><path class="cls-34" d="M212,136h.11v0h0v0h0v.08h0v.05h0v.41h0v1.35l0,.11h0v.61l0,.24v.59h0v.22h0V140h0l0,0,0,0h-.13l0,0,0,0h0v-.06h0v-.24h0v-.24l0-.12v-.23l0-.24v-.61h0l0-.12v-.79l0-.06v-.47h0v-.3h0v.09h0v.14h0v0l0,0v.07l0,0v0l0,.07,0,.07v.06l0,0v.1l0,.06v0h0l0,.07,0,.07,0,.06,0,.07,0,.13,0,.13,0,.07,0,.06,0,.07,0,.06h0l0,.06,0,.07,0,.08,0,.09,0,.08,0,.08,0,.09v0h0v0l0,0,0,0v0l0,0v0l0,0h0l0,.05v.07h0v0h-.05v0h0v-.2h0v-.22h0v0l0-.09,0-.08,0-.09,0-.08,0-.09,0-.06,0-.07h0l0-.06v-.06l0-.07,0-.06,0-.14,0-.13,0-.07v-.06l0-.07,0-.07v-.06l0-.07V137l0,0v-.07l0-.07,0-.06v-.18h0l0-.05v-.1h0v-.16l0,0v-.07h0v0h0l0,0H212Zm-1,3.11Zm0,0Zm0,0Z"/><ellipse class="cls-30" cx="193.45" cy="155.27" rx="0.96" ry="1.21"/><path class="cls-45" d="M183.62,141.33c0,.79.67,4.73-.6,4.54C186.54,146.4,186.94,137.92,183.62,141.33Z"/><path class="cls-45" d="M179.33,145.79c.7-5.44,3-3.93-.7-6.63C179.67,145.06,174.39,146.3,179.33,145.79Z"/><path class="cls-46" d="M187.81,139.54c1,6.26-9.68,3.23-9.67-1C176.71,131.56,188.44,135.55,187.81,139.54Z"/><path class="cls-47" d="M187.65,141.3c-5.1,6.74-15.07-6.34-6.18-6.64,6.5,2.57-4.67,4.12-1.93,6C180.21,140.35,186.11,144.48,187.65,141.3Z"/><path class="cls-46" d="M188.65,145.37c-1.48,1.84-1.87-.86-4.5-4C185.5,135.25,188.13,142,188.65,145.37Z"/><path class="cls-46" d="M190.86,133.74c-.37,3.55-5.14,9.51-3.92,4.39C189.39,137.86,189.31,135.47,190.86,133.74Z"/><path class="cls-46" d="M182.73,142.77c-.48,8.55-3.75-1.05-1.72-3.31C182.17,139.23,183.67,140.53,182.73,142.77Z"/><path class="cls-46" d="M189.93,137.13l0,0S189.93,137.15,189.93,137.13Z"/><path class="cls-46" d="M183.42,136c-.11,2.33-5.48,4.19-6.61.2C176.16,131,183.37,131,183.42,136Z"/><path class="cls-46" d="M178.8,132.53c-.94.09-1.16,2.92-2.11,1.41C175.91,132,175.88,131.49,178.8,132.53Z"/><path class="cls-46" d="M183,131.13c.89-.56.23,5-.38,2.63C181.19,132.13,180.33,133,183,131.13Z"/><path class="cls-48" d="M182.41,132c1.71.28-1.71,1,.68,1.73C183.33,131,183.51,131.59,182.41,132Z"/><path class="cls-49" d="M178.17,135.14c.25-.28,1.77.84,1-.21A1.73,1.73,0,0,0,178.17,135.14Z"/><path class="cls-49" d="M181.28,134.67c-.83,1.05,1.28-.09.42.06C181.87,134.43,181.34,134.94,181.28,134.67Z"/><path class="cls-50" d="M183.88,137.28a21.07,21.07,0,0,0-2.52-.24S183.82,137.28,183.88,137.28Z"/><path class="cls-50" d="M183.77,138a6,6,0,0,0-2.35-.83A8.21,8.21,0,0,1,183.77,138Z"/><path class="cls-50" d="M183.62,138.78a9.67,9.67,0,0,0-2.33-1.47A15.56,15.56,0,0,1,183.62,138.78Z"/><path class="cls-50" d="M178.3,140a10.75,10.75,0,0,1,1.84-2.49A8.23,8.23,0,0,0,178.3,140Z"/><path class="cls-50" d="M177.93,139.36a9.8,9.8,0,0,1,2-1.9A7.26,7.26,0,0,0,177.93,139.36Z"/><path class="cls-50" d="M177.67,138.57a9.37,9.37,0,0,1,2.28-1.25A6.81,6.81,0,0,0,177.67,138.57Z"/><circle class="cls-51" cx="181.56" cy="135.87" r="0.48"/><circle class="cls-52" cx="181.63" cy="135.94" r="0.28"/><circle class="cls-53" cx="181.63" cy="135.61" r="0.15"/><circle class="cls-51" cx="179.26" cy="136.22" r="0.48"/><circle class="cls-52" cx="179.33" cy="136.29" r="0.28"/><circle class="cls-53" cx="179.05" cy="136.07" r="0.15"/><path class="cls-49" d="M180.67,136.92a1,1,0,0,1,.1.59c-.08.22-1,.32-1.17-.08a.68.68,0,0,0,.49.23s.53,0,.62-.18a.9.9,0,0,0-.05-.55Z"/><path class="cls-49" d="M180.77,137.43a.65.65,0,0,0,.89-.23c0-.06,0,0,0,0a.62.62,0,0,1-.87.15Z"/><path class="cls-52" d="M181,136.65l-.68.12a.14.14,0,0,0,0,.11c0,.06.24.25.32.28a.33.33,0,0,0,.21,0S181.17,136.88,181,136.65Z"/><path class="cls-49" d="M180.31,137.94a.61.61,0,0,0,.48.19.56.56,0,0,0,.44-.28.88.88,0,0,1-.32.16.53.53,0,0,1-.35,0l-.12-.05A.15.15,0,0,0,180.31,137.94Z"/></g><polygon class="cls-8" points="159.49 102.91 218.97 102.91 217.28 192.76 208.8 192.76 202.31 115.66 159.71 114.5 159.49 102.91"/><path class="cls-22" d="M222.88,94.46c-21-8.4-43-7.68-66,0v8.45h66Z"/><rect class="cls-22" x="159.49" y="192.76" width="60.39" height="3.2"/><polygon class="cls-8" points="159.49 195.96 217.53 200.39 217.53 195.96 159.49 195.96"/><polygon class="cls-20" points="294.61 192.76 238.5 192.76 236.82 102.91 296.3 102.91 294.61 192.76"/><polygon class="cls-21" points="243.39 189.37 241.89 107.89 291.23 107.89 289.73 189.37 243.39 189.37"/><rect class="cls-20" x="241.04" y="118.31" width="52.49" height="5.34"/><g class="cls-54"><polygon class="cls-55" points="250.01 190.19 249.67 194.9 250.84 194.9 252.7 190.19 250.01 190.19"/><polygon class="cls-55" points="304.4 190.19 304.74 194.9 303.57 194.9 301.71 190.19 304.4 190.19"/><path class="cls-56" d="M249.1,179.43l1.16-9.9a5.06,5.06,0,0,1,5.23-4h43.2a5.1,5.1,0,0,1,5.19,3.8l1.69,10.12Z"/><path class="cls-57" d="M305.33,173.9s-4.35,1.16-6.06,3.6H255.39a5.38,5.38,0,0,0-5.24-3.37v6h55.64Z"/><rect class="cls-58" x="248.73" y="188.25" width="57.06" height="2.45"/><path class="cls-59" d="M309.58,173h-1.25a7,7,0,0,0-5.65,2.85,10.83,10.83,0,0,0-1.41,3l-23.92.38-23.92-.38a10.64,10.64,0,0,0-1.4-3,7,7,0,0,0-5.66-2.85h-1.24c-2.38,0-3.46,2.19-2.95,4.51.63,2.84,1.41,6.53,3.56,9.59a5.49,5.49,0,0,0,4.5,2.3h54.22a5.48,5.48,0,0,0,4.5-2.3c2.16-3.06,2.93-6.75,3.56-9.59C313,175.22,312,173,309.58,173Z"/><path class="cls-57" d="M303.09,184.37H251.61a1.3,1.3,0,0,1-1.3-1.3h0a4.12,4.12,0,0,1,4.12-4.13h46.26a3.7,3.7,0,0,1,3.7,3.71v.42A1.3,1.3,0,0,1,303.09,184.37Z"/><path class="cls-60" d="M276,183.62H251.44a1.14,1.14,0,0,1-1.13-1.14h0a3.63,3.63,0,0,1,3.63-3.64H276a1.14,1.14,0,0,1,1.14,1.14v2.5A1.14,1.14,0,0,1,276,183.62Z"/><path class="cls-60" d="M303.26,183.62H278.71a1.14,1.14,0,0,1-1.14-1.14V180a1.14,1.14,0,0,1,1.14-1.14h22.05a3.63,3.63,0,0,1,3.63,3.64h0A1.14,1.14,0,0,1,303.26,183.62Z"/><rect class="cls-61" x="232.42" y="142.9" width="26.89" height="0.44" transform="translate(-33.77 195.45) rotate(-40.8)"/><rect class="cls-62" x="255.22" y="133.19" width="1.85" height="2.53" transform="translate(-25.61 200.06) rotate(-40.8)"/><path class="cls-63" d="M262.65,136.5c-1.85-2.14-4.57-2.83-6.06-1.53s-1.22,4.08.63,6.22Z"/><path class="cls-64" d="M274.31,180.12a1.64,1.64,0,0,0,1.64,1.26h4.51a2.38,2.38,0,0,0,2.18-2.85C282.27,176.38,274.31,180.12,274.31,180.12Z"/><path class="cls-65" d="M260.25,175.59c-.17-.24-1.27-2.17-1.27-2.17h2.94c.84,0,3.4.57,4.71.58s11.85-.49,11.85-.49,4.86-.94,5.54-1-.56,3.31-.8,3.58-11.06,3.69-12,3.38S260.25,175.59,260.25,175.59Z"/><path class="cls-66" d="M272.42,178.22s-10.44-4.14-11.74-4.51-2.25-.46-2.89.19a2.18,2.18,0,0,0,0,3c.93,1,7.31,2.68,9.94,3.06s3.66.59,4,.65.63,0,.74-.36a8.05,8.05,0,0,0,.28-1.6C272.79,178.39,272.42,178.22,272.42,178.22Z"/><path class="cls-64" d="M269.26,181.34s.07.55-.29.55h-2.75c-1,0-2.67-.23-3.27-.94a3.4,3.4,0,0,1-.92-1.78c0-.5.52-1.12,1.26-1.27a7.8,7.8,0,0,1,2.91.48c.5.19,2.43.49,2.5.77S269.26,181.34,269.26,181.34Z"/><path class="cls-67" d="M268.76,161.67a1.65,1.65,0,0,0-.54-2.18,24.67,24.67,0,0,1-5.61-5.89c-1.95-3.3,2-5.75,6.08-7,.38.44.06,1.29-.26,1.72-.16.21-3.17,2.59-3.34,3.27s3.7,5.22,4.09,5.88A4,4,0,0,1,268.76,161.67Z"/><path class="cls-67" d="M277.09,157.82s-.44-.45.84.28c.91.53,4,5.68,5.35,7.89,1.94,3.31-1.86,5-5,6.82a3.19,3.19,0,0,1-.8-.43c-.08-.14.25-.49,0-.58s-.16-.27,0-.48,3.17-2.59,3.35-3.27-3.7-5.23-4.09-5.88S275.79,159.18,277.09,157.82Z"/><path class="cls-67" d="M271.05,156.3a5.93,5.93,0,0,0,3.21,0l.21.11,3.11,1.52-.33,5.51q0,.47-.06.9v.58s.22,4.57.16,4.77a3,3,0,0,1-.46.67c0,.12,0,.25.05.39a13.59,13.59,0,0,1-8.55,0c0-.14,0-.27.05-.39a3,3,0,0,1-.46-.67c-.05-.2.16-4.77.16-4.77v-.58q0-.43-.06-.9l-.33-5.51-2.19-4.88Z"/><path class="cls-68" d="M272.71,156.52h-.15a14.16,14.16,0,0,1-1.51-.22l-.51-.29c.83,2.2,2.59,2.53,4.22.76l.14-.15-.43-.21-.21-.11C273.37,156.44,273,156.51,272.71,156.52Z"/><path class="cls-69" d="M271.36,152.81l0,.89v2.11a.78.78,0,0,1-.35.49c1.15,1.24,2.06,1.24,3.21,0a.78.78,0,0,1-.35-.49V153.7l0-.89s-.64.12-1.29.28C272,152.93,271.36,152.81,271.36,152.81Z"/><path class="cls-34" d="M272.33,147.7h0a2.83,2.83,0,0,1,3.11,2.5l.24,2.17a2.84,2.84,0,0,1-2.5,3.12h0a2.84,2.84,0,0,1-3.12-2.5l-.24-2.18A2.83,2.83,0,0,1,272.33,147.7Z"/><path class="cls-70" d="M269.53,152.46a1.83,1.83,0,0,1-1.22-1.39s-1.23.09-1.64-.58,2.37-4.44,3.56-5.16,3.4.43,3.4.43-.17-.64,0-.86,1.43,0,1.91,2c0,0,.63-.4.9-.35s.28.64-.21,1c0,0,1.09.39,1.26,1.08s-.87.79-.87.79.17,1.66-.58,2.18l-.47-.2s-.23.08-.28-.33l-.05-.49a2.29,2.29,0,0,1-.84-1.29,3.47,3.47,0,0,1-1.56.39c-.52-.11-.31-.76-.31-.76a5.37,5.37,0,0,1-2.39,1.68l.08.75a1,1,0,0,1-.25.85Z"/><path class="cls-69" d="M270.1,153.33a.87.87,0,0,1-.19-1.72Z"/><path class="cls-69" d="M275.53,151a.86.86,0,1,1,.19,1.71Z"/><path class="cls-71" d="M264,165.16h17.26a.38.38,0,0,1,.38.48L280,174.79a.61.61,0,0,1-.57.48H265.92a.59.59,0,0,1-.56-.48l-1.72-9.15A.38.38,0,0,1,264,165.16Z"/><path class="cls-72" d="M270.07,178.81a5.31,5.31,0,0,1-1.52.36c-.82.06-.51.89-.49,1.28a1.36,1.36,0,0,0,.67,1,16,16,0,0,0,1.69-.39Z"/><path class="cls-70" d="M270,178.6s10.93-5.09,12.8-5.77,4-.75,4.65,1.23-.38,3.35-3.69,4.68-12.65,2.66-13,2.61-.42-.14-.6-.65a13.94,13.94,0,0,1-.4-1.61C269.72,178.94,269.83,178.64,270,178.6Z"/><path class="cls-73" d="M280.69,167.62l-.16.86-.65,3.42-.23,1.25a.58.58,0,0,1,0,.14.58.58,0,0,1-.52.34H265.61a.59.59,0,0,1-.56-.48l.13.72.18.92a.59.59,0,0,0,.56.48h11.29c1-.46,2-.92,2.9-1.3l.15-.8.31-1.66,1.1-5.87a.38.38,0,0,0-.38-.48h-.14Z"/><path class="cls-74" d="M262.89,149.86c-.61,2.15,1.55,4.51,3.6,6.5A4.4,4.4,0,0,1,267.8,159v.2a25.62,25.62,0,0,1-5.2-5.6A3,3,0,0,1,262.89,149.86Z"/><path class="cls-74" d="M277.3,163a2.15,2.15,0,0,1,.23-1.14s1.66,1.94,2.63,3.33H279C278.4,164.36,277.76,163.56,277.3,163Z"/><path class="cls-68" d="M273.48,154.17c-.13-.55-.36-.79-.66-.74-.53.07-.44,1-.44,1"/><circle class="cls-75" cx="273.84" cy="151.81" r="0.32"/><circle class="cls-75" cx="271.47" cy="151.97" r="0.32"/><rect class="cls-75" x="273.48" y="150.86" width="0.99" height="0.26" transform="translate(576.27 231.5) rotate(166.05)"/><rect class="cls-75" x="270.79" y="151.08" width="1.01" height="0.31" transform="translate(542.58 302.47) rotate(-180)"/><circle class="cls-61" cx="272.38" cy="170.01" r="1.19"/></g><path class="cls-53" d="M266,161.07a4.26,4.26,0,0,0,1.9-3.28c0-3.07-4.4-5.56-9.82-5.56s-9.82,2.49-9.82,5.56,4.39,5.55,9.82,5.55a15.22,15.22,0,0,0,5.85-1.1c.45.21,1.59.73,2.25,1,.84.32.5-.47.5-.47Z"/><circle class="cls-76" cx="253.58" cy="157.96" r="0.85"/><circle class="cls-76" cx="258.15" cy="157.96" r="0.85"/><circle class="cls-76" cx="262.65" cy="157.96" r="0.85"/><polygon class="cls-8" points="236.82 102.91 296.3 102.91 294.61 192.76 286.13 192.76 279.64 115.66 237.04 114.5 236.82 102.91"/><path class="cls-22" d="M300.21,94.46c-21-8.4-43-7.68-66,0v8.45h66Z"/><rect class="cls-22" x="236.82" y="192.76" width="60.39" height="3.2"/><polygon class="cls-8" points="236.82 195.96 294.86 200.39 294.86 195.96 236.82 195.96"/><polygon class="cls-20" points="140.36 313.75 84.26 313.75 82.57 223.91 142.05 223.91 140.36 313.75"/><polygon class="cls-21" points="89.14 310.36 87.64 228.88 136.98 228.88 135.48 310.36 89.14 310.36"/><rect class="cls-20" x="86.79" y="239.3" width="52.49" height="5.34"/><g class="cls-77"><rect class="cls-78" x="114.93" y="250.53" width="19.88" height="26.77"/><g class="cls-79"><polyline class="cls-80" points="144.11 270.22 139.94 270.22 139.93 269.51 139.23 269.51 139.22 268.95 136.95 270.22 136.93 270.22 136.26 270.22 136.31 266 136.64 266 136.89 265.3 133.09 265.3 133.08 264.56 131.88 264.56 131.87 265.3 130.73 265.3 130.7 263.96 128.04 263.96 128.02 265.3 126.36 265.3 126.61 266 126.95 266 126.97 268.27 121.09 268.27 121.26 268.94 121.49 268.94 121.64 288.7 127.17 288.7 129.84 288.7 133.78 288.7 133.81 292.17 143.94 301.34 144.13 270.88"/></g><path class="cls-81" d="M135.2,277.77H114.55v-27.7H135.2Zm-19.89-.93h19.12V251H115.31Z"/><rect class="cls-81" x="114.93" y="266.01" width="19.88" height="0.74"/><circle class="cls-82" cx="120.21" cy="255.81" r="2.89"/><path class="cls-83" d="M104.08,270.53s4.37-.55,2.78,2.94c-1.68,3.7-4.4.64-4.4.64Z"/><path class="cls-84" d="M99.94,284.19h0a4.41,4.41,0,0,1-2-1l.86-9.44,3.54.32-.84,9.29C101.41,284.3,100.75,284.26,99.94,284.19Z"/><circle class="cls-84" cx="101.09" cy="273.98" r="4.39" transform="translate(-173 374.76) rotate(-89.94)"/><path class="cls-84" d="M102.09,279.9h0a2.08,2.08,0,0,1-1.89-2.26l.27-3,5-.27-.27,2.93A2.86,2.86,0,0,1,102.09,279.9Z"/><path class="cls-84" d="M105.24,275.34l.83,1.49a.35.35,0,0,1-.37.49l-1.12.11Z"/><path class="cls-85" d="M101.19,275.46s5-2.54,3.74-4.85c-2.25-4.27-6.74-.61-6.74-.61Z"/><path class="cls-85" d="M99.32,269.41s-4,.51-3.6,3.28c.37,2.35,0,1.86-1.21,2.75a4.67,4.67,0,0,0-2,4.26l7,.63s3-1.22.73-4.37c0,0,.07-2.28,1.77-2.44Z"/><path class="cls-84" d="M101.19,275.46a1.21,1.21,0,1,1-1.09-1.31A1.2,1.2,0,0,1,101.19,275.46Z"/><path class="cls-86" d="M97.8,281.81a4.18,4.18,0,0,0,4.1,1.15l8.46,6.7,1.71,8.73v.83H104.7s-9.13-11.68-7.57-17.41A.9.9,0,0,1,97.8,281.81Z"/><path class="cls-87" d="M163.29,295.51l2.33,3.05a3.76,3.76,0,0,0,2.41-.45v0a3,3,0,0,0,.37-2.53,7.22,7.22,0,0,1-.27-4.21c.34-1.56-.42-2.46-1.61-.68Z"/><path class="cls-88" d="M165.14,296l2.12,3.21a3.71,3.71,0,0,0,2.43-.26v0a3,3,0,0,0,.55-2.5,7,7,0,0,1,0-4.22c.44-1.53-.26-2.49-1.57-.8Z"/><path class="cls-89" d="M102.45,299.17a6.11,6.11,0,0,0-.57-2.95l-2-4.27-2-4.28A6.2,6.2,0,0,0,96,285.33L94.33,284l-.11,2.14a6.23,6.23,0,0,0,.57,2.95l2,4.27,2,4.28a6.25,6.25,0,0,0,1.89,2.35l1.7,1.29Z"/><path class="cls-90" d="M169.91,303.41H95.81a1.64,1.64,0,0,1-1.6-1.67v-.86a1.63,1.63,0,0,1,1.6-1.66h74.1a1.62,1.62,0,0,1,1.59,1.66v.86A1.63,1.63,0,0,1,169.91,303.41Z"/><rect class="cls-91" x="93.23" y="303.41" width="78.27" height="5.18"/><rect class="cls-92" x="171.5" y="288.1" width="4.24" height="29.35"/><rect class="cls-92" x="90.33" y="282.71" width="4.24" height="34.74"/><path class="cls-93" d="M127.73,287.73c-3.84-.4-11.19-.81-15.92.52l-.11,0c-3.36,1-5.4,3.85-4.94,6.82L110,316h59V299.22a6.1,6.1,0,0,0-2.5-4.8l-.06,0a8.42,8.42,0,0,0-4.06-1.65C151.25,291.24,146.7,290.12,127.73,287.73Z"/><path class="cls-94" d="M166.46,294.38c-.1-.08-.22-.15-.32-.22-15.89,10.25-40.75,7-59.36,1.09L110,316h59V299.22a6.1,6.1,0,0,0-2.5-4.8Z"/><path class="cls-95" d="M119.44,275.57l-6.22,4.85a.41.41,0,0,0-.08.55l2.21,3.19a.4.4,0,0,0,.58.08l6.1-4.91a.4.4,0,0,0,.08-.53L120,275.67A.4.4,0,0,0,119.44,275.57Z"/><path class="cls-84" d="M105,290.13a.77.77,0,0,0-.15-.33l0-.06,0,0,.07,0,.24.16.56.33,1.19.64c.8.43,1.62.84,2.43,1.25h0l-1.27.32L115.49,282l1.35.93-7.18,10.7a1,1,0,0,1-1.24.34h0c-.83-.42-1.65-.83-2.48-1.27l-1.24-.68-.63-.37-.33-.22a2,2,0,0,1-.21-.16.84.84,0,0,1-.15-.14l-.1-.12a1,1,0,0,1-.19-.41Z"/><path class="cls-84" d="M115.18,283.75s-1.68-1.23.45-2.07a10.88,10.88,0,0,0,3.22-2.09.72.72,0,0,1,.93,0h0a.7.7,0,0,1,.27.78,4.84,4.84,0,0,1-3.64,3.66Z"/><polygon class="cls-86" points="106.1 289.78 102.47 291.3 99.99 286.64 102.83 285.93 106.1 289.78"/><polygon class="cls-96" points="103.5 286.72 106.1 289.78 106.7 289.46 103.5 286.72"/></g><polygon class="cls-8" points="82.57 223.91 142.05 223.91 140.36 313.75 131.88 313.75 125.39 236.65 82.79 235.5 82.57 223.91"/><path class="cls-22" d="M146,215.45c-21-8.4-43.05-7.68-66,0v8.46h66Z"/><rect class="cls-22" x="82.57" y="313.75" width="60.39" height="3.2"/><polygon class="cls-8" points="82.57 316.95 140.61 321.38 140.61 316.95 82.57 316.95"/><polygon class="cls-20" points="217.28 313.75 161.18 313.75 159.49 223.91 218.97 223.91 217.28 313.75"/><polygon class="cls-21" points="166.06 310.36 164.56 228.88 213.9 228.88 212.4 310.36 166.06 310.36"/><rect class="cls-20" x="163.71" y="239.3" width="52.49" height="5.34"/><polygon class="cls-8" points="159.49 223.91 218.97 223.91 217.28 313.75 208.8 313.75 202.31 236.65 159.71 235.5 159.49 223.91"/><path class="cls-22" d="M222.88,215.45c-21-8.4-43-7.68-66,0v8.46h66Z"/><rect class="cls-22" x="159.49" y="313.75" width="60.39" height="3.2"/><polygon class="cls-8" points="159.49 316.95 217.53 321.38 217.53 316.95 159.49 316.95"/><polygon class="cls-20" points="294.61 313.75 238.5 313.75 236.82 223.91 296.3 223.91 294.61 313.75"/><polygon class="cls-21" points="243.39 310.36 241.89 228.88 291.23 228.88 289.73 310.36 243.39 310.36"/><rect class="cls-20" x="241.04" y="239.3" width="52.49" height="5.34"/><polygon class="cls-8" points="236.82 223.91 296.3 223.91 294.61 313.75 286.13 313.75 279.64 236.65 237.04 235.5 236.82 223.91"/><path class="cls-22" d="M300.21,215.45c-21-8.4-43-7.68-66,0v8.46h66Z"/><rect class="cls-22" x="236.82" y="313.75" width="60.39" height="3.2"/><polygon class="cls-8" points="236.82 316.95 294.86 321.38 294.86 316.95 236.82 316.95"/><polygon class="cls-8" points="71.7 80.06 71.7 92.18 310.57 100.24 310.57 80.06 71.7 80.06"/><rect class="cls-13" x="65.27" y="76.46" width="251.73" height="7.2"/><polygon class="cls-97" points="312.54 376.17 69.41 375.32 69.41 344.76 312.54 344.76 312.54 376.17"/><polygon class="cls-98" points="69.41 339.53 69.41 351.23 312.54 354.94 312.54 338.11 69.41 339.53"/><polygon class="cls-10" points="312.86 344.76 69.41 344.76 62.85 334.31 319.42 334.31 312.86 344.76"/></g></g></g></svg>